<?xml version="1.0" standalone="no"?>
<!DOCTYPE svg PUBLIC "-//W3C//DTD SVG 20010904//EN"
 "http://www.w3.org/TR/2001/REC-SVG-20010904/DTD/svg10.dtd">
<svg version="1.0" xmlns="http://www.w3.org/2000/svg"
 width="700.000000pt" height="700.000000pt" viewBox="0 0 700.000000 700.000000"
 preserveAspectRatio="xMidYMid meet">
<metadata>
Created by potrace 1.11, written by Peter Selinger 2001-2013
</metadata>
<g transform="translate(0.000000,700.000000) scale(0.100000,-0.100000)"
fill="#000000" stroke="none">
<path d="M0 3500 l0 -3500 3500 0 3500 0 0 3500 0 3500 -3500 0 -3500 0 0
-3500z m4070 1960 c488 -14 734 -58 975 -175 333 -160 534 -436 589 -808 49
-325 -19 -643 -183 -858 -102 -135 -271 -263 -483 -366 -86 -42 -118 -62 -115
-73 2 -8 225 -378 495 -822 270 -444 496 -816 502 -827 l11 -21 -569 0 -568 0
-425 777 -425 778 -152 3 -152 3 0 -781 0 -780 -1222 2 -1223 3 -3 458 -2 457
740 0 740 0 0 1513 c0 833 3 1517 7 1520 9 10 1106 8 1463 -3z"/>
<path d="M3603 4643 l-33 -4 0 -423 0 -423 113 -6 c456 -27 782 38 907 181
130 147 131 385 2 520 -115 122 -305 163 -729 160 -125 0 -243 -3 -260 -5z"/>
</g>
</svg>
