<?xml version="1.0" standalone="no"?>
<!DOCTYPE svg PUBLIC "-//W3C//DTD SVG 20010904//EN"
 "http://www.w3.org/TR/2001/REC-SVG-20010904/DTD/svg10.dtd">
<svg version="1.0" xmlns="http://www.w3.org/2000/svg"
 width="349.000000pt" height="349.000000pt" viewBox="0 0 349.000000 349.000000"
 preserveAspectRatio="xMidYMid meet">
<metadata>
Created by potrace 1.11, written by Peter Selinger 2001-2013
</metadata>
<g transform="translate(0.000000,349.000000) scale(0.100000,-0.100000)"
fill="#000000" stroke="none">
<path d="M0 1750 l0 -1740 1740 0 1740 0 0 1740 0 1740 -1740 0 -1740 0 0
-1740z m2148 970 c355 -28 551 -147 634 -388 19 -57 23 -87 23 -197 0 -110 -4
-140 -23 -198 -45 -129 -131 -217 -294 -302 l-78 -41 246 -404 c136 -223 249
-411 251 -418 4 -10 -53 -12 -278 -10 l-283 3 -209 383 -209 382 -74 0 -74 0
0 -385 0 -385 -610 0 -610 0 0 230 0 230 365 0 365 0 0 748 c0 412 3 752 7
755 10 11 712 8 851 -3z"/>
<path d="M1780 2106 l0 -216 130 0 c289 0 419 68 420 218 0 66 -18 110 -59
145 -55 46 -118 59 -313 64 l-178 5 0 -216z"/>
</g>
</svg>
