<?xml version="1.0" standalone="no"?>
<!DOCTYPE svg PUBLIC "-//W3C//DTD SVG 20010904//EN"
 "http://www.w3.org/TR/2001/REC-SVG-20010904/DTD/svg10.dtd">
<svg version="1.0" xmlns="http://www.w3.org/2000/svg"
 width="299.000000pt" height="299.000000pt" viewBox="0 0 299.000000 299.000000"
 preserveAspectRatio="xMidYMid meet">
<metadata>
Created by potrace 1.11, written by Peter Selinger 2001-2013
</metadata>
<g transform="translate(0.000000,299.000000) scale(0.100000,-0.100000)"
fill="#000000" stroke="none">
<path d="M0 1495 l0 -1495 1493 2 1492 3 3 1493 2 1492 -1495 0 -1495 0 0
-1495z m1990 816 c316 -68 470 -298 405 -606 -27 -128 -113 -229 -258 -306
-34 -17 -64 -33 -66 -35 -2 -2 362 -608 417 -691 l14 -23 -245 0 -245 0 -178
330 -179 329 -67 1 -68 0 0 -330 0 -330 -520 0 -520 0 0 195 0 195 315 0 315
0 0 651 0 652 393 -6 c342 -5 404 -8 487 -26z"/>
<path d="M1520 1805 l0 -185 128 0 c193 0 286 30 330 106 28 49 26 130 -5 172
-52 70 -131 92 -331 92 l-122 0 0 -185z"/>
</g>
</svg>
