<svg viewBox="0 0 171.88 36.11" xmlns="http://www.w3.org/2000/svg" preserveAspectRatio="none"><title>Red brush</title><path fill="#2AFC98" d="M152.82.21c-.61.92-2.06.39-2.6,1.06,0-.64-.91.23-.9-.54A14.19,14.19,0,0,0,152.82.21Zm-11.48,0c-.18-.2-1.21-.41-1.41-.11C140.54,0,141,.7,141.34.26Zm11.18,1.82a1,1,0,0,1,.78.06c-.11-.7.57-.47.55-1.06l-.47,0C153.48,1.84,152.64,1.54,152.52,2.08Zm-35.15-.86c.67.43,1.68,0,2,.47,0-.8,1.51-.57,2.42-.75C120.88.38,118.68.82,117.37,1.21Zm21.86,1.87a2.89,2.89,0,0,1-.71,1c.19,0,.37.08.29.34.75.2.65-.61,1.3-.53.07-.45,0-.8-.24-1C139.83,3.2,139.48,3.09,139.24,3.08Zm14.64,1.77,0-.31c0-.1,0-.19-.14-.17-.26.57,0-.46-.29-.33C153,4.41,153.55,4.71,153.88,4.85Zm4.48,1c.19.17.57.2.59.52-.48,0-.76-.47-1,.08.86.3,1.12.21,2,.47,0-.64.08-.35.49-.28-.12-.66-.71-1.25-.15-2.06C159.41,4.68,159,5.42,158.36,5.83Zm-41-4c-1-.88-1.94.15,0,0ZM154.2,4.72c.75,1.36,2.45.3,3.67,1.39a1,1,0,0,0,.22-.77c-.7-.26-.5,0-1,.24C156.72,4.52,155.37,4.5,154.2,4.72Zm6.44,2.08c.31,0,.17.44.6.36,0-.21,0-.41,0-.62A.69.69,0,0,0,160.64,6.8ZM95.54,3c.45-.09.39.25.77.22-.2-.64.68,0,.66-.42C96.46,2.79,95.63,2.45,95.54,3Zm66.57,5.2c.29.09.25.47.76.37C163,8,162.28,7.59,162.11,8.17Zm-16.74-1c.76.17,3.12.83,3.46,0A15.32,15.32,0,0,0,145.36,7.18Zm5,1c.37,0,.44.3.93.23C151.3,7.85,150.5,7.82,150.31,8.19Zm-41.6-2.78c.14.28.69,1,.89.7C109.44,5.76,109.16,5.07,108.71,5.41Zm59.85,6.72c.07-.28.63-.83.24-1.08C168.62,11.19,168.15,11.85,168.56,12.13ZM68.36,4.78c-.12,0-.17-.15-.13-.33-.47-.15-.48.23-.95.08,0-.12,0-.31-.13-.32C66.43,4.78,68.3,4.9,68.36,4.78Zm-3.61-.12c.49-.31.94.3,1.12-.23C65.5,4.51,64.67,4.05,64.75,4.65Zm.38,1.13c-2.29-.26-.63.53.48-.12C65.41,5.58,65.26,5.8,65.13,5.78Zm.11.64c-.09.55,1.55.54,1.56.12C66.37,6.14,65.85,7,65.24,6.42Zm1.85.46c.49.06.94.08,1.12-.23C67.72,6.59,67.27,6.57,67.09,6.88Zm-6.29,0c.55.35.75-.36,1.41.11C62.37,6,61.1,6.77,60.8,6.86ZM37,6.1a.8.8,0,0,0,1.29-.37A7.17,7.17,0,0,0,37,6.1ZM51.69,8.82c-.48,0-.76-.47-.95.08C51.08,9,51.56,9.33,51.69,8.82Zm-5.53.35c.29-.17.91,0,1.12-.23-.22-.26-.93.19-1.07-.4ZM19.73,7.42c.36.32,1.35,0,.49-.27.16,0,.14-.19-.14-.17C20.1,7.29,19.84,7.27,19.73,7.42ZM43.65,9.14c.19,0,.08.18,0,.31.43-.11.8-.79,1.11-.07a.74.74,0,0,1,.19-.46C44.39,8.87,43.84,8.79,43.65,9.14Zm-6.6,0a2,2,0,0,0,1.74-.18c-.19,0-.08-.18,0-.31A2.18,2.18,0,0,0,37,9.09Zm3.86.93c.48.17,1,.33,1.27-.21C41.7,9.82,41,9.54,40.91,10Zm-21.65,3.5c-.52.27-1-.36-1.43.2a2,2,0,0,0,1.91-.32c-.09-.1-.71-.42-.78-.07C19.07,13.38,19.26,13.37,19.25,13.52ZM2.07,16.11c-.48.06-1.33-.31-1.57,0C1,16.08,1.83,16.45,2.07,16.11Zm10.35,2.38c.38-.06,1.12.29,1.26-.06-.51.1-.17-.53-.59-.52C13,18.31,12.46,18.09,12.42,18.49Zm-3.07,1c0-.44.84.19.81-.25-.36-.5-.69-.12-1.23-.41C8.87,19.23,9.25,19.25,9.35,19.51Zm.13.32c.71.44,1.47.05,2.34.18C11.62,19.44,10.16,19.89,9.48,19.83Zm5.26,1c-.54.11-.76.59-1.31.68.12,0,.17.15.13.33C14.06,21.66,14.67,21.58,14.75,20.87Zm-1.06,1.49c.22.21,1.32.41,1.56.12-.36-.08-.72-.16-.58-.67.23-.07.79.25.79-.09-.32-.39-.61,0-1.09-.08C14.6,22.4,13.9,22.1,13.69,22.36Zm136.86,11c-.86,0-1.75-.73-2.49-.35C149.07,33.13,149.49,33.7,150.55,33.36Zm-69-2.71c-.5.17-.6-.17-1,.24,1.32.06,2.21-1.24,3-.39a.88.88,0,0,0-.21-1.27C83.28,30.24,81.39,29.23,81.59,30.65Zm19.06,1.49c.61-.18.27.45.76.37s2.08-.29,1.66-1.13C102.42,31.82,101.21,31.6,100.65,32.14Zm-91.74-7c.27.27,1,0,1.13-.38C9.49,24.67,9.1,24.78,8.91,25.13Zm89.38,7c.42.36,1.73.32,1.76-.34C99.36,31.77,98.49,31.55,98.29,32.11ZM7,25c-.48.06-1.33-.3-1.58,0C6.13,25.09,6.48,25.3,7,25Zm89.48,7.77c.59-.05,1.59.38,1.74-.18C97.48,32.76,97,32.25,96.51,32.76ZM6.91,26.55c.4,0,.32.61.09.79a3,3,0,0,0,1.26-.06c0-.23,0-.58.2-.61.72-.08.87.33,1.38.42.25-.6-.49-.36-.24-1C8.52,26,7.91,26.52,6.91,26.55Zm-3.28-.25c.47.32,1.9.29,2.07-.31C4.76,26,3.95,25.92,3.63,26.29ZM103,34.21c.71-.17.37.56.9.54-.07-.23.25-.79-.1-.79C103.74,34.19,103.17,33.74,103,34.21ZM5.47,26.91c-.48.06-1.33-.31-1.58,0C4.38,26.88,5.23,27.25,5.47,26.91Zm56.94,5.7c.19.55,1,.13.65-.26C63.14,32.78,62.33,32.18,62.41,32.61Zm.54,1.14a.73.73,0,0,0-.12-.48c.19,0,.44.06.48-.12l-.94-.07C62.31,33.52,62.78,33.51,62.95,33.75ZM40.59,32.16a.89.89,0,0,0,.11.64c.53.05.62-.42.84-.72C41.17,32.05,41.06,32.32,40.59,32.16Zm4,.94a1.51,1.51,0,0,0,1.3-.53A1.65,1.65,0,0,0,44.61,33.11Zm3.17-.38c-.43.06-1.23-.3-1.42,0C46.81,33.09,47.41,33.28,47.78,32.73Zm-8.84.41a2.73,2.73,0,0,0,1.45-.52C39.6,32.57,39,32.15,38.94,33.14Zm-3.1-.56c.29,0,.32.15.13.32,1,.1,1,0,.34-.29.39.05.76.09.81-.25C36.81,32.57,36.08,32.29,35.84,32.58Zm-4.57.12c1.7-.12,2.45.7,3.62,0C33.55,32.65,32.3,32.17,31.27,32.7ZM157.37.41c.19-.41,1.34.31,1.29-.37C158.14,0,157.14.19,157.37.41Zm-14.07,5c-.34,0-.3-.42-.25-.81,2.83-1.35-.42-.29-1.83-.77.14-.24.76.09.66-.42,0-.33-.43.2-.61-.2,0,1-1,.78-1.36,1.31,1.24.62,1.6-.36,2.53-.12-.52,1-2.18.64-3.22,1,.13.76,1.64-.25,1.84.62-1.11-.41-1.62.63-2.84.09-.43.07-.44.62-1,.55-.8-.38-1.28.06-1.91.32-3.9-1.08-8.3-.19-11.65-1.85-.46.7-1.55-.36-2.21.14.09,0,.17.14,0,.16-.46-.26-.78-.58-1.09-.09.63.22,1.43.39,1.89,0-.26,1-2.4.37-3,.39,0,.29-.14.52-.36.6a11.9,11.9,0,0,1-5.25-1.2c0,.64,1.1.42,1.35.89a6.36,6.36,0,0,1-4.82-.69c-.18.83,1.25.29,1.18,1-.42.09-1-.76-1.54-.43.22.16.59.17.42.66-4.1.31-6.05-.28-10.36-.18-.2.56.76.13.41.82-3,.24-6.86.2-9.5.83C91,7.5,89.39,8,89.8,8c.23,0,.58,0,.61.21-1.07-.16-2.26.42-3,.08C87.87,8,89,8.52,89,7.81c-1.94-.25-4.68.25-6.92.09.19-.21.2-.37-.12-.48-1.53.27-3.35.92-4.23-.17a2,2,0,0,0-1.64.82C76,7.62,75.3,8,75,8c.27-.92-1.82-.86-1-1.34a4.78,4.78,0,0,1-3.76-.14c0,.34-.17.49-.5.43,0-.18.06-.44-.12-.48-3.46,1.45-7.41,1.25-10.8,1.36-.22.72.55-.21.6.36-.58.22-1.39.65-1.25-.1.13.41-.58.65-.65.26.25.07.44-.18.18-.3.05.31-.76.45-.79.1.19,0,.37,0,.34-.29-.48-.11-.53.3-.53.75.39,0,.51-.26.61.2-1,0-.86-.41-1.54-.43,0,.83-1.25.24-1.91.32-.27.57.41.33.25.81a9.46,9.46,0,0,1-3.75-.29l.43.5c-1.08-.53-1.35.46-2.06.16.48-.52-.11-.82-.36-1.45-.07.32-.44.28-.66.42-.07.3.19.33.28.49a2.88,2.88,0,0,1-1.95.79c.05-.09.44-.57,0-.63-.47.13-.43.58-.53.74-.66-.44-1.28.51-1.89,0,0-.38.71.14.5-.43-.74-.07-1.2.18-1.9.17-.3.59.67.11.59.52-1.1-.39-2,.51-2.5-.2.51.15.28-.3.19-.46-.67-.11-.3.74-.53.75a2.08,2.08,0,0,1-1.57,0c0-.26,1.11-.16.66-.42-.2,0-.23.18-.48.12.21-.48,0-.42.22-.77-.23.07-.79-.24-.79.09.84.45-1.25.18-1.17.85.58.27,1.17-.32,1.41.11-.84.13-1.94.17-1.95.79-.23-.2-.35-.48-.58-.68-.44.2,0,.87-1,.71-.08-.43.33-.29.36-.6-.48-.06-.75.49-1.11.07a.74.74,0,0,0,.12.48c-1.38,0-2.71.5-3.13-.24-.14.12-.13.54-.53.74-.87-.41-2.13.18-2.15-.64-.13,1-1.53.36-1.79.8,4.17.09,5.73-.58,9.74.13-2.16,0-4.58,1.34-6,.63.25-.23,1.71.09,1.14-.54-.32.1-1.84.68-1.42,0-.58.07-.78.68-1.43.2-.29.54.52.14.43.51-.35.59-1.38.37-1.89,0,.28-.62.93.26,1.13-.38-.8-.34-2.08-.14-2.41.6-.49-.22-1,.4-1.25-.1,0-.4.63-.18.67-.58-1-.22-.91.27-1.3.53-.43.1-2.79.24-2.89.72,2.06.19,3.36-.08,6,.15-.65.5-.37.13,0,.63-.12,0-.19.12-.18.3-.79.2-1.52-.45-1.91.32.49.22,1-.4,1.25.1-1.48,0-3.05,1.08-4.12.46-.06.88-1.45.71-1.75.34-.45,1.27-3.39.81-4.37,1.55a3.14,3.14,0,0,0,2.34.18c.17-.68-.32.1-.29-.34a.68.68,0,0,1,.65-.26c-.27.37.49.5.46.19-.67,0,.07-.35.34-.29-.26.44-.13.17.3.18-.3.32-.06,1-.24,1.08-.13-.28-.47-.38-.75-.53-.85.78-2.49,0-3,.39-.22-.2-.13-.66-.58-.67s-.49.89-.48.12c-.49-.12-.39.45-1,.24-.17.82,1.18.73.37,1.29.68.12.54-.45.67-.58.37.49,1.18.5,1.11-.07.45.72,1.43-.35,2.18.33-1.58.69-3.59.34-4.94.87,2.24,1.36,6.34-.58,9.42.11-.89,0-.34,1.37-1.14.54-.16.55-.73.63-1.45.52,0,.54.8.39.71,1-.52-.23-.64-.52-.81.25a15.29,15.29,0,0,0,1.85.46c-.34.63-.95.34-1.25-.1.19.62-1.19.84-1.12.23-.8-.11-1.58,1.29-2.54.27-.23.8-1.5.55-1.36,1.31-.24-.29-.71,0-1,.24.74.2-.48.7-.41,1.22,1,.28,2.51.09,3.09.71-.92.09-1.94.27-2.19-.17a1.19,1.19,0,0,1-1.48.83c0-.42-.61-.65-.24-1a2.84,2.84,0,0,1-1.56-.12c.23.88-1,.66-1.14.54a3.42,3.42,0,0,1,1,1.33,1,1,0,0,1-.79.1c0-.37-.23-.48-.08-1-.39-.05-.76-.09-.81.25.2.17.57.19.59.52a31.85,31.85,0,0,1-4.86-.22C4.19,29,2,27.72,0,28.52c2.51-.37,4.91,1.71,6.71.68A1.74,1.74,0,0,0,9,29.7c.66,1.4,6-.07,4.77,1.32,4,.86,7.08.75,9.76,1.86,1.7-.66,3.25,1.08,4.44-.44.81.35,1.95,0,3.12.25,0-1-1.35,0-1.85-.46.57-.25,1.8-.14,1.17-.85a3.28,3.28,0,0,0,1.41.11c0,.2-.29.12-.34.29.62.52,1.13-.3,1.76-.33.37,0,.44.31.92.23-.36.3-.11.59.43.51.24-.38-.58-.54-.11-.64,1,1,1.94-.27,2.62.68.23-.37,0-.49.21-.61.17.19,1.78-.1,2.18.33.07-.83,1.39-.2,1.92-.48a.74.74,0,0,0,.12.48,1.76,1.76,0,0,0,1.3-.53c-.11.14-.41.55.12.48.1-.49.65-.53.39-.91,1.15-.1,2.1-.31,3.64-.34.16-.57-.65-.33-.73-.69a5.42,5.42,0,0,0,3.23-1.16c.39.5.88,0,1,.71,1.92-.73,3,.75,4.81.85.28-.64,1-.75,1.94-.64.11-1.21,1.58-.17,2.24-.45.41-.6.52-1.55,1.82-1.12-.19.91.82.47,1,.71a.43.43,0,0,0,0,.63c1.07.12,1.39.3,2.2,0,.19.17.57.19.59.52-.19,0-.37,0-.34.29,1.76,1.05,3.74.17,6.09.48.15-.47-.4-.33-.25-.81,2.43.15,4.43-1,6.65-.58,2-1.4,5.08-.25,7.33-1.32a.74.74,0,0,1-.19.46c.72.16,1.89-.06,2.33.34,0,.18,0,.44-.19.45-.51-.34-.86-.41-1.59.19.78.08,1.22-.19,1.71.29-.93.41-1.61.12-2.56.59.41.4,1.2-.28,1.38.42-.89,0-1.25.59-1.95.79.4,0,.8.09.75.53-.38.21-2.37,1.1-1.9.17-.54-.29-.14.52-.51.43-1.32-.8-3.08,1.89-3.79.18.26-.28.64.32.81-.25-1.11-.19.24-.18.06-.78-.63.1-1.38.2-1.54-.43-1,1-2.54.64-3.74,1.59a7.74,7.74,0,0,0,1.24.25,2.35,2.35,0,0,1,3.28.26c-1.66-.12-3.6.33-5.17-.25-.2-.57.54-.05.51-.43l-.78-.06c0,.39.26.51-.21.61-1.39-.28-2.5.27-3.12-.25.2-.88,1,.51,1-.24a17.9,17.9,0,0,0-5.64-.28c.23,0,.58,0,.61.2a2.63,2.63,0,0,0-1.95.79c1.47.73,3.07,0,4.71.05,5,.25,10.53.57,15.33,1-2.14.18-7-.25-9.77.33,3-.28,4.68.47,7.2.41,0,.16-.14.18-.18.3a25.66,25.66,0,0,0,6.14-.15c-.18,0-.45,0-.46-.19.16,0,.2-.11.32-.13a.69.69,0,0,1,.26.65,23.11,23.11,0,0,0,3.76.13c.11-.72.88-.67,1.19-1.16-1.62.26-2.51.81-4.62.74,0-.36.47-.14.51-.43-.26-.42-.84.27-.91-.39,2.26-.22,3.73-.38,6.17-.46a3.33,3.33,0,0,1,.9-1.5c3,0,4.47-1.93,7.54-1.93.32-.28-.07-.29.06-.78.29-.4,1.84-.23,1.62-.66-.14.25-.83-.25-.73-.69a6.69,6.69,0,0,1,3.64-.34c-.6.61-1.68.65-2.59.9.1.51-.18.58-.37.76,1.14,1.22,2.72.63,3.85,1.09-1.39,0-1.74,1.47-2.92,1.19.49.91-1,.18-.88,1.19,1.14.11,2-.53,3.5-.51-.84.57.57.57.69,1.15-.45.26-1.39,0-1.61.5,7.7.47,13.53-2.5,20.78-2.31a2.74,2.74,0,0,1,2.85-.25c.15-.1,1.25.06,1.77-.49.19,1.16,2.16.08,2.61.83,0-.41.11-.67.52-.59-.19.86,2,.84,2.48.51-.11.83,1.11,0,.55,1,.65-.08.72-.14.91.39.6-.54,1.69-.53,2.57-.74.35.14.3.62.73.68.22-.44-.7-.64-.25-.8.35.26,2.36,1.29,2,.32.14.55-.67.07-.78-.06.73-.76,3.87.26,4-.63a5.65,5.65,0,0,1-3.74-.45c-.36,0-.2.67-.67.58.07-.66.66-.71.88-1.19.73-.13,1.32.61,1.71.29-.31.05-.77-.48-.43-.5,1,.19,2.69.06,4,1.1.06-1-1.46-.7-1.95-1.25a14,14,0,0,0,5.39-2.57c-.34-.24-.62.36-.62,0a2.61,2.61,0,0,0,.66-.42c-.58-.12-1.54-.27-1,.24-1.13-.07-1.54,1.61-2.45,1.23.56,0,.73-.52,1.15-.7-.18,0-.45,0-.46-.19.85,0,1.16-.69,1.66-1.13-.48-.26-1,.31-1.09-.09,1.36-1,3.48-.83,4.8-1-.17,0-.23-.19-.29-.34.45.08.51-.32,1-.24l0,.47a6.37,6.37,0,0,0,3.68-.81c-1.48-.21-1.47.48-2.55.43.06-.18.86-.33.36-.6-1.14.51-4.21.5-4.31-1.12.81,0,1.13-.61,1.65-1,.15.31.58.38.73.68-.38.41-1.26.23-1.34,1,.88.22,1.73-.19,2,.31.18-.13.09-.57.51-.43,2.14.72,4.22-.62,6.79-.41-.06.22-.28.24-.35.44.85.31,1.92-.29,3-.24-.21-.82.84-.15.84-.72-.34-.24-.62.36-.62,0,0-.72.5-.6.73-1.36-.26-.08-.42.2-.47,0,1.47-.23,1.83-1.27,1-2.44.51-.09.58.18.76.37,1.17-1.19,3.38-1.16,4.44-2.48-.23,0-.58,0-.61-.21.34-.33,0-.17-.12-.48a.69.69,0,0,0,.65-.26c-1.48-.69-3.28-.22-5-.7.19-.71-.23-.18-.28-.49.91-.53,1.88,1.37,2.36,0-.33-.21-1-.11-1.06-.55a3.42,3.42,0,0,1,.69-2.78c-1.08-.65-1.61.7-2,1.42a4.54,4.54,0,0,1,.17-2.19c-.49.07-.56-.21-.93-.23-.25.17-.29.57-.53.74-.67-1-1.62.27-2.67-.05a.74.74,0,0,1,.19-.46c-1.26,1-2.85.18-3.88-.62.47-.13.25-1.07.72-1.2.08.23.6.07.6.36-.21.06-1,.23-.52.59,0-.33.69-.76.82-.41-.59.26-.31.47-.55,1.06.63-.83.95.18,1.69.45-.1-.45.25-.39.22-.77s-.74,0-.76-.37c.78-.05-.09-.91.23-.93s.46.48.48-.12c-.45-1.21-1.69-.88-2.41-1.29,0-.16,1-.08.49-.27-.8.51-1.68-.06-2.07.31.74.19,1.46.4,2.15.64-.74,0-.39.34-.69.73-.89-1.07-2.31-.12-2.88-1.33,0,.41-.11.67-.52.59,0-.3.2-.33.21-.61-1.14-.12-.84-.57-1.49-1.06-1.16.23-1.61-.5-2.27-1.12.08.43-.73-.17-.65.26.34,0,.49.17.43.51-.62.26-.84-.09-1.57,0,.54,1.42,2.78.51,3.65,1.54-.61.46-1.29-.05-2.24.45l.06-.78c-3.26.84-6.69-1.27-10.12-1.26.78.11,1.12-1.19,1.78-.65-.19,0-.44-.06-.48.12.65-.17.47.38.91.38,1.19-1,2.71-.49,4.89-.25.21-.74-.88,0-.76-.37a4.48,4.48,0,0,1,2.06-.16.74.74,0,0,1-.19.46c.28-.07.9.26.95-.08-.14-.06-.11-.43,0-.47s0,.6.26.65a1.33,1.33,0,0,0,.23-.93c.49.06.56-.38,1.12-.23,0,.24-.41.09-.35.44.51.47,1.18,0,1.88.15.11.34.44.5.4,1,.51-.18.91.46,1.09.09-1.08-.35,1.15-.24.37-.76-.05.34-.42.31-.81.25a2.66,2.66,0,0,0-2.44-1,1,1,0,0,0,.06-.78c-.72.25-.51-.44-1.07-.4a1,1,0,0,0-.22.77c-.54-.36-1.78.93-2.19-.17a1.72,1.72,0,0,0,2.27-.92c-1.11,0-.14-1.07-.37-1.29-.3.38-1-.42-1.27.21.18,0,.15.26.12.48-.37-.23-.68.41-.78-.06,0-.21.29-.12.34-.29-.7-.14-1.14,0-1.3.53.49.23.16-.5.65-.27-.13.65.21.9.2,1.43-.48-.14-1.6.28-1.86-.3.1-.62.53.21.51-.43,0-.3-.26.07-.3-.18-.36.24-2.15,1.36-1.47.67C145.53,5.75,143.13,4.76,143.3,5.44Zm23.56,8.29c.28,0,.31.21.61.2,0,.29-.54.05-.65.27.19.28.68.3.9.54,0,.39,0,.76-.37.76s-.26-.55-.91-.38c.15-.47-.12-.58-.08-1Q167,14.35,166.86,13.73ZM141.57,31.56c-.39-.3.86-.12.69-.73.46.43,1-.34,1.56.12A5.64,5.64,0,0,1,141.57,31.56ZM84.62,32c.59-.32.75.11,1.41.11-1,.58-1,1.16-2.42.75C83.43,32.06,85,32.46,84.62,32ZM145.16,5.74c-.28.25-1,.53-1.27.22C144,5.43,144.71,5.49,145.16,5.74ZM78,7.73c-.42.19-1,.2-1.44.36C76.56,7.4,77.86,7.66,78,7.73ZM70.1,10.57c-.1.23-.16,0-.14-.17.18,0,.28.06.3.18a.77.77,0,0,0,.37-.76c1,.18,1.82-1,2.49-1.69,1.26-.28,1.2.19,2.81.22-.63.85-2,.87-3.22,1a2.11,2.11,0,0,0,1.55.28c-1,.47-2.45,1.19-3.19.54C71.48,10.81,70.48,10.92,70.1,10.57ZM57.8,9.14c-.21.47-.67,0-1.27.21C56.6,8.87,57.32,9.15,57.8,9.14ZM163.27,19.42c1.87.08.68.5,2.34.18.1.51-.18.58-.37.76-.37-.78-1.22-.07-1.3.53-.91,0-.66-.61-1.21-.57C162.71,19.79,163.44,20.13,163.27,19.42Zm-1.75,4.27c.46-.12,1.29-.41,1.59-.19.28-.12.33-.53.53-.75-.06-.36-.26.17-.46-.19.72-.35,1.13-1.06,2.13-1.09a4.37,4.37,0,0,1-1.5,1.14,1.11,1.11,0,0,0,.45.35c.12-.26.49-.22.66-.42.59.32-.82.6-.23.92C164,23.32,162.45,24.15,161.52,23.69Zm-4.25-1.9a3.51,3.51,0,0,1-2.54.27A2.43,2.43,0,0,1,157.27,21.78Zm-2.71.42c-.78.08-1.49.06-2.21.14-.44.36-.13,1-1.17.85.35-.28-.08-.42-.43-.51C151.57,22.18,153.57,21.1,154.56,22.2Zm5.4,1.37c.4-.42.87.22,1.26-.06-.18.42-.82.3-1.29.37C160,23.75,160.15,23.61,160,23.57Zm4.36.5c-.41.64-1,.09-1.6.35C162.94,23.92,163.83,24.23,164.32,24.06ZM28.68,13.62c-.28.29,0,.2,0,.63a1.09,1.09,0,0,0-1.29.37c-.26-.12-.07-.37.18-.3,0-.28-.17-.34-.11-.64A3,3,0,0,1,28.68,13.62Zm43.57,5.76c.38.3-.3.77-.83.56.62.81,2-.44,2.31.65-.75-.07-1.07.34-1.61.51-.61-.48-1.26-.36-1.67-.76A19.62,19.62,0,0,0,72.25,19.39Zm77.31,6.51a.69.69,0,0,1,.26.65c-.25-.29-.63.18-.59-.52C149.41,26.07,149.52,26,149.56,25.9ZM70.25,20.8l-1.41-.11C69.08,20.57,70.26,20.12,70.25,20.8ZM20.71,16.93c.46.22.8.54,1.39.27,0,.48-.53.28-.82.4C21.41,17.12,20.52,17.49,20.71,16.93ZM74,21.1c0,.67-.87.24-.71,1-.93-.62-2,.33-2.87.56.12.54.08-.43.48-.12-.25.63-1.37.55-1.59.19-.29.12-.25.62-.82.41.14.79-.53.63-.57,1.21-.25,0-.26-.17-.46-.19-.48.07.12.35,0,.63a1.56,1.56,0,0,0-1,.4c.13.39.71-.25.59.52-1.21-.2-1.31.25-2.37.13.28-.47.35-.4.24-1.08.8-.45,1.68.07,2.09-.62a12.3,12.3,0,0,1-2.54.28c0-.3.53-.07.51-.43s-.37-.56-.4-1a5.25,5.25,0,0,1-1.67,1.29c-.08.41.6.17.42.66-.42,0-.65.61-1,.24-.17,0-.13.3-.34.29.12.4,1.59.55,1.59-.19.48.12.52.63.54,1.15-.59-.4-1.89-.37-2.24.45-.27-.06-.8.1-.6-.36-.52.14,0,.41-.52.59-1.25.05-.65-.93-1.38-.42,0-.47.45-.5.54-.9,1.48-.08,1.56-.42,1.35-1.15.42,0,.89.13,1.11-.07-.16-.49-.55.13-.94-.07-.06-.28,0-.65-.25-.8-.6.09.59.92-.22.77.11-.49-.17-.63-.24-1-.62,0,.08.49-.36.6,0,.55.42,0,.44.35.12.6-.55.27-.67.58-.3-.66,0-.21-.77-.22.45-.15.49-.8.72-1.2-.07-.48-.35.12-.63,0,0-.18,0-.28-.13-.33,1-.34,3-.91,3.8-.33,2.46.07,4.12-.57,6.19-.77,0,.16,0,.31,0,.47A17.81,17.81,0,0,1,74,21.1ZM26,19.55c.53.52-.74.37-.84.72C24.78,19.91,25.77,19.73,26,19.55ZM24,19.7c.24-.38,1,0,.74.53-.36.26-1.15,0-1.73,0,0-.39.28-.47.52-.59C23.75,19.8,24.3,20.26,24,19.7ZM146.21,30.51c-.49.68-1.13.24-2.08.47C144.58,30.53,145.55,30.7,146.21,30.51ZM22.73,21.34a.43.43,0,0,1,.28.49c-.37,0-.48.23-.95.08C22.22,21.65,22.65,21.7,22.73,21.34Zm1.72.13c-.2.4-.67.46-1.29.37C23.3,21.39,23.82,21.37,24.45,21.47Zm25.48,3.88c.26,0,.26.17.46.19.33-.58,1.3-.41,1.5-1.14.33-.07,1,.27,1.11-.07.45.58.28.54.06,1.26a5,5,0,0,0-2-.16c.09.15.17.3,0,.31a2.69,2.69,0,0,0,.59.52c-.33.41-1.51.31-1.42,0-.15.08-.27.42-.32.13-.24,0,0,.21,0,.47-.18,0-.28,0-.32.13-.68-.52.36-.75.57-1.21.26,0,.26.17.46.19s.27-.26.49-.28C50.91,25.19,49.82,26.2,49.93,25.35Zm88.22,5.79a2.05,2.05,0,0,1-1.12.23C137.06,30.86,138,31,138.15,31.14Zm.09.79c.27,0,.29.14.29.34.82-.29,1.46.15,2.23-.3-.52-.38-.87.08-1.88-.15.32-.54,0-.48-.59-.52,1.26-.38,1.55.38,3,.23-.19,0-.24.75,0,.31,0,.63-1.8.74-2.74.89C138.76,32.16,138.09,32.4,138.24,31.93ZM20.71,25.11c-.15.18-1.31.56-1.25-.1A1.53,1.53,0,0,1,20.71,25.11Zm5.53-.35c-.12.48.51.46.09.79-.83-.24-2.5.12-2.93-.7,1.07-.65,1.9.4,2.8.38,0-.25-.48-.17-.26-.65-1.72-.76-3.26-.35-4.67-.52a.43.43,0,0,0,.27.49c-.87.36-1.69-.19-2.25.61-.25-.42-.85-.54-1.36-.74,1-1.06,2.68.26,3.35-.68,2.63.3,4.61-.89,6.29,0,1-.15,2.05-.45,2.8.38.2-.4,1.89-.76,1.87.15-.82-.25-.78,0-1.57,0,.48.48,1.32.35,2.17.33-.73.85-2.94,0-4,.48C28.64,24.58,27.07,24.73,26.24,24.76Zm12.13-.31c0,.18.58.64.77.22.53.31-.34.38-.65.27-.06.44,1-.11.74.53a13.62,13.62,0,0,1-3-.23C36.5,24.31,38.13,25.6,38.37,24.45Zm-4.1.15c.49,0,.47.37.41.82-.29-.29-.2,0-.63,0-.33-.25.23-.37-.12-.48C34,24.72,34.25,24.8,34.27,24.59Zm7.3,1.2c-.07.48-.8.2-1.28.21.25-.23.65-.26.54-.9C42.15,25.34,40.27,25.6,41.56,25.8Zm-8.25-1.12c.26,0,.26.17.46.19,0,.41-.26.49-.66.42A.88.88,0,0,0,33.32,24.68Zm2.8.38c-.26.53-.9.43-1.26.06C35.25,24.75,35.57,24.94,36.12,25.06Zm-3.64.35c-.07.44-.94.38,0,.63-.45.33-1.51-.06-2.2,0C31,25.71,31.65,25.1,32.47,25.4Zm-16.16-.48c-.44.19-1.42.17-1.39-.27C15.34,24.54,16.19,24.42,16.32,24.92Zm94.54,7.38c0,.42-.62.08-.52.59-.49-.15-1.75-.25-1.92.48-.51,0-.64-.33-1.24-.25A6.17,6.17,0,0,1,110.86,32.31ZM14.57,25.1c.6.15.56,0,.93.23C15.48,25.57,14.31,25.58,14.57,25.1Zm6.58,2.24c-.65-.05-1,.17-1.9.17-.32-.16-.22-.69-.73-.68A2.69,2.69,0,0,1,21.16,27.34Zm-5.22,2.42c.12-.33,1-.07,1.09.08C16.88,30.41,16.1,30,15.94,29.77Zm2.94.54a33.94,33.94,0,0,1,7.64.75c-.35.38-1,.41-1.47.67-.28-.39.05-.17.19-.46-2,.44-3.89-.78-6.41-.5C18.84,30.51,19.15,30.4,18.88,30.31Zm9.52.9c0,.43-.77.31-1,.08C27.64,30.74,27.92,31.24,28.4,31.21Zm1.87.15c0,.41-1.45.67-1.42,0C29.14,31.16,29.79,31.35,30.28,31.36ZM19.77,31c0-.24,1.19-.25.93.23C20.21,31.32,20.14,31,19.77,31ZM103.27,4.67c.89.32,2.26-.17,3.32-.21C105.59,4.21,104.05,4.65,103.27,4.67ZM74.86,6.07c-3.29,0-5.38-.2-8.63-.2A23.67,23.67,0,0,0,74.86,6.07Zm-40,.34c.21.06.28.25.61.21-.17-.41.12-.48-.11-.64C35.36,6.27,34.88,6,34.9,6.41ZM24.16,7a1,1,0,0,1-.79.1c0-.19.06-.44-.12-.48,0,.09,0,.18-.17.14s-.19,0-.17.14C23.1,7.28,24.44,7.39,24.16,7Zm1.24.25c.27-.36,1.31.17,1.44-.36C26.25,6.76,25.12,6.89,25.4,7.24ZM39.82,9.78c.75-.37,2-.18,2.72-.58C41.19,9.06,40.49,8.43,39.82,9.78ZM22.74,13.16c.16-.27.65-.15.53-.74C22.8,12.23,22.54,13.13,22.74,13.16ZM158.85,25.68c.5.38,2-.28,1.74-.18C160,25.49,159.1,25.23,158.85,25.68ZM20.28,20.52c.37,0,1.14-.36.83-.57C21,20.3,20.21,19.93,20.28,20.52Zm-2,1.1c-.79.33-1.67-.4-2.22.3a12.84,12.84,0,0,0,3.29.1c-.45-.12.26-.22.19-.46-.83.21-1.3-.63-1.54-.43A.43.43,0,0,1,18.3,21.62Zm-7.83,3.63c1.4.33,1.9.17,3.27.41-.12-.59.61-.2.53-.74-.32-.05-.64-.19-.11-.64C12.73,24.14,11.17,24.33,10.47,25.25ZM67.17,32A15.2,15.2,0,0,0,71,31.87,8.5,8.5,0,0,0,67.17,32ZM9,18.06c.3,1.07,2,.47,2.09,1.42.37.09.36-.26.79-.1,0-.49.4-.65.25-1.24A17.67,17.67,0,0,1,9,18.06ZM94,34.61c1.6-.29,3.56-.16,5.07-.55,0,.43-.29.29,0,.63l1.56.12c.27-.67-.58-.38-.4-1,.6-.72,1.51-.28,2.39-.44a.76.76,0,0,0-.25-.8C100.49,34.45,94.57,32.05,94,34.61Z"/></svg>
