<svg viewBox="0 0 500 55" xmlns="http://www.w3.org/2000/svg"><title>Brush Moovies</title><path d="M23.563.965C18.826.178 13.807.25 9.138 1.172 13.966.76 19.655 2.655 23.563.965zm33.39 5.655c1.84-.344 6.265.76 5.346-1.172h-5.403c.057.448.057.793.057 1.172zm19.83.242c0-2-9.427-1.07-10.806-.38 4.31.104 5.402.242 10.862.38h-.058zM143.677 8c6.207 0 15 .55 17.93-1.345-6.05-.03-12.08.422-17.93 1.345zm87.414-.242c6.61-1.276 14.942 2.31 16.207-.793-4.83.38-16.208-.38-16.38.793h.172zm21.667.207c3.447-.552 10.688 1.828 13.447-1.276-4.253.654-12.586-1.104-13.62 1.275h.172zM190.46 10c3.432.235 6.9-.2 9.885-1.242-3.966.035-8.16-.07-9.885 1.242zM0 9.344V54.17h500V9.344s-19.828 5.31-28.62 4.552c3.907-.414 10.23.552 12.586-.724-2.99.414-1.495-1.104-.977-1.62-16.266 0-30.46-1-43.162 1.723 4.827.207 9.425-.207 13.505-.207s13.908-1 15.403 1.38c-1.207-.345-8.966-.242-7.184 0 .804 1.137 5.747-.276 6.322.965-34.77 2.138-70.633-3.448-98.334-2.827 3.276-1.38-6.666-1.414-9.023-.414 1.322 0 3.334-.242 3.62.483-3.147-.44-6.43-.393-9.54.137 0-.793 1.437-.93 1.725-1.655-3.736-.55-3.448 1.173-6.265 1.173.69-2.586-8.908 0-10.92-2 8.162-.793 20.978 1.07 26.093-1.483-25.517.93-48.104-1.896-70.402-2.172-2.76 0-21.954 0-13.506.758 7.47 1.897 22.356-.31 27.126 1.76-4.655 1.482-11.494-1.277-13.505.758 1.09 0 2.528 0 2.7.483-10.804 1.38-22.068.207-31.494.483 0-1.276 2.758-1.24 3.505-2.207-4.08 0-2.356 1.24-6.264.62 0 .793.403 2-.804 2.172-2.126-1.517-7.414 1.448-9.942-.38.517-.93 4.253 0 4.482-1.137-9.77 2.655-19.712 2.034-32.298 3.207-1.61-1.07.632-1.07-.977-2.138-3.335-.103-6.677.13-9.884.69-10.575 1-1.207-.242 5.46 1-11.688.553-23.43.553-35.116 0 2.587-.725 5.403.275 9.885 0-9.252-2.345-10.287.068-17.988.724-.287-.966 4.195-1.724 1.724-2.173-2.298 1.483-5.746-.862-5.344 1.173-25.517.896-40.69-3.448-58.563-.207-1.437 0-.747-1.378-2.76-1.034-23.62 0-45.976-1.896-72.183-2.69 3.22 4.104 16.61-.93 19.023 2.966-3.563.242-5.747-1.172-7.183.655 6.724 0 14.597-.69 18.965.793-12.47-2.034-30.46 2.93-35.23-2.172 2.47.862 4.138 1.448 5.402-.62-4.54-.276-11.494.896-14.425-.31 11.494-1.45 15.173-.69 5.345-1.173-3.16 0-4.713 0-6.322-1 0 1.07-3.908 2.62-5.345 1.172 1.092 0 2.127-.207 1.782-1.103C18.622 8.172 0 9.344 0 9.344zm5.747.76c2.47.447-1.494 1.516-3.563 1.137V9.62c2.184-.758 2.873 2.104 3.563.483zM17.24 9.93c5.346-.793 6.783.897 10 1.483-4.25-1.138-6.263 1.035-10-1.482zm71.496 1.587c-1.035 2.758-5.747 0-8.908 1.758-.69-1.69 3.85-2.138 8.908-1.724v-.033zm-13.506.24c2.644.415 1.034.794.977 2.14h-9.885c-1.38-1.105 9.368.275 8.908-2.14zm14.425-.206c2.414.83 5.747-.723 7.3 1.518-1.668-1.034-7.415.552-7.357-1.55l.057.033zm97.07-4.723c.63 0 1.838-.207 1.78-.586-2.24.484-7.815-.93-7.183 1.173 13.19.715 26.463.715 39.655 0 .977 2.173-8.16 1.276-6.207 2.242 4.31.172 7.07-.552 7.07-2.793-12.07-.414-27.472.758-35.116-.035zM429.367 19.24c1.896 1.794 8.85-1.62 6.264-.655-3.506.483-4.598-.172-6.264.62v.035z" fill="#237FBB" fill-rule="evenodd"/></svg>
