<svg viewBox="0 0 26 7" xmlns="http://www.w3.org/2000/svg"><title>***</title><path d="M6.704 3.024l-.448-1.328-2.272 1.008.24-2.528h-1.44l.24 2.512-2.272-.976L.32 3.024l2.432.528-1.648 1.872 1.152.832 1.248-2.144 1.264 2.144 1.152-.848-1.664-1.856 2.448-.528zm9.324 0l-.448-1.328-2.272 1.008.24-2.528h-1.44l.24 2.512-2.272-.976-.432 1.312 2.432.528-1.648 1.872 1.152.832 1.248-2.144 1.264 2.144 1.152-.848-1.664-1.856 2.448-.528zm9.324 0l-.448-1.328-2.272 1.008.24-2.528h-1.44l.24 2.512-2.272-.976-.432 1.312 2.432.528-1.648 1.872 1.152.832 1.248-2.144 1.264 2.144 1.152-.848-1.664-1.856 2.448-.528z" fill="#CDD1D1"/></svg>
