<svg xmlns="http://www.w3.org/2000/svg" viewBox="0 0 128.52 38.78" preserveAspectRatio="none"><title>Brush Cta</title><g id="Calque_2" data-name="Calque 2"><g id="Layer_1" data-name="Layer 1"><path fill="#16C172" d="M113.63.53c-.6.44-1.29-.38-2.19-.16C111.74-.22,113,.48,113.63.53ZM95.92.38c-.31.12-3.34-.32-3.13.31A36.38,36.38,0,0,0,96.86.38ZM86.83,1c1-.08,2.24.08,2.51-.47-7,.78-16,.8-22.41,2C73.11,2.18,80.16,1.57,86.83,1ZM83.07,2.1a5.68,5.68,0,0,0,2.35,0c.42,0,1.95.14,1.41-.16-1.65,0-2.59.07-3.45-.47C83.3,1.71,83.15,1.87,83.07,2.1ZM48,2.26c.62-.17,1.53,0,2-.31C49.5,1.84,48.39,1.58,48,2.26ZM73,2.57c.18,0,.44,0,.47.16-.18,0-.24.17-.31.31.55-.09,2-.1,1.88-.31-.85,0-.45,0-.31-.47C74.39,2.57,73.36,2.21,73,2.57Zm34.48,0c-.69-.26,1.16-.05.47-.31a1.82,1.82,0,0,0-1.41.31C107,2.35,107.38,3,107.52,2.57Zm12.07,0c-.48.1-1.35-.2-1.57.16C118.5,2.63,119.37,2.93,119.59,2.57Zm.63.63c.58,0,2.13.15,1.57-.47A2.66,2.66,0,0,0,120.22,3.2Zm4.7,30.88c-.06-.42.65-1.4,0-1.41C125.2,33.43,124.17,33.78,124.92,34.08Zm-36,2.66c.53-.1,1.46.2,1.72-.16C89.88,36.52,89.37,36.32,88.87,36.74ZM60.34,38.31c1-.11,2.94.46,3.29,0C62.22,38.07,61.27,37.65,60.34,38.31Zm-3.92.16c.53-.1,1.46.2,1.72-.16C57.78,38.05,56.6,38,56.43,38.46Zm-2.82.16c.08-.56-1.41-.36-1.57-.16C52.44,38.72,53.12,38.22,53.6,38.62Zm65-37.93c.13-.56.81.4.94-.16-.47,0-1-.75-1.25-.47C119,.11,118.22.55,118.65.69ZM4.07,9.78c-.46.36-.15,1.24-1.1,1.41,0-.24-.46-.11-.16,0C2.87,12.4,1,12.42,0,12.45c.68.26,2-.11,2,.78-.39,0-.76,0-.79.31.84,0,1.65.13,1.57,1.1-.24-.13-1.36,0-1.25.16.28.35,1-.15,1.25.16.79,1-.47,3.88-1.25,3.29.1.27.74,0,.78.31-.28.26-.39.75,0,.94v-.78c.28-.25,1.32-.55,1.72-.16-.26.82,0,1.25-.63,1.57-.58,0-1.6-.48-2-.16.48.2,1.26.1,1.57.47-1.86.08-.32,0,.16.47a2.68,2.68,0,0,0-.47.63c.23.35.38-.2.47.16-.5.29.11.73-.47.94-.37.09-1.14-.2-1.25.16.51.27,1.65-.08,1.41.94-.23,0-.58-.06-.63.16.94,0-.21.22.47.47,0,.36-.45.17-.47.47.78,0,.24.55,0,.78s-1-.19-1.1.16c.29.23,1,0,1.25.31-.26,0-1.42-.09-.94.16.74-.06,1.29.06,1.41.63-.85-.22-1.58.5-1.25.94.17-.15,0-.58.47-.47,0,.21.27.14.31.31-.57.7.24,1.14.63,1.72-.23.18-.64.19-.78.47.76.12,1.7-.39,2-.16-.21,1,.45,1.22.63,1.88a1.86,1.86,0,0,1-1.1,1.1c1,.35-.8,1.11-.63,1.1.7-.09,1.89.17,1.1.63.23.09.81-.18.78.16-.23.09-.81-.18-.78.16.12,0,.31,0,.31.16-.09,0-.18.13,0,.16a3.84,3.84,0,0,1,3.29,0c-.21.38-1.76.22-1.57.47C7,35.5,8.89,35.33,8,36a13.7,13.7,0,0,1,7.05.63c-.43.21-1.77.31-1.57.63.67-.76.91.78,1.25.31-.12,0-.18-.13-.16-.31.35.17.48-.43.94-.47,3.44-.31,9.94,1.91,13.32,1.57-.12,0-.31,0-.31-.16,5,.56,12.16,0,18,.31a.77.77,0,0,0-.78.31H48c-.56-1,.91.35.16-.47,1-.06,2,.72,3,.16a.77.77,0,0,1-.78-.31c4.87.25,9.91-1.42,14.26,0-.12,0-.31,0-.31.16,5-.25,7.13-.57,12.07-.78a.74.74,0,0,1-.16.47,1.29,1.29,0,0,0,.94-.31c-.17-.49-.77-.06-1.25-.47,1.35.2,1.84-.59,2.66-.16-.37.3-.75-.16-1.1.31,1.25.1,2-.27,3.29-.16.35-.23-.2-.38.16-.47.06.65,1.64-.52.94.31.84,0,2.19.32,2.82-.16-.31-.26-1.16,0-1.41-.31.92-.46,2.47-.21,3.61,0-.75.11-1-.13-1.25.31.84.31.84-.43,1.57,0,.06-.27-.23-.4,0-.47,1.52,0,2.17-.2,3.92-.16,0,.16-.13.19-.16.31.27-.09.92.19.94-.16-.18,0-.44,0-.47-.16.34-.09,1.28-.37,1.57,0-.35.34-.69-.2-.94.31,1,0,1.74.42,2.2-.31.27.28.85.56.31.78.64-.2,2.28-.22,2.35-.47-2.45.09-1.24-.6.63-.31,0,.2-.2.22-.16.47,4.34-.09,8.64.56,12.38.16-.12,0-.31,0-.31-.16.6,0,1,0,.47.31,1.14,0,2.53.51,3-.47a1.63,1.63,0,0,1-1.57-.63c2.53-.49,1.8-.3,4.08,0-.3-.8,1.5-1.38,1.25-.63,2-.21,2.83-1.66,4.7-2,0,.3-.52.11-.47.47,1.39-.29,1.35.85,2.66.63.07-.54-.47-.47-.63-.78a.69.69,0,0,0,.63-.31c-.43-.07-.21-.67-.16-.78.66.18.37.09.16-.31.92-.28,1.45.37,2.51,0,0-.69-.44.08-.63-.31.43-.42-.12-.55-.16-.94.37-.32,1.36-.49.47-.78.59-.32.92.73.94,0-.5,0-.52-.42-1.1-.31.44-.39-.43-1.37-.63-1.1a.16.16,0,0,1,0,.31c-.4,0-.81,0-.78-.47.45-1,1.34-1.1,2.51-1.1.09-.38.09-.69.63-.94.18,0,.59.63.78.16a.59.59,0,0,1-.63-.63,1,1,0,0,1,1.1,0,2,2,0,0,1-.31-.94c-1.65-.41-1.22-2.72-2.19-3.92,0-.51.57-.37.78-.63-.14-.38-.76-.28-.94-.63.13-.54,1.21,0,.94-.31a1.52,1.52,0,0,0-1.25,0c.12-.41-1-.87-.31-1.25-.52-.14-.63-.2-.94-.78.57.1.6-.34,1.1-.31-.39-.34-.41-.49-.47-1.41.36,0,.59,0,.63-.31-.54-.45-.69-1.3-1.1-1.88.26.44,1.07-.25.63-.47-.49.53,0-.45-.16-.94a1.34,1.34,0,0,1-.94-1.72c0,.58-.73-.09-.78,0,.59-.58-.8-.78-.31-1.25.62.17.5,1.06,1.1,1.25.28-.4-.17-.76.31-1.1-.73,0-.84-.62-1.1-1.1.54,0,1.19.39.63.63.2,0,.77.45.78.16-.55-.45.39-.1.31-.31A1.82,1.82,0,0,1,123.51,7c1.3-.24,1.67.93,2.35,1.72,0-1.8-1.34-2.32-2.35-3.13.07-.43,0-.85.47-.78a11.42,11.42,0,0,0-2.67-.31c.12,0,.31,0,.31.16-.25,0-.54,0-.47.31.79-.11,1.45.4,1.41-.16.16.55.69-.13.63.47-.68.16-3-.07-2.51-.78-.52.27-.78,0-1.1-.31.51-.13,1.36.2,1.41,0-.64-.43-1.71-1.21-2.35-.31.19,0,.45,0,.47.16a9.91,9.91,0,0,1-5.33,0,18.36,18.36,0,0,0,3.92-.31c-.18,0-.44,0-.47-.16.9-.11,1.32.09,1.72-.31-2.55-.6-4.73.86-7.84.63,0-.39,0-.76.31-.78s.58.53.63.16c-.18,0-.24-.17-.31-.31,2.16-.25,4,.31,4.86-.47a3.72,3.72,0,0,1-2.67-.78,2.05,2.05,0,0,0,1.88-.94c-.27,0-.78-.44-.94,0,.19,0,.37,0,.31.31-.88.41-1.45.2-2,.78.3.07.68-.48.63.16-.91-.12-2,.2-2.51,0,0,.87,1.26-.19,1.41.31-1.39.65-3.55.25-5,.47.12,0,.31,0,.31.16-5.69,0-12-.9-17.87-.16A14.45,14.45,0,0,1,88.71,3c-7,.16-14.06.77-21.32.47-.77,0-1.83-.38-2.51.47.84.1,2.09-.21,2.66.16C64.64,4,61.76,4.65,59.4,4a32.45,32.45,0,0,0,5.17-.31c-1.83-.16-5,0-7.37-.31,2.79-.5,7-.24,9.09-.94-1.17,0-2.75-.37-3.92.31V2.41c-5.29,1.13-14.73.45-20.85,1.1.25,0,.54,0,.47.31A54.84,54.84,0,0,0,35.42,4c.37,0-1.54.52-1.57,0,0,.1,2-.15.78-.16-6.05.31-12-1-17.24-.63.23.09.81-.18.78.16a24.09,24.09,0,0,1-8.62.47c-1.37,1.46-4.15-.2-5.49,1.1.56.38,1.4.48,1.72,1.1C4.72,7.13,3.19,7.8,4.07,9.78ZM124.14,7a13.62,13.62,0,0,1-2.51-1.25C122.2,5.77,123.89,6,124.14,7Zm-35-3.61c-.76.43-1.33.12-2.35.16A4.26,4.26,0,0,1,89.18,3.35Zm13.95.47a1.43,1.43,0,0,1,1.73,0c.91-.79,1.62-.51,3.45-.63-.37.9-1.65.14-2,.47.84.25,2.89.24.63.31-.37,0-.46.27-.94.16C106,3.39,104.48,4.28,103.13,3.83ZM84.64,3.51c-.31.63-1.35-.14-2.19.31C82.66,3.21,83.93,3.64,84.64,3.51Zm-37.3.31A4.66,4.66,0,0,1,45,4,3.66,3.66,0,0,1,47.33,3.83Zm3.76-.16c-.46.46-.81.2-1.72.31C49.24,3.79,50.51,3.67,51.1,3.67ZM25.7,4.14c-.36-.16-4,.7-4.55.16C21.56,4.7,24.86,3.67,25.7,4.14Zm97,3.13c.3-.49.56.36.78.47-.27.51-.41-.41-.94-.16,0-.15.19-.12.31-.16S122.82,7.28,122.73,7.27ZM124.92,25c0-.22,1-.1.94.31h-.78C125.1,25.12,125,25,124.92,25Zm1.41.47c-.05.42-.41.53-.78.63C125.58,25.64,125.82,25.41,126.33,25.45Zm-.16,1.88c-.17,0-.11-.31-.31-.31-.11-.43.31-.32.31-.63C126.17,26.9,126.77,26.74,126.17,27.34Zm-53.76,9.4c-.34.63-1.47.07-1.88.31C71,36.53,71.53,36.47,72.41,36.74Zm3.6-.16a2.87,2.87,0,0,1,1.73,0A2.82,2.82,0,0,1,76,36.58Zm-6.43.47c0,.34-.56.07-.78.16,1.47.61,4-.27,6.11,0,.82.1-.32.23-.63.16H73a62.78,62.78,0,0,1-8.15.31C66.13,37.14,67.57,37.25,69.59,37.05ZM45.3,1.47c.25-.37,1.38.13,1.41-.47-1.6.3-2.52.18-3.6.47.58.46,1.47-.09,1.72.47C44.6,2,44,1.76,44,2.1c.45.47,1.4-.18,1.72.16C46.41,1.84,45.91,2,45.3,1.47Zm24,1.88c.55-.55,2.53.33,2.82-.47C71.26,3.32,69.2,2.46,69.28,3.35ZM32.91,1.94c-7.35.17-16.14-.64-21.47.63,1.55-.35,3.56.9,5.33.31-.46-.27-1.48,0-1.57-.63,2,.15,3.49-.48,5.33-.16-.28.4-2.27-.09-2,.31,3.39,0,7.44.58,9.4,0A76,76,0,0,0,43.1,2.1c-.77-.47-1.84.32-2.35-.31.62-.22,1.75.08,2-.47-3.34.29-8.41.56-10.34.78C32.63,2.08,32.89,2.13,32.91,1.94Zm6.9,0a4.91,4.91,0,0,1-2.66.16A3.75,3.75,0,0,1,39.81,1.94Z"/></g></g></svg>
