<?xml version="1.0" encoding="UTF-8" standalone="no"?>
<svg width="412px" height="412px" viewBox="0 0 412 412" version="1.1" xmlns="http://www.w3.org/2000/svg" xmlns:xlink="http://www.w3.org/1999/xlink" xmlns:sketch="http://www.bohemiancoding.com/sketch/ns">
    <!-- Generator: Sketch 3.0.4 (8053) - http://www.bohemiancoding.com/sketch -->
    <title>twitter-4-icon</title>
    <desc>Created with Sketch.</desc>
    <defs></defs>
    <g id="Page-1" stroke="none" stroke-width="1" fill="none" fill-rule="evenodd" sketch:type="MSPage">
        <path d="M206,0 C92.229,0 0,92.229 0,206 C0,319.771 92.229,412 206,412 C319.771,412 412,319.771 412,206 C412,92.229 319.771,0 206,0 L206,0 Z M309.599,170.506 C312.62,237.705 262.503,312.63 173.797,312.63 C146.816,312.63 121.701,304.719 100.559,291.164 C125.906,294.151 151.205,287.12 171.293,271.378 C150.386,270.992 132.739,257.18 126.661,238.197 C134.147,239.629 141.512,239.21 148.236,237.381 C125.26,232.764 109.397,212.064 109.915,189.928 C116.355,193.508 123.725,195.657 131.557,195.905 C110.279,181.684 104.254,153.587 116.772,132.116 C140.335,161.022 175.542,180.044 215.25,182.036 C208.281,152.15 230.952,123.369 261.792,123.369 C275.534,123.369 287.952,129.171 296.666,138.457 C307.55,136.314 317.774,132.338 327.007,126.863 C323.44,138.02 315.863,147.384 305.999,153.296 C315.664,152.143 324.873,149.574 333.44,145.773 C327.035,155.355 318.935,163.771 309.599,170.506 L309.599,170.506 Z" id="twitter-4-icon" fill="#FFFFFF" sketch:type="MSShapeGroup"></path>
    </g>
</svg>