<?xml version="1.0" encoding="UTF-8" standalone="no"?>
<svg width="414px" height="412px" viewBox="0 0 414 412" version="1.1" xmlns="http://www.w3.org/2000/svg" xmlns:xlink="http://www.w3.org/1999/xlink" xmlns:sketch="http://www.bohemiancoding.com/sketch/ns">
    <!-- Generator: Sketch 3.0.4 (8053) - http://www.bohemiancoding.com/sketch -->
    <title>google-plus-circle-icon</title>
    <desc>Created with Sketch.</desc>
    <defs></defs>
    <g id="Page-1" stroke="none" stroke-width="1" fill="none" fill-rule="evenodd" sketch:type="MSPage">
        <path d="M223.369,280.659 C223.369,300.906 206.926,316.724 172.888,316.724 C146.263,316.724 127.036,299.87 127.036,279.624 C127.036,259.784 149.598,242.667 176.222,242.96 C205.762,242.961 223.369,261.358 223.369,280.659 L223.369,280.659 Z M412.417,206 C412.417,319.771 320.188,412 206.417,412 C92.646,412 0.417,319.771 0.417,206 C0.417,92.229 92.646,0 206.417,0 C320.188,0 412.417,92.229 412.417,206 L412.417,206 Z M246.303,278.305 C246.303,259.614 239.324,247.402 218.207,231.58 C196.79,215.961 191.557,207.137 211.999,191.332 C223.518,182.426 231.59,170.554 231.59,155.896 C231.59,139.927 225.06,125.439 212.781,118.404 L230.185,118.404 L245.001,102.853 L178.698,102.853 C137.308,102.853 117.013,127.662 117.013,154.951 C117.013,182.84 136.145,204.805 173.505,204.805 C167.713,216.498 170.039,227.299 179.516,235.022 C115.709,235.022 102.055,263.02 102.055,284.588 C102.055,312.533 134.178,329.147 172.698,329.147 C225.367,329.146 246.303,301.234 246.303,278.305 L246.303,278.305 Z M332.776,136.5 L302.187,136.5 L302.187,105.912 L286.894,105.912 L286.894,136.5 L256.305,136.5 L256.305,151.794 L286.894,151.794 L286.894,182.382 L302.187,182.382 L302.187,151.794 L332.776,151.794 L332.776,136.5 L332.776,136.5 Z M204.949,156.894 C201.866,133.428 186.578,114.175 168.715,113.638 C150.846,113.106 138.861,131.065 141.948,154.537 C145.033,178.004 162.015,194.396 179.887,194.935 C197.75,195.467 208.031,180.363 204.949,156.894 L204.949,156.894 Z" id="google-plus-circle-icon" fill="#FFFFFF" sketch:type="MSShapeGroup"></path>
    </g>
</svg>