<?xml version="1.0" encoding="UTF-8" standalone="no"?>
<svg width="412px" height="412px" viewBox="0 0 412 412" version="1.1" xmlns="http://www.w3.org/2000/svg" xmlns:xlink="http://www.w3.org/1999/xlink" xmlns:sketch="http://www.bohemiancoding.com/sketch/ns">
    <!-- Generator: Sketch 3.0.4 (8053) - http://www.bohemiancoding.com/sketch -->
    <title>email-9-icon</title>
    <desc>Created with Sketch.</desc>
    <defs></defs>
    <g id="Page-1" stroke="none" stroke-width="1" fill="none" fill-rule="evenodd" sketch:type="MSPage">
        <path d="M206,0 C92.229,0 0,92.229 0,206 C0,319.771 92.229,412 206,412 C319.771,412 412,319.771 412,206 C412,92.229 319.771,0 206,0 L206,0 Z M329.956,114.444 L207.005,208.741 L84.25,114.444 L329.956,114.444 L329.956,114.444 Z M83.399,140.272 L155.726,195.831 L83.399,268.158 L83.399,140.272 L83.399,140.272 Z M83.7,297.555 L172.521,208.734 L206.995,235.214 L241.413,208.818 L330.151,297.554 L83.7,297.554 L83.7,297.555 Z M330.6,268.307 L258.22,195.927 L330.6,140.416 L330.6,268.307 L330.6,268.307 Z" id="email-9-icon" fill="#FFFFFF" sketch:type="MSShapeGroup"></path>
    </g>
</svg>