<?xml version="1.0" encoding="UTF-8" standalone="no"?>
<svg width="413px" height="413px" viewBox="0 0 413 413" version="1.1" xmlns="http://www.w3.org/2000/svg" xmlns:xlink="http://www.w3.org/1999/xlink" xmlns:sketch="http://www.bohemiancoding.com/sketch/ns">
    <!-- Generator: Sketch 3.0.4 (8053) - http://www.bohemiancoding.com/sketch -->
    <title>Button-Fill-Black</title>
    <desc>Created with Sketch.</desc>
    <defs></defs>
    <g id="Page-1" stroke="none" stroke-width="1" fill="none" fill-rule="evenodd" sketch:type="MSPage">
        <g id="Button-Fill-Black" sketch:type="MSLayerGroup" transform="translate(1.000000, 0.000000)" fill="#fff">
            <path d="M100.126627,187.854579 L100.126627,224.499932 L127.520707,206.177691 L100.126627,187.854579 Z" id="Fill-1" sketch:type="MSShapeGroup"></path>
            <path d="M194.678623,161.255232 L194.678623,110.188137 L108.892907,167.37426 L147.213262,193.008847 L194.678623,161.255232 Z" id="Fill-2" sketch:type="MSShapeGroup"></path>
            <path d="M302.36349,167.374173 L216.576902,110.18805 L216.576902,161.255145 L264.045748,193.00876 L302.36349,167.374173 Z" id="Fill-3" sketch:type="MSShapeGroup"></path>
            <path d="M108.892645,244.9806 L194.678362,302.166723 L194.678362,251.098757 L147.213871,219.352981 L108.892645,244.9806 Z" id="Fill-4" sketch:type="MSShapeGroup"></path>
            <path d="M216.576641,251.099105 L216.576641,302.167071 L302.363229,244.980949 L264.045487,219.353329 L216.576641,251.099105 Z" id="Fill-5" sketch:type="MSShapeGroup"></path>
            <path d="M205.626587,180.275086 L166.902942,206.177082 L205.626587,232.079948 L244.352845,206.177082 L205.626587,180.275086 Z" id="Fill-6" sketch:type="MSShapeGroup"></path>
            <g id="Group-11" sketch:type="MSShapeGroup">
                <path d="M333.024129,244.994189 C333.024129,245.476742 332.990159,245.952328 332.926573,246.427914 C332.903055,246.582087 332.865601,246.743229 332.83947,246.897402 C332.782852,247.205749 332.728848,247.514096 332.647842,247.815474 C332.601677,247.996649 332.534607,248.169986 332.477119,248.345064 C332.390015,248.612472 332.303783,248.881622 332.196645,249.149901 C332.122607,249.330205 332.031148,249.504413 331.951884,249.67862 C331.834294,249.926865 331.71322,250.167271 331.579952,250.409419 C331.481525,250.576658 331.371774,250.744768 331.26725,250.912007 C331.120045,251.140218 330.970227,251.361461 330.805601,251.575736 C330.684527,251.742975 330.56084,251.897148 330.427571,252.051322 C330.255977,252.25166 330.074802,252.452869 329.884045,252.640142 C329.739453,252.788218 329.598345,252.935423 329.448527,253.069563 C329.250802,253.250738 329.040011,253.424945 328.825736,253.592184 C328.663723,253.720227 328.503453,253.847398 328.331859,253.967601 C328.269144,254.00854 328.212527,254.061673 328.14807,254.10174 L211.701888,331.735432 C209.86226,332.96185 207.747385,333.577673 205.626413,333.577673 C203.512408,333.577673 201.394049,332.96185 199.554421,331.735432 L83.1047552,254.10174 C83.0437827,254.061673 82.9871653,254.00854 82.9270638,253.967601 C82.7554698,253.847398 82.591715,253.720227 82.4305734,253.592184 C82.2162985,253.424945 82.0081209,253.250738 81.8103958,253.069563 C81.6597066,252.935423 81.5159856,252.788218 81.3713937,252.640142 C81.1806368,252.452869 81.0038165,252.25166 80.8252541,252.051322 C80.6980829,251.897148 80.5709116,251.742975 80.4507087,251.575736 C80.289567,251.361461 80.1353937,251.140218 79.9908017,250.912007 C79.8801801,250.744768 79.7765268,250.576658 79.6763577,250.409419 C79.5422182,250.167271 79.4220152,249.926865 79.3044254,249.67862 C79.2208059,249.504413 79.1363154,249.330205 79.0596643,249.149901 C78.9525268,248.881622 78.8619391,248.612472 78.7783197,248.345064 C78.7182182,248.169986 78.6581167,247.996649 78.6075966,247.815474 C78.5265903,247.514096 78.4734571,247.205749 78.4159687,246.897402 C78.3898376,246.743229 78.34977,246.582087 78.3288651,246.427914 C78.2652795,245.952328 78.228696,245.476742 78.228696,244.994189 L78.228696,167.360497 C78.228696,166.877943 78.2652795,166.402358 78.3288651,165.932869 C78.34977,165.772599 78.3898376,165.618425 78.4159687,165.457284 C78.4734571,165.148937 78.5265903,164.84059 78.6075966,164.539212 C78.6581167,164.358036 78.7182182,164.183829 78.7783197,164.009622 C78.8619391,163.741343 78.9525268,163.473935 79.0596643,163.211753 C79.1363154,163.031449 79.2208059,162.850273 79.3044254,162.676066 C79.4220152,162.427821 79.5422182,162.186544 79.6763577,161.952235 C79.7765268,161.778028 79.8801801,161.610789 79.9908017,161.442679 C80.1353937,161.215339 80.289567,160.994096 80.4507087,160.77895 C80.5709116,160.618679 80.6980829,160.457537 80.8252541,160.304235 C81.0038165,160.103026 81.1806368,159.901816 81.3713937,159.713673 C81.5159856,159.566468 81.6597066,159.419263 81.8103958,159.285123 C82.0081209,159.103948 82.2162985,158.92974 82.4305734,158.76163 C82.591715,158.634459 82.7554698,158.507288 82.9270638,158.387085 C82.9871653,158.346146 83.0437827,158.293013 83.1047552,158.252945 L199.554421,80.6192541 C203.233677,78.1664169 208.021762,78.1664169 211.701888,80.6192541 L328.14807,158.252945 C328.212527,158.293013 328.269144,158.346146 328.331859,158.387085 C328.503453,158.507288 328.663723,158.634459 328.825736,158.76163 C329.040011,158.92974 329.250802,159.103948 329.448527,159.285123 C329.598345,159.419263 329.739453,159.566468 329.884045,159.713673 C330.074802,159.901816 330.255977,160.103026 330.427571,160.304235 C330.56084,160.457537 330.684527,160.618679 330.805601,160.77895 C330.970227,160.994096 331.120045,161.215339 331.26725,161.442679 C331.371774,161.610789 331.481525,161.778028 331.579952,161.952235 C331.71322,162.186544 331.834294,162.427821 331.951884,162.676066 C332.031148,162.850273 332.122607,163.031449 332.196645,163.211753 C332.303783,163.473935 332.390015,163.741343 332.477119,164.009622 C332.534607,164.183829 332.601677,164.358036 332.647842,164.539212 C332.728848,164.84059 332.782852,165.148937 332.83947,165.457284 C332.865601,165.618425 332.903055,165.772599 332.926573,165.932869 C332.990159,166.402358 333.024129,166.877943 333.024129,167.360497 L333.024129,244.994189 Z M205.626413,0.134662156 C91.8368905,0.134662156 -0.413654968,92.3817235 -0.413654968,206.177343 C-0.413654968,319.973833 91.8368905,412.21654 205.626413,412.21654 C319.422903,412.21654 411.669093,319.973833 411.669093,206.177343 C411.669093,92.3817235 319.422903,0.134662156 205.626413,0.134662156 L205.626413,0.134662156 Z" id="Fill-7"></path>
                <path d="M311.129073,224.500194 L311.129073,187.854841 L283.739348,206.177082 L311.129073,224.500194 Z" id="Fill-9"></path>
            </g>
        </g>
    </g>
</svg>
