<?xml version="1.0" encoding="UTF-8" standalone="no"?>
<svg width="412px" height="412px" viewBox="0 0 412 412" version="1.1" xmlns="http://www.w3.org/2000/svg" xmlns:xlink="http://www.w3.org/1999/xlink" xmlns:sketch="http://www.bohemiancoding.com/sketch/ns">
    <!-- Generator: Sketch 3.0.4 (8053) - http://www.bohemiancoding.com/sketch -->
    <title>linkedin-circle-icon</title>
    <desc>Created with Sketch.</desc>
    <defs></defs>
    <g id="Page-1" stroke="none" stroke-width="1" fill="none" fill-rule="evenodd" sketch:type="MSPage">
        <path d="M206,0 C92.229,0 0,92.229 0,206 C0,319.771 92.229,412 206,412 C319.771,412 412,319.771 412,206 C412,92.229 319.771,0 206,0 L206,0 Z M151.039,305.592 L105.81,305.592 L105.81,159.469 L151.039,159.469 L151.039,305.592 L151.039,305.592 Z M128.209,140.333 C113.438,140.333 101.463,128.261 101.463,113.37 C101.463,98.479 113.438,86.407 128.209,86.407 C142.979,86.407 154.954,98.479 154.954,113.37 C154.954,128.261 142.979,140.333 128.209,140.333 L128.209,140.333 Z M320.536,305.592 L275.526,305.592 L275.526,228.889 C275.526,207.852 267.535,196.108 250.9,196.108 C232.797,196.108 223.338,208.339 223.338,228.889 L223.338,305.592 L179.958,305.592 L179.958,159.469 L223.338,159.469 L223.338,179.148 C223.338,179.148 236.385,155.011 267.37,155.011 C298.356,155.011 320.535,173.929 320.535,213.069 C320.536,252.209 320.536,305.592 320.536,305.592 L320.536,305.592 Z" id="linkedin-circle-icon" fill="#FFFFFF" sketch:type="MSShapeGroup"></path>
    </g>
</svg>