<?xml version="1.0" encoding="UTF-8" standalone="no"?>
<svg width="412px" height="412px" viewBox="0 0 412 412" version="1.1" xmlns="http://www.w3.org/2000/svg" xmlns:xlink="http://www.w3.org/1999/xlink" xmlns:sketch="http://www.bohemiancoding.com/sketch/ns">
    <!-- Generator: Sketch 3.0.4 (8053) - http://www.bohemiancoding.com/sketch -->
    <title>Artboard 1</title>
    <desc>Created with Sketch.</desc>
    <defs></defs>
    <g id="Page-1" stroke="none" stroke-width="1" fill="none" fill-rule="evenodd" sketch:type="MSPage">
        <g id="Artboard-1" sketch:type="MSArtboardGroup" fill="#FFFFFF">
            <path d="M206,5 C92.236,5 0,97.237 0,211 C0,302.013 59.025,379.246 140.887,406.472 C151.18,408.383 154.5,402.013 154.5,396.564 L154.5,358.208 C97.199,370.681 85.262,333.917 85.262,333.917 C75.908,310.095 62.397,303.758 62.397,303.758 C43.704,290.984 63.805,291.235 63.805,291.235 C84.493,292.694 95.389,312.475 95.389,312.475 C113.762,343.958 143.569,334.856 155.338,329.592 C157.182,316.28 162.512,307.195 168.414,302.048 C122.646,296.851 74.566,279.181 74.566,200.238 C74.566,177.74 82.613,159.366 95.791,144.949 C93.645,139.752 86.603,118.797 97.77,90.431 C97.77,90.431 115.071,84.899 154.432,111.554 C170.877,106.994 188.498,104.698 206,104.614 C223.502,104.698 241.154,106.995 257.6,111.554 C296.93,84.899 314.196,90.431 314.196,90.431 C325.413,118.796 318.354,139.751 316.225,144.949 C329.436,159.366 337.432,177.74 337.432,200.238 C337.432,279.365 289.235,296.783 243.368,301.88 C250.743,308.268 257.501,320.823 257.501,340.035 L257.501,396.564 C257.501,402.046 260.802,408.467 271.247,406.456 C353.057,379.181 412,301.997 412,211.001 C412,97.238 319.762,5 206,5 L206,5 Z" id="github-icon" sketch:type="MSShapeGroup"></path>
        </g>
    </g>
</svg>