<svg width="400px" height="400px" viewBox="0 0 400 400" version="1.1" xmlns="http://www.w3.org/2000/svg" xmlns:xlink="http://www.w3.org/1999/xlink"><g stroke="none" stroke-width="1" fill="none" fill-rule="evenodd"><g fill="#000000"><path d="M146.244192,120.74756 C146.244192,135.030736 134.759278,146.609028 120.591931,146.609028 C106.424584,146.609028 94.9396699,135.030736 94.9396699,120.74756 C94.9396699,106.464895 106.424584,94.8866029 120.591931,94.8866029 C134.759788,94.8866029 146.244192,106.464895 146.244192,120.74756 L146.244192,120.74756 Z M142.490726,164.962031 L99.1100184,164.962031 L99.1100184,305.113397 L142.490726,305.113397 L142.490726,164.962031 L142.490726,164.962031 Z M211.835462,164.962031 L170.228416,164.962031 L170.228416,305.113397 L211.835462,305.113397 L211.835462,231.543714 C211.835462,211.835462 220.907361,200.104093 238.270461,200.104093 C254.225246,200.104093 261.88985,211.366024 261.88985,231.543714 L261.88985,305.113397 L305.06033,305.113397 L305.06033,216.371667 C305.06033,178.831386 283.788134,160.686569 254.068086,160.686569 C224.348039,160.686569 211.834952,183.836519 211.834952,183.836519 L211.834952,164.962031 L211.835462,164.962031 Z" class="normal"></path></g></g></svg>
