<svg width="400px" height="400px" viewBox="0 0 400 400" version="1.1" xmlns="http://www.w3.org/2000/svg" xmlns:xlink="http://www.w3.org/1999/xlink"><g stroke="none" stroke-width="1" fill="none" fill-rule="evenodd"><g fill="#000000"><g transform="translate(88.000000, 90.000000)"><path d="M225,47.7814035 L195.17057,47.7814035 L195.17057,77.6612599 L180.255583,77.6612599 L180.255583,47.7814035 L150.425607,47.7814035 L150.425607,32.8414752 L180.255583,32.8414752 L180.255583,2.96271287 L195.17057,2.96271287 L195.17057,32.8420223 L225,32.8420223 L225,47.7814035 L225,47.7814035 Z M140.670328,171.362525 C140.670328,193.759562 120.254308,221.02571 68.892051,221.02571 C31.3279733,221.02571 0,204.796433 0,177.499104 C0,156.430802 13.3159587,129.080958 75.5404733,129.080958 C66.2990898,121.536324 64.031068,110.986856 69.6790049,99.5637822 C33.2453883,99.5637822 14.587318,78.1081832 14.587318,50.8655569 C14.587318,24.2082525 34.3796723,-0.025710396 74.742051,-0.025710396 L139.401153,-0.025710396 L124.952549,15.1653045 L107.979794,15.1653045 C119.953398,22.0370916 126.321663,36.189297 126.321663,51.788396 C126.321663,66.1068985 118.450485,77.7039282 107.216869,86.4038886 C87.2819782,101.842161 92.3854369,110.462255 113.271663,125.720007 C133.864624,141.174144 140.670328,153.103767 140.670328,171.362525 L140.670328,171.362525 Z M100.342354,52.7626559 C97.3354369,29.8393762 82.4264563,11.0330421 65.006432,10.5084406 C47.5804005,9.98930941 35.8935073,27.5314579 38.9031553,50.460755 C41.9117112,73.3840347 58.4726942,89.3972351 75.9020024,89.9229307 C93.3214806,90.4420619 103.34818,75.6886708 100.342354,52.7626559 L100.342354,52.7626559 Z M118.305765,173.661691 C118.305765,154.807765 101.135316,136.837292 72.3271238,136.837292 C46.3636529,136.551196 24.3606189,153.271158 24.3606189,172.651874 C24.3606189,192.429186 43.1115291,208.892592 69.0760922,208.892592 C102.2696,208.892045 118.305765,193.439002 118.305765,173.661691 L118.305765,173.661691 Z" class="normal"></path></g></g></g></svg>
