<svg width="400px" height="400px" viewBox="0 0 400 400" version="1.1" xmlns="http://www.w3.org/2000/svg" xmlns:xlink="http://www.w3.org/1999/xlink"><g stroke="none" stroke-width="1" fill="none" fill-rule="evenodd"><g fill="#000000"><path d="M335.662318,115.851167 C325.679942,120.27929 314.951424,123.272422 303.691451,124.616533 C315.182577,117.72739 324.010506,106.819086 328.165987,93.8198695 C317.409809,100.199291 305.497209,104.831567 292.817392,107.32749 C282.663792,96.5087494 268.196657,89.75 252.185869,89.75 C216.255112,89.75 189.84179,123.280983 197.962431,158.099442 C151.698946,155.778694 110.68151,133.616345 83.2270133,99.9398206 C68.6452898,124.953713 75.6635098,157.689162 100.453493,174.257746 C91.3298733,173.969299 82.7442925,171.464814 75.2407175,167.294186 C74.6368226,193.084515 93.11785,217.200138 119.88745,222.579215 C112.05328,224.710957 103.472309,225.198946 94.7504077,223.532144 C101.832508,245.646419 122.391276,261.740184 146.749906,262.18866 C123.346839,280.528757 93.8712368,288.720522 64.3376819,285.240059 C88.9715881,301.033524 118.231843,310.25 149.667304,310.25 C253.015649,310.25 311.405105,222.957884 307.885788,144.666238 C318.76314,136.818239 328.199574,127.014331 335.662318,115.851167 L335.662318,115.851167 Z" class="normal"></path></g></g></svg>
