<svg width="400px" height="400px" viewBox="0 0 400 400" version="1.1" xmlns="http://www.w3.org/2000/svg" xmlns:xlink="http://www.w3.org/1999/xlink"><g stroke="none" stroke-width="1" fill="none" fill-rule="evenodd"><g fill="#000000"><path d="M200,65.7787239 C124.000603,65.7787239 62.3828642,127.39713 62.3828642,203.39586 C62.3828642,264.19658 101.814182,315.791649 156.501628,333.979825 C163.377809,335.256457 165.595716,331.001015 165.595716,327.360841 L165.595716,301.737332 C127.316107,310.069849 119.341661,285.509867 119.341661,285.509867 C113.092775,269.595714 104.066827,265.362317 104.066827,265.362317 C91.5790744,256.828719 105.007434,256.996398 105.007434,256.996398 C118.827935,257.971075 126.106947,271.18566 126.106947,271.18566 C138.380925,292.2177 158.293323,286.137161 166.155537,282.620575 C167.387411,273.727569 170.948087,267.658386 174.890885,264.219962 C144.315831,260.748135 112.196259,248.943791 112.196259,196.206366 C112.196259,181.176705 117.572012,168.902058 126.3755,159.270862 C124.941877,155.799036 120.237509,141.800167 127.69756,122.850421 C127.69756,122.850421 139.255395,119.154799 165.550289,136.961521 C176.536278,133.915239 188.307888,132.381409 200,132.325294 C211.692112,132.381409 223.484431,133.915907 234.471088,136.961521 C260.745273,119.154799 272.279726,122.850421 272.279726,122.850421 C279.77318,141.799499 275.057455,155.798368 273.635188,159.270862 C282.460722,168.902058 287.802405,181.176705 287.802405,196.206366 C287.802405,249.066712 255.604671,260.702708 224.963481,264.10773 C229.890308,268.375197 234.404952,276.762494 234.404952,289.596962 L234.404952,327.360841 C234.404952,331.02306 236.610166,335.312573 243.58789,333.969136 C298.240598,315.748226 337.617136,264.185891 337.617136,203.396528 C337.617136,127.397798 275.998061,65.7787239 200,65.7787239 L200,65.7787239 Z" class="normal"></path></g></g></svg>
