<svg width="400px" height="400px" viewBox="0 0 400 400" version="1.1" xmlns="http://www.w3.org/2000/svg" xmlns:xlink="http://www.w3.org/1999/xlink"><g stroke="none" stroke-width="1" fill="none" fill-rule="evenodd"><g fill="#000000"><g transform="translate(65.000000, 65.000000)"><path d="M270.536351,92.4882755 C270.510811,92.3165886 270.467027,92.1522075 270.441486,91.9805205 C270.383108,91.6517583 270.32473,91.3229961 270.237162,91.0015397 C270.186081,90.8079353 270.116757,90.6216367 270.05473,90.438991 C269.963514,90.1540637 269.868649,89.8691364 269.755541,89.591515 C269.678919,89.3979106 269.584054,89.2079591 269.496486,89.0216605 C269.376081,88.7586507 269.248378,88.4992938 269.102432,88.2508957 C268.996622,88.0645971 268.879865,87.8856043 268.770405,87.7102645 C268.613514,87.4691722 268.452973,87.2317328 268.277838,87.0052521 C268.150135,86.8335652 268.015135,86.6618782 267.880135,86.4974971 C267.694054,86.2819752 267.500676,86.0701062 267.3,85.869196 C267.146757,85.7121207 266.997162,85.5550454 266.836622,85.4125818 C266.621351,85.2189774 266.402432,85.0326788 266.176216,84.8573389 C266.001081,84.7221811 265.829595,84.5870233 265.647162,84.4591713 C265.577838,84.4153363 265.519459,84.3605426 265.453784,84.3167077 L141.629595,1.82661144 C137.718243,-0.78522183 132.62473,-0.78522183 128.713378,1.82661144 L4.88918919,84.3130548 C4.82351351,84.3568897 4.76513514,84.4116834 4.69581081,84.4555184 C4.51337838,84.5833704 4.34189189,84.7185282 4.17040541,84.8208098 C3.94418919,84.9998025 3.72162162,85.1861011 3.51,85.3760526 C3.34581081,85.5185163 3.19621622,85.6755916 3.04297297,85.8326668 C2.83864865,86.0335771 2.64891892,86.2454461 2.46648649,86.5632496 C2.32783784,86.7276307 2.19283784,86.8993176 2.06513514,87.0710046 C1.89364865,87.2974852 1.72945946,87.5349246 1.57621622,87.7760169 C1.45945946,87.9550097 1.35,88.1340025 1.24054054,88.1413083 C1.09824324,88.3897064 0.970540541,88.6490633 0.846486486,88.9120731 C0.758918919,89.0983717 0.664054054,89.2919761 0.587432432,89.4819276 C0.474324324,89.759549 0.379459459,90.0444763 0.288243243,90.2125103 C0.226216216,90.3988089 0.160540541,90.5851075 0.105810811,90.775059 C0.0218918919,91.0965154 -0.0364864865,91.4252777 -0.0985135135,91.7540399 C-0.127702703,91.9257268 -0.171486486,92.0901079 -0.18972973,92.1193313 C-0.259054054,92.6197804 -0.295540541,93.1238825 -0.295540541,93.6389433 L-0.295540541,176.655059 L-0.295540541,178.181977 C-0.273648649,178.181977 -0.295540541,178.547268 -0.295540541,178.547268 C-0.233513514,178.91256 -0.295540541,179.277851 0.0693243243,179.526249 C0.124054054,179.891541 0.0693243243,179.891541 0.434189189,180.088798 C0.525405405,180.454089 0.799054054,180.819381 0.799054054,180.819381 C0.875675676,181.184672 0.799054054,181.184672 1.16391892,181.381929 C1.28797297,181.747221 1.52878378,181.747221 1.52878378,182.16 C1.63459459,182.16 1.89364865,182.525291 1.89364865,182.525291 C2.04689189,182.890583 2.25851351,182.890583 2.25851351,183.230304 C2.38621622,183.230304 2.62337838,183.595595 2.62337838,183.738059 C2.80581081,184.10335 2.98824324,184.10335 3.35310811,184.468641 C3.50635135,184.468641 3.71797297,184.833933 3.71797297,184.925256 C3.92959459,185.290547 4.08283784,185.290547 4.4477027,185.480499 C4.61918919,185.480499 4.81256757,185.84579 4.81256757,185.84579 C4.88189189,185.84579 4.81256757,185.84579 5.17743243,185.988254 L128.713378,269.000716 C130.669054,270.461882 133.091757,270.827173 135.280946,270.962331 C137.528514,270.962331 139.77973,270.304807 141.739054,269.000716 L265.566892,186.353545 C265.632568,186.30971 265.690946,186.254916 265.76027,186.211081 C265.942703,186.083229 266.114189,185.948071 266.289324,185.812914 C266.515541,185.633921 266.734459,185.447622 266.94973,185.257671 C267.11027,185.115207 267.259865,184.958132 267.413108,184.801057 C267.617432,184.600146 267.807162,184.388277 267.993243,184.172755 C268.128243,184.008374 268.263243,183.843993 268.390946,183.665 C268.566081,183.43852 268.726622,183.20108 268.883514,182.959988 C268.992973,182.780995 269.10973,182.602003 269.215541,182.426663 C269.361486,182.170959 269.489189,181.911602 269.609595,181.648592 C269.697162,181.462294 269.792027,181.275995 269.868649,181.086043 C269.981757,180.801116 270.076622,180.516189 270.167838,180.231262 C270.229865,180.044963 270.299189,179.858664 270.35027,179.668713 C270.434189,179.347257 270.496216,179.018494 270.554595,178.689732 C270.583784,178.525351 270.627568,178.353664 270.649459,178.189283 C270.715135,177.681528 270.751622,177.177426 270.751622,176.662365 L270.751622,94.0078876 C270.642162,93.5147443 270.72973,93.1494529 270.364865,92.4882755 L270.536351,92.4882755 Z M146.814324,33.1430402 L238.034189,94.0224993 L197.28973,121.313417 L146.814324,87.5093542 L146.814324,33.1430402 L146.814324,33.1430402 Z M123.528649,33.2416689 L123.528649,87.6079829 L73.0568919,121.313417 L32.3087838,94.0224993 L123.528649,33.1430402 L123.528649,33.2416689 Z M22.9901351,115.826741 L52.1172973,135.3333 L22.9901351,154.839859 L22.9901351,115.826741 L22.9901351,115.826741 Z M123.528649,237.519907 L32.3087838,176.801176 L73.0568919,149.517564 L123.528649,183.314321 L123.528649,237.519907 L123.528649,237.519907 Z M135.175135,162.909145 L93.9964865,135.3333 L135.175135,107.757455 L176.350135,135.3333 L135.175135,162.909145 L135.175135,162.909145 Z M146.814324,237.519907 L146.814324,183.157245 L197.28973,149.360488 L238.034189,176.6441 L146.814324,237.519907 L146.814324,237.519907 Z M247.356486,154.839859 L218.232973,135.3333 L247.356486,115.826741 L247.356486,154.839859 L247.356486,154.839859 Z" class="normal"></path></g></g></g></svg>
