<?xml version="1.0" standalone="no"?>
<!DOCTYPE svg PUBLIC "-//W3C//DTD SVG 1.1//EN" "http://www.w3.org/Graphics/SVG/1.1/DTD/svg11.dtd" >
<svg xmlns="http://www.w3.org/2000/svg">
<metadata></metadata>
<defs>
<font id="allerregular" horiz-adv-x="1228" >
<font-face units-per-em="2048" ascent="1638" descent="-410" />
<missing-glyph horiz-adv-x="485" />
<glyph unicode="&#xfb01;" horiz-adv-x="1234" d="M55 971q0 43 8 80h173v73q0 194 115 296q116 102 319 102q79 0 148 -11q73 -12 151 -38q0 -48 -15 -90q-17 -49 -34 -76q-58 22 -112 34q-52 11 -122 11q-48 0 -98 -10q-46 -9 -78 -34t-52 -72q-20 -48 -20 -118v-67h633v-1051q-22 -4 -50 -6q-36 -2 -50 -2t-50 2 q-29 2 -51 6v891h-432v-891q-22 -4 -50 -6q-36 -2 -50 -2q-13 0 -51 2q-29 2 -51 6v891h-173q-8 35 -8 80z" />
<glyph unicode="&#xfb02;" horiz-adv-x="1296" d="M55 971q0 39 6 80h175v73q0 194 118 296t348 102q105 0 186 -12q126 -19 159 -25v-1108q0 -77 8 -125q7 -44 23 -69q15 -23 40 -28q27 -5 56 -5q13 0 43 2q21 1 38 6q13 -37 17 -75q4 -36 4 -81q-28 -10 -71 -13q-41 -3 -75 -3q-68 0 -120 15q-53 15 -90 55 q-38 41 -56 108q-18 68 -18 170v1005q-45 10 -78 12q-44 3 -78 3q-53 0 -102 -11q-48 -11 -81 -35q-34 -25 -52 -72q-19 -49 -19 -118v-67h250q6 -43 6 -84t-6 -78h-250v-889q-15 -3 -50 -5q-18 -1 -50 -1t-50 1q-35 2 -50 5v889h-175q-6 39 -6 82z" />
<glyph unicode="&#xfb03;" horiz-adv-x="1873" d="M55 971q0 43 8 80h173v63q0 194 96 296q95 101 278 101q57 0 99 -7q51 -9 79 -17q-6 -56 -20 -90q-16 -39 -31 -74q-21 7 -45 11q-30 5 -63 5q-43 0 -79 -9q-37 -9 -61 -35q-23 -25 -37 -70q-14 -47 -14 -117v-57h443v73q0 194 115 296q116 102 319 102q79 0 148 -11 q73 -12 151 -38q0 -48 -15 -90q-17 -46 -32 -76q-58 22 -114 34q-52 11 -122 11q-48 0 -98 -10q-46 -9 -78 -34t-52 -72q-20 -48 -20 -118v-67h633v-1051q-22 -4 -50 -6q-36 -2 -50 -2t-50 2q-28 2 -50 6v891h-433v-891q-22 -4 -50 -6q-36 -2 -50 -2q-13 0 -51 2 q-28 2 -51 6v891h-443v-891q-22 -4 -50 -6q-36 -2 -50 -2q-13 0 -51 2q-29 2 -51 6v891h-173q-8 35 -8 80z" />
<glyph unicode="&#xfb04;" horiz-adv-x="1941" d="M55 971q0 39 6 80h175v61q0 194 96 296q95 101 278 101q54 0 99 -6q47 -6 79 -16q-8 -54 -21 -91q-15 -42 -30 -73q-3 1 -19.5 4.5t-27.5 5.5q-27 6 -61 6q-45 0 -79 -10q-38 -11 -61 -37t-38 -71t-15 -115v-55h445v73q0 194 118 296q119 102 349 102q104 0 185 -12 q126 -19 159 -25v-1108q0 -77 8 -125q7 -44 23 -69q15 -23 40 -28q27 -5 56 -5q13 0 43 2q22 2 39 6q11 -32 16 -77q4 -37 4 -79q-27 -10 -70 -13q-41 -3 -75 -3q-68 0 -121 15t-90 55q-38 41 -56 108q-18 68 -18 170v1005q-45 10 -78 12q-43 3 -78 3q-53 0 -102 -11 q-48 -11 -81 -35q-34 -25 -52 -72q-19 -49 -19 -118v-67h250q6 -43 6 -84t-6 -78h-250v-889q-15 -3 -50 -5q-18 -1 -50 -1t-50 1q-35 2 -50 5v889h-445v-889q-15 -3 -50 -5q-18 -1 -50 -1t-50 1q-35 2 -50 5v889h-175q-6 39 -6 82z" />
<glyph horiz-adv-x="2048" />
<glyph horiz-adv-x="2048" />
<glyph unicode="&#xd;" horiz-adv-x="1024" />
<glyph unicode=" "  horiz-adv-x="485" />
<glyph unicode="&#x09;" horiz-adv-x="485" />
<glyph unicode="&#xa0;" horiz-adv-x="485" />
<glyph unicode="!" horiz-adv-x="593" d="M174 113q0 18 2 58q1 29 6 58q37 6 57 7q36 2 56 2q18 0 58 -2q21 -1 59 -7q4 -29 6 -57q2 -38 2 -57q0 -20 -2 -58q-2 -29 -6 -57q-28 -4 -58 -6q-38 -2 -57 -2t-57 2q-30 2 -58 6q-4 28 -6 56q-2 36 -2 57zM190 1473q27 4 53 6q34 2 52 2q19 0 57 -2q30 -2 58 -6 l-13 -1031q-50 -8 -96 -8q-53 0 -96 8z" />
<glyph unicode="&#x22;" horiz-adv-x="860" d="M131 911v562q23 5 48 6q34 2 50 2q18 0 50 -2q25 -2 47 -6v-562q-47 -6 -97 -6q-53 0 -98 6zM532 911v562q22 4 49 6q34 2 50 2q17 0 49 -2q25 -2 47 -6v-562q-47 -6 -96 -6q-54 0 -99 6z" />
<glyph unicode="#" horiz-adv-x="1505" d="M129 504q0 15 2 45q2 23 6 41h266l29 338h-254q-8 35 -8 80q0 42 8 79h266l29 326q15 3 47 5q15 1 49 1h43q23 0 43 -4l-26 -328h348l29 326q15 3 47 5q15 1 49 1h44q24 0 44 -4l-29 -328h240q6 -37 6 -73q0 -47 -6 -86h-252l-29 -338h238q5 -17 6 -37q2 -28 2 -39 q0 -15 -2 -45q-2 -23 -6 -41h-252l-31 -369q-47 -6 -90 -6q-47 0 -90 6l29 369h-349l-28 -369q-49 -6 -96 -6q-43 0 -93 6l31 369h-254q-6 38 -6 76zM588 590h348l29 338h-351z" />
<glyph unicode="$" d="M154 39q5 49 17 91t30 89q61 -20 143 -40q69 -17 178 -17q169 0 250 65q82 66 82 181q0 59 -17 96q-17 38 -53 67q-35 29 -88 53q-47 22 -125 54l-98 41q-58 23 -113 55q-50 30 -89 73q-37 41 -58 99q-20 54 -20 137q0 157 95 258t273 125v199q32 8 70 8q39 0 74 -8v-190 q89 -5 168 -19q86 -16 143 -37q-11 -86 -45 -170q-56 21 -127 36q-72 15 -166 15q-131 0 -199 -49q-69 -49 -69 -151q0 -49 18 -85q19 -38 54 -64q37 -28 86 -50q6 -3 114 -49l78 -33q72 -29 133 -63q58 -32 101 -78q42 -45 66 -107q23 -59 23 -149q0 -174 -99 -284 t-279 -144v-236q-16 -4 -35 -6q-24 -2 -35 -2q-13 0 -37 2q-20 2 -37 6v219q-14 -2 -16 -2h-13q-57 0 -114 5q-52 5 -95 12q-42 7 -85 20q-40 12 -84 27z" />
<glyph unicode="%" horiz-adv-x="2150" d="M90 1038q0 88 24 167q24 78 70 138t120 95q73 35 171 35q97 0 170 -35q71 -34 120 -95t72 -138q23 -76 23 -167q0 -93 -23 -169q-24 -78 -72 -137q-48 -58 -120 -93q-73 -35 -170 -35q-98 0 -171 35q-74 36 -120 93q-46 58 -70 137t-24 169zM279 1038q0 -138 46 -212 t150 -74q102 0 149 74q48 75 48 212q0 136 -46 210q-47 75 -151 75q-100 0 -148 -75t-48 -210zM481 2l989 1448q23 4 51 6q34 2 50 2q18 0 54 -2q28 -2 52 -6l-989 -1448q-28 -4 -53 -6q-32 -2 -49 -2q-55 0 -105 8zM1278 412q0 88 24 167q24 78 70 138q45 58 120 94 q73 35 171 35q97 0 170 -35t120 -94t71 -138t24 -167q0 -90 -24 -169q-25 -81 -71 -138q-48 -59 -120 -93q-73 -35 -170 -35q-98 0 -171 35q-74 36 -120 93t-70 138q-24 80 -24 169zM1466 412q0 -138 46 -212q46 -75 151 -75q100 0 148 75q49 77 49 212q0 136 -46 210 t-151 74q-102 0 -149 -74q-48 -75 -48 -210z" />
<glyph unicode="&#x26;" horiz-adv-x="1558" d="M119 418q0 69 19 133q19 63 56 122q35 55 84 98t103 65q-89 39 -149 111t-60 196q0 89 35 156q36 69 94 111q64 46 140 66q81 21 171 21q49 0 119 -8q58 -7 137 -33q-2 -47 -12 -83q-10 -35 -33 -70q-46 15 -102 23q-46 7 -96 7q-70 0 -114 -17q-46 -18 -76 -45 q-28 -25 -43 -63q-13 -33 -13 -71q0 -89 58 -141t188 -52h446l189 258h16v-258h266q8 -37 8 -80q0 -16 -2 -44q-2 -21 -6 -42h-266v-303q0 -126 -43 -219q-43 -94 -123 -157q-79 -63 -191 -93q-115 -31 -247 -31q-104 0 -209 25q-97 23 -177 78q-77 53 -122 137t-45 203z M344 451q0 -141 88 -216t256 -75q120 0 196 30q75 29 120 82q42 49 59 119q16 65 16 139v244h-415q-75 0 -134 -25q-58 -25 -100 -71q-40 -45 -63 -104q-23 -60 -23 -123z" />
<glyph unicode="'" horiz-adv-x="456" d="M131 911v562q23 5 48 6q34 2 50 2q18 0 50 -2q25 -2 47 -6v-562q-47 -6 -97 -6q-53 0 -98 6z" />
<glyph unicode="(" horiz-adv-x="653" d="M102 623q0 155 22 307q20 141 56 268q32 114 79 221q40 91 91 170q16 5 42 6q34 2 54 2t56 -2q26 -1 49 -6q-38 -68 -66 -126q-39 -80 -81 -205q-39 -116 -68 -280q-29 -162 -29 -355t29 -355q29 -164 68 -280q40 -122 81 -204q28 -58 66 -126q-23 -4 -51 -6 q-38 -2 -58 -2q-19 0 -51 2q-25 2 -41 6q-48 71 -91 169q-46 105 -79 222q-36 127 -56 267q-22 151 -22 307z" />
<glyph unicode=")" horiz-adv-x="653" d="M102 -342q38 68 66 126q40 82 81 204q39 116 68 280q29 162 29 355t-29 355q-29 164 -68 280q-42 125 -81 205q-28 58 -66 126q22 4 50 6q36 2 55 2q20 0 54 -2q25 -1 42 -6q47 -75 90 -170q47 -103 80 -221q36 -127 56 -268q22 -152 22 -307q0 -156 -22 -307 q-20 -140 -56 -267q-34 -120 -80 -222q-47 -102 -90 -169q-16 -4 -41 -6q-32 -2 -51 -2t-57 2q-30 2 -52 6z" />
<glyph unicode="*" horiz-adv-x="993" d="M78 1126q8 63 41 121l256 -67q-12 -82 -47 -152zM201 762l143 223q35 -18 66 -40q35 -26 63 -52l-170 -207q-32 19 -54 34q-25 18 -48 42zM418 1206l16 267q30 6 62 6q30 0 65 -6l17 -267q-14 -3 -42 -5q-13 -1 -40 -1t-40 1q-26 2 -38 5zM520 893q24 23 64 52 q33 24 65 40l144 -223q-21 -22 -49 -42q-22 -15 -54 -34zM618 1180l256 67q33 -58 41 -121l-249 -98q-37 73 -48 152z" />
<glyph unicode="+" d="M176 721q0 47 8 90h340v373q22 4 44 6q28 2 46 2q15 0 45 -2q25 -2 48 -6v-373h337q6 -30 7 -45q2 -30 2 -45q0 -14 -2 -46q-1 -16 -7 -46h-337v-371q-23 -4 -48 -6q-30 -2 -45 -2q-48 0 -90 8v371h-340q-8 43 -8 92z" />
<glyph unicode="," horiz-adv-x="436" d="M41 -231l121 456q16 3 50 7t48 4q45 0 105 -11l-129 -456q-23 -4 -51 -6q-17 -1 -48 -1q-33 0 -49 1q-25 2 -47 6z" />
<glyph unicode="-" horiz-adv-x="739" d="M96 573q0 15 2 49q1 25 6 46h531q5 -21 6 -46q2 -34 2 -49q0 -14 -2 -48q-2 -26 -6 -44h-531q-4 18 -6 44q-2 34 -2 48z" />
<glyph unicode="." horiz-adv-x="493" d="M123 113q0 28 3 58q4 37 7 58q38 6 56 7q36 2 57 2q19 0 57 -2q19 -1 57 -7q6 -38 8 -57q3 -28 3 -57t-3 -58q-2 -19 -8 -57q-28 -4 -56 -6q-36 -2 -56 -2t-58 2q-28 2 -57 6q-3 17 -7 56q-3 27 -3 57z" />
<glyph unicode="/" horiz-adv-x="839" d="M72 0l497 1473q24 5 48 6q32 2 51 2q14 0 48 -2q25 -1 52 -6l-500 -1473q-24 -4 -49 -6q-32 -2 -51 -2q-15 0 -47 2q-25 2 -49 6z" />
<glyph unicode="0" d="M100 657q0 151 33 275q33 126 97 216q64 91 162 142t226 51q130 0 227 -51q98 -51 162 -142q65 -92 96 -216q32 -126 32 -275q0 -147 -33 -273q-33 -127 -97 -216q-65 -90 -163 -141q-101 -52 -228 -52t-225 52q-97 51 -161 141t-96 216q-32 128 -32 273zM315 657 q0 -252 80 -377q79 -124 221 -124t220 124q77 123 77 377q0 256 -77 379q-78 125 -220 125q-141 0 -221 -125t-80 -379z" />
<glyph unicode="1" d="M203 1071l545 260h30v-1157h293q6 -46 6 -86q0 -43 -6 -88h-801q-8 43 -8 88q0 43 8 86h308v881l-297 -135q-29 34 -45 69q-15 32 -33 82z" />
<glyph unicode="2" d="M117 27l401 469q91 109 99 119q40 49 80 110q34 52 54 104q19 50 19 107q0 108 -70 166q-69 57 -198 57q-100 0 -166 -22q-61 -20 -131 -52q-20 48 -32 84q-14 42 -19 88q84 35 158 58q84 26 204 26q109 0 191 -23q84 -23 148 -71q60 -44 96 -120q34 -71 34 -171 q0 -138 -76 -266q-79 -134 -215 -287l-196 -223h542q6 -30 7 -45q2 -30 2 -47q0 -15 -2 -45q-1 -15 -7 -43h-911z" />
<glyph unicode="3" d="M98 -82q6 44 24 88q19 47 40 84q64 -26 137 -43q70 -16 164 -16q79 0 146 16q72 17 119 53q50 38 80 96q30 59 30 142q0 126 -84 188q-85 62 -219 62q-41 0 -83 -3q-40 -3 -83 -14l-17 29l342 539h-526q-8 43 -8 88q0 15 2 47q2 25 6 47h829l15 -25l-373 -567q8 2 14 2 h17q98 0 167 -34q70 -34 116 -88q46 -53 69 -121q22 -65 22 -132q0 -133 -46 -226q-47 -96 -124 -158t-182 -92t-223 -30q-100 0 -193 17q-89 16 -178 51z" />
<glyph unicode="4" d="M68 182l600 1176q44 -5 89 -22q46 -18 89 -46l-477 -950h413v389q24 4 49 6q32 2 48 2q18 0 52 -2q26 -2 50 -6v-389h188q6 -30 7 -45q2 -30 2 -45q0 -14 -2 -46q-1 -16 -7 -44h-188v-281q-18 -3 -50 -5q-16 -1 -48 -1q-33 0 -50 1q-35 2 -51 5v281h-698z" />
<glyph unicode="5" d="M129 -90q6 45 21 87q18 50 36 85q62 -22 125 -36q59 -13 148 -13q177 0 275 75q97 75 97 232q0 61 -17 109q-19 53 -56 89q-40 38 -102 59q-63 21 -152 21q-66 0 -125 -10q-69 -12 -109 -26l-20 18q8 240 13 359q2 55 7.5 176t8.5 186h696q3 -14 5 -44q1 -14 1 -44 q0 -32 -1 -48q-2 -31 -5 -46h-512l-12 -365q46 9 78 10q54 2 63 2q103 0 186 -28q85 -29 144 -85t92 -137t33 -186q0 -126 -46 -223q-46 -96 -123 -156q-79 -61 -187 -91t-232 -30q-79 0 -167 15q-90 15 -163 45z" />
<glyph unicode="6" d="M135 567q0 183 46 340q47 159 142 285q94 124 242 204q145 78 350 95q17 -51 17 -94q0 -13 -2 -41q-1 -20 -6 -37q-130 -12 -229 -60q-100 -48 -171 -124q-71 -75 -115 -176q-46 -105 -63 -211q44 76 132 134q85 56 218 56q79 0 161 -28q76 -26 140 -85q61 -57 99 -146 q37 -87 37 -212q0 -121 -42 -213t-112 -154q-68 -61 -159 -93q-90 -32 -183 -32q-118 0 -210 34q-94 35 -158 106q-65 72 -99 183q-35 113 -35 269zM356 457q0 -152 73 -230q71 -75 202 -75q63 0 113 20q55 22 92 59q38 38 61 97q23 58 23 133q0 79 -22 139q-21 57 -58 94 t-87 55q-47 17 -108 17t-113 -21q-56 -22 -92 -60q-38 -40 -61 -97q-23 -58 -23 -131z" />
<glyph unicode="7" d="M135 1225q0 17 2 49q2 25 6 47h973l8 -14l-622 -1459q-53 11 -102 32q-44 19 -89 54l525 1205h-693q-5 21 -6 42q-2 28 -2 44z" />
<glyph unicode="8" d="M109 377q0 85 27 150q26 61 72 114q40 46 97 83q44 29 107 56q-96 45 -167 130q-69 82 -69 208q0 81 34 146t92 111q58 47 138 72q81 26 174 26t174 -26t139 -72t92 -111t34 -146q0 -126 -69 -209t-169 -129q60 -26 108 -55q56 -34 98 -82q47 -53 72 -115q27 -66 27 -151 q0 -110 -43 -186q-44 -77 -114 -124q-75 -50 -163 -70q-96 -22 -186 -22q-92 0 -186 22q-88 20 -162 70q-70 47 -114 124q-43 76 -43 186zM326 395q0 -114 73 -180q72 -65 215 -65q145 0 216 65q73 67 73 180q0 60 -22 105q-22 46 -62 84q-38 37 -91 64q-57 29 -114 46 q-57 -17 -114 -46q-56 -29 -91 -64q-39 -39 -61 -84t-22 -105zM375 1104q0 -52 19 -91q20 -41 52 -69q34 -29 77 -50q41 -20 91 -36q50 15 93 36q39 19 75 50q34 29 53 69q19 39 19 91q0 92 -60 147q-61 56 -180 56q-118 0 -179 -56q-60 -55 -60 -147z" />
<glyph unicode="9" d="M109 844q0 122 42 213t111 154t159 95q87 31 183 31q121 0 210 -33q94 -35 158 -106q65 -72 99 -184q35 -114 35 -269q0 -182 -46 -339q-47 -161 -141 -285q-93 -123 -243 -204q-145 -78 -350 -95q-17 40 -17 96q0 10 2 38q2 22 6 40q126 11 227 58q102 48 175 124 q76 79 118 175q44 100 56 212q-44 -79 -130 -135q-87 -57 -218 -57q-84 0 -162 27q-75 26 -139 85q-60 56 -99 147q-36 85 -36 212zM322 850q0 -82 21 -139q22 -59 58 -95t87 -53q48 -16 108 -16q63 0 113 20q54 22 92 61q38 40 61 97q23 58 23 129q0 152 -73 230 q-72 77 -202 77q-124 0 -206 -79t-82 -232z" />
<glyph unicode=":" horiz-adv-x="493" d="M123 113q0 28 3 58q4 37 7 58q38 6 56 7q36 2 57 2q19 0 57 -2q19 -1 57 -7q6 -38 8 -57q3 -28 3 -57t-3 -58q-2 -19 -8 -57q-28 -4 -56 -6q-36 -2 -56 -2t-58 2q-28 2 -57 6q-3 17 -7 56q-3 27 -3 57zM123 938q0 28 3 58q4 40 7 59q28 4 56 6q36 2 57 2q19 0 57 -2 q29 -1 57 -6q6 -36 8 -58q3 -29 3 -57t-3 -57q-2 -22 -8 -58q-28 -4 -56 -6q-36 -2 -56 -2t-58 2q-28 1 -57 6q-2 14 -7 57q-3 27 -3 56z" />
<glyph unicode=";" horiz-adv-x="532" d="M59 -231l121 456q16 3 50 7t49 4q44 0 104 -11l-129 -456q-24 -4 -50 -6q-17 -1 -48 -1q-34 0 -50 1q-25 2 -47 6zM160 938q0 28 3 58q4 40 7 59q28 4 56 6q36 2 57 2q19 0 57 -2q28 -1 57 -6q3 -17 7 -58q4 -38 4 -57t-4 -57q-4 -41 -7 -58q-28 -4 -56 -6q-36 -2 -56 -2 t-58 2q-29 1 -57 6q-2 14 -7 57q-3 27 -3 56z" />
<glyph unicode="&#x3c;" d="M182 709q0 50 13 104l852 346q10 -54 10 -94q0 -20 -2 -54q-1 -25 -6 -46l-672 -260l672 -250q4 -22 6 -47q2 -32 2 -50q0 -21 -2 -57q-1 -24 -8 -51l-852 346q-13 55 -13 113z" />
<glyph unicode="=" d="M174 516q0 31 1 48q2 31 5 46h869q5 -21 6 -46q2 -34 2 -48t-2 -48q-2 -26 -6 -44h-869q-3 13 -5 44q-1 17 -1 48zM174 907q0 31 1 48q2 31 5 46h869q5 -21 6 -46q2 -34 2 -48t-2 -48q-2 -26 -6 -44h-869q-3 13 -5 44q-1 17 -1 48z" />
<glyph unicode="&#x3e;" d="M172 1051q0 32 3 59q3 32 7 49l854 -346l8 -53q5 -30 5 -60q0 -50 -13 -104l-854 -346q-5 29 -6 52q-2 32 -2 42q0 20 2 54q1 25 6 46l670 261l-670 249q-7 25 -8 48q-2 34 -2 49z" />
<glyph unicode="?" horiz-adv-x="999" d="M88 1417q42 14 91 28q35 10 82 17q41 6 81 9q54 4 88 4q241 0 366 -110q124 -109 124 -290q0 -104 -42 -179q-43 -76 -99 -125q-61 -53 -115 -80q-61 -30 -97 -42v-211q-50 -8 -100 -8q-15 0 -47 2q-25 2 -47 6v332q80 22 139 46q58 24 104 62q43 36 66 83q23 48 23 112 q0 104 -78 164q-77 59 -224 59q-93 0 -148 -13q-54 -13 -116 -36q-16 35 -31 81q-14 44 -20 89zM346 115q0 19 2 57q2 28 6 57q36 6 58 8q28 3 57 3t57 -3q22 -2 58 -8q4 -28 6 -56q2 -36 2 -56t-2 -58q-2 -29 -6 -57q-27 -4 -56 -6q-38 -2 -57 -2q-17 0 -61 2q-34 2 -56 6 q-4 28 -6 56q-2 36 -2 57z" />
<glyph unicode="@" horiz-adv-x="2076" d="M115 438q0 186 64 372t200 340q135 153 343 249t495 96q155 0 291 -42q135 -41 238 -128q101 -85 160 -216q58 -129 58 -304q0 -125 -38 -250q-37 -120 -110 -221q-71 -97 -176 -159q-102 -60 -231 -60q-143 0 -225 63q-59 -34 -133 -55q-73 -21 -162 -21q-144 0 -231 87 t-87 239q0 137 47 257q45 115 127 203q78 84 188 133q108 48 228 48q82 0 157 -12q70 -11 146 -35l-147 -731q23 -18 50 -22q33 -5 58 -5q85 0 152 50q65 49 112 129q44 75 69 174q24 95 24 188q0 259 -154 395q-153 135 -432 135q-215 0 -379 -74q-163 -73 -279 -200 q-111 -122 -173 -285q-60 -159 -60 -330q0 -161 46 -274q47 -116 126 -187q81 -74 189 -108q110 -35 233 -35q94 0 188 16q88 15 160 42q16 -38 25 -65q13 -40 20 -79q-150 -69 -397 -69q-159 0 -302 45t-249 138t-168 234q-61 140 -61 334zM774 467q0 -105 46 -154t138 -49 q44 0 86 8q36 7 89 31l112 590q-28 6 -49 9q-22 3 -47 3q-81 0 -149 -34q-70 -35 -118 -93q-52 -63 -79 -139q-29 -81 -29 -172z" />
<glyph unicode="A" horiz-adv-x="1263" d="M33 0l479 1473q27 5 57 6q40 2 64 2q19 0 59 -2q32 -2 60 -6l477 -1473q-24 -4 -55 -6q-40 -2 -60 -2q-18 0 -54 2q-28 2 -52 6l-103 340h-559l-100 -340q-27 -5 -53 -6q-36 -2 -54 -2q-20 0 -56 2q-28 2 -50 6zM401 522h449l-225 752z" />
<glyph unicode="B" horiz-adv-x="1218" d="M182 0v1473q47 10 144 16q92 6 186 6q122 0 213 -20q97 -21 165 -67t106 -119t38 -177q0 -65 -19 -118q-20 -55 -52 -96q-35 -45 -76 -70q-47 -29 -88 -40q56 -6 115 -30q58 -24 106 -70q47 -46 77 -114q29 -67 29 -166q0 -119 -47 -202t-128 -134q-82 -52 -190 -74 q-112 -23 -235 -23q-72 0 -170 8q-114 9 -174 17zM389 162q28 -4 73 -6q58 -2 87 -2q73 0 138 12t114 42t78 80q28 49 28 128q0 77 -26 128q-27 53 -73 84t-110 45q-61 13 -137 13h-172v-524zM389 858h150q138 0 213 61q73 60 73 181q0 117 -79 174t-214 57q-28 0 -78 -2 q-38 -2 -65 -6v-465z" />
<glyph unicode="C" horiz-adv-x="1265" d="M121 727q0 175 47 319q46 141 135 242q90 102 215 155q128 54 285 54q120 0 201 -16q82 -16 149 -39q-5 -51 -17 -87q-10 -30 -32 -85q-25 9 -60 18q-48 13 -61 15q-33 6 -73 9q-41 3 -91 3q-222 0 -347 -152q-124 -151 -124 -436q0 -144 35 -252q34 -106 98 -176 q63 -69 153 -104t200 -35q91 0 155 14q75 16 131 41q47 -92 58 -170q-81 -35 -177 -53q-93 -17 -194 -17q-159 0 -288 53t-216 149q-89 97 -135 237q-47 141 -47 313z" />
<glyph unicode="D" horiz-adv-x="1431" d="M182 0v1473q69 7 168 15q92 7 193 7q386 0 578 -197q192 -196 192 -565q0 -384 -196 -571t-582 -187q-90 0 -191 8q-108 9 -162 17zM391 172q22 -4 71 -7q42 -3 89 -3q121 0 220 27q97 27 171 94q72 66 111 177t39 279q0 154 -39 262q-39 109 -110 178t-169 99 q-102 31 -217 31q-54 0 -85 -1q-43 -1 -81 -8v-1128z" />
<glyph unicode="E" horiz-adv-x="1097" d="M180 0v1473h809q6 -41 6 -91q0 -31 -1 -47q-2 -31 -5 -45h-600v-422h479q5 -21 6 -44q0 -2 1.5 -19.5t1.5 -26.5q0 -7 -0.5 -14.5t-1.5 -17.5t-1 -15q-2 -24 -6 -45h-479v-504h617q6 -40 6 -90q0 -31 -1 -47q-2 -31 -5 -45h-826z" />
<glyph unicode="F" horiz-adv-x="1032" d="M180 0v1473h770q4 -21 6 -45q2 -32 2 -46q0 -15 -2 -47q-2 -24 -6 -45h-561v-432h469q5 -23 6 -46q2 -32 2 -46t-2 -46q-1 -23 -6 -46h-469v-674q-24 -4 -50 -6q-34 -2 -54 -2q-19 0 -55 2q-28 2 -50 6z" />
<glyph unicode="G" horiz-adv-x="1394" d="M121 727q0 178 49 319q50 143 140 242q93 102 217 155q126 54 280 54q117 0 203 -15t155 -42q-5 -51 -17 -87q-10 -30 -32 -85q-43 14 -124 32q-66 15 -167 15q-109 0 -197 -39q-89 -39 -152 -114q-62 -74 -97 -184q-35 -111 -35 -251q0 -146 36 -251q37 -107 101 -176 t155 -104q87 -34 198 -34q68 0 114 7q56 8 84 17v576q24 4 51 6q36 2 54 2q17 0 53 -2q26 -1 49 -6v-719q-48 -20 -94 -32q-43 -11 -107 -20q-38 -5 -110 -11q-62 -5 -105 -5q-162 0 -295 52q-132 52 -221 148q-90 97 -138 237t-48 315z" />
<glyph unicode="H" horiz-adv-x="1404" d="M180 0v1473q24 5 51 6q36 2 54 2q17 0 53 -2q27 -1 51 -6v-607h627v607q23 5 49 6q36 2 53 2q18 0 54 -2q30 -2 53 -6v-1473q-23 -5 -49 -6q-36 -2 -56 -2q-18 0 -54 2q-28 2 -50 6v682h-627v-682q-24 -4 -50 -6q-34 -2 -54 -2q-19 0 -55 2q-28 2 -50 6z" />
<glyph unicode="I" horiz-adv-x="569" d="M180 0v1473q24 5 51 6q36 2 54 2q17 0 53 -2q27 -1 51 -6v-1473q-24 -4 -50 -6q-34 -2 -54 -2q-19 0 -55 2q-28 2 -50 6z" />
<glyph unicode="J" horiz-adv-x="811" d="M57 0q0 32 9 86q8 46 24 92q9 -2 28 -6.5t28 -6.5q29 -7 67 -7q37 0 75 6q39 6 70 26q33 21 54 62q20 39 20 110v928h-258q-4 21 -6 45q-2 32 -2 47q0 14 2 46q2 24 6 45h467v-1063q0 -123 -27 -207q-28 -86 -77 -134q-53 -51 -125 -72q-77 -22 -166 -22q-46 0 -99 8 q-59 9 -90 17z" />
<glyph unicode="K" horiz-adv-x="1230" d="M180 0v1473q24 5 51 6q36 2 54 2q17 0 53 -2q27 -1 51 -6v-1473q-24 -4 -51 -6q-36 -2 -53 -2q-20 0 -56 2q-26 1 -49 6zM451 748l473 725q28 4 56 6q36 2 50 2q17 0 57 -2q32 -2 64 -6l-467 -707l526 -766q-33 -5 -64 -6q-42 -2 -61 -2q-15 0 -53 2q-29 2 -59 6z" />
<glyph unicode="L" horiz-adv-x="1013" d="M180 0v1473q22 5 48 6q34 2 55 2q17 0 53 -2q27 -1 51 -6v-1289h578q3 -15 5 -47q1 -16 1 -45q0 -48 -6 -92h-785z" />
<glyph unicode="M" horiz-adv-x="1671" d="M156 0l65 1473q23 4 57 6q42 2 60 2q16 0 62 -2q34 -1 57 -6l381 -922l383 922q21 5 51 6q40 2 59 2q16 0 60 -2q32 -1 55 -6l70 -1473q-23 -4 -51 -6q-34 -2 -52 -2t-52 2q-25 2 -48 6l-47 1145l-361 -840q-41 -6 -84 -6q-39 0 -78 6l-348 846l-47 -1151q-22 -4 -47 -6 q-32 -2 -47 -2q-19 0 -51 2q-25 2 -47 6z" />
<glyph unicode="N" horiz-adv-x="1392" d="M180 0v1473q22 5 48 6q34 2 48 2q15 0 49 -2q25 -1 48 -6l641 -1106v1106q24 5 51 6q36 2 53 2q15 0 47 -2q25 -2 47 -6v-1473q-22 -4 -48 -6q-34 -2 -48 -2t-48 2q-26 2 -48 6l-643 1100v-1100q-23 -4 -48 -6q-34 -2 -50 -2q-19 0 -53 2q-25 1 -46 6z" />
<glyph unicode="O" horiz-adv-x="1492" d="M125 735q0 164 38 305q37 137 115 241q77 102 193 159q117 57 277 57q159 0 276 -57q118 -57 194 -159q75 -100 113 -241q37 -138 37 -305t-37 -305q-38 -141 -113 -241q-74 -98 -194 -157q-117 -57 -276 -57q-160 0 -277 57q-119 58 -193 157q-78 104 -115 241 q-38 141 -38 305zM348 735q0 -130 25 -241q24 -108 73 -183q48 -74 124 -115q74 -40 178 -40q103 0 177 40q76 41 124 115q49 75 73 183q25 111 25 241q0 129 -25 241q-24 108 -73 182q-49 75 -124 115q-74 40 -177 40q-104 0 -178 -40q-75 -40 -124 -115q-49 -74 -73 -182 q-25 -112 -25 -241z" />
<glyph unicode="P" horiz-adv-x="1159" d="M180 0v1475q4 1 73 8q31 3 88 7q63 4 92 5q62 2 89 2q114 0 214 -22q101 -22 178 -78t122 -147q45 -92 45 -228q0 -144 -48 -239q-49 -96 -127 -152q-80 -57 -179 -81q-101 -24 -205 -24q-48 0 -68 1q-43 2 -65 5v-532q-49 -6 -104 -6q-35 0 -53 1q-36 2 -52 5zM389 715 q33 -5 57 -6q32 -2 72 -2q65 0 126 13q62 13 112 48q48 34 79 95q29 58 29 157q0 85 -25 141q-26 57 -71 92t-109 50q-59 14 -137 14q-76 0 -133 -6v-596z" />
<glyph unicode="Q" horiz-adv-x="1482" d="M119 735q0 164 38 305q37 139 114 241q76 102 194 159q117 57 276 57q160 0 277 -57q116 -57 193 -159t114 -241q37 -138 37 -305t-37 -305q-37 -139 -114 -241q-74 -99 -193 -157q-117 -57 -277 -57q-159 0 -276 57q-120 59 -194 157q-77 102 -114 241q-38 141 -38 305z M342 735q0 -130 25 -241q24 -108 73 -183q48 -74 124 -115q74 -40 177 -40q104 0 178 40q75 40 123 115q50 78 74 183q25 111 25 241q0 129 -25 241q-23 105 -74 182q-50 75 -123 115q-74 40 -178 40q-103 0 -177 -40q-75 -40 -124 -115q-49 -74 -73 -182q-25 -112 -25 -241 zM877 -227q4 56 12 94q7 36 24 82l469 -82q-2 -47 -9 -93q-8 -47 -25 -89z" />
<glyph unicode="R" horiz-adv-x="1222" d="M184 0v1475q8 1 37.5 3.5t44.5 4.5q25 3 73 7q47 4 75 5q52 2 86 2q110 0 207 -20q103 -21 182 -72q81 -52 130 -138q50 -88 50 -220q0 -80 -27 -146q-28 -67 -67 -117q-41 -52 -93 -89q-55 -39 -102 -62l-24 -12l428 -621q-56 -6 -125 -6q-55 0 -111 6l-471 682v8l17 4 q52 14 116 39q60 23 114 65t87 96q35 58 35 136q0 147 -87 219t-235 72q-24 0 -64 -2q-29 -1 -67 -6v-1313q-6 0 -23 -1.5t-27 -2.5q-36 -2 -52 -2q-34 0 -53 1q-38 2 -54 5z" />
<glyph unicode="S" horiz-adv-x="1116" d="M94 39q5 48 19 92q27 85 30 92q74 -26 142 -43q73 -18 180 -18q170 0 251 68q83 69 83 186q0 58 -18 98q-19 42 -52 71q-35 30 -87 54q-59 27 -122 53l-117 47q-51 20 -108 55q-51 31 -85 72q-35 42 -56 100q-21 57 -21 134q0 187 127 292t356 105q101 0 187 -16 q83 -16 155 -41q-11 -86 -45 -170q-51 19 -128 37q-70 16 -164 16q-131 0 -199 -52q-70 -53 -70 -157q0 -42 18 -77q17 -33 46 -59q28 -25 67 -46q37 -20 82 -37l115 -45q81 -32 145 -69q65 -37 109 -84t68 -113t24 -154q0 -212 -145 -333q-146 -122 -408 -122q-58 0 -115 5 q-52 5 -95 12q-42 7 -85 20q-40 12 -84 27z" />
<glyph unicode="T" horiz-adv-x="1077" d="M43 1382q0 14 2 46q1 24 6 45h975q5 -21 6 -43q2 -30 2 -46q0 -14 -2 -48q-1 -25 -6 -46h-383v-1290q-47 -6 -102 -6q-57 0 -107 6v1290h-383q-5 21 -6 45q-2 32 -2 47z" />
<glyph unicode="U" horiz-adv-x="1380" d="M166 600v873q49 6 106 6q56 0 103 -6v-836q0 -130 16 -217q17 -92 53 -147t98 -83q58 -26 148 -26t148 26q59 26 96 83q36 55 53 147q17 93 17 217v836q51 6 104 6q56 0 106 -6v-873q0 -147 -27 -264q-27 -118 -90 -197q-64 -81 -163 -122q-100 -42 -244 -42t-244 42 q-98 41 -162 122q-63 79 -90 197q-28 121 -28 264z" />
<glyph unicode="V" horiz-adv-x="1288" d="M45 1473q23 5 54 6q42 2 61 2q16 0 58 -2q31 -1 58 -6l373 -1260l371 1260q55 6 113 6q36 0 56 -1q37 -2 54 -5l-479 -1473q-27 -5 -59 -6q-44 -2 -62 -2t-60 2q-33 2 -61 6z" />
<glyph unicode="W" horiz-adv-x="1886" d="M55 1473q23 5 57 6q46 2 62 2q18 0 58 -2q31 -2 55 -6l252 -1227l303 1227q24 5 54 6q40 2 56 2t56 -2q31 -2 53 -6l305 -1240l256 1240q22 5 48 6q34 2 50 2q19 0 59 -2q29 -1 52 -6l-354 -1473q-24 -4 -58 -6q-44 -2 -59 -2q-18 0 -64 2q-34 2 -63 6l-291 1153 l-295 -1153q-29 -5 -62 -6q-46 -2 -63 -2q-14 0 -56 2q-32 2 -56 6z" />
<glyph unicode="X" horiz-adv-x="1247" d="M43 0l365 770l-308 700q29 4 58 6q18 1 55 1q48 0 109 -7l292 -700l-350 -770q-60 -6 -108 -6q-52 0 -113 6zM631 770l293 700q8 1 22 3t21 2q28 2 43 2h55q28 0 39 -1q16 -2 39 -6l-307 -694l366 -776q-62 -6 -112 -6q-46 0 -109 6z" />
<glyph unicode="Y" horiz-adv-x="1212" d="M37 1473q27 5 57 6q40 2 62 2q16 0 58 -2q32 -2 56 -6l344 -732l340 732q27 5 54 6q36 2 55 2t57 -2q29 -2 56 -6l-461 -934v-539q-27 -5 -53 -6q-36 -2 -54 -2t-54 2q-28 2 -50 6v539z" />
<glyph unicode="Z" horiz-adv-x="1159" d="M49 18l742 1272h-650q-4 18 -6 43q-2 32 -2 47t2 47q2 25 6 46h957l14 -19l-743 -1272h690q4 -18 6 -44q2 -34 2 -48q0 -15 -2 -47q-2 -25 -6 -43h-998z" />
<glyph unicode="[" horiz-adv-x="653" d="M102 -344v1900h441q5 -22 6 -42q2 -26 2 -41t-2 -43q-1 -21 -6 -39h-240v-1569h240q5 -21 6 -40q2 -26 2 -42q0 -15 -2 -43q-1 -20 -6 -41h-441z" />
<glyph unicode="\" horiz-adv-x="843" d="M66 1473q23 5 49 6q36 2 51 2t51 -2q26 -1 49 -6l498 -1473q-24 -4 -49 -6q-32 -2 -47 -2q-19 0 -53 2q-26 2 -50 6z" />
<glyph unicode="]" horiz-adv-x="653" d="M102 -260q0 41 9 82h239v1567h-239q-6 23 -7 32q-2 22 -2 33q0 46 9 102h440v-1900h-440q-9 47 -9 84z" />
<glyph unicode="^" horiz-adv-x="1126" d="M125 754l332 719q24 4 52 6q36 2 50 2q18 0 54 -2q29 -2 57 -6l327 -719q-18 -3 -52 -5q-16 -1 -46 -1h-46q-26 0 -46 4l-250 548l-240 -548q-20 -4 -47 -4h-47q-29 0 -45 1q-35 2 -53 5z" />
<glyph unicode="_" horiz-adv-x="1034" d="M2 -102q0 10 2 34q1 17 8 37h1012q8 -37 8 -75q0 -37 -8 -74h-1012q-7 23 -8 39q-2 24 -2 39z" />
<glyph unicode="`" horiz-adv-x="1024" d="M264 1477q29 4 62 6q40 2 67 2q21 0 67 -2q34 -1 64 -6l236 -260q-56 -9 -96 -9q-23 0 -59 2q-21 1 -50 7z" />
<glyph unicode="a" horiz-adv-x="1058" d="M98 311q0 89 36 155q38 69 97 111q62 44 142 65q83 22 168 22q51 0 107 -4q49 -3 71 -7v39q0 121 -62 168t-178 47q-76 0 -134 -11q-60 -11 -122 -30q-39 68 -39 162q71 23 154 35q84 12 162 12q204 0 311 -93t107 -298v-657q-59 -14 -175 -34q-102 -18 -208 -18 q-97 0 -182 19q-79 17 -137 59q-56 40 -87 105t-31 153zM301 315q0 -61 23 -96q24 -36 56 -53q36 -19 75 -23q36 -4 77 -4q43 0 98 5q45 4 89 16v334q-8 1 -78 8q-41 4 -80 4q-126 0 -193 -47t-67 -144z" />
<glyph unicode="b" horiz-adv-x="1208" d="M162 33v1468q22 4 50 6q36 2 50 2q13 0 51 -2q30 -2 52 -6v-577q38 62 114 106q78 45 189 45q92 0 174 -31q80 -30 137 -95q58 -65 89 -164q32 -101 32 -234q0 -270 -153 -423t-439 -153q-90 0 -185 18q-99 19 -161 40zM365 170q41 -13 78 -17q56 -6 87 -6q76 0 141 24 t111 72q49 50 75 123q28 78 28 177q0 169 -60 264q-60 94 -196 94q-47 0 -93 -15q-47 -15 -85 -49q-39 -35 -63 -91q-23 -55 -23 -136v-440z" />
<glyph unicode="c" horiz-adv-x="978" d="M102 524q0 116 33 217t97 174t161 117q95 43 223 43q89 0 152 -10q64 -10 125 -33q0 -34 -9 -81q-9 -45 -26 -81q-102 35 -229 35q-159 0 -236 -104q-78 -105 -78 -277q0 -196 88 -287q89 -92 242 -92q51 0 114 9q54 8 105 28q18 -31 29 -71q13 -46 14 -88 q-125 -48 -276 -48q-261 0 -395 149t-134 400z" />
<glyph unicode="d" horiz-adv-x="1200" d="M106 506q0 125 38 231q36 101 108 179q69 75 167 116q99 41 216 41q49 0 107 -8q47 -7 96 -21v457q22 5 51 6q38 2 49 2q14 0 50 -2q28 -2 50 -6v-1472q-82 -24 -174 -38q-102 -16 -215 -16q-107 0 -210 28q-98 27 -173 91q-72 61 -116 164q-44 102 -44 248zM322 506 q1 -195 92 -279q90 -84 245 -84q49 0 99 5q41 4 80 16v708q-44 18 -88 25q-50 8 -103 8q-81 0 -145 -31q-61 -30 -102 -83q-38 -50 -59 -126q-19 -70 -19 -159z" />
<glyph unicode="e" horiz-adv-x="1138" d="M100 518q0 116 30 218q30 101 91 176q62 75 155 119q94 44 220 44q109 0 190 -37q84 -38 138 -101q55 -64 84 -154q28 -87 28 -193q0 -19 -2 -61q-1 -12 -2.5 -31t-1.5 -23h-715q5 -173 89 -252q86 -80 251 -80q144 0 277 52q14 -26 26 -75q12 -48 13 -87 q-65 -27 -149 -43q-81 -15 -179 -15q-145 0 -246 40q-103 41 -169 113q-67 73 -97 172q-31 102 -31 218zM317 627h519q0 53 -16 109q-15 52 -45 91t-76 63q-45 23 -109 23q-127 0 -192 -75q-66 -77 -81 -211z" />
<glyph unicode="f" horiz-adv-x="757" d="M55 971q0 43 8 80h173v73q0 195 97 296q98 102 283 102q48 0 91 -5q33 -4 73 -16q-5 -59 -11 -88q-8 -41 -19 -76q-38 8 -49 10q-30 5 -66 5q-41 0 -81 -10q-36 -9 -61 -34t-40 -72q-15 -46 -15 -118v-67h269q6 -41 6 -84q0 -39 -6 -76h-269v-891q-22 -4 -50 -6 q-36 -2 -50 -2q-13 0 -51 2q-29 2 -51 6v891h-173q-8 35 -8 80z" />
<glyph unicode="g" horiz-adv-x="1132" d="M76 -238q0 85 45 151t117 105q-44 29 -69 67q-28 42 -28 99q0 76 34 131q35 56 91 99q-67 46 -108 122t-41 169q0 79 28 145q29 68 83 118q55 51 134 79q78 28 183 28q95 0 167 -26q75 -27 128 -68q40 33 110 54q72 22 154 22q8 -42 8 -86q0 -15 -2 -47q-2 -27 -6 -50 h-184q22 -33 34 -75q13 -44 13 -94q0 -82 -31 -152q-30 -68 -87 -116t-134 -73q-80 -26 -170 -26q-85 0 -152 18q-31 -18 -56 -50q-28 -36 -28 -73t27 -64q29 -29 119 -30l272 -4q181 -4 264 -78q82 -73 82 -202q0 -86 -43 -151q-45 -69 -119 -115q-76 -48 -179 -73 q-106 -26 -224 -26q-211 0 -322 66q-110 65 -110 206zM266 -199q0 -43 19 -73q18 -28 52 -46t80 -25q43 -7 101 -7q164 0 256 54t92 136q0 61 -39 94q-40 34 -143 35l-233 4h-7q-88 0 -132 -49q-46 -50 -46 -123zM330 705q0 -97 52 -158q53 -62 163 -62q111 0 164 62t53 158 t-53 160q-53 63 -164 63t-163 -63q-52 -62 -52 -160z" />
<glyph unicode="h" horiz-adv-x="1183" d="M162 0v1501q22 4 50 6q36 2 50 2q13 0 51 -2q30 -2 52 -6v-610q13 21 46 61q29 36 67 61q42 28 92 45t116 17q180 0 267 -103q87 -104 87 -306v-666q-22 -4 -50 -6q-36 -2 -50 -2t-50 2q-28 2 -50 6v610q0 145 -48 214t-147 69q-54 0 -106 -20t-90 -61q-40 -43 -62 -110 q-22 -66 -22 -163v-539q-22 -4 -52 -6q-38 -2 -51 -2q-11 0 -49 2q-29 2 -51 6z" />
<glyph unicode="i" horiz-adv-x="589" d="M84 971q0 14 2 42q2 22 6 38h332v-1051q-22 -4 -50 -6q-36 -2 -50 -2q-13 0 -49 2q-28 2 -50 6v891h-133q-4 16 -6 38q-2 28 -2 42zM174 1386q0 33 1 52q2 35 5 51q27 4 58 6q40 2 53 2t53 -2q31 -2 55 -6q3 -16 5 -51q2 -38 2 -52q0 -13 -2 -51q-2 -37 -5 -53 q-24 -4 -54 -6q-40 -2 -52 -2q-15 0 -55 2q-31 2 -58 6q-3 16 -5 53q-1 19 -1 51z" />
<glyph unicode="j" horiz-adv-x="593" d="M-82 -356q1 33 10 80q7 38 23 73q48 -16 115 -16q30 0 55 4q32 5 53 21q24 18 41 53q16 33 16 96v936h-133q-4 16 -6 38q-2 28 -2 42t2 42q2 22 6 38h332v-1110q0 -90 -25 -154q-24 -61 -68 -99q-45 -39 -104 -55q-58 -16 -129 -16q-110 0 -186 27zM174 1386q0 15 2 49 q1 25 6 52q18 3 58 7q30 3 53 3q22 0 52 -3q36 -4 54 -7q5 -27 6 -52q0 -6 1 -16t1.5 -18t0.5 -15q0 -9 -1.5 -27t-1.5 -21q-1 -26 -6 -54q-18 -3 -54 -7q-30 -3 -52 -3q-23 0 -53 3q-40 4 -58 7q-4 28 -6 54q-2 34 -2 48z" />
<glyph unicode="k" horiz-adv-x="1052" d="M156 0v1501q22 4 50 6q36 2 50 2q13 0 51 -2q29 -1 51 -6v-1501q-22 -4 -51 -6q-38 -2 -51 -2q-14 0 -50 2q-28 2 -50 6zM414 545l334 506q27 5 53 6q36 2 55 2q22 0 58 -2q29 -2 57 -6l-334 -492l391 -559q-29 -5 -55 -6q-36 -2 -55 -2q-20 0 -58 2q-28 2 -57 6z" />
<glyph unicode="l" horiz-adv-x="610" d="M160 272v1229q22 4 50 6q36 2 50 2t50 -2q28 -2 50 -6v-1184q0 -55 11 -90q11 -34 27 -50q18 -18 41 -22q27 -5 50 -5q10 0 42 2q23 1 40 6q19 -76 19 -156q-27 -10 -70 -13q-40 -3 -76 -3q-62 0 -110 14q-53 16 -90 47q-40 34 -62 88t-22 137z" />
<glyph unicode="m" horiz-adv-x="1748" d="M164 0v1051q22 4 44 6q28 2 44 2t42 -2q20 -1 42 -6q6 -28 12 -81q6 -50 6 -85q14 29 46 70q24 31 66 61q36 26 87 43q48 16 108 16q123 0 190 -50q66 -50 101 -140q23 38 50 69q32 37 67 62q36 26 84 43q45 16 107 16q182 0 265 -102q83 -103 83 -303v-670 q-22 -4 -52 -6q-38 -2 -51 -2q-14 0 -50 2q-28 2 -50 6v610q0 142 -43 212q-44 71 -141 71q-105 0 -169 -76q-65 -77 -65 -223v-594q-22 -4 -50 -6q-36 -2 -50 -2t-50 2q-29 2 -51 6v625q0 135 -41 205q-41 69 -131 69q-52 0 -96 -22t-79 -68q-33 -43 -53 -114 q-19 -67 -19 -158v-537q-22 -4 -51 -6q-36 -2 -50 -2q-13 0 -51 2q-29 2 -51 6z" />
<glyph unicode="n" horiz-adv-x="1183" d="M164 0v1051q22 4 44 6q28 2 44 2t42 -2q20 -1 42 -6q6 -29 12 -83q6 -52 6 -87q20 33 53 69q35 38 72 63q39 26 94 45q50 17 117 17q181 0 266 -103q86 -104 86 -306v-666q-22 -4 -51 -6q-38 -2 -51 -2q-14 0 -50 2q-28 2 -50 6v610q0 145 -45 214t-144 69 q-57 0 -108 -21q-53 -22 -90 -63q-39 -44 -63 -112q-23 -66 -23 -165v-532q-22 -4 -51 -6q-36 -2 -50 -2q-13 0 -51 2q-29 2 -51 6z" />
<glyph unicode="o" horiz-adv-x="1181" d="M100 524q0 116 30 217t91 174t154 117q90 43 215 43t215 -43q91 -44 153 -117q62 -74 92 -174q29 -97 29 -217t-29 -217q-30 -100 -92 -174t-153 -116t-215 -42t-215 42q-92 42 -154 116q-61 73 -91 174t-30 217zM315 524q0 -180 67 -284q67 -103 208 -103t209 103 q67 101 67 284t-67 284t-209 101q-143 0 -208 -101q-67 -104 -67 -284z" />
<glyph unicode="p" horiz-adv-x="1208" d="M162 -483v1534q21 5 42 6q28 2 44 2q13 0 43 -2q22 -1 43 -6q2 -7 5 -26q2 -14 6 -46t6 -47q3 -23 3 -29q24 38 49 64q31 32 69 55q40 24 90 39q46 14 112 14q89 0 171 -31q77 -29 135 -95q56 -63 88 -164t32 -234q0 -270 -147 -423t-414 -153q-39 0 -93 7q-49 6 -81 16 v-481q-23 -4 -53 -6q-4 0 -22.5 -1.5t-27.5 -1.5t-27.5 1.5t-22.5 1.5q-28 2 -50 6zM365 172q35 -13 79 -20q47 -7 107 -7q73 0 135 24q64 25 106 73q44 50 69 124q26 76 26 177q0 162 -61 260q-60 96 -197 96q-53 0 -99 -18t-84 -56q-37 -37 -59 -93t-22 -134v-426z" />
<glyph unicode="q" horiz-adv-x="1198" d="M106 498q0 128 40 233q40 107 114 183q74 77 179 119t237 42q114 0 196 -12q76 -11 164 -35v-1511q-22 -4 -50 -6q-4 0 -22.5 -1.5t-27.5 -1.5t-27.5 1.5t-22.5 1.5q-28 2 -50 6v483q-39 -9 -92 -16q-56 -7 -107 -7q-105 0 -203 26q-97 26 -169 87q-71 61 -115 161 t-44 247zM317 489q0 -88 25 -157q23 -64 69 -108q44 -42 103 -60q63 -19 131 -19q43 0 101 9q52 8 90 18v717q-26 5 -49 9q-14 2 -36 4l-35 2q-12 1 -40 1q-88 0 -158 -31q-67 -30 -111 -86q-46 -58 -67 -131q-23 -78 -23 -168z" />
<glyph unicode="r" horiz-adv-x="761" d="M164 0v1051q23 5 43 6q28 2 43 2t45 -2q23 -2 41 -6q6 -28 12 -81q6 -50 6 -85q45 71 114 121q71 51 181 51q22 0 34 -1q18 -2 30 -3q5 -18 6 -39q2 -28 2 -43q0 -24 -3 -51q-4 -36 -7 -52q-15 4 -34 4h-28q-55 0 -105 -15t-90 -54q-39 -38 -64 -107q-23 -65 -23 -174 v-522q-22 -4 -51 -6q-36 -2 -50 -2t-50 2q-28 2 -52 6z" />
<glyph unicode="s" horiz-adv-x="931" d="M98 25q5 41 18 83q16 51 29 82q50 -20 122 -35q68 -14 132 -14q44 0 90 11q47 11 75 30q33 22 51 50q20 31 20 67q0 41 -15 68q-15 26 -41 45q-24 17 -60 31q-42 17 -73 26l-71 27q-133 50 -191 110q-59 60 -59 166q0 138 99 221q98 82 292 82q80 0 157 -15 q78 -15 134 -36q-6 -50 -15 -82q-14 -46 -28 -76q-49 18 -108 32q-63 15 -134 15q-78 0 -134 -26q-58 -27 -58 -94q0 -38 14 -60q15 -24 39 -42q21 -16 56 -29q48 -18 69 -25l90 -31q50 -16 93 -39q47 -24 76 -56q32 -35 51 -82q20 -49 20 -116q0 -73 -31 -138 q-30 -62 -87 -106q-61 -46 -136 -69q-83 -25 -176 -25q-96 0 -172 14q-77 14 -138 36z" />
<glyph unicode="t" horiz-adv-x="733" d="M35 918l352 393h16v-260h267q8 -37 8 -78q0 -15 -2 -43q-1 -20 -6 -41h-267v-479q0 -84 8 -138t24 -78q19 -29 47 -37q33 -10 75 -10q26 0 66 6q27 4 55 11q14 -37 17 -84q3 -43 3 -76q-40 -10 -86 -15q-50 -5 -96 -5q-149 0 -230 71q-83 72 -83 238v596h-160z" />
<glyph unicode="u" horiz-adv-x="1175" d="M152 467v584q22 5 51 6q38 2 49 2q13 0 51 -2q29 -1 51 -6v-576q0 -95 19 -163q18 -64 55 -101q35 -35 90 -51q52 -15 123 -15q103 0 178 23v883q22 4 50 6q36 2 51 2q14 0 50 -2q28 -2 50 -6v-1018q-72 -21 -171 -39q-105 -19 -206 -19t-189 18q-91 18 -157 70 q-67 52 -107 150q-38 94 -38 254z" />
<glyph unicode="v" horiz-adv-x="1087" d="M35 1051q28 4 59 6q40 2 56 2t58 -2q32 -1 54 -6l287 -867l289 867q22 5 51 6q38 2 55 2q13 0 51 -2q30 -2 58 -6l-410 -1051q-27 -5 -53 -6q-36 -2 -49 -2q-14 0 -48 2q-28 2 -51 6z" />
<glyph unicode="w" horiz-adv-x="1587" d="M45 1051q29 5 57 6q38 2 52 2q18 0 58 -2q29 -1 52 -6l205 -858l231 858q22 4 50 6q36 2 55 2q29 -1 56 -3q31 -2 46 -5l230 -844l204 844q23 5 45 6q30 2 50 2q14 0 50 -2q28 -2 56 -6l-313 -1051q-27 -4 -54 -6q-36 -2 -51 -2q-13 0 -49 2q-26 1 -53 6l-225 795 l-236 -795q-28 -4 -56 -6q-36 -2 -50 -2q-15 0 -51 2q-28 2 -50 6z" />
<glyph unicode="x" horiz-adv-x="1042" d="M37 0l285 545l-248 506q50 8 106 8q21 0 57 -2q29 -2 58 -6l217 -508l-262 -543q-27 -5 -52 -6q-34 -2 -51 -2q-19 0 -55 2q-26 1 -55 6zM528 543l220 508q28 5 57 6q38 2 57 2q53 0 103 -8l-244 -500l285 -551q-28 -4 -56 -6q-36 -2 -55 -2q-52 0 -102 8z" />
<glyph unicode="y" horiz-adv-x="1083" d="M27 1051q18 3 55 5q19 1 53 1q38 0 60 -1q39 -2 55 -5l291 -977l301 977q44 6 100 6q32 0 51 -1q39 -2 58 -5l-408 -1264q-28 -81 -59 -141q-30 -56 -70 -92q-40 -35 -87 -50q-45 -14 -112 -14q-50 0 -93 7q-46 7 -81 18q0 44 8 84q6 30 25 73q12 -4 50 -13q29 -7 69 -7 q23 0 50 5q22 4 44 20q19 13 38 44q17 27 34 78l63 199q-22 0 -34 -1t-33 -1q-28 0 -43 1q-21 1 -37 3z" />
<glyph unicode="z" horiz-adv-x="976" d="M59 29l553 860h-487q-6 37 -6 82q0 43 6 80h788l11 -27l-557 -862h522q6 -40 6 -84q0 -40 -6 -78h-819z" />
<glyph unicode="{" horiz-adv-x="847" d="M102 600v27q56 29 96 60q38 30 64 73q24 40 36 93q11 48 11 122q0 145 9 256q9 109 50 185t119 113q81 38 220 38h28q5 -21 6 -40q2 -26 2 -42t-2 -42q-2 -20 -6 -38q-79 0 -123 -16q-43 -16 -68 -55q-23 -37 -31 -97q-7 -56 -7 -145v-13q0 -107 -8 -190q-7 -76 -29 -130 q-21 -53 -54 -86q-36 -36 -83 -59q51 -28 83 -60q33 -33 54 -86q22 -54 29 -130q8 -83 8 -191v-14q0 -87 7 -143q7 -59 31 -96t68 -55q42 -17 123 -17q4 -18 6 -38q2 -26 2 -42q0 -13 -2 -41q-1 -19 -6 -41q-120 0 -204 25q-80 24 -130 75q-47 49 -69 131q-21 80 -21 189 q0 128 -4 201q-5 86 -24 140q-21 59 -63 99q-44 42 -118 80z" />
<glyph unicode="|" horiz-adv-x="681" d="M242 -344v1933q22 5 48 6q34 2 52 2q16 0 50 -2q26 -1 48 -6v-1933q-22 -4 -47 -6q-32 -2 -51 -2q-18 0 -52 2q-26 2 -48 6z" />
<glyph unicode="}" horiz-adv-x="847" d="M102 -258q0 16 2 42q1 14 7 38q77 0 121 17q46 18 70 55t31 96q7 56 7 143v14q0 108 8 191q7 76 29 130q21 53 54 86q32 32 83 60q-47 23 -83 59q-33 33 -54 86q-22 54 -29 130q-8 83 -8 190v13q0 89 -7 145q-8 60 -31 97q-25 39 -70 55t-121 16q-6 24 -7 38q-2 26 -2 42 t2 42q1 11 7 40h28q138 0 219 -38q79 -37 120 -113q40 -74 49 -185q10 -123 10 -256q0 -74 11 -122q12 -53 36 -93q26 -43 64 -73q42 -33 95 -60v-27q-72 -37 -117 -80q-42 -40 -63 -99q-19 -54 -24 -140q-4 -73 -4 -201q0 -110 -21 -189q-21 -81 -70 -131q-50 -51 -130 -75 q-84 -25 -203 -25q-6 29 -7 41q-2 28 -2 41z" />
<glyph unicode="~" horiz-adv-x="976" d="M39 838q39 48 115 85q71 35 155 35q49 0 92 -13q30 -9 92 -29q50 -16 92 -27q47 -12 93 -12q44 0 83 14q43 15 93 61q32 -29 52 -66q18 -33 34 -75q-46 -46 -111 -77q-61 -29 -149 -29q-46 0 -93 12q-42 11 -92 27q-62 20 -93 29q-45 13 -89 13q-51 0 -93 -16 q-44 -16 -93 -63q-65 56 -88 131z" />
<glyph unicode="&#xa1;" horiz-adv-x="593" d="M174 938q0 18 2 58q2 31 6 59q28 4 57 6q36 2 56 2q18 0 58 -2q31 -2 59 -6q4 -28 6 -58q2 -38 2 -57t-2 -57q-2 -30 -6 -58q-28 -4 -58 -6q-38 -2 -57 -2t-57 2q-30 2 -58 6q-4 28 -6 57q-2 36 -2 56zM184 -418l13 1030q23 4 49 6q1 0 19.5 1.5t27.5 1.5q1 0 49 -3 q25 -2 47 -6l14 -1030q-29 -4 -54 -6q-34 -2 -52 -2q-20 0 -56 2q-29 2 -57 6z" />
<glyph unicode="&#xa2;" d="M229 524q0 103 28 201q26 92 82 166q55 73 136 119q83 47 191 59v234q36 10 69 10q35 0 74 -10v-232q68 -5 111 -14q52 -11 98 -27q0 -43 -10 -84q-11 -45 -25 -76q-55 18 -106 26q-55 9 -121 9q-161 0 -240 -103q-80 -104 -80 -278q0 -198 90 -290q90 -91 244 -91 q52 0 113 9q52 8 106 28q18 -31 29 -71q13 -45 14 -89q-35 -11 -107 -27q-50 -11 -116 -16v-219q-35 -8 -72 -8q-13 0 -37 2q-17 1 -34 6v224q-219 23 -327 165q-110 145 -110 377z" />
<glyph unicode="&#xa3;" d="M184 705q0 39 6 79h146q-14 80 -20 120q-9 60 -9 124q0 85 28 169q27 80 84 142q58 62 143 99q86 37 208 37q107 0 181 -17q75 -17 126 -39q-5 -49 -14 -82q-11 -43 -33 -88q-61 26 -115 37q-57 12 -133 12q-74 0 -122 -22q-50 -23 -80 -62t-45 -91q-15 -53 -15 -109 q0 -64 9 -119q6 -37 22 -111h383q6 -40 6 -84q0 -38 -6 -75h-354q10 -50 13 -75q5 -42 5 -77q0 -86 -18 -161q-18 -74 -58 -128h557q3 -15 5 -47q1 -16 1 -45q0 -48 -6 -92h-868l-8 25l39 36q39 38 67 86q26 46 46 103q19 54 26 103q8 53 8 91q0 41 -5 89q-5 47 -15 92h-179 q-6 37 -6 80z" />
<glyph unicode="&#xa4;" d="M88 315l156 156q-37 55 -54 113q-18 62 -18 129q0 70 21 131q22 66 57 114l-162 164q23 45 53 74q30 28 72 47l162 -164q55 37 111 54q60 18 128 18t128 -18q59 -18 114 -54l164 164q39 -23 69 -52q31 -30 52 -67l-162 -161q38 -51 60 -117t22 -133t-22 -131 q-21 -62 -56 -115l156 -156q-45 -77 -117 -121l-162 160q-109 -74 -246 -74q-138 0 -247 74l-158 -157q-47 22 -74 52q-30 33 -47 70zM354 713q0 -56 20 -107q19 -48 54 -86q33 -36 83 -58t103 -22q56 0 106 22t83 58q34 37 55 86q21 50 21 107q0 56 -21 106q-21 49 -55 86 q-35 38 -83 59t-106 21q-55 0 -103 -21t-83 -59t-54 -86q-20 -51 -20 -106z" />
<glyph unicode="&#xa5;" d="M55 1448q27 4 59 6q42 2 60 2q19 0 59 -2q33 -2 56 -6l336 -619l329 619q27 4 55 6q36 2 56 2q19 0 57 -2q31 -2 54 -6l-371 -664h311q6 -29 6 -65q0 -46 -6 -76h-393v-180h393q6 -29 6 -66q0 -45 -6 -75h-393v-322q-24 -4 -51 -6q-36 -2 -54 -2q-17 0 -53 2q-27 2 -51 6 v322h-377q-8 26 -8 69q0 13 2 37q2 19 6 35h377v180h-377q-8 26 -8 70q0 13 2 37q1 17 6 34h295z" />
<glyph unicode="&#xa6;" horiz-adv-x="681" d="M242 338q22 4 48 6q34 2 52 2q16 0 50 -2q26 -2 48 -6v-682q-22 -4 -47 -6q-32 -2 -51 -2q-18 0 -52 2q-26 2 -48 6v682zM242 907v682q22 5 48 6q34 2 52 2q16 0 50 -2q26 -1 48 -6v-682q-43 -8 -98 -8q-18 0 -52 2q-26 1 -48 6z" />
<glyph unicode="&#xa7;" horiz-adv-x="1150" d="M135 739q0 69 34 131q38 69 83 117q-31 31 -49 75q-19 46 -19 101q0 69 32 127t88 98t136 61t178 21q103 0 178 -15q62 -12 150 -40q0 -44 -14 -82q-17 -46 -35 -78q-52 22 -116 39q-65 17 -144 17q-119 0 -183 -34q-65 -35 -65 -104q0 -66 43 -91q44 -26 115 -48 l254 -78q213 -66 213 -241q0 -82 -34 -144q-35 -65 -83 -118q32 -29 51 -73t19 -101q0 -70 -35 -128q-34 -56 -98 -97q-58 -38 -153 -60q-89 -21 -198 -21q-97 0 -182 15q-93 16 -160 41q15 91 52 159q55 -22 126 -40q68 -17 154 -17q138 0 213 37q76 37 76 106q0 60 -48 87 q-54 30 -120 51q-170 54 -226 76q-92 36 -141 69q-50 33 -71 78q-21 43 -21 104zM322 766q0 -52 32 -83t103 -54l237 -76q3 -1 7 -2.5t9 -3t8 -2.5q4 -1 15 -4.5t17 -5.5q23 22 49 59q26 38 26 92q0 45 -29 75q-29 31 -96 52l-145 45q-39 13 -87 25q-47 12 -73 26 q-28 -26 -49 -59q-24 -38 -24 -84z" />
<glyph unicode="&#xa8;" horiz-adv-x="1024" d="M190 1339l3 51q1 25 6 52q24 4 52 6q36 2 52 2q14 0 50 -2q29 -2 55 -6q8 -50 8 -103q0 -16 -2 -50q-1 -25 -6 -52q-53 -6 -105 -6q-32 0 -51 1q-37 2 -53 5q-5 27 -6 51q-3 48 -3 51zM608 1339q0 17 2 51q1 25 6 52q23 4 53 6q36 2 50 2q16 0 52 -2q27 -2 54 -6 q6 -53 6 -103q0 -51 -6 -102q-53 -6 -104 -6q-32 0 -51 1q-38 2 -54 5q-8 50 -8 102z" />
<glyph unicode="&#xa9;" horiz-adv-x="1732" d="M107 735q0 162 55 302t154 242q98 101 240 160q140 58 310 58t311 -57q138 -56 239 -160q100 -103 155 -242q55 -138 55 -303t-55 -303t-155 -241q-97 -100 -239 -159t-311 -59q-168 0 -310 59q-143 60 -240 159q-98 101 -154 241q-55 138 -55 303zM256 735 q0 -132 42 -246t121 -199t191 -134q114 -50 256 -50t256 50t192 134q79 85 121 199t42 246t-42 246q-43 116 -121 200t-192 134q-111 49 -256 49t-256 -49q-112 -49 -191 -134q-78 -84 -121 -200q-42 -114 -42 -246zM498 733q0 93 27 172q26 77 78 138q48 57 123 93 q69 33 165 33q72 0 118 -8q43 -7 93 -24q-1 -37 -9 -73q-7 -36 -24 -69q-47 16 -81 20q-40 5 -81 5q-117 0 -177 -77t-60 -210q0 -138 64 -208t177 -70q46 0 82 7q42 8 80 25q17 -30 27 -62q10 -31 16 -75q-95 -43 -221 -43q-93 0 -168 32q-74 32 -125 89t-78 135 q-26 75 -26 170z" />
<glyph unicode="&#xaa;" horiz-adv-x="1024" d="M127 872q0 72 30 124q29 51 79 86t114 51t139 16q30 0 76 -2q36 -2 64 -6v26q0 90 -49 124t-146 34q-50 0 -104 -8q-51 -7 -99 -23q-16 27 -25 66q-9 38 -9 72q48 14 125 26q66 10 135 10q169 0 255 -73q87 -74 87 -234v-512q-41 -11 -144 -27q-89 -14 -172 -14 q-173 0 -265 62q-91 61 -91 202zM291 874q0 -43 19 -68q20 -26 48 -39q25 -12 64 -17q38 -5 65 -5q71 0 142 13v250q-22 4 -56 6q-44 2 -61 2q-104 0 -163 -35q-58 -34 -58 -107z" />
<glyph unicode="&#xab;" horiz-adv-x="1265" d="M100 547l340 452q31 6 51 7q34 2 52 2q19 0 57 -2q19 -1 57 -7l-333 -450l333 -457q-28 -4 -56 -6q-36 -2 -56 -2q-55 0 -105 8zM616 547l340 452q31 6 51 7q34 2 52 2q19 0 57 -2q21 -1 58 -7l-334 -450l334 -457q-28 -4 -57 -6q-36 -2 -56 -2q-55 0 -105 8z" />
<glyph unicode="&#xac;" d="M178 694q0 13 2 49q2 27 6 48h854v-572q-18 -4 -44 -6q-34 -2 -48 -2q-13 0 -49 2q-26 1 -47 6v383h-666q-4 18 -6 44q-2 34 -2 48z" />
<glyph unicode="&#xad;" horiz-adv-x="739" d="M96 573q0 15 2 49q1 25 6 46h531q5 -21 6 -46q2 -34 2 -49q0 -14 -2 -48q-2 -26 -6 -44h-531q-4 18 -6 44q-2 34 -2 48z" />
<glyph unicode="&#xae;" horiz-adv-x="1732" d="M104 735q0 160 56 302q55 140 154 242q98 101 240 160q140 58 310 58t311 -57q138 -56 239 -160q100 -103 155 -242q55 -138 55 -303t-55 -303t-155 -241q-97 -100 -239 -159t-311 -59q-168 0 -310 59q-143 60 -240 159q-98 101 -154 241q-56 141 -56 303zM256 735 q0 -134 42 -248t120 -198t191 -133q115 -50 255 -50q142 0 256 50q113 50 192 133t121 198q42 114 42 248q0 132 -42 246q-43 117 -121 199q-79 83 -192 133q-111 49 -256 49q-142 0 -255 -49t-191 -133q-77 -83 -120 -199q-42 -114 -42 -246zM612 354v789q23 3 104 10 q44 4 109 4q79 0 136 -14q63 -15 105 -43q44 -29 70 -76q25 -46 25 -111q0 -91 -45 -148q-43 -55 -98 -83l215 -326q-18 -3 -52 -5q-16 -1 -46 -1q-43 0 -80 6l-234 365l41 18q47 21 93 61q44 38 44 97t-43 92q-44 33 -112 33q-23 0 -35 -1q-27 -2 -41 -5v-662 q-30 -6 -76 -6q-42 0 -80 6z" />
<glyph unicode="&#xaf;" horiz-adv-x="1024" d="M227 1346q0 9 2 37q1 17 7 38h552q6 -22 7 -37q2 -28 2 -38q0 -11 -2 -39q-1 -15 -7 -37h-552q-6 22 -7 37q-2 28 -2 39z" />
<glyph unicode="&#xb0;" horiz-adv-x="757" d="M82 1188q0 66 23 118t65 94q37 37 95 63q54 24 116 24q61 0 117 -24q58 -25 96 -63q40 -40 64 -94t24 -118q0 -62 -24 -116t-64 -94t-96 -64q-53 -23 -117 -23t-116 23q-56 25 -95 64q-42 42 -65 94t-23 116zM229 1188q0 -71 43 -115q44 -45 109 -45q66 0 111 45t45 115 t-45 116t-111 46t-109 -46t-43 -116z" />
<glyph unicode="&#xb1;" d="M174 94q0 31 1 48q2 31 5 46h869q5 -21 6 -46q2 -34 2 -48t-2 -48q-2 -26 -6 -44h-869q-3 13 -5 44q-1 17 -1 48zM176 721q0 47 8 90h340v373q22 4 44 6q28 2 46 2q15 0 45 -2q25 -2 48 -6v-373h337q6 -30 7 -45q2 -30 2 -45q0 -14 -2 -46q-1 -16 -7 -46h-337v-371 q-23 -4 -48 -6q-30 -2 -45 -2q-48 0 -90 8v371h-340q-8 43 -8 92z" />
<glyph unicode="&#xb2;" horiz-adv-x="921" d="M135 651q126 132 139 145q87 88 136 145q56 65 101 134q40 62 40 115q0 65 -49 89t-121 24q-59 0 -100 -11q-49 -13 -74 -24q-9 22 -22 64q-10 32 -17 81q59 21 119 34q51 11 123 11q146 0 233 -65q88 -66 88 -189q0 -92 -47 -175q-46 -83 -139 -175l-80 -80h313 q1 -11 3 -35q1 -12 1 -39q0 -26 -1 -38q-2 -24 -3 -35h-633z" />
<glyph unicode="&#xb3;" horiz-adv-x="921" d="M160 637q5 43 15 74q13 40 26 65q47 -15 100 -25q52 -10 94 -10q85 0 145 36t60 114q0 66 -53 96q-54 31 -121 31q-27 0 -39 -1q-21 -2 -41 -7l-22 24l178 273h-287q-6 37 -6 69q0 34 6 72h524l17 -31l-201 -291q57 -6 97 -29q43 -25 70 -56q27 -32 42 -70q14 -36 14 -76 q0 -71 -28 -124q-28 -54 -79 -92q-49 -37 -120 -57t-150 -20q-26 0 -66 2q-30 2 -57 6q-26 4 -56 11q-35 8 -62 16z" />
<glyph unicode="&#xb4;" horiz-adv-x="1024" d="M266 1217l236 260q30 5 63 6q44 2 68 2q27 0 67 -2q32 -2 60 -6l-291 -260q-30 -6 -49 -7q-36 -2 -60 -2q-14 0 -46 2q-16 1 -48 7z" />
<glyph unicode="&#xb5;" horiz-adv-x="1234" d="M164 -483v1534q22 4 50 6q36 2 50 2t50 -2q29 -2 51 -6v-549q0 -181 60 -268t191 -87q52 0 99 18t84 52t58 90q22 58 22 133v611q22 4 50 6q36 2 50 2t50 -2q28 -2 50 -6v-1051q-17 -4 -36 -6q-26 -2 -39 -2q-14 0 -42 2q-21 2 -42 6q-13 50 -15 63q-7 37 -12 68 q-50 -69 -122 -112q-73 -44 -187 -44q-138 0 -222 93v-551q-22 -4 -50 -6q-4 0 -22.5 -1.5t-27.5 -1.5t-26.5 1.5t-22.5 1.5q-26 1 -49 6z" />
<glyph unicode="&#xb6;" horiz-adv-x="1169" d="M102 1040q0 122 37 206q38 86 115 138q79 53 198 77q120 24 283 24v-1497q-101 0 -151 12v641h-25q-95 0 -179 23t-144 71q-63 51 -98 125q-36 77 -36 180zM891 -12v1497q101 0 151 -12v-1473q-50 -12 -151 -12z" />
<glyph unicode="&#xb7;" horiz-adv-x="493" d="M127 563q0 21 2 57q2 28 6 56q29 5 55 6q36 2 56 2t56 -2q28 -2 56 -6q6 -39 7 -55q2 -36 2 -56t-2 -56q-1 -18 -7 -56q-39 -6 -55 -7q-36 -2 -55 -2q-21 0 -57 2q-18 1 -56 7q-5 29 -6 55q-2 36 -2 55z" />
<glyph unicode="&#xb8;" horiz-adv-x="1024" d="M289 -471q1 16 7 61q5 34 21 58q61 -21 127 -21t104 20t38 62t-37 57t-96 15q-32 0 -59 -4q-34 -5 -56 -10l-12 10l100 272h131l-68 -168q19 4 48 4q99 0 151 -49q53 -50 53 -127q0 -100 -81 -151q-83 -52 -216 -52q-13 0 -71 4q-45 3 -84 19z" />
<glyph unicode="&#xb9;" horiz-adv-x="921" d="M162 1294l395 162h35v-684h190q9 -41 9 -72q0 -32 -9 -73h-559q-7 20 -8 35q-2 22 -2 38q0 12 2 36q1 16 8 36h197v469l-191 -78q-27 27 -42 60q-14 32 -25 71z" />
<glyph unicode="&#xba;" horiz-adv-x="1024" d="M133 1040q0 88 24 166t71 137q48 60 119 95q72 35 165 35t166 -35q72 -35 119 -95q46 -60 70 -137q24 -78 24 -166q0 -87 -24 -167t-70 -139q-47 -60 -119 -95q-73 -35 -166 -35t-165 35q-71 35 -119 95q-47 58 -71 139q-24 80 -24 167zM313 1040q0 -134 49 -210t150 -76 q103 0 151 76t48 210q0 132 -48 209q-48 76 -151 76q-101 0 -150 -76t-49 -209z" />
<glyph unicode="&#xbb;" horiz-adv-x="1263" d="M88 92l336 451l-336 456q38 6 56 7q36 2 57 2q17 0 53 -2q19 -1 51 -7l342 -454l-342 -453q-14 -3 -49 -7q-24 -3 -53 -3t-58 3q-38 4 -57 7zM602 92l336 451l-336 456q38 6 56 7q36 2 57 2q17 0 53 -2q19 -1 51 -7l342 -454l-342 -453q-14 -3 -49 -7q-24 -3 -53 -3 t-58 3q-38 4 -57 7z" />
<glyph unicode="&#xbc;" horiz-adv-x="2150" d="M133 1294l395 162h35v-684h191q8 -37 8 -72q0 -36 -8 -73h-559q-8 24 -9 35q-2 22 -2 38q0 12 2 36q1 12 9 36h196v469l-190 -78q-27 27 -42 60q-17 37 -26 71zM516 2l989 1448q24 4 50 6q34 2 51 2q18 0 54 -2q28 -2 52 -6l-989 -1448q-28 -4 -53 -6q-32 -2 -49 -2 q-55 0 -105 8zM1284 186l336 666q82 -10 149 -49l-243 -498h200v162q38 6 80 6t82 -6v-162h99q4 -16 6 -35q2 -24 2 -41q0 -43 -8 -69h-99v-158q-40 -6 -78 -6q-45 0 -84 6v158h-426z" />
<glyph unicode="&#xbd;" horiz-adv-x="2150" d="M127 1294l395 162h35v-684h191q8 -37 8 -72q0 -36 -8 -73h-560q-7 20 -8 35q-2 22 -2 38q0 12 2 36q1 16 8 36h197v469l-190 -78q-27 27 -42 60q-17 37 -26 71zM481 2l989 1448q23 4 51 6q34 2 50 2q18 0 54 -2q28 -2 52 -6l-989 -1448q-28 -4 -53 -6q-32 -2 -49 -2 q-55 0 -105 8zM1352 27q86 90 139 144q77 79 135 145q54 62 101 135q40 62 40 114q0 65 -49 89q-50 24 -121 24q-63 0 -100 -10q-43 -12 -74 -25q-1 3 -21 65q-12 38 -18 80q59 21 119 34q55 12 123 12q146 0 234 -66t88 -188q0 -93 -47 -176q-45 -80 -140 -175l-80 -79h314 q1 -11 3 -35q1 -12 1 -39t-1 -39q-2 -24 -3 -35h-633z" />
<glyph unicode="&#xbe;" horiz-adv-x="2150" d="M174 637q5 43 15 74q13 40 26 65q47 -15 100 -25q52 -10 95 -10q84 0 144 36t60 114q0 66 -53 96q-54 31 -121 31q-27 0 -39 -1q-21 -2 -41 -7l-22 24l178 273h-287q-6 37 -6 69q0 34 6 72h525l16 -31l-201 -291q58 -6 98 -29q41 -24 69 -56q27 -32 42 -70q15 -39 15 -76 q0 -69 -29 -124q-28 -54 -79 -92q-49 -37 -120 -57t-149 -20q-27 0 -67 2q-30 2 -57 6q-22 4 -55 11q-39 9 -63 16zM528 2l990 1448q24 4 50 6q34 2 50 2q18 0 54 -2q28 -2 52 -6l-989 -1448q-28 -4 -53 -6q-32 -2 -49 -2q-55 0 -105 8zM1303 203l335 665q84 -11 150 -49 l-244 -497h201v161q37 6 80 6q41 0 82 -6v-161h98q4 -16 6 -35q2 -24 2 -41q0 -44 -8 -70h-98v-158q-41 -6 -78 -6q-45 0 -84 6v158h-426z" />
<glyph unicode="&#xbf;" horiz-adv-x="999" d="M125 -20q0 104 42 179q43 78 98 125q60 52 116 80q63 31 96 42v210q56 9 101 9q15 0 47 -2q17 -1 47 -7v-331q-83 -22 -140 -46q-58 -24 -104 -62q-42 -35 -65 -84t-23 -111q0 -104 78 -164t223 -60q90 0 149 14t115 35q21 -45 32 -80q13 -39 19 -89q-42 -14 -91 -28 q-43 -12 -82 -18q-41 -6 -81 -9t-88 -3q-240 0 -365 110q-124 109 -124 290zM453 938q0 19 2 57q2 30 6 58q27 5 55 6q38 2 57 2q18 0 62 -2q32 -1 55 -6q4 -28 6 -57q2 -36 2 -56q0 -19 -2 -57q-2 -30 -6 -58q-19 -3 -57 -7q-28 -3 -58 -3q-29 0 -57 3q-38 4 -57 7 q-4 28 -6 57q-2 36 -2 56z" />
<glyph unicode="&#xc0;" horiz-adv-x="1263" d="M33 0l479 1473q27 5 57 6q40 2 64 2q19 0 59 -2q32 -2 60 -6l477 -1473q-24 -4 -55 -6q-40 -2 -60 -2q-18 0 -54 2q-28 2 -52 6l-103 340h-559l-100 -340q-27 -5 -53 -6q-36 -2 -54 -2q-20 0 -56 2q-28 2 -50 6zM274 1817q21 3 65 7q36 3 73 3q36 0 74 -3q48 -4 71 -7 l215 -222q-50 -8 -104 -8q-20 0 -58 2q-28 1 -55 6zM401 522h449l-225 752z" />
<glyph unicode="&#xc1;" horiz-adv-x="1263" d="M33 0l479 1473q27 5 57 6q40 2 64 2q19 0 59 -2q32 -2 60 -6l477 -1473q-24 -4 -55 -6q-40 -2 -60 -2q-18 0 -54 2q-28 2 -52 6l-103 340h-559l-100 -340q-27 -5 -53 -6q-36 -2 -54 -2q-20 0 -56 2q-28 2 -50 6zM401 522h449l-225 752zM461 1595l217 222q25 3 70 7 q37 3 73 3q39 0 74 -3q42 -4 63 -7l-278 -222q-27 -5 -55 -6q-38 -2 -58 -2q-21 0 -53 2q-25 2 -53 6z" />
<glyph unicode="&#xc2;" horiz-adv-x="1263" d="M33 0l479 1473q27 5 57 6q40 2 64 2q19 0 59 -2q32 -2 60 -6l477 -1473q-24 -4 -55 -6q-40 -2 -60 -2q-18 0 -54 2q-28 2 -52 6l-103 340h-559l-100 -340q-27 -5 -53 -6q-36 -2 -54 -2q-20 0 -56 2q-28 2 -50 6zM268 1595l242 222q22 4 53 6q40 2 66 2q24 0 64 -2 q30 -1 57 -6l235 -222q-18 -4 -41 -6q-30 -2 -43 -2h-45q-14 0 -50 2q-28 2 -44 6l-133 125l-133 -125q-18 -4 -47 -6q-38 -2 -50 -2h-47q-14 0 -42 2q-21 1 -42 6zM401 522h449l-225 752z" />
<glyph unicode="&#xc3;" horiz-adv-x="1263" d="M33 0l479 1473q27 5 57 6q40 2 64 2q19 0 59 -2q32 -2 60 -6l477 -1473q-24 -4 -55 -6q-40 -2 -60 -2q-18 0 -54 2q-28 2 -52 6l-103 340h-559l-100 -340q-27 -5 -53 -6q-36 -2 -54 -2q-20 0 -56 2q-28 2 -50 6zM262 1759q30 34 86 71q52 34 121 34q41 0 86 -17 q36 -14 84 -35q27 -12 81 -34q42 -17 81 -17q36 0 68 16q31 16 71 54q47 -57 68 -121q-34 -34 -87 -66t-118 -32q-45 0 -88 15q-40 14 -84 35q-45 22 -81 35q-40 15 -79 15q-45 0 -73 -17q-25 -15 -68 -53q-19 24 -41 57q-20 30 -27 60zM401 522h449l-225 752z" />
<glyph unicode="&#xc4;" horiz-adv-x="1263" d="M33 0l479 1473q27 5 57 6q40 2 64 2q19 0 59 -2q32 -2 60 -6l477 -1473q-24 -4 -55 -6q-40 -2 -60 -2q-18 0 -54 2q-28 2 -52 6l-103 340h-559l-100 -340q-27 -5 -53 -6q-36 -2 -54 -2q-20 0 -56 2q-28 2 -50 6zM295 1718q0 52 6 105q29 5 55 6q36 2 52 2q17 0 55 -2 q29 -2 53 -6q8 -50 8 -103q0 -54 -8 -104q-24 -4 -52 -6q-36 -2 -54 -2q-17 0 -53 2q-28 2 -56 6q-6 51 -6 102zM401 522h449l-225 752zM731 1718q0 51 10 105q23 4 53 6q36 2 54 2q16 0 52 -2q28 -2 56 -6q7 -61 7 -103q0 -44 -7 -104q-29 -5 -55 -6q-36 -2 -53 -2 q-15 0 -53 2q-31 2 -54 6q-3 15 -7 51q-3 24 -3 51z" />
<glyph unicode="&#xc5;" horiz-adv-x="1263" d="M33 0l479 1468q-56 28 -91 83q-34 53 -34 126q0 104 68 172t176 68q105 0 175 -68q68 -67 68 -172q0 -74 -33 -126q-35 -55 -91 -83l479 -1468q-24 -4 -55 -6q-40 -2 -60 -2q-18 0 -54 2q-28 2 -52 6l-105 340h-555l-102 -340q-27 -5 -53 -6q-36 -2 -54 -2q-20 0 -56 2 q-28 2 -50 6zM401 522h449l-225 744zM518 1677q0 -58 30 -96q30 -37 83 -37q54 0 82 37t28 96q0 60 -28 97q-27 36 -82 36q-54 0 -83 -36q-30 -38 -30 -97z" />
<glyph unicode="&#xc6;" horiz-adv-x="1888" d="M-10 0l864 1473h924q4 -22 6 -46q2 -30 2 -45q0 -14 -2 -48q-1 -25 -6 -46h-600v-444h481q6 -40 6 -90q0 -31 -1 -47q-2 -31 -5 -45h-481v-480h616q5 -21 6 -44q2 -32 2 -46q0 -15 -2 -47q-2 -24 -6 -45h-825v344h-551l-195 -344q-29 -5 -58 -6q-40 -2 -59 -2 q-22 0 -62 2q-30 2 -54 6zM516 524h453v781h-11z" />
<glyph unicode="&#xc7;" horiz-adv-x="1265" d="M119 725q0 174 47 318q46 140 136 244q88 102 216 156t285 54q120 0 201 -16t147 -41q-5 -50 -16 -86q-12 -39 -33 -84q-25 9 -60 18q-48 13 -61 15q-33 6 -73 9t-91 3q-221 0 -347 -153t-126 -437q0 -142 35 -250q35 -107 99 -177t155 -105t198 -35q94 0 158 14 q72 16 131 43q18 -37 35 -85q16 -45 23 -87q-162 -66 -351 -66h-34l-35 -88q7 1 19 3t20 2q111 0 165 -54q52 -52 52 -129q0 -99 -80 -152t-219 -53q-26 0 -76 5q-48 5 -88 20q1 18 7 63q4 30 24 60q74 -23 129 -23q143 0 143 80q0 40 -35 55t-96 15q-29 0 -57 -3 q-29 -3 -60 -14l-16 19q5 12 40 101q18 46 38 104q-129 21 -231 81t-172 154q-71 95 -108 221q-38 129 -38 281z" />
<glyph unicode="&#xc8;" horiz-adv-x="1097" d="M180 0v1473h809q6 -41 6 -91q0 -31 -1 -47q-2 -31 -5 -45h-600v-422h479q5 -21 6 -44q0 -2 1.5 -19.5t1.5 -26.5q0 -7 -0.5 -14.5t-1.5 -17.5t-1 -15q-2 -24 -6 -45h-479v-504h617q6 -40 6 -90q0 -31 -1 -47q-2 -31 -5 -45h-826zM262 1817q21 3 65 7q36 3 72 3 q37 0 75 -3q48 -4 71 -7l215 -222q-50 -8 -105 -8q-19 0 -57 2q-28 1 -55 6z" />
<glyph unicode="&#xc9;" horiz-adv-x="1097" d="M180 0v1473h809q6 -41 6 -91q0 -31 -1 -47q-2 -31 -5 -45h-600v-422h479q5 -21 6 -44q0 -2 1.5 -19.5t1.5 -26.5q0 -7 -0.5 -14.5t-1.5 -17.5t-1 -15q-2 -24 -6 -45h-479v-504h617q6 -40 6 -90q0 -31 -1 -47q-2 -31 -5 -45h-826zM395 1595l217 222q25 3 70 7q37 3 74 3 q38 0 73 -3q44 -4 64 -7l-279 -222q-27 -5 -55 -6q-38 -2 -57 -2q-21 0 -53 2q-26 2 -54 6z" />
<glyph unicode="&#xca;" horiz-adv-x="1097" d="M180 0v1473h809q6 -41 6 -91q0 -31 -1 -47q-2 -31 -5 -45h-600v-422h479q5 -21 6 -44q0 -2 1.5 -19.5t1.5 -26.5q0 -7 -0.5 -14.5t-1.5 -17.5t-1 -15q-2 -24 -6 -45h-479v-504h617q6 -40 6 -90q0 -31 -1 -47q-2 -31 -5 -45h-826zM223 1595l242 222q22 4 53 6q40 2 66 2 q24 0 64 -2q30 -1 57 -6l235 -222q-18 -4 -41 -6q-30 -2 -43 -2h-45q-14 0 -50 2q-28 2 -44 6l-133 125l-133 -125q-18 -4 -48 -6q-38 -2 -49 -2h-47q-14 0 -42 2q-21 1 -42 6z" />
<glyph unicode="&#xcb;" horiz-adv-x="1097" d="M180 0v1473h809q6 -41 6 -91q0 -31 -1 -47q-2 -31 -5 -45h-600v-422h479q5 -21 6 -44q0 -2 1.5 -19.5t1.5 -26.5q0 -7 -0.5 -14.5t-1.5 -17.5t-1 -15q-2 -24 -6 -45h-479v-504h617q6 -40 6 -90q0 -31 -1 -47q-2 -31 -5 -45h-826zM246 1718q0 52 6 105q29 5 55 6 q36 2 51 2q18 0 56 -2q29 -2 53 -6q8 -50 8 -103q0 -54 -8 -104q-24 -4 -52 -6q-36 -2 -55 -2q-16 0 -52 2q-28 2 -56 6q-6 51 -6 102zM682 1718q0 51 10 105q24 4 52 6q36 2 55 2q16 0 52 -2q28 -2 56 -6q6 -52 6 -103q0 -53 -6 -104q-29 -5 -55 -6q-36 -2 -53 -2 q-16 0 -54 2q-29 2 -53 6q-2 15 -7 51q-3 24 -3 51z" />
<glyph unicode="&#xcc;" horiz-adv-x="569" d="M-43 1817q22 4 64 7q36 3 73 3q38 0 75 -3q48 -4 71 -7l215 -222q-50 -8 -105 -8q-19 0 -57 2q-28 1 -55 6zM180 0v1473q24 5 51 6q36 2 54 2q17 0 53 -2q27 -1 51 -6v-1473q-24 -4 -50 -6q-34 -2 -54 -2q-19 0 -55 2q-28 2 -50 6z" />
<glyph unicode="&#xcd;" horiz-adv-x="569" d="M129 1595l217 222q25 3 70 7q37 3 73 3q39 0 74 -3q44 -4 64 -7l-279 -222q-27 -5 -55 -6q-38 -2 -57 -2q-22 0 -54 2q-25 2 -53 6zM180 0v1473q24 5 51 6q36 2 54 2q17 0 53 -2q27 -1 51 -6v-1473q-24 -4 -50 -6q-34 -2 -54 -2q-19 0 -55 2q-28 2 -50 6z" />
<glyph unicode="&#xce;" horiz-adv-x="569" d="M-74 1595l242 222q22 4 53 6q40 2 66 2q24 0 64 -2q30 -1 57 -6l235 -222q-18 -4 -41 -6q-30 -2 -43 -2h-45q-14 0 -50 2q-28 2 -44 6l-133 125l-133 -125q-18 -4 -48 -6q-38 -2 -49 -2h-47q-14 0 -42 2q-21 1 -42 6zM180 0v1473q24 5 51 6q36 2 54 2q17 0 53 -2 q27 -1 51 -6v-1473q-24 -4 -50 -6q-34 -2 -54 -2q-19 0 -55 2q-28 2 -50 6z" />
<glyph unicode="&#xcf;" horiz-adv-x="569" d="M-47 1718q0 52 6 105q29 5 55 6q36 2 52 2q17 0 55 -2q29 -2 53 -6q8 -50 8 -103q0 -54 -8 -104q-24 -4 -52 -6q-36 -2 -54 -2q-17 0 -53 2q-28 2 -56 6q-6 51 -6 102zM180 0v1473q24 5 51 6q36 2 54 2q17 0 53 -2q27 -1 51 -6v-1473q-24 -4 -50 -6q-34 -2 -54 -2 q-19 0 -55 2q-28 2 -50 6zM389 1718q0 51 10 105q23 4 53 6q36 2 54 2q16 0 52 -2q28 -2 56 -6q7 -61 7 -103q0 -44 -7 -104q-29 -5 -55 -6q-36 -2 -53 -2q-15 0 -53 2q-31 2 -54 6q-3 15 -7 51q-3 24 -3 51z" />
<glyph unicode="&#xd0;" horiz-adv-x="1449" d="M25 754q0 12 2 40q1 20 6 37h168v642q69 7 168 15q92 7 192 7q387 0 579 -197q191 -195 191 -565q0 -385 -195 -571q-196 -187 -583 -187q-90 0 -191 8q-106 8 -161 17v678h-168q-5 17 -6 37q-2 28 -2 39zM410 172q23 -4 70 -7q42 -3 89 -3q122 0 221 27q97 27 171 94 q71 65 110 177q39 111 39 279q0 154 -39 262q-40 110 -109 178q-71 69 -169 99q-102 31 -218 31q-54 0 -85 -1q-42 -1 -80 -8v-469h331q6 -22 7 -37q2 -28 2 -40q0 -10 -2 -38q-1 -17 -7 -38h-331v-506z" />
<glyph unicode="&#xd1;" horiz-adv-x="1392" d="M180 0v1473q22 5 48 6q34 2 48 2q15 0 49 -2q25 -1 48 -6l641 -1106v1106q24 5 51 6q36 2 53 2q15 0 47 -2q25 -2 47 -6v-1473q-22 -4 -48 -6q-34 -2 -48 -2t-48 2q-26 2 -48 6l-643 1100v-1100q-23 -4 -48 -6q-34 -2 -50 -2q-19 0 -53 2q-25 1 -46 6zM332 1759 q30 34 86 71q52 34 121 34q41 0 86 -17q36 -14 84 -35q27 -12 81 -34q42 -17 80 -17q37 0 69 16q31 16 71 54q45 -55 67 -121q-35 -34 -87 -66q-53 -32 -118 -32q-44 0 -88 15q-40 14 -84 35q-48 23 -80 35q-41 15 -79 15q-45 0 -73 -17t-69 -53q-19 24 -41 57 q-19 28 -26 60z" />
<glyph unicode="&#xd2;" horiz-adv-x="1482" d="M121 735q0 164 38 305q37 139 114 241q76 102 194 159q117 57 276 57q160 0 277 -57q116 -57 193 -159t114 -241q37 -138 37 -305t-37 -305q-37 -139 -114 -241q-74 -99 -193 -157q-117 -57 -277 -57q-159 0 -276 57q-120 59 -194 157q-77 102 -114 241q-38 141 -38 305z M344 735q0 -130 25 -241q24 -108 73 -183q48 -74 124 -115q74 -40 177 -40q104 0 178 40q75 40 123 115q50 78 74 183q25 111 25 241q0 129 -25 241q-23 105 -74 182q-50 75 -123 115q-74 40 -178 40q-103 0 -177 -40q-75 -40 -124 -115q-49 -74 -73 -182q-25 -112 -25 -241 zM379 1817q22 4 64 7q36 3 73 3q38 0 75 -3q48 -4 71 -7l215 -222q-50 -8 -105 -8q-19 0 -57 2q-29 2 -56 6z" />
<glyph unicode="&#xd3;" horiz-adv-x="1482" d="M121 735q0 164 38 305q37 139 114 241q76 102 194 159q117 57 276 57q160 0 277 -57q116 -57 193 -159t114 -241q37 -138 37 -305t-37 -305q-37 -139 -114 -241q-74 -99 -193 -157q-117 -57 -277 -57q-159 0 -276 57q-120 59 -194 157q-77 102 -114 241q-38 141 -38 305z M344 735q0 -130 25 -241q24 -108 73 -183q48 -74 124 -115q74 -40 177 -40q104 0 178 40q75 40 123 115q50 78 74 183q25 111 25 241q0 129 -25 241q-23 105 -74 182q-50 75 -123 115q-74 40 -178 40q-103 0 -177 -40q-75 -40 -124 -115q-49 -74 -73 -182q-25 -112 -25 -241 zM573 1595l218 222q26 4 69 7q37 3 74 3q39 0 74 -3q42 -4 63 -7l-278 -222q-27 -4 -56 -6q-38 -2 -57 -2q-21 0 -53 2q-26 2 -54 6z" />
<glyph unicode="&#xd4;" horiz-adv-x="1482" d="M121 735q0 164 38 305q37 139 114 241q76 102 194 159q117 57 276 57q160 0 277 -57q116 -57 193 -159t114 -241q37 -138 37 -305t-37 -305q-37 -139 -114 -241q-74 -99 -193 -157q-117 -57 -277 -57q-159 0 -276 57q-120 59 -194 157q-77 102 -114 241q-38 141 -38 305z M344 735q0 -130 25 -241q24 -108 73 -183q48 -74 124 -115q74 -40 177 -40q104 0 178 40q75 40 123 115q50 78 74 183q25 111 25 241q0 129 -25 241q-23 105 -74 182q-50 75 -123 115q-74 40 -178 40q-103 0 -177 -40q-75 -40 -124 -115q-49 -74 -73 -182q-25 -112 -25 -241 zM379 1595l242 222q22 4 53 6q40 2 65 2t65 -2q29 -1 56 -6l236 -222q-18 -4 -41 -6q-30 -2 -43 -2h-45q-15 0 -51 2q-28 2 -44 6l-133 125l-133 -125q-18 -4 -47 -6q-38 -2 -49 -2h-47q-14 0 -42 2q-21 1 -42 6z" />
<glyph unicode="&#xd5;" horiz-adv-x="1482" d="M121 735q0 164 38 305q37 139 114 241q76 102 194 159q117 57 276 57q160 0 277 -57q116 -57 193 -159t114 -241q37 -138 37 -305t-37 -305q-37 -139 -114 -241q-74 -99 -193 -157q-117 -57 -277 -57q-159 0 -276 57q-120 59 -194 157q-77 102 -114 241q-38 141 -38 305z M344 735q0 -130 25 -241q24 -108 73 -183q48 -74 124 -115q74 -40 177 -40q104 0 178 40q75 40 123 115q50 78 74 183q25 111 25 241q0 129 -25 241q-23 105 -74 182q-50 75 -123 115q-74 40 -178 40q-103 0 -177 -40q-75 -40 -124 -115q-49 -74 -73 -182q-25 -112 -25 -241 zM379 1759q30 34 86 71q52 34 121 34q41 0 86 -17q36 -14 84 -35q27 -12 81 -34q42 -17 81 -17q36 0 68 16q31 16 71 54q45 -55 67 -121q-34 -34 -87 -66t-117 -32q-46 0 -89 15q-36 13 -83 35q-45 22 -81 35q-41 15 -79 15q-45 0 -73 -17t-69 -53q-13 16 -40 57 q-20 30 -27 60z" />
<glyph unicode="&#xd6;" horiz-adv-x="1482" d="M121 735q0 164 38 305q37 139 114 241q76 102 194 159q117 57 276 57q160 0 277 -57q116 -57 193 -159t114 -241q37 -138 37 -305t-37 -305q-37 -139 -114 -241q-74 -99 -193 -157q-117 -57 -277 -57q-159 0 -276 57q-120 59 -194 157q-77 102 -114 241q-38 141 -38 305z M344 735q0 -130 25 -241q24 -108 73 -183q48 -74 124 -115q74 -40 177 -40q104 0 178 40q75 40 123 115q50 78 74 183q25 111 25 241q0 129 -25 241q-23 105 -74 182q-50 75 -123 115q-74 40 -178 40q-103 0 -177 -40q-75 -40 -124 -115q-49 -74 -73 -182q-25 -112 -25 -241 zM406 1718q0 52 6 105q29 5 55 6q36 2 51 2q17 0 55 -2q31 -2 54 -6q8 -50 8 -103q0 -54 -8 -104q-23 -4 -53 -6q-36 -2 -54 -2q-16 0 -52 2q-28 2 -56 6q-6 51 -6 102zM842 1718q0 51 10 105q24 4 52 6q36 2 54 2q17 0 53 -2q28 -2 56 -6q6 -52 6 -103q0 -53 -6 -104 q-29 -5 -55 -6q-36 -2 -54 -2q-15 0 -53 2q-29 2 -53 6q-2 15 -7 51q-3 24 -3 51z" />
<glyph unicode="&#xd7;" d="M236 477l249 248q-84 82 -125 124q-82 84 -122 124q22 35 58 69q41 39 71 62l247 -250q82 84 123 124t125 124q74 -56 129 -129q-123 -125 -248 -248q125 -123 248 -248q-26 -36 -60 -70q-35 -35 -69 -57l-246 246l-251 -248q-77 51 -129 129z" />
<glyph unicode="&#xd8;" horiz-adv-x="1482" d="M115 0l147 203q-71 99 -107 235q-36 135 -36 297q0 164 38 305q37 139 114 241q76 102 194 159q117 57 276 57q113 0 211 -31q94 -30 166 -90l70 97q16 5 36 6q26 2 44 2q19 0 47 -2q21 -1 39 -6l-142 -195q74 -99 113 -240q37 -135 37 -303q0 -167 -37 -305 q-37 -139 -114 -241q-74 -99 -193 -157q-117 -57 -277 -57q-123 0 -218 33q-97 34 -169 94l-73 -102q-35 -6 -82 -6t-84 6zM342 735q0 -211 55 -346l600 823q-96 101 -256 101q-103 0 -177 -40q-75 -40 -124 -115q-49 -74 -73 -182q-25 -112 -25 -241zM473 266 q100 -110 268 -110q104 0 178 40q75 40 123 115q50 78 74 183q25 111 25 241q0 211 -64 359z" />
<glyph unicode="&#xd9;" horiz-adv-x="1380" d="M166 600v873q49 6 106 6q56 0 103 -6v-836q0 -130 16 -217q17 -92 53 -147t98 -83q58 -26 148 -26t148 26q59 26 96 83q36 55 53 147q17 93 17 217v836q51 6 104 6q56 0 106 -6v-873q0 -147 -27 -264q-27 -118 -90 -197q-64 -81 -163 -122q-100 -42 -244 -42t-244 42 q-98 41 -162 122q-63 79 -90 197q-28 121 -28 264zM348 1817q21 3 65 7q36 3 72 3q37 0 75 -3q48 -4 71 -7l215 -222q-50 -8 -105 -8q-19 0 -57 2q-28 1 -55 6z" />
<glyph unicode="&#xda;" horiz-adv-x="1380" d="M166 600v873q49 6 106 6q56 0 103 -6v-836q0 -130 16 -217q17 -92 53 -147t98 -83q58 -26 148 -26t148 26q59 26 96 83q36 55 53 147q17 93 17 217v836q51 6 104 6q56 0 106 -6v-873q0 -147 -27 -264q-27 -118 -90 -197q-64 -81 -163 -122q-100 -42 -244 -42t-244 42 q-98 41 -162 122q-63 79 -90 197q-28 121 -28 264zM547 1595l217 222q25 3 70 7q38 3 73 3q39 0 74 -3q42 -4 63 -7l-278 -222q-27 -5 -55 -6q-38 -2 -58 -2q-21 0 -53 2q-25 2 -53 6z" />
<glyph unicode="&#xdb;" horiz-adv-x="1380" d="M166 600v873q49 6 106 6q56 0 103 -6v-836q0 -130 16 -217q17 -92 53 -147t98 -83q58 -26 148 -26t148 26q59 26 96 83q36 55 53 147q17 93 17 217v836q51 6 104 6q56 0 106 -6v-873q0 -147 -27 -264q-27 -118 -90 -197q-64 -81 -163 -122q-100 -42 -244 -42t-244 42 q-98 41 -162 122q-63 79 -90 197q-28 121 -28 264zM330 1595l241 222q22 4 54 6q40 2 65 2t65 -2q29 -1 56 -6l236 -222q-18 -4 -41 -6q-30 -2 -43 -2h-45q-15 0 -51 2q-28 2 -44 6l-133 125l-133 -125q-18 -4 -47 -6q-38 -2 -49 -2h-47q-14 0 -42 2q-21 1 -42 6z" />
<glyph unicode="&#xdc;" horiz-adv-x="1380" d="M166 600v873q49 6 106 6q56 0 103 -6v-836q0 -130 16 -217q17 -92 53 -147t98 -83q58 -26 148 -26t148 26q59 26 96 83q36 55 53 147q17 93 17 217v836q51 6 104 6q56 0 106 -6v-873q0 -147 -27 -264q-27 -118 -90 -197q-64 -81 -163 -122q-100 -42 -244 -42t-244 42 q-98 41 -162 122q-63 79 -90 197q-28 121 -28 264zM356 1718q0 52 6 105q28 4 56 6q36 2 51 2q17 0 55 -2q31 -2 54 -6q8 -50 8 -103q0 -54 -8 -104q-23 -4 -53 -6q-36 -2 -54 -2q-16 0 -52 2q-29 2 -57 6q-6 51 -6 102zM793 1718q0 51 10 105q24 4 52 6q36 2 54 2 q17 0 53 -2q28 -2 56 -6q6 -52 6 -103q0 -53 -6 -104q-29 -5 -55 -6q-36 -2 -54 -2q-15 0 -53 2q-29 2 -53 6q-3 15 -7 51q-3 24 -3 51z" />
<glyph unicode="&#xdd;" horiz-adv-x="1212" d="M37 1473q27 5 57 6q40 2 62 2q16 0 58 -2q32 -2 56 -6l344 -732l340 732q27 5 54 6q36 2 55 2t57 -2q29 -2 56 -6l-461 -934v-539q-27 -5 -53 -6q-36 -2 -54 -2t-54 2q-28 2 -50 6v539zM467 1595l217 222q25 3 70 7q37 3 73 3q39 0 74 -3q44 -4 64 -7l-279 -222 q-27 -5 -55 -6q-38 -2 -58 -2q-21 0 -53 2q-25 2 -53 6z" />
<glyph unicode="&#xde;" horiz-adv-x="1189" d="M178 0v1473q50 6 105 6q34 0 52 -1q36 -2 52 -5v-230q22 3 65 5q20 1 64 1q110 0 208 -23q101 -24 181 -81q79 -57 128 -153q48 -94 48 -238q0 -142 -48 -237q-47 -93 -128 -151q-78 -56 -181 -80q-102 -24 -208 -24q-44 0 -64 1q-27 1 -65 3v-266q-16 -3 -52 -5 q-18 -1 -52 -1q-37 0 -55 1q-35 2 -50 5zM387 451q58 -7 63 -7q32 -2 66 -2q58 0 126 13q61 12 112 47q50 35 80 96q30 62 30 158t-30 157t-80 96q-49 34 -112 46t-126 12q-32 0 -64 -2q-25 -2 -65 -6v-608z" />
<glyph unicode="&#xdf;" horiz-adv-x="1171" d="M162 0v1010q0 123 20 213q21 94 69 160q50 69 127 102q81 35 193 35q100 0 172 -27q71 -27 118 -72q47 -46 68 -105q21 -60 21 -128q0 -93 -28 -155q-25 -55 -64 -111q-34 -50 -63 -93q-29 -44 -29 -98q0 -42 25 -73q24 -30 60 -54t78 -51t78 -63t60 -87q25 -53 25 -127 q0 -132 -91 -217q-90 -84 -268 -84q-75 0 -136 14t-112 36q5 41 18 81q18 54 29 80q38 -18 93 -33q45 -12 92 -12q71 0 120 30q50 30 50 112q0 49 -24 81q-26 34 -59 56q-46 31 -78 49q-40 23 -78 56q-34 29 -59 77q-24 45 -24 115q0 71 29 124q30 54 62 101q34 50 63 105 q29 56 29 133q0 80 -47 127t-134 47q-123 0 -165 -83t-42 -265v-1006q-23 -5 -49 -6q-36 -2 -49 -2q-14 0 -50 2q-28 2 -50 6z" />
<glyph unicode="&#xe0;" horiz-adv-x="1058" d="M98 311q0 89 36 155q38 69 97 111q62 44 142 65q83 22 168 22q51 0 107 -4q49 -3 71 -7v39q0 121 -62 168t-178 47q-76 0 -134 -11q-60 -11 -122 -30q-39 68 -39 162q71 23 154 35q84 12 162 12q204 0 311 -93t107 -298v-657q-59 -14 -175 -34q-102 -18 -208 -18 q-97 0 -182 19q-79 17 -137 59q-56 40 -87 105t-31 153zM190 1477q29 4 62 6q40 2 67 2q21 0 67 -2q35 -2 65 -6l235 -260q-56 -9 -96 -9q-23 0 -59 2q-21 1 -50 7zM301 315q0 -61 23 -96q24 -36 56 -53q36 -19 75 -23q36 -4 77 -4q43 0 98 5q45 4 89 16v334q-8 1 -78 8 q-41 4 -80 4q-126 0 -193 -47t-67 -144z" />
<glyph unicode="&#xe1;" horiz-adv-x="1058" d="M98 311q0 89 36 155q38 69 97 111q62 44 142 65q83 22 168 22q51 0 107 -4q49 -3 71 -7v39q0 121 -62 168t-178 47q-76 0 -134 -11q-60 -11 -122 -30q-39 68 -39 162q71 23 154 35q84 12 162 12q204 0 311 -93t107 -298v-657q-59 -14 -175 -34q-102 -18 -208 -18 q-97 0 -182 19q-79 17 -137 59q-56 40 -87 105t-31 153zM301 315q0 -61 23 -96q24 -36 56 -53q36 -19 75 -23q36 -4 77 -4q43 0 98 5q45 4 89 16v334q-8 1 -78 8q-41 4 -80 4q-126 0 -193 -47t-67 -144zM326 1217l235 260q30 4 64 6q44 2 67 2q28 0 68 -2q31 -2 59 -6 l-291 -260q-30 -6 -49 -7q-36 -2 -59 -2q-14 0 -46 2q-16 1 -48 7z" />
<glyph unicode="&#xe2;" horiz-adv-x="1058" d="M98 311q0 89 36 155q38 69 97 111q62 44 142 65q83 22 168 22q51 0 107 -4q49 -3 71 -7v39q0 121 -62 168t-178 47q-76 0 -134 -11q-60 -11 -122 -30q-39 68 -39 162q71 23 154 35q84 12 162 12q204 0 311 -93t107 -298v-657q-59 -14 -175 -34q-102 -18 -208 -18 q-97 0 -182 19q-79 17 -137 59q-56 40 -87 105t-31 153zM170 1217l223 260q27 5 61 6q46 2 64 2q12 0 54 -2q30 -1 61 -8l221 -258q-23 -6 -42 -7q-32 -2 -50 -2q-17 0 -59 2q-22 1 -58 7l-133 163l-133 -163q-29 -6 -52 -7q-40 -2 -57 -2q-51 0 -100 9zM301 315 q0 -61 23 -96q24 -36 56 -53q36 -19 75 -23q36 -4 77 -4q43 0 98 5q45 4 89 16v334q-8 1 -78 8q-41 4 -80 4q-126 0 -193 -47t-67 -144z" />
<glyph unicode="&#xe3;" horiz-adv-x="1058" d="M98 311q0 89 36 155q38 69 97 111q62 44 142 65q83 22 168 22q51 0 107 -4q49 -3 71 -7v39q0 121 -62 168t-178 47q-76 0 -134 -11q-60 -11 -122 -30q-39 68 -39 162q71 23 154 35q84 12 162 12q204 0 311 -93t107 -298v-657q-59 -14 -175 -34q-102 -18 -208 -18 q-97 0 -182 19q-79 17 -137 59q-56 40 -87 105t-31 153zM174 1368q30 41 80 71q48 29 117 29q46 0 82 -14q40 -15 74 -31q14 -6 73 -30q38 -15 78 -15q32 0 64 13q29 12 73 51q45 -55 66 -125q-33 -39 -83 -68q-49 -28 -116 -28q-46 0 -82 14q-44 17 -76 31q-11 5 -23 10 t-26.5 11t-22.5 9q-36 15 -75 15q-41 0 -70 -15q-30 -16 -69 -49q-22 27 -39 59q-19 34 -25 62zM301 315q0 -61 23 -96q24 -36 56 -53q36 -19 75 -23q36 -4 77 -4q43 0 98 5q45 4 89 16v334q-8 1 -78 8q-41 4 -80 4q-126 0 -193 -47t-67 -144z" />
<glyph unicode="&#xe4;" horiz-adv-x="1058" d="M98 311q0 89 36 155q38 69 97 111q62 44 142 65q83 22 168 22q51 0 107 -4q49 -3 71 -7v39q0 121 -62 168t-178 47q-76 0 -134 -11q-60 -11 -122 -30q-39 68 -39 162q71 23 154 35q84 12 162 12q204 0 311 -93t107 -298v-657q-59 -14 -175 -34q-102 -18 -208 -18 q-97 0 -182 19q-79 17 -137 59q-56 40 -87 105t-31 153zM215 1339q0 17 2 51q1 25 6 52q24 4 52 6q36 2 53 2q14 0 50 -2q27 -2 54 -6q8 -50 8 -103q0 -16 -2 -50q-1 -25 -6 -52q-52 -6 -104 -6q-33 0 -52 1q-37 2 -53 5q-5 27 -6 51q-2 32 -2 51zM301 315q0 -61 23 -96 q24 -36 56 -53q36 -19 75 -23q36 -4 77 -4q43 0 98 5q45 4 89 16v334q-8 1 -78 8q-41 4 -80 4q-126 0 -193 -47t-67 -144zM633 1339q0 17 2 51q1 25 6 52q24 4 52 6q36 2 50 2q17 0 53 -2q27 -2 54 -6q6 -53 6 -103q0 -51 -6 -102q-53 -6 -105 -6q-32 0 -51 1q-37 2 -53 5 q-8 50 -8 102z" />
<glyph unicode="&#xe5;" horiz-adv-x="1058" d="M98 311q0 89 36 155q38 69 97 111q62 44 142 65q83 22 168 22q51 0 107 -4q49 -3 71 -7v39q0 121 -62 168t-178 47q-76 0 -134 -11q-60 -11 -122 -30q-39 68 -39 162q71 23 154 35q84 12 162 12q204 0 311 -93t107 -298v-657q-59 -14 -175 -34q-102 -18 -208 -18 q-97 0 -182 19q-79 17 -137 59q-56 40 -87 105t-31 153zM301 315q0 -61 23 -96q24 -36 56 -53q36 -19 75 -23q36 -4 77 -4q43 0 98 5q45 4 89 16v334q-8 1 -78 8q-41 4 -80 4q-126 0 -193 -47t-67 -144zM319 1419q0 99 62 159t160 60q97 0 159 -60t62 -159q0 -98 -62 -158 q-63 -61 -159 -61q-97 0 -160 61q-62 60 -62 158zM440 1419q0 -53 26 -84q26 -30 75 -30q48 0 75 30t27 84t-27 84q-28 31 -75 31q-49 0 -75 -31t-26 -84z" />
<glyph unicode="&#xe6;" horiz-adv-x="1718" d="M90 311q0 88 36 154q35 64 97 108t142 65t170 21q53 0 96 -3q52 -4 78 -7v43q0 122 -60 168q-61 47 -176 47q-75 0 -134 -11q-66 -12 -122 -30q-39 68 -39 162q71 23 153 35t163 12q124 0 205 -40q84 -41 139 -124q57 74 143 119q85 45 201 45q107 0 187 -37 q82 -38 136 -101q56 -65 83 -154q28 -92 28 -193q0 -17 -2 -59q-2 -31 -6 -54h-703q0 -181 84 -257q85 -77 256 -77q71 0 138 14q60 13 130 38q13 -27 25 -75q10 -44 12 -87q-142 -58 -323 -58q-107 0 -199 24t-160 77q-69 -42 -162 -71q-98 -30 -210 -30q-84 0 -163 19 q-75 18 -128 59q-54 41 -84 105q-31 65 -31 153zM295 309q0 -60 22 -94q22 -33 56 -52t70 -23q42 -5 71 -5q66 0 133 15q69 15 117 49q-29 50 -42 115q-13 66 -15 135l-2 38q-36 5 -70 8q-39 3 -74 3q-127 0 -197 -44q-69 -44 -69 -145zM907 629h512q0 60 -14 109 q-15 54 -44 91q-31 40 -75 62t-106 22q-128 0 -193 -74t-80 -210z" />
<glyph unicode="&#xe7;" horiz-adv-x="978" d="M104 524q0 115 32 217q32 101 96 174t160 117q93 43 222 43q90 0 152 -11q69 -12 127 -34q0 -35 -9 -80q-9 -44 -26 -80q-55 18 -106 26q-56 9 -121 9q-161 0 -240 -103q-80 -104 -80 -278q0 -197 91 -288q93 -93 243 -93q52 0 113 9q52 8 106 28q18 -31 29 -71 q13 -45 14 -89q-58 -20 -136 -33q-70 -12 -157 -12l-36 -92q14 2 36 2q108 0 161 -49q54 -50 54 -125q0 -103 -80 -153q-83 -52 -217 -52q-23 0 -71 5q-47 5 -84 20q1 17 7 60q5 32 21 59q69 -23 127 -23q62 0 103 22q39 21 39 60q0 42 -37 58q-36 16 -98 16q-33 0 -58 -4 q-35 -5 -55 -10q-3 1 -12 10q42 115 78 209q-196 38 -291 177q-97 142 -97 359z" />
<glyph unicode="&#xe8;" horiz-adv-x="1140" d="M102 518q0 116 30 218q30 101 91 176q62 75 155 119q94 44 220 44q109 0 190 -37q84 -38 138 -101q55 -64 84 -154q28 -87 28 -193q0 -19 -2 -61q-1 -12 -2.5 -31t-1.5 -23h-715q5 -173 90 -252q86 -80 250 -80q144 0 277 52q16 -29 27 -75q11 -44 12 -87 q-65 -27 -149 -43q-81 -15 -179 -15q-145 0 -246 40q-103 41 -169 113q-67 73 -97 172q-31 102 -31 218zM272 1477q29 4 62 6q40 2 67 2q21 0 67 -2q34 -1 64 -6l236 -260q-56 -9 -96 -9q-23 0 -59 2q-21 1 -50 7zM319 627h519q0 53 -16 109q-15 52 -45 91t-76 63 q-45 23 -109 23q-127 0 -192 -75q-66 -77 -81 -211z" />
<glyph unicode="&#xe9;" horiz-adv-x="1140" d="M102 518q0 116 30 218q30 101 91 176q62 75 155 119q94 44 220 44q109 0 190 -37q84 -38 138 -101q55 -64 84 -154q28 -87 28 -193q0 -19 -2 -61q-1 -12 -2.5 -31t-1.5 -23h-715q5 -173 90 -252q86 -80 250 -80q144 0 277 52q16 -29 27 -75q11 -44 12 -87 q-65 -27 -149 -43q-81 -15 -179 -15q-145 0 -246 40q-103 41 -169 113q-67 73 -97 172q-31 102 -31 218zM319 627h519q0 53 -16 109q-15 52 -45 91t-76 63q-45 23 -109 23q-127 0 -192 -75q-66 -77 -81 -211zM414 1217l235 260q30 4 64 6q44 2 67 2q28 0 68 -2q31 -2 59 -6 l-291 -260q-30 -6 -49 -7q-36 -2 -59 -2q-14 0 -46 2q-16 1 -48 7z" />
<glyph unicode="&#xea;" horiz-adv-x="1140" d="M102 518q0 116 30 218q30 101 91 176q62 75 155 119q94 44 220 44q109 0 190 -37q84 -38 138 -101q55 -64 84 -154q28 -87 28 -193q0 -19 -2 -61q-1 -12 -2.5 -31t-1.5 -23h-715q5 -173 90 -252q86 -80 250 -80q144 0 277 52q16 -29 27 -75q11 -44 12 -87 q-65 -27 -149 -43q-81 -15 -179 -15q-145 0 -246 40q-103 41 -169 113q-67 73 -97 172q-31 102 -31 218zM244 1217l223 260q28 5 60 6q46 2 65 2q12 0 54 -2q30 -1 61 -8l221 -258q-23 -6 -42 -7q-32 -2 -50 -2q-17 0 -59 2q-22 1 -58 7l-133 163l-133 -163q-29 -6 -53 -7 q-40 -2 -56 -2q-51 0 -100 9zM319 627h519q0 53 -16 109q-15 52 -45 91t-76 63q-45 23 -109 23q-127 0 -192 -75q-66 -77 -81 -211z" />
<glyph unicode="&#xeb;" horiz-adv-x="1140" d="M102 518q0 116 30 218q30 101 91 176q62 75 155 119q94 44 220 44q109 0 190 -37q84 -38 138 -101q55 -64 84 -154q28 -87 28 -193q0 -19 -2 -61q-1 -12 -2.5 -31t-1.5 -23h-715q5 -173 90 -252q86 -80 250 -80q144 0 277 52q16 -29 27 -75q11 -44 12 -87 q-65 -27 -149 -43q-81 -15 -179 -15q-145 0 -246 40q-103 41 -169 113q-67 73 -97 172q-31 102 -31 218zM256 1339q0 17 2 51q1 25 6 52q24 4 52 6q36 2 53 2q14 0 50 -2q27 -2 54 -6q8 -50 8 -103q0 -16 -2 -50q-1 -25 -6 -52q-52 -6 -104 -6q-33 0 -52 1q-37 2 -53 5 q-4 27 -6 51q-2 32 -2 51zM319 627h519q0 53 -16 109q-15 52 -45 91t-76 63q-45 23 -109 23q-127 0 -192 -75q-66 -77 -81 -211zM674 1339q0 17 2 51q1 25 6 52q24 4 52 6q36 2 50 2q17 0 53 -2q27 -2 54 -6q6 -53 6 -103q0 -51 -6 -102q-53 -6 -105 -6q-32 0 -51 1 q-37 2 -53 5q-8 50 -8 102z" />
<glyph unicode="&#xec;" horiz-adv-x="589" d="M-29 1477q29 4 62 6q40 2 67 2q21 0 67 -2q34 -1 64 -6l236 -260q-56 -9 -96 -9q-23 0 -59 2q-21 1 -50 7zM84 971q0 14 2 42q2 22 6 38h332v-1051q-22 -4 -50 -6q-36 -2 -50 -2q-13 0 -49 2q-28 2 -50 6v891h-133q-4 16 -6 38q-2 28 -2 42z" />
<glyph unicode="&#xed;" horiz-adv-x="589" d="M84 971q0 14 2 42q2 22 6 38h332v-1051q-22 -4 -50 -6q-36 -2 -50 -2q-13 0 -49 2q-28 2 -50 6v891h-133q-4 16 -6 38q-2 28 -2 42zM102 1217l236 260q30 5 63 6q44 2 68 2q28 0 68 -2q31 -2 59 -6l-291 -260q-30 -6 -49 -7q-36 -2 -59 -2q-14 0 -46 2q-17 1 -49 7z" />
<glyph unicode="&#xee;" horiz-adv-x="589" d="M-47 1217l223 260q27 5 61 6q46 2 64 2q12 0 54 -2q30 -1 61 -8l221 -258q-23 -6 -42 -7q-32 -2 -50 -2q-17 0 -59 2q-22 1 -58 7l-133 163l-133 -163q-29 -6 -52 -7q-40 -2 -57 -2q-51 0 -100 9zM84 971q0 14 2 42q2 22 6 38h332v-1051q-22 -4 -50 -6q-36 -2 -50 -2 q-13 0 -49 2q-28 2 -50 6v891h-133q-4 16 -6 38q-2 28 -2 42z" />
<glyph unicode="&#xef;" horiz-adv-x="589" d="M-25 1339q0 17 2 51q1 15 7 52q24 4 52 6q36 2 52 2q14 0 50 -2q28 -2 55 -6q8 -50 8 -103q0 -16 -2 -50q-1 -25 -6 -52q-52 -6 -105 -6q-32 0 -51 1q-37 2 -53 5q-6 37 -7 51q-2 32 -2 51zM84 971q0 14 2 42q2 22 6 38h332v-1051q-22 -4 -50 -6q-36 -2 -50 -2 q-13 0 -49 2q-28 2 -50 6v891h-133q-4 16 -6 38q-2 28 -2 42zM393 1339q0 17 2 51q1 25 6 52q23 4 53 6q36 2 50 2q16 0 52 -2q27 -2 54 -6q6 -53 6 -103q0 -51 -6 -102q-52 -6 -104 -6q-32 0 -51 1q-38 2 -54 5q-8 50 -8 102z" />
<glyph unicode="&#xf0;" horiz-adv-x="1189" d="M104 485q0 109 30 202q31 95 87 163t144 108q85 39 198 39q80 0 152 -25q73 -26 121 -73q-39 105 -85 182q-44 75 -110 127l-201 -125q-26 24 -43 53t-28 58l143 90q-44 21 -98 34q-45 11 -109 19q-10 27 -10 72q0 19 5 49q3 20 13 49q111 -6 202 -34q90 -27 171 -76 l180 114q25 -22 44 -51q15 -24 34 -59q-38 -24 -71 -44q-13 -8 -37.5 -23t-34.5 -21q138 -128 211 -323q71 -191 71 -423q0 -138 -29 -244q-30 -111 -90 -187t-153 -119q-91 -42 -217 -42q-124 0 -217 38t-153 107t-90 162t-30 203zM317 485q0 -165 67 -259q66 -93 210 -93 q143 0 209 93q65 92 65 259q0 175 -65 261q-67 88 -209 88q-135 0 -206 -88t-71 -261z" />
<glyph unicode="&#xf1;" horiz-adv-x="1183" d="M164 0v1051q22 4 44 6q28 2 44 2t42 -2q20 -1 42 -6q6 -29 12 -83q6 -52 6 -87q20 33 53 69q35 38 72 63q39 26 94 45q50 17 117 17q181 0 266 -103q86 -104 86 -306v-666q-22 -4 -51 -6q-38 -2 -51 -2q-14 0 -50 2q-28 2 -50 6v610q0 145 -45 214t-144 69 q-57 0 -108 -21q-53 -22 -90 -63q-39 -44 -63 -112q-23 -66 -23 -165v-532q-22 -4 -51 -6q-36 -2 -50 -2q-13 0 -51 2q-29 2 -51 6zM242 1368q30 41 80 71q48 29 116 29q46 0 82 -14q46 -18 75 -31q14 -6 73 -30q38 -15 77 -15q33 0 65 13q29 12 73 51q43 -53 65 -125 q-33 -39 -83 -68q-49 -28 -115 -28q-46 0 -82 14q-44 17 -76 31q-14 6 -40 16.5t-33 13.5q-36 15 -75 15q-40 0 -69 -15q-33 -17 -70 -49q-22 27 -39 59q-17 31 -24 62z" />
<glyph unicode="&#xf2;" horiz-adv-x="1181" d="M100 524q0 116 30 217t91 174t154 117q90 43 215 43t215 -43q91 -44 153 -117q62 -74 92 -174q29 -97 29 -217t-29 -217q-30 -100 -92 -174t-153 -116t-215 -42t-215 42q-92 42 -154 116q-61 73 -91 174t-30 217zM260 1477q29 4 62 6q40 2 67 2q21 0 67 -2q34 -1 64 -6 l236 -260q-56 -9 -97 -9q-22 0 -58 2q-21 1 -50 7zM315 524q0 -180 67 -284q67 -103 208 -103t209 103q67 101 67 284t-67 284t-209 101q-143 0 -208 -101q-67 -104 -67 -284z" />
<glyph unicode="&#xf3;" horiz-adv-x="1181" d="M100 524q0 116 30 217t91 174t154 117q90 43 215 43t215 -43q91 -44 153 -117q62 -74 92 -174q29 -97 29 -217t-29 -217q-30 -100 -92 -174t-153 -116t-215 -42t-215 42q-92 42 -154 116q-61 73 -91 174t-30 217zM315 524q0 -180 67 -284q67 -103 208 -103t209 103 q67 101 67 284t-67 284t-209 101q-143 0 -208 -101q-67 -104 -67 -284zM399 1217l236 260q30 5 63 6q44 2 68 2q28 0 68 -2q31 -2 59 -6l-291 -260q-30 -6 -49 -7q-36 -2 -59 -2q-15 0 -47 2q-16 1 -48 7z" />
<glyph unicode="&#xf4;" horiz-adv-x="1181" d="M100 524q0 116 30 217t91 174t154 117q90 43 215 43t215 -43q91 -44 153 -117q62 -74 92 -174q29 -97 29 -217t-29 -217q-30 -100 -92 -174t-153 -116t-215 -42t-215 42q-92 42 -154 116q-61 73 -91 174t-30 217zM246 1217l223 260q28 5 60 6q46 2 65 2q12 0 54 -2 q30 -1 61 -8l221 -258q-23 -6 -42 -7q-32 -2 -50 -2q-17 0 -59 2q-22 1 -58 7l-133 163l-133 -163q-29 -6 -53 -7q-40 -2 -56 -2q-51 0 -100 9zM315 524q0 -180 67 -284q67 -103 208 -103t209 103q67 101 67 284t-67 284t-209 101q-143 0 -208 -101q-67 -104 -67 -284z" />
<glyph unicode="&#xf5;" horiz-adv-x="1181" d="M100 524q0 116 30 217t91 174t154 117q90 43 215 43t215 -43q91 -44 153 -117q62 -74 92 -174q29 -97 29 -217t-29 -217q-30 -100 -92 -174t-153 -116t-215 -42t-215 42q-92 42 -154 116q-61 73 -91 174t-30 217zM236 1368q31 42 79 71t117 29q46 0 82 -14q46 -18 75 -31 q21 -9 72 -30q37 -15 78 -15q33 0 65 13q29 12 73 51q43 -53 65 -125q-33 -39 -83 -68q-49 -28 -116 -28q-45 0 -81 14q-44 17 -76 31q-14 6 -40 16.5t-33 13.5q-36 15 -75 15q-40 0 -69 -15q-33 -17 -70 -49q-22 27 -39 59q-17 31 -24 62zM315 524q0 -180 67 -284 q67 -103 208 -103t209 103q67 101 67 284t-67 284t-209 101q-143 0 -208 -101q-67 -104 -67 -284z" />
<glyph unicode="&#xf6;" horiz-adv-x="1181" d="M100 524q0 116 30 217t91 174t154 117q90 43 215 43t215 -43q91 -44 153 -117q62 -74 92 -174q29 -97 29 -217t-29 -217q-30 -100 -92 -174t-153 -116t-215 -42t-215 42q-92 42 -154 116q-61 73 -91 174t-30 217zM266 1339q0 17 2 51q1 25 6 52q23 4 53 6q36 2 52 2 q14 0 50 -2q27 -2 54 -6q9 -56 9 -103q0 -7 -0.5 -15.5t-1.5 -18.5t-1 -16q-1 -25 -6 -52q-52 -6 -104 -6q-32 0 -51 1q-38 2 -54 5q-4 27 -6 51q-2 32 -2 51zM315 524q0 -180 67 -284q67 -103 208 -103t209 103q67 101 67 284t-67 284t-209 101q-143 0 -208 -101 q-67 -104 -67 -284zM684 1339q0 17 2 51q1 25 6 52q24 4 52 6q36 2 51 2q16 0 52 -2q27 -2 54 -6q6 -53 6 -103q0 -51 -6 -102q-53 -6 -104 -6q-33 0 -52 1q-37 2 -53 5q-8 50 -8 102z" />
<glyph unicode="&#xf7;" d="M174 721q0 31 1 48q2 31 5 46h869q5 -21 6 -46q2 -34 2 -48t-2 -48q-2 -26 -6 -44h-869q-3 13 -5 44q-1 17 -1 48zM467 356q0 57 41 100q40 42 100 42q58 0 100 -42t42 -100q0 -60 -42 -100q-43 -41 -100 -41q-59 0 -100 41t-41 100zM467 1096q0 59 41 100t100 41 q57 0 100 -41q42 -40 42 -100t-42 -100q-41 -40 -100 -40q-60 0 -100 40q-41 41 -41 100z" />
<glyph unicode="&#xf8;" horiz-adv-x="1181" d="M104 524q0 116 30 217t90 174t152 117q90 43 214 43q93 0 167 -25t132 -71l51 63q36 9 76 9q41 0 76 -7l-121 -151q54 -75 79 -167q25 -91 25 -202q0 -120 -29 -217q-29 -99 -91 -174q-61 -75 -151 -116q-92 -42 -214 -42q-166 0 -279 78l-39 -51q-35 -8 -73 -8 q-48 0 -78 6l104 133q-61 73 -91 174t-30 217zM313 524q0 -141 39 -231l424 543q-69 73 -186 73q-142 0 -209 -101q-68 -103 -68 -284zM422 193q64 -56 168 -56q140 0 210 103q68 101 68 284q0 63 -7 109q-8 55 -21 92z" />
<glyph unicode="&#xf9;" horiz-adv-x="1175" d="M152 467v584q22 5 51 6q38 2 49 2q13 0 51 -2q29 -1 51 -6v-576q0 -95 19 -163q18 -64 55 -101q35 -35 90 -51q52 -15 123 -15q103 0 178 23v883q22 4 50 6q36 2 51 2q14 0 50 -2q28 -2 50 -6v-1018q-72 -21 -171 -39q-105 -19 -206 -19t-189 18q-91 18 -157 70 q-67 52 -107 150q-38 94 -38 254zM264 1477q29 4 62 6q40 2 67 2q21 0 67 -2q34 -1 64 -6l236 -260q-56 -9 -96 -9q-23 0 -59 2q-21 1 -50 7z" />
<glyph unicode="&#xfa;" horiz-adv-x="1175" d="M152 467v584q22 5 51 6q38 2 49 2q13 0 51 -2q29 -1 51 -6v-576q0 -95 19 -163q18 -64 55 -101q35 -35 90 -51q52 -15 123 -15q103 0 178 23v883q22 4 50 6q36 2 51 2q14 0 50 -2q28 -2 50 -6v-1018q-72 -21 -171 -39q-105 -19 -206 -19t-189 18q-91 18 -157 70 q-67 52 -107 150q-38 94 -38 254zM438 1217l236 260q30 5 63 6q44 2 68 2q27 0 67 -2q32 -2 60 -6l-291 -260q-30 -6 -49 -7q-36 -2 -60 -2q-14 0 -46 2q-16 1 -48 7z" />
<glyph unicode="&#xfb;" horiz-adv-x="1175" d="M152 467v584q22 5 51 6q38 2 49 2q13 0 51 -2q29 -1 51 -6v-576q0 -95 19 -163q18 -64 55 -101q35 -35 90 -51q52 -15 123 -15q103 0 178 23v883q22 4 50 6q36 2 51 2q14 0 50 -2q28 -2 50 -6v-1018q-72 -21 -171 -39q-105 -19 -206 -19t-189 18q-91 18 -157 70 q-67 52 -107 150q-38 94 -38 254zM244 1217l223 260q28 5 60 6q46 2 65 2q12 0 54 -2q30 -1 61 -8l221 -258q-23 -6 -42 -7q-32 -2 -50 -2q-17 0 -59 2q-22 1 -58 7l-133 163l-133 -163q-29 -6 -53 -7q-40 -2 -56 -2q-51 0 -100 9z" />
<glyph unicode="&#xfc;" horiz-adv-x="1175" d="M152 467v584q22 5 51 6q38 2 49 2q13 0 51 -2q29 -1 51 -6v-576q0 -95 19 -163q18 -64 55 -101q35 -35 90 -51q52 -15 123 -15q103 0 178 23v883q22 4 50 6q36 2 51 2q14 0 50 -2q28 -2 50 -6v-1018q-72 -21 -171 -39q-105 -19 -206 -19t-189 18q-91 18 -157 70 q-67 52 -107 150q-38 94 -38 254zM276 1339q0 7 0.5 15.5t1.5 19t1 16.5q1 25 6 52q24 4 52 6q36 2 52 2q14 0 50 -2q28 -2 55 -6q8 -50 8 -103q0 -16 -2 -50q-1 -25 -6 -52q-53 -6 -105 -6q-32 0 -51 1q-37 2 -53 5q-5 27 -6 51q-3 48 -3 51zM694 1339q0 17 2 51q1 25 6 52 q23 4 53 6q36 2 50 2q16 0 52 -2q27 -2 54 -6q7 -61 7 -103q0 -43 -7 -102q-53 -6 -104 -6q-32 0 -51 1q-38 2 -54 5q-8 50 -8 102z" />
<glyph unicode="&#xfd;" horiz-adv-x="1079" d="M27 1051q18 3 55 5q19 1 53 1q38 0 60 -1q39 -2 55 -5l291 -977l301 977q44 6 100 6q32 0 51 -1q39 -2 58 -5l-408 -1264q-28 -81 -59 -141q-30 -56 -70 -92q-40 -35 -87 -50q-45 -14 -112 -14q-50 0 -93 7q-46 7 -81 18q0 44 8 84q6 30 25 73q12 -4 50 -13q29 -7 69 -7 q23 0 50 5q22 4 44 20q19 13 38 44q17 27 34 78l63 199q-22 0 -34 -1t-33 -1q-28 0 -43 1q-21 1 -37 3zM360 1217l236 260q30 5 63 6q44 2 68 2q28 0 68 -2q31 -2 59 -6l-291 -260q-30 -6 -49 -7q-36 -2 -59 -2q-14 0 -46 2q-17 1 -49 7z" />
<glyph unicode="&#xfe;" horiz-adv-x="1208" d="M160 -483v1984q16 3 52 5q18 1 50 1t50 -1q35 -2 50 -5v-583q39 60 118 109q77 48 194 48q90 0 171 -32q77 -31 135 -96q56 -64 88 -163q32 -101 32 -233q0 -270 -147 -423t-416 -153q-41 0 -91 8q-55 9 -84 17v-483q-16 -3 -51 -5q-19 -1 -49 -1q-32 0 -50 1 q-36 2 -52 5zM362 172q32 -12 81 -21q45 -8 106 -8q73 0 135 24q64 25 106 73q44 50 69 125q26 78 26 178q0 162 -60 258t-196 96q-55 0 -100 -17q-48 -18 -85 -55t-59 -93q-23 -58 -23 -134v-426z" />
<glyph unicode="&#xff;" horiz-adv-x="1079" d="M27 1051q18 3 55 5q19 1 53 1q38 0 60 -1q39 -2 55 -5l291 -977l301 977q44 6 100 6q32 0 51 -1q39 -2 58 -5l-408 -1264q-28 -81 -59 -141q-30 -56 -70 -92q-40 -35 -87 -50q-45 -14 -112 -14q-50 0 -93 7q-46 7 -81 18q0 44 8 84q6 30 25 73q12 -4 50 -13q29 -7 69 -7 q23 0 50 5q22 4 44 20q19 13 38 44q17 27 34 78l63 199q-22 0 -34 -1t-33 -1q-28 0 -43 1q-21 1 -37 3zM219 1339q0 17 2 51q1 25 6 52q23 4 53 6q36 2 52 2q14 0 50 -2q27 -2 54 -6q8 -50 8 -103q0 -16 -2 -50q-1 -25 -6 -52q-53 -6 -104 -6q-32 0 -51 1q-38 2 -54 5 q-5 27 -6 51q-2 32 -2 51zM637 1339q0 17 2 51q1 25 6 52q24 4 52 6q36 2 51 2q16 0 52 -2q27 -2 54 -6q6 -53 6 -103q0 -51 -6 -102q-53 -6 -104 -6q-33 0 -52 1q-37 2 -53 5q-8 50 -8 102z" />
<glyph unicode="&#x152;" horiz-adv-x="1892" d="M113 735q0 164 41 305q40 139 120 241q79 102 200 159q120 57 280 57q52 0 125 -5q68 -5 118 -19h785q4 -21 6 -45q2 -32 2 -46q0 -15 -2 -47q-2 -24 -6 -45h-600v-422h479q5 -21 6 -44q2 -32 2 -46q0 -15 -2 -47q-1 -24 -6 -45h-479v-504h616q5 -21 6 -44q2 -32 2 -46 q0 -15 -2 -47q-2 -24 -6 -45h-790q-55 -12 -128 -18q-84 -7 -132 -7q-160 0 -279 57q-121 58 -198 157q-77 98 -118 241q-40 138 -40 305zM336 735q0 -137 25 -241q25 -106 78 -183q50 -73 129 -115q76 -40 180 -40q66 0 122 6q59 6 103 22v1104q-53 14 -100 19 q-53 6 -117 6q-104 0 -181 -40q-79 -41 -131 -115q-54 -77 -80 -182q-28 -112 -28 -241z" />
<glyph unicode="&#x153;" horiz-adv-x="1882" d="M106 524q0 113 31 217q30 100 92 174q61 73 153 117q90 43 212 43q132 0 225 -56q95 -57 154 -155q52 98 147 155q93 56 226 56q103 0 185 -38q79 -37 136 -104q55 -66 84 -155q29 -90 29 -188q0 -19 -2 -61q-2 -31 -6 -54h-699q5 -173 87 -252q83 -80 249 -80 q71 0 138 14q60 13 130 38q12 -24 26 -75q11 -41 13 -87q-67 -28 -148 -43q-80 -15 -177 -15q-152 0 -259 58q-106 58 -163 162q-60 -105 -151 -162q-93 -58 -224 -58q-120 0 -212 42q-91 42 -153 116t-92 174q-31 104 -31 217zM313 524q0 -181 70 -284t211 -103t212 103 t71 284t-71 284q-70 101 -212 101q-143 0 -211 -101q-70 -103 -70 -284zM1075 627h508q-1 124 -59 204q-57 80 -181 80q-119 0 -186 -74t-82 -210z" />
<glyph unicode="&#x178;" horiz-adv-x="1212" d="M37 1473q27 5 57 6q40 2 62 2q16 0 58 -2q32 -2 56 -6l344 -732l340 732q27 5 54 6q36 2 55 2t57 -2q29 -2 56 -6l-461 -934v-539q-27 -5 -53 -6q-36 -2 -54 -2t-54 2q-28 2 -50 6v539zM274 1718q0 44 7 105q29 5 55 6q36 2 51 2q17 0 55 -2q31 -2 54 -6q8 -50 8 -103 q0 -54 -8 -104q-23 -4 -53 -6q-36 -2 -54 -2q-16 0 -52 2q-28 2 -56 6q-7 60 -7 102zM711 1718q0 51 10 105q24 4 52 6q36 2 54 2q17 0 53 -2q28 -2 56 -6q6 -52 6 -103q0 -53 -6 -104q-29 -5 -55 -6q-36 -2 -54 -2q-15 0 -53 2q-29 2 -53 6q-3 15 -7 51q-3 24 -3 51z" />
<glyph unicode="&#x2c6;" horiz-adv-x="1019" d="M168 1217l223 260q27 5 61 6q46 2 64 2q12 0 54 -2q30 -1 61 -8l221 -258q-23 -6 -42 -7q-32 -2 -50 -2q-17 0 -59 2q-22 1 -58 7l-133 163l-133 -163q-29 -6 -52 -7q-40 -2 -57 -2q-51 0 -100 9z" />
<glyph unicode="&#x2dc;" horiz-adv-x="1024" d="M160 1368q30 41 80 71q48 29 116 29q46 0 82 -14q46 -18 75 -31q14 -6 73 -30q38 -15 78 -15q31 0 64 13q29 12 73 51q43 -53 65 -125q-33 -39 -83 -68q-49 -28 -115 -28q-46 0 -82 14q-44 17 -76 31q-14 6 -40 16.5t-33 13.5q-36 15 -75 15q-40 0 -69 -15 q-33 -17 -70 -49q-22 27 -39 59q-17 31 -24 62z" />
<glyph unicode="&#x2000;" horiz-adv-x="958" />
<glyph unicode="&#x2001;" horiz-adv-x="1917" />
<glyph unicode="&#x2002;" horiz-adv-x="958" />
<glyph unicode="&#x2003;" horiz-adv-x="1917" />
<glyph unicode="&#x2004;" horiz-adv-x="639" />
<glyph unicode="&#x2005;" horiz-adv-x="479" />
<glyph unicode="&#x2006;" horiz-adv-x="319" />
<glyph unicode="&#x2007;" horiz-adv-x="319" />
<glyph unicode="&#x2008;" horiz-adv-x="239" />
<glyph unicode="&#x2009;" horiz-adv-x="383" />
<glyph unicode="&#x200a;" horiz-adv-x="106" />
<glyph unicode="&#x2010;" horiz-adv-x="739" d="M96 573q0 15 2 49q1 25 6 46h531q5 -21 6 -46q2 -34 2 -49q0 -14 -2 -48q-2 -26 -6 -44h-531q-4 18 -6 44q-2 34 -2 48z" />
<glyph unicode="&#x2011;" horiz-adv-x="739" d="M96 573q0 15 2 49q1 25 6 46h531q5 -21 6 -46q2 -34 2 -49q0 -14 -2 -48q-2 -26 -6 -44h-531q-4 18 -6 44q-2 34 -2 48z" />
<glyph unicode="&#x2012;" horiz-adv-x="739" d="M96 573q0 15 2 49q1 25 6 46h531q5 -21 6 -46q2 -34 2 -49q0 -14 -2 -48q-2 -26 -6 -44h-531q-4 18 -6 44q-2 34 -2 48z" />
<glyph unicode="&#x2013;" horiz-adv-x="1024" d="M-8 573q0 17 2 49q1 23 6 46h1024q4 -22 6 -45q2 -30 2 -48t-2 -50q-1 -23 -6 -44h-1024q-5 23 -6 46q-2 32 -2 46z" />
<glyph unicode="&#x2014;" horiz-adv-x="2048" d="M-8 573q0 17 2 49q1 23 6 46h2048q4 -22 6 -45q2 -30 2 -48t-2 -50q-1 -23 -6 -44h-2048q-5 23 -6 46q-2 32 -2 46z" />
<glyph unicode="&#x2018;" horiz-adv-x="528" d="M102 1470q31 6 53 7q36 2 50 2t48 -2q18 -1 50 -7l121 -456q-22 -4 -47 -6q-32 -2 -49 -2q-49 0 -99 8z" />
<glyph unicode="&#x2019;" horiz-adv-x="528" d="M102 1016l121 457q24 4 50 6q34 2 49 2q16 0 52 -2q28 -2 52 -6l-127 -457q-24 -5 -52 -7q-17 -1 -48 -1q-32 0 -48 1q-28 2 -49 7z" />
<glyph unicode="&#x201a;" horiz-adv-x="528" d="M102 -231l121 456q16 3 50 7t49 4q16 0 52 -4t52 -7l-127 -456q-27 -5 -52 -6q-17 -1 -48 -1q-32 0 -48 1q-25 2 -49 6z" />
<glyph unicode="&#x201c;" horiz-adv-x="927" d="M102 1470q31 6 53 7q36 2 50 2t48 -2q18 -1 50 -7l121 -456q-22 -4 -47 -6q-32 -2 -49 -2q-49 0 -99 8zM502 1470q31 6 52 7q36 2 50 2t48 -2q18 -1 50 -7l121 -456q-22 -4 -47 -6q-32 -2 -49 -2q-48 0 -98 8z" />
<glyph unicode="&#x201d;" horiz-adv-x="927" d="M102 1016l121 457q24 4 50 6q34 2 49 2q16 0 52 -2q28 -2 52 -6l-127 -457q-24 -5 -52 -7q-17 -1 -48 -1q-32 0 -48 1q-28 2 -49 7zM502 1016l121 457q24 4 50 6q34 2 48 2q16 0 52 -2q28 -2 52 -6l-127 -457q-24 -5 -52 -7q-17 -1 -48 -1q-32 0 -48 1q-27 2 -48 7z" />
<glyph unicode="&#x201e;" horiz-adv-x="927" d="M102 -231l121 456q16 3 50 7t49 4q16 0 52 -4t52 -7l-127 -456q-27 -5 -52 -6q-17 -1 -48 -1q-32 0 -48 1q-25 2 -49 6zM502 -231l121 456q16 3 50 7t48 4q16 0 52 -4t52 -7l-127 -456q-27 -5 -52 -6q-17 -1 -48 -1q-32 0 -48 1q-24 1 -48 6z" />
<glyph unicode="&#x2022;" horiz-adv-x="833" d="M154 766q0 57 20 103q22 50 56 84q36 36 84 57q46 20 104 20t102 -20q47 -21 83 -57q34 -34 56 -84q21 -48 21 -103t-21 -103q-22 -50 -56 -84q-36 -36 -83 -57q-44 -20 -102 -20t-104 20q-48 21 -84 57q-34 34 -56 84q-20 46 -20 103z" />
<glyph unicode="&#x2026;" horiz-adv-x="1501" d="M123 113q0 28 3 58q4 37 7 58q28 4 56 6q54 3 57 3q8 0 17.5 -0.5t21.5 -1.5t18 -1q29 -1 57 -6q6 -38 8 -57q3 -28 3 -57t-3 -58q-2 -19 -8 -57q-28 -4 -56 -6q-36 -2 -56 -2t-58 2q-28 2 -57 6q-3 17 -7 56q-3 27 -3 57zM627 113q0 28 3 58q4 37 7 58q38 6 56 7 q36 2 57 2q19 0 57 -2q19 -1 57 -7q3 -19 7 -57q3 -28 3 -57t-3 -58q-4 -38 -7 -57q-28 -4 -56 -6q-36 -2 -56 -2t-58 2q-28 2 -57 6q-3 17 -7 56q-3 27 -3 57zM1130 113q0 18 4 58q4 37 7 58q38 6 56 7q36 2 56 2t58 -2q19 -1 57 -7q3 -19 7 -57q3 -28 3 -57t-3 -58 q-4 -38 -7 -57q-28 -4 -56 -6q-36 -2 -57 -2q-19 0 -57 2q-28 2 -57 6q-3 17 -7 56q-4 36 -4 57z" />
<glyph unicode="&#x202f;" horiz-adv-x="383" />
<glyph unicode="&#x2039;" horiz-adv-x="747" d="M100 547l340 452q32 6 50 7q34 2 53 2t57 -2q19 -1 57 -7l-333 -450l333 -457q-28 -4 -56 -6q-36 -2 -56 -2q-55 0 -105 8z" />
<glyph unicode="&#x203a;" horiz-adv-x="747" d="M88 92l336 451l-336 456q38 6 56 7q36 2 57 2q17 0 53 -2q19 -1 51 -7l342 -454l-342 -453q-14 -3 -49 -7q-24 -3 -53 -3t-58 3q-38 4 -57 7z" />
<glyph unicode="&#x205f;" horiz-adv-x="479" />
<glyph unicode="&#x20ac;" d="M39 553q0 39 10 72h150q-2 28 -2 42v44v52q0 16 2 52h-150q-10 29 -10 68q0 40 10 73h170q46 241 198 379t408 138q114 0 201 -17q84 -16 150 -39q-4 -47 -18 -87q-10 -30 -32 -85q-70 25 -138 35q-67 10 -146 10q-169 0 -264 -85q-97 -86 -134 -249h523q5 -16 6 -31 q2 -24 2 -34q0 -14 -2 -40q-1 -19 -6 -36h-541q-1 -16 -3 -50q-1 -17 -1 -54v-44q0 -14 2 -42h543q5 -15 6 -31q2 -22 2 -35q0 -14 -2 -40q-1 -19 -6 -36h-525q39 -167 141 -245t273 -78q92 0 156 14q75 16 131 41q40 -79 57 -170q-82 -36 -177 -53q-94 -17 -194 -17 q-264 0 -417 133q-152 133 -197 375h-166q-10 29 -10 70z" />
<glyph unicode="&#x2122;" horiz-adv-x="1691" d="M47 1370q0 34 6 78h619q5 -22 6 -38q2 -24 2 -38q0 -13 -2 -37q-2 -20 -6 -37h-230v-669q-22 -4 -41 -6q-24 -2 -41 -2q-11 0 -37 2q-20 2 -38 6v669h-232q-6 38 -6 72zM764 629l41 819q9 1 24 2.5t21 1.5q28 2 41 2q12 0 40 -2q6 0 21.5 -1.5t24.5 -2.5l203 -449 l200 449q8 1 22 2.5t20 1.5q26 2 40 2t42 -2q7 0 21.5 -1.5t22.5 -2.5l41 -819q-24 -5 -42 -6q-24 -2 -38 -2q-22 0 -35 1q-22 2 -42 7l-31 522l-176 -367q-9 -3 -29 -5q-8 -1 -29 -1q-20 0 -59 6l-162 361l-26 -516q-42 -8 -76 -8q-37 0 -80 8z" />
<glyph unicode="&#xe000;" horiz-adv-x="1054" d="M0 0v1055h1055v-1055h-1055z" />
</font>
</defs>
</svg>
