<?xml version="1.0" standalone="no"?>
<!DOCTYPE svg PUBLIC "-//W3C//DTD SVG 1.1//EN" "http://www.w3.org/Graphics/SVG/1.1/DTD/svg11.dtd" >
<svg xmlns="http://www.w3.org/2000/svg">
<metadata></metadata>
<defs>
<font id="alleritalic" horiz-adv-x="1228" >
<font-face units-per-em="2048" ascent="1638" descent="-410" />
<missing-glyph horiz-adv-x="460" />
<glyph unicode="&#xfb01;" horiz-adv-x="1179" d="M-193 -473q6 39 21 85q12 38 33 75q33 -12 46 -14q28 -5 52 -5q54 0 93 14q40 14 66 51q29 40 49 108t42 186l153 862h-169q0 37 5 79q5 38 21 83h170l10 59q40 204 149 308t294 104q48 0 94 -6q43 -6 89 -17q55 -14 75 -21q24 -9 51 -20q-11 -52 -25 -87 q-18 -45 -36 -75q-44 21 -112 39q-73 19 -134 19q-98 0 -154 -52q-57 -53 -90 -196l-12 -55h606l-184 -1051q-16 -3 -54 -5q-19 -1 -51 -1q-31 0 -48 1q-33 2 -48 5l158 889h-406l-153 -877q-22 -131 -60 -239q-34 -99 -87 -159q-52 -60 -125 -87q-72 -27 -171 -27 q-48 0 -86 7q-41 8 -72 20z" />
<glyph unicode="&#xfb02;" horiz-adv-x="1263" d="M-193 -473q6 39 21 85q12 38 33 75q33 -12 46 -14q28 -5 52 -5q45 0 86 13q37 12 67 49q30 38 52 102q23 69 41 174l157 883h-169q0 37 5 79q5 38 21 83h170l23 104q80 367 430 367q47 0 108 -8q76 -10 111 -17q67 -13 100 -23q44 -13 82 -26q6 -41 6 -76q0 -53 -11 -122 q-11 -70 -24 -142l-147 -809q-6 -35 -6 -55q0 -33 9 -52q9 -20 24 -29q16 -10 31 -11q24 -2 34 -2q21 0 42 4q34 6 40 8q19 -55 19 -127q0 -6 -2 -16q-1 -5 -1 -13q-30 -10 -74 -15q-48 -5 -87 -5q-57 0 -98 10q-44 11 -75 37q-33 28 -50 70q-17 41 -17 110q0 36 8 82 q3 16 9 44t8 40l118 647q16 89 27 164q9 63 16 131q-40 15 -94 24q-52 9 -104 9q-50 0 -87 -12q-41 -13 -68 -39q-29 -28 -51 -76t-38 -121l-12 -55h252q0 -38 -5 -80q-4 -33 -22 -82h-252l-158 -895q-24 -138 -60 -232q-35 -92 -89 -152q-52 -58 -124 -84t-165 -26 q-48 0 -86 7q-41 8 -72 20z" />
<glyph unicode="&#xfb03;" horiz-adv-x="1792" d="M-193 -473q6 39 21 85q12 38 33 75q33 -12 46 -14q28 -5 52 -5q48 0 82 11q36 12 65 42q30 31 52 88q23 58 39 146l165 934h-169q0 37 5 79q5 38 21 83h170l10 59q40 204 140 308q99 104 276 104q43 0 93 -9q41 -7 71 -20q-10 -41 -25 -87q-14 -41 -32 -75q-39 14 -46 16 q-24 7 -61 7q-42 0 -77 -12t-58 -38q-24 -27 -44 -76q-19 -47 -36 -122l-12 -55h411l13 59q40 204 147 308t295 104q46 0 92 -6q43 -6 89 -17q55 -14 75 -21q24 -9 51 -20q-7 -47 -23 -87q-14 -35 -38 -75q-40 21 -110 39q-73 19 -136 19q-98 0 -157 -52q-60 -53 -87 -196 l-10 -55h604l-184 -1051q-16 -3 -52 -5q-20 -1 -52 -1t-48 1q-32 2 -47 5l156 889h-403l-156 -877q-23 -135 -61 -238q-36 -99 -88 -159q-52 -61 -124 -88t-170 -27q-90 0 -159 27q15 66 21 85q13 42 32 75q35 -12 48 -14q28 -5 50 -5q49 0 83 11q39 12 67 42q28 29 51 88 q23 58 39 146l166 934h-412l-182 -1016q-18 -103 -55 -174q-38 -73 -90 -116q-53 -44 -119 -63q-69 -20 -150 -20q-48 0 -86 7q-41 8 -72 20z" />
<glyph unicode="&#xfb04;" horiz-adv-x="1886" d="M-193 -473q6 39 21 85q12 38 33 75q33 -12 46 -14q28 -5 52 -5q48 0 82 11q36 12 65 42q30 31 52 88q23 58 39 146l165 934h-169q0 37 5 79q5 38 21 83h170l23 110q74 361 403 361q43 0 93 -9q41 -7 71 -20q-10 -41 -25 -87q-14 -41 -32 -75q-39 14 -46 16q-24 7 -61 7 q-42 0 -77 -12q-34 -12 -60 -38q-25 -25 -46 -76q-20 -50 -32 -122q-5 -15 -6 -28q-1 -11 -6 -27h422l12 59q1 12 5 27q4 16 7 24q86 361 430 361q55 0 108 -7q56 -7 109 -18q70 -14 102 -23q43 -12 83 -26q4 -19 4 -38v-38q0 -51 -10 -122q-8 -59 -23 -142l-151 -809 q-7 -40 -7 -55q0 -30 10 -52q10 -21 23 -29q16 -10 32 -11q24 -2 34 -2q21 0 42 4q34 6 40 8q18 -52 18 -127q0 -11 -1 -16t-1 -13q-29 -10 -75 -15q-48 -5 -87 -5q-131 0 -182 60t-51 169q0 74 18 164q16 107 40 226q46 230 52 259q21 101 47 252q20 118 25 205 q-41 15 -93 24q-53 9 -106 9q-49 0 -88 -12t-68 -38q-31 -28 -52 -76q-19 -43 -35 -122l-11 -55h250q0 -38 -5 -80q-4 -37 -21 -82h-252l-156 -889q-24 -138 -59 -236q-34 -94 -86 -154q-51 -58 -124 -84t-171 -26q-91 0 -160 27q15 66 21 85q13 42 32 75q32 -12 47 -14 q30 -5 52 -5q44 0 82 12q40 13 67 41q28 29 51 88q23 58 39 146l166 934h-422l-180 -1008q-18 -109 -55 -179q-39 -75 -89 -118q-52 -44 -121 -64q-71 -20 -151 -20q-48 0 -86 7q-41 8 -72 20z" />
<glyph horiz-adv-x="2048" />
<glyph horiz-adv-x="2048" />
<glyph unicode="&#xd;" horiz-adv-x="972" />
<glyph unicode=" "  horiz-adv-x="460" />
<glyph unicode="&#x09;" horiz-adv-x="460" />
<glyph unicode="&#xa0;" horiz-adv-x="460" />
<glyph unicode="!" horiz-adv-x="567" d="M172 0q0 116 39 227q29 5 55 6q54 3 56 3q8 0 17 -0.5t20 -1.5t17 -1q28 -2 52 -6q0 -62 -10 -113q-10 -54 -27 -114q-28 -4 -56 -6q-36 -2 -54 -2q-21 0 -57 2q-28 2 -52 6zM264 440l172 1033q56 6 107 6q52 0 112 -6l-196 -1033q-53 -6 -99 -6q-51 0 -96 6z" />
<glyph unicode="&#x22;" horiz-adv-x="796" d="M250 909l98 561q30 6 49 7q36 2 52 2q47 0 94 -9l-97 -561q-50 -6 -98 -6q-54 0 -98 6zM639 909l98 561q30 6 49 7q36 2 52 2q47 0 94 -9l-96 -561q-50 -6 -99 -6q-55 0 -98 6z" />
<glyph unicode="#" horiz-adv-x="1462" d="M178 428l6 55q4 21 11 53q6 26 12 54h258l88 338h-246q5 38 9 81q4 42 20 78h260l84 326q17 3 50 5q14 1 48 1h42q24 0 44 -4l-84 -328h332l84 326q18 3 51 5q15 1 45 1h44q25 0 46 -4l-84 -328h232q-9 -58 -11 -78q-3 -28 -18 -81h-244l-88 -338h230q0 -76 -27 -162 h-244l-94 -369q-18 -3 -51 -5q-15 -1 -47 -1q-28 0 -43 1q-29 2 -43 5l94 369h-332l-94 -369q-17 -3 -50 -5q-14 -1 -48 -1q-45 0 -90 6q8 31 24 92.5t24 92.5q12 46 46 184h-246zM653 590h332l86 338h-332z" />
<glyph unicode="$" d="M150 43q7 44 21 91q13 46 36 93q80 -33 147 -49q74 -18 172 -18q163 0 255 71q93 72 93 195q0 90 -57 148t-174 120q-59 31 -121 71q-55 36 -94 79q-40 44 -60 95q-22 55 -22 124q0 170 113 278t317 129l31 183q35 8 72 8q9 0 35 -2q20 -1 36 -6l-30 -176q88 -5 153 -22 q73 -19 129 -40q-7 -48 -20 -88q-16 -49 -41 -86q-52 26 -124 45q-74 19 -163 19q-60 0 -113 -12q-54 -12 -92 -37q-39 -25 -61 -64q-23 -40 -23 -94q0 -78 57 -132q60 -57 166 -114q70 -37 136 -80q56 -37 99 -84q37 -42 60 -98q21 -52 21 -125q0 -89 -30 -169 q-29 -77 -87 -141q-57 -63 -140 -105q-82 -42 -190 -60l-39 -232q-35 -8 -71 -8q-40 0 -72 8l37 217h-8q-97 0 -195 20q-96 19 -159 48z" />
<glyph unicode="%" horiz-adv-x="2019" d="M233 944q0 96 27 191q27 93 81 170q52 74 136 121q83 47 193 47q78 0 139 -26q59 -25 97 -71q40 -48 57 -108q18 -63 18 -138q0 -100 -29 -196q-28 -94 -84 -168q-57 -76 -137 -118q-83 -44 -188 -44q-160 0 -235 96t-75 244zM424 950q0 -198 137 -198q63 0 105 35t70 92 q28 58 41 119q14 67 14 122q0 203 -142 203q-62 0 -103 -37q-45 -40 -70 -92q-29 -59 -40 -121q-12 -66 -12 -123zM449 2l1132 1448q24 4 55 6q40 2 58 2q17 0 55 -2q29 -2 51 -6l-1134 -1448q-28 -4 -54 -6q-32 -2 -49 -2q-16 0 -58 2q-32 2 -56 6zM1266 317q0 100 26 191 q27 93 81 170q53 75 136 122q82 46 193 46q78 0 139 -26q60 -25 97 -70q39 -47 57 -109q18 -63 18 -137q0 -104 -28 -197q-29 -95 -84 -168t-138 -117q-85 -45 -188 -45q-159 0 -235 97q-74 95 -74 243zM1456 324q0 -199 137 -199q61 0 105 36q43 36 70 91q28 57 41 120 q14 67 14 122q0 202 -142 202q-62 0 -103 -37q-45 -40 -70 -92q-29 -59 -40 -121q-12 -66 -12 -122z" />
<glyph unicode="&#x26;" horiz-adv-x="1478" d="M186 377q0 85 26 161q25 73 71 136q44 60 105 106q62 47 132 70q-24 13 -50 33q-28 22 -50 51q-23 30 -38 73q-15 42 -15 95q0 98 41 172t106 123q65 48 149 73q86 25 168 25q70 0 136 -9q64 -9 123 -32q-6 -44 -18 -82q-12 -37 -34 -74q-55 18 -100 26q-50 9 -109 9 q-110 0 -182 -57t-72 -162q0 -91 61 -132q59 -40 142 -40h408q10 50 18 109t8 114v33q38 20 99 31q54 10 98 10q1 -6 2 -18.5t1 -18.5q1 -12 1 -39q0 -65 -16 -157l-13 -64h209q-6 -56 -11 -84q-8 -43 -19 -82h-207l-47 -264q-51 -282 -209 -410q-157 -127 -430 -127 q-106 0 -195 24q-88 24 -152 73q-66 51 -101 125q-36 76 -36 180zM414 401q0 -114 68 -179q69 -66 216 -66q114 0 184 29q71 30 120 83q48 52 74 126q24 68 40 157l39 225h-348q-184 0 -289 -102q-104 -101 -104 -273z" />
<glyph unicode="'" horiz-adv-x="407" d="M250 909l98 561q30 6 49 7q36 2 52 2q47 0 94 -9l-97 -561q-50 -6 -98 -6q-54 0 -98 6z" />
<glyph unicode="(" horiz-adv-x="677" d="M250 262q0 126 18 260q17 127 50 263q31 129 75 253q47 131 92 228q49 103 102 187q54 85 103 134q17 5 40 6q32 2 56 2q21 0 57 -2q28 -2 50 -6q-64 -88 -142 -225q-79 -138 -143 -302q-63 -161 -108 -370q-43 -199 -43 -428q0 -120 10 -211t26 -173q16 -81 31 -132 q16 -53 29 -86q-27 -4 -54 -6q-36 -2 -57 -2q-18 0 -50 2q-23 1 -40 6q-41 97 -71 253q-31 161 -31 349z" />
<glyph unicode=")" horiz-adv-x="692" d="M-16 -340q57 79 141 224q72 124 141 300q64 164 109 370q43 199 43 429q0 119 -10 212q-10 92 -26 174q-14 72 -32 132q-19 62 -28 86q27 5 54 6q36 2 56 2q19 0 49 -2q23 -1 39 -6q42 -100 73 -254q32 -160 32 -350q0 -193 -40 -392t-104 -383q-64 -185 -142 -326 q-81 -146 -155 -222q-22 -4 -45 -6q-30 -2 -51 -2q-20 0 -56 2q-27 2 -48 6z" />
<glyph unicode="*" horiz-adv-x="974" d="M260 1126q21 62 64 121l243 -67q-20 -54 -32 -79q-18 -38 -41 -73zM319 762l183 223q29 -17 58 -40q31 -25 54 -52l-206 -207q-32 19 -50 34q-22 18 -39 42zM614 1206l64 267q30 6 63 6q29 0 64 -6l-31 -267q-14 -3 -42 -5q-13 -1 -40 -1t-40 1q-26 2 -38 5zM662 893 q74 59 145 92l104 -223q-28 -25 -55 -42t-61 -34zM811 1163v17l268 67q19 -52 19 -104v-17l-267 -98q-10 29 -15 66q-5 38 -5 69z" />
<glyph unicode="+" d="M285 629q0 41 6 87q6 49 22 93h340l66 373q23 5 46 6q32 2 48 2q15 0 47 -2q25 -2 47 -6l-65 -373h336q0 -37 -7 -88q-6 -44 -22 -92h-340l-66 -373q-43 -8 -94 -8q-16 0 -48 2q-23 1 -46 6l66 373h-336z" />
<glyph unicode="," horiz-adv-x="483" d="M23 -229l194 452q26 7 50 8q34 2 50 2q18 0 54 -2q24 -1 49 -8l-201 -452q-37 -6 -52 -7q-34 -2 -48 -2q-47 0 -96 9z" />
<glyph unicode="-" horiz-adv-x="712" d="M199 496q5 100 32 188h517q0 -37 -10 -94q-10 -56 -23 -94h-516z" />
<glyph unicode="." horiz-adv-x="481" d="M125 0q0 62 11 114q13 60 28 113q28 5 57 6q57 3 58 3q8 0 17.5 -0.5t21.5 -1.5t18 -1q28 -1 55 -6q0 -62 -10 -113q-11 -54 -27 -114q-33 -4 -60 -6q-36 -2 -56 -2q-21 0 -57 2q-28 2 -56 6z" />
<glyph unicode="/" horiz-adv-x="761" d="M47 0l731 1473q50 8 101 8q16 0 52 -2q28 -2 52 -6l-733 -1473q-27 -5 -55 -6q-38 -2 -54 -2q-15 0 -47 2q-25 2 -47 6z" />
<glyph unicode="0" d="M190 449q0 166 42 325q43 162 124 286q83 127 203 204t279 77q118 0 202 -41q81 -40 131 -108q50 -69 71 -153q22 -90 22 -173q0 -166 -42 -325q-43 -162 -124 -286q-84 -128 -203 -203q-122 -77 -279 -77q-118 0 -202 41q-79 39 -131 108q-50 67 -71 151q-22 90 -22 174 zM403 442q0 -54 12 -107t38 -92q28 -42 70 -65q43 -24 112 -24q97 0 173 61q77 62 131 162q55 103 83 230q29 133 29 265q0 58 -12 110q-12 53 -38 92q-27 40 -70 64q-42 23 -112 23q-99 0 -175 -60q-78 -61 -130 -161q-55 -105 -82 -230q-29 -133 -29 -268z" />
<glyph unicode="1" d="M250 0q0 40 8 90q6 37 21 84h315l149 862l-286 -129q-27 45 -40 81q-16 43 -20 83l568 260h39l-205 -1157h297q0 -31 -9 -87q-7 -43 -20 -87h-817z" />
<glyph unicode="2" d="M115 25l454 450q95 95 137 138q62 64 106 127q47 68 70 125q25 62 25 128q0 75 -51 122q-50 46 -162 46q-88 0 -158 -24q-57 -20 -139 -54q-38 75 -43 172q99 38 171 59q93 27 210 27q188 0 292 -85q106 -86 106 -238q0 -86 -30 -164t-81 -153t-120 -147t-148 -148 l-236 -228h539q0 -46 -9 -92q-8 -39 -22 -86h-903q-6 21 -8 25z" />
<glyph unicode="3" d="M109 -78q13 50 27 84q19 47 40 84q58 -28 142 -46q78 -17 163 -17q84 0 153 22q70 22 123 68q54 46 83 110q30 66 30 152q0 63 -21 105t-56 68q-34 25 -82 36q-44 10 -99 10q-40 0 -84 -3q-45 -3 -86 -13l-14 30l440 527h-518q0 45 9 93q8 40 22 89h817l10 -25l-467 -555 q176 -11 261 -107q85 -97 85 -243q0 -125 -47 -227q-46 -100 -130 -170q-83 -70 -194 -107q-110 -37 -239 -37q-92 0 -191 18q-104 19 -177 54z" />
<glyph unicode="4" d="M117 182l762 1178q47 -6 92 -27q48 -22 76 -49l-609 -944h393l72 405q29 6 51 7q38 2 54 2q14 0 50 -2q21 -1 48 -7l-72 -405h178q0 -42 -8 -93q-8 -50 -22 -87h-178l-52 -281q-16 -3 -51 -5q-19 -1 -51 -1q-34 0 -52 1q-33 2 -48 5l51 281h-674z" />
<glyph unicode="5" d="M133 -86q10 40 27 89q16 45 39 85q69 -26 122 -41q63 -18 154 -18q82 0 152 22q72 23 126 69q54 47 86 116q31 68 31 161q0 103 -62 159t-192 56q-81 0 -135 -10q-55 -10 -104 -29l-21 23l156 725h672q0 -45 -9 -93q-8 -40 -22 -89h-485l-78 -371q46 9 72 10q44 2 55 2 q93 0 162 -27q66 -26 117 -75q49 -47 73 -112q25 -67 25 -140q0 -137 -52 -246q-51 -106 -138 -180q-88 -75 -202 -112q-116 -38 -241 -38q-97 0 -180 18q-84 18 -148 46z" />
<glyph unicode="6" d="M219 422q0 185 62 369q61 181 181 330t296 248q176 100 407 122q13 -50 13 -96q0 -22 -1 -32q-2 -16 -6 -44q-121 -10 -226 -48q-103 -37 -191 -103q-90 -68 -150 -155q-62 -91 -100 -208q53 64 138 107q86 44 204 44q78 0 140 -23q67 -25 112 -70q47 -47 73 -114 q27 -69 27 -161q0 -140 -46 -253q-47 -116 -124 -194q-78 -79 -180 -123q-101 -43 -215 -43q-110 0 -188 34q-81 35 -129 93q-49 59 -73 142t-24 178zM434 387q0 -100 52 -168q52 -69 167 -69q82 0 143 35q60 34 105 95q44 60 65 132q21 74 21 147q0 115 -57 170 q-56 55 -166 55q-63 0 -123 -27q-57 -26 -105 -80q-47 -53 -74 -125q-28 -75 -28 -165z" />
<glyph unicode="7" d="M281 -63l708 1202h-651q0 39 8 95q7 51 23 87h936l8 -16l-850 -1459q-66 17 -105 36q-36 17 -77 55z" />
<glyph unicode="8" d="M188 315q0 83 30 153q29 69 80 129q46 54 118 104q69 48 143 81q-29 17 -61 43q-32 25 -57 61t-42 81q-16 44 -16 104q0 84 38 157q39 74 103 127q67 55 154 86q90 32 186 32q72 0 145 -19q67 -18 119 -57q52 -40 82 -97q31 -59 31 -135q0 -70 -23 -126q-24 -58 -64 -107 q-40 -50 -93 -87q-55 -39 -115 -67q42 -22 86 -55q41 -30 73 -73q33 -44 50 -94q19 -55 19 -118q0 -107 -46 -194q-47 -88 -120 -146q-75 -59 -177 -91t-208 -32q-85 0 -169 19q-80 18 -139 58q-58 39 -93 106q-34 65 -34 157zM406 346q0 -105 64 -151q67 -48 169 -48 q70 0 133 22q58 20 100 59t64 90t22 112q0 97 -67 161q-68 65 -166 105q-67 -22 -126 -57q-55 -32 -101 -80q-44 -46 -68 -98q-24 -53 -24 -115zM586 1071q0 -49 20 -83q22 -38 50 -60q32 -26 64 -41q41 -20 60 -27q122 44 190 112t68 171q0 87 -56 127q-58 41 -132 41 q-62 0 -113 -20q-49 -19 -83 -52q-32 -31 -51 -76q-17 -41 -17 -92z" />
<glyph unicode="9" d="M246 735q0 137 45 248q44 108 122 189q75 78 178 122q101 43 212 43t187 -33q79 -34 130 -94q53 -62 76 -140q25 -84 25 -177q0 -117 -24 -239q-24 -124 -73 -237q-50 -117 -126 -218q-78 -105 -182 -183q-106 -80 -243 -130q-136 -49 -307 -60q-12 49 -12 108q0 36 6 66 q250 30 430 154q178 123 250 360q-50 -63 -139 -108q-86 -44 -209 -44q-72 0 -136 26q-63 26 -110 74q-47 49 -74 117q-26 66 -26 156zM457 758q0 -117 57 -171q58 -55 162 -55q62 0 124 28q58 26 107 78q48 51 76 124q29 75 29 166q0 47 -14 91q-13 42 -41 74 q-27 32 -68 50t-98 18q-83 0 -145 -34t-104 -91q-43 -59 -64 -130q-21 -72 -21 -148z" />
<glyph unicode=":" horiz-adv-x="481" d="M125 0q0 62 11 114q13 60 28 113q28 5 57 6q57 3 58 3q8 0 17.5 -0.5t21.5 -1.5t18 -1q28 -1 55 -6q0 -62 -10 -113q-11 -54 -27 -114q-33 -4 -60 -6q-36 -2 -56 -2q-21 0 -57 2q-28 2 -56 6zM258 758q0 61 11 113q13 63 28 114q29 5 57 6q38 2 58 2q19 0 57 -2 q28 -1 55 -6q0 -63 -10 -114t-27 -113q-33 -4 -60 -6q-36 -2 -56 -2q-21 0 -57 2q-28 2 -56 6z" />
<glyph unicode=";" horiz-adv-x="483" d="M-16 -229l194 452q26 7 50 8q34 2 51 2t53 -2q24 -1 49 -8l-201 -452q-37 -6 -52 -7q-34 -2 -48 -2q-47 0 -96 9zM281 758q0 61 11 113q16 76 27 114q28 4 58 6q38 2 57 2q20 0 58 -2q28 -1 55 -6q0 -63 -10 -114t-27 -113q-33 -4 -60 -6q-36 -2 -57 -2q-20 0 -56 2 q-28 2 -56 6z" />
<glyph unicode="&#x3c;" d="M317 596q0 122 37 217l895 348q0 -59 -10 -115q-11 -64 -22 -94l-699 -254l608 -258q0 -57 -11 -104q-15 -62 -25 -86z" />
<glyph unicode="=" d="M258 422q0 82 29 180h852q0 -46 -6 -89t-23 -91h-852zM326 817q0 41 6 86q6 44 24 94h852q0 -41 -6 -86q-6 -44 -24 -94h-852z" />
<glyph unicode="&#x3e;" d="M254 248q0 12 2 48q1 16 7 57q4 26 11 58q5 21 13 46l698 258l-606 252q0 43 8 96q7 43 27 96l774 -346q0 -47 -9 -107q-9 -61 -30 -110z" />
<glyph unicode="?" horiz-adv-x="954" d="M299 1430q95 35 175 45q77 10 161 10q100 0 181 -26q80 -26 131 -71q52 -46 79 -109t27 -136q0 -91 -34 -169q-36 -82 -92 -143q-61 -66 -134 -110q-82 -50 -158 -72l-35 -211q-53 -6 -98 -6q-33 0 -49 1q-32 2 -47 5l57 332l76 21q58 17 110 45q55 30 94 69q41 41 65 93 q23 50 23 116q0 94 -65 143q-67 50 -176 50q-75 0 -134 -14q-54 -13 -122 -36q-14 32 -25 83q-10 46 -10 90zM311 2q1 49 12 117q10 62 29 110q36 6 58 8q28 3 57 3q27 0 55 -3q22 -2 58 -8q-1 -49 -12 -116q-10 -60 -29 -111q-28 -4 -58 -6q-38 -2 -57 -2q-20 0 -56 2 q-29 2 -57 6z" />
<glyph unicode="@" horiz-adv-x="2023" d="M201 438q0 187 65 372q66 187 201 340t343 249t495 96q155 0 291 -42t237 -128q101 -85 159 -216q58 -129 58 -304q0 -125 -38 -250q-37 -122 -109 -221t-174 -159t-232 -60q-71 0 -128 15q-56 15 -97 48q-59 -34 -133 -55q-73 -21 -164 -21q-142 0 -229 87t-87 239 q0 135 48 257q45 115 127 203q79 85 187 133t228 48q82 0 157 -12q70 -11 146 -35l-147 -731q23 -18 50 -22q33 -5 58 -5q85 0 152 50q65 49 112 129q44 75 69 174q24 95 24 188q0 259 -154 395q-153 135 -432 135q-215 0 -379 -74q-163 -73 -279 -200q-111 -122 -173 -285 q-60 -159 -60 -330q0 -161 46 -274q47 -116 126 -187q81 -74 189 -108q110 -35 233 -35q94 0 188 16q88 15 160 42q11 -27 24 -65q7 -21 21 -79q-70 -34 -183 -52q-105 -17 -245 -17q-156 0 -292 45t-238 138t-162 234q-59 139 -59 334zM862 467q0 -105 46 -154t139 -49 q44 0 86 8q36 7 86 31l114 590q-28 6 -49 9q-22 3 -47 3q-83 0 -151 -34q-70 -35 -118 -93q-52 -63 -78 -139q-28 -82 -28 -172z" />
<glyph unicode="A" horiz-adv-x="1226" d="M72 0l669 1473q19 3 65 5q25 1 66 1q42 0 63 -1q39 -2 56 -5l201 -1473q-60 -6 -119 -6q-49 0 -100 6l-39 346h-496l-149 -346q-49 -6 -111 -6q-38 0 -56 1q-35 2 -50 5zM518 526h395l-84 711z" />
<glyph unicode="B" horiz-adv-x="1185" d="M190 0l259 1473q51 7 138 15q81 7 163 7q108 0 189 -17q85 -18 145 -57q62 -40 95 -98q33 -57 33 -145q0 -76 -24 -142q-22 -62 -66 -115q-40 -49 -93 -84q-52 -34 -107 -49q110 -18 182 -100t72 -209q0 -134 -53 -231q-54 -98 -142 -157q-92 -62 -210 -88 q-124 -28 -255 -28q-72 0 -163 8q-105 9 -163 17zM426 160q24 -4 59 -6q46 -2 74 -2q70 0 138 13q71 13 129 48t96 96q36 59 36 158q0 63 -20 103q-22 44 -57 68q-37 25 -88 37q-47 11 -113 11h-160zM549 858h143q138 0 221 76q84 77 84 211q0 102 -63 144t-176 42 q-24 0 -70 -2q-34 -1 -57 -6z" />
<glyph unicode="C" horiz-adv-x="1181" d="M231 545q0 180 52 356q51 174 152 304q103 134 251 212q151 80 346 80q110 0 186 -15t130 -38q-11 -48 -24 -86q-15 -42 -40 -86q-60 22 -117 33q-54 10 -129 10q-149 0 -262 -64q-109 -62 -181 -169q-71 -105 -105 -240q-33 -129 -33 -279q0 -200 97 -301 q98 -102 282 -102q82 0 144 14q68 16 132 43q39 -73 45 -174q-44 -20 -88 -31q-51 -13 -96 -20q-50 -8 -97 -12q-53 -5 -88 -5q-268 0 -412 152q-145 153 -145 418z" />
<glyph unicode="D" horiz-adv-x="1400" d="M190 0l259 1473q10 1 21.5 2.5t26.5 3l25 2.5q29 3 84 7q59 4 84 5q54 2 78 2q174 0 297 -43q128 -45 205 -122q82 -82 118 -189q37 -110 37 -246q0 -197 -56 -361q-58 -170 -167 -292q-113 -127 -275 -196q-166 -71 -382 -71q-104 0 -202 8q-103 8 -153 17zM430 172 q22 -4 75 -7q48 -3 93 -3q140 0 254 53q112 52 190 147q79 95 119 224q41 131 41 280q0 219 -100 332q-101 115 -326 115q-41 0 -77 -3q-45 -4 -70 -7z" />
<glyph unicode="E" horiz-adv-x="1073" d="M188 0l258 1473h781q0 -93 -33 -185h-569l-74 -420h455q0 -94 -33 -184h-455q-38 -213 -44 -251t-44 -251h586q-2 -18 -5.5 -49t-4.5 -43q-4 -37 -23 -90h-795z" />
<glyph unicode="F" horiz-adv-x="1015" d="M188 0l258 1473h744q-2 -20 -5.5 -54t-4.5 -42q-4 -41 -23 -89h-532l-76 -432h446q-5 -99 -32 -184h-447l-117 -672q-53 -6 -106 -6q-37 0 -55 1q-35 2 -50 5z" />
<glyph unicode="G" horiz-adv-x="1345" d="M231 545q0 182 51 360q50 173 151 304q103 133 251 210q150 78 350 78q104 0 181 -16q81 -17 133 -39q-11 -48 -24 -86q-15 -42 -40 -86q-56 22 -115 33q-54 10 -133 10q-150 0 -261 -64q-108 -62 -180 -169q-71 -105 -105 -240q-33 -129 -33 -279q0 -205 98 -303 t272 -98q56 0 102 7q56 8 87 21l102 572q24 4 52 6q36 2 53 2q20 0 54 -2q26 -2 50 -6q-10 -54 -64 -358q-55 -310 -63 -357q-80 -33 -192 -51q-119 -19 -217 -19q-132 0 -238 41q-103 40 -176 116q-71 74 -109 180q-37 104 -37 233z" />
<glyph unicode="H" horiz-adv-x="1363" d="M190 0l259 1473q24 5 51 6q36 2 55 2q16 0 52 -2q28 -2 52 -6l-106 -607h565l105 607q24 5 51 6q36 2 55 2q15 0 53 -2q30 -2 52 -6l-258 -1473q-23 -4 -53 -6q-36 -2 -56 -2t-54 2q-25 2 -48 6l118 682h-563l-119 -682q-24 -4 -53 -6q-38 -2 -55 -2q-20 0 -54 2 q-27 2 -49 6z" />
<glyph unicode="I" horiz-adv-x="589" d="M190 0l259 1473q27 5 53 6q36 2 53 2q20 0 54 -2q26 -2 50 -6l-258 -1473q-29 -4 -54 -6q-34 -2 -54 -2t-54 2q-27 2 -49 6z" />
<glyph unicode="J" horiz-adv-x="806" d="M63 2q3 33 13 92q8 46 30 86q29 -8 59 -14q38 -8 77 -8q44 0 81 6q38 6 68 27q29 21 53 63q23 42 35 108l164 928h-246q0 49 7 92q8 48 24 91h455l-187 -1063q-22 -123 -57 -207q-34 -83 -88 -134t-127 -72q-77 -22 -174 -22q-55 0 -103 8q-49 8 -84 19z" />
<glyph unicode="K" horiz-adv-x="1193" d="M190 0l259 1473q51 6 106 6q53 0 102 -6l-258 -1473q-53 -6 -106 -6q-58 0 -103 6zM594 748l563 725q19 3 58 5q18 1 53 1q38 0 61 -1q45 -2 64 -5l-570 -723l353 -750q-66 -6 -117 -6q-49 0 -111 6z" />
<glyph unicode="L" horiz-adv-x="1003" d="M188 0l258 1473q23 4 53 6q36 2 56 2q19 0 51 -2q26 -2 49 -6l-225 -1289h549q-5 -62 -10 -96q-5 -39 -25 -88h-756z" />
<glyph unicode="M" horiz-adv-x="1640" d="M164 0l323 1473q27 4 59 6q42 2 60 2q20 0 56 -2q27 -1 51 -6l200 -912l523 912q22 4 53 6q40 2 59 2q20 0 58 -2q28 -1 51 -6l-189 -1473q-27 -5 -52 -6q-34 -2 -52 -2q-21 0 -53 2q-24 2 -45 6l151 1120l-471 -815q-46 -6 -84 -6q-41 0 -80 6l-184 819l-240 -1124 q-22 -4 -47 -6q-32 -2 -51 -2q-17 0 -49 2q-25 2 -47 6z" />
<glyph unicode="N" horiz-adv-x="1370" d="M188 0l258 1473q15 3 51 5q18 1 50 1q51 0 92 -6l414 -1111l192 1111q7 1 20.5 2.5t19.5 1.5q26 2 40 2h49l66 -6l-258 -1473q-15 -3 -48 -5q-17 -1 -51 -1q-30 0 -46 1q-31 2 -46 5l-416 1104l-190 -1104q-41 -6 -80 -6h-51z" />
<glyph unicode="O" horiz-adv-x="1435" d="M229 516q0 187 50 366q49 176 144 313t234 219q140 83 318 83q122 0 215 -41q90 -40 151 -113q60 -72 90 -172q29 -97 29 -219q0 -191 -50 -368q-50 -176 -145 -312q-93 -134 -234 -216q-138 -81 -316 -81q-123 0 -214 39q-92 39 -152 110q-60 70 -90 171t-30 221z M446 518q0 -172 71 -267t220 -95q122 0 214 70q93 71 158 185q63 111 98 256q34 140 34 283q0 165 -69 264t-222 99q-121 0 -217 -70q-95 -69 -158 -182t-96 -255t-33 -288z" />
<glyph unicode="P" horiz-adv-x="1159" d="M190 0l259 1475q65 8 145 15q77 7 154 7q96 0 186 -18q89 -18 160 -64q69 -45 111 -121t42 -190q0 -138 -47 -246q-47 -107 -129 -179q-86 -75 -195 -111q-116 -38 -245 -38q-72 0 -137 7l-95 -537q-53 -6 -106 -6t-103 6zM526 719q28 -4 56 -6q36 -2 63 -2q83 0 152 21 q68 21 121 66q50 43 79 114q29 72 29 169q0 139 -78 188q-79 50 -211 50q-17 0 -53 -2q-26 -1 -55 -6z" />
<glyph unicode="Q" horiz-adv-x="1435" d="M229 516q0 187 50 366q49 176 144 313t234 219q140 83 318 83q122 0 215 -41q90 -40 151 -113q60 -72 90 -172q29 -97 29 -219q0 -191 -50 -368q-50 -176 -145 -312q-93 -134 -234 -216q-138 -81 -316 -81q-123 0 -214 39q-92 39 -152 110q-60 70 -90 171t-30 221z M446 518q0 -172 71 -267t220 -95q122 0 214 70q93 71 158 185q63 111 98 256q34 140 34 283q0 165 -69 264t-222 99q-121 0 -217 -70q-95 -69 -158 -182t-96 -255t-33 -288zM838 -223q5 48 17 87q14 46 36 85l452 -82q-5 -53 -18 -93q-15 -46 -33 -81z" />
<glyph unicode="R" horiz-adv-x="1177" d="M188 0l261 1475q84 13 149 17q80 5 141 5q93 0 181 -18q85 -17 156 -62t110 -113q41 -71 41 -178q0 -106 -35 -190q-34 -82 -87 -142q-56 -64 -115 -102q-64 -41 -116 -65l269 -627q-61 -6 -119 -6q-60 0 -111 6l-284 686l20 6q7 1 44 15q34 13 72 34q30 17 83 55 q42 31 79 75q34 41 58 99q23 55 23 122q0 123 -70 176t-193 53q-24 0 -58 -2q-25 -1 -58 -6l-232 -1313q-7 0 -24.5 -1.5t-27.5 -2.5q-36 -2 -54 -2q-34 0 -52 1q-36 2 -51 5z" />
<glyph unicode="S" horiz-adv-x="1089" d="M98 39q16 88 68 184q79 -28 149 -45q73 -18 162 -18q173 0 267 77t94 205q0 84 -55 142q-52 55 -165 116q-62 34 -122 75q-57 38 -95 81q-39 44 -60 96q-22 55 -22 121q0 97 37 174q37 78 106 133q70 56 165 86q99 31 215 31q113 0 190 -16q81 -17 152 -45 q-6 -33 -24 -88q-15 -46 -42 -86q-56 25 -120 43q-66 18 -152 18q-66 0 -121 -12q-53 -11 -96 -37q-41 -24 -65 -65q-23 -39 -23 -95q0 -83 49 -136q51 -56 151 -110q75 -40 137 -80q62 -41 102 -83q41 -44 64 -101t23 -129q0 -113 -42 -205q-42 -91 -120 -157 q-79 -67 -188 -102q-111 -36 -250 -36q-113 0 -203 18q-92 18 -166 46z" />
<glyph unicode="T" horiz-adv-x="1054" d="M276 1290q0 36 9 90q8 48 24 93h940q0 -46 -8 -92q-8 -45 -24 -91h-365l-225 -1290q-53 -6 -109 -6q-35 0 -53 1q-33 2 -49 5l225 1290h-365z" />
<glyph unicode="U" horiz-adv-x="1357" d="M258 387q0 47 6 100q5 46 17 113l153 873q27 5 54 6q36 2 55 2q18 0 52 -2q26 -2 50 -6l-147 -836q-25 -147 -25 -240q0 -126 52 -179q53 -54 182 -54q87 0 150 30t106 89q42 58 71 148q27 84 49 206l146 836q29 5 54 6q34 2 54 2q17 0 53 -2q28 -2 50 -6l-156 -887 q-27 -146 -71 -262q-44 -117 -114 -192q-71 -76 -174 -117q-102 -40 -249 -40q-211 0 -315 101q-103 100 -103 311z" />
<glyph unicode="V" horiz-adv-x="1249" d="M311 1473q23 4 56 6q40 2 61 2q18 0 54 -2q30 -2 53 -6l143 -1235l541 1235q24 5 54 6q40 2 58 2q19 0 59 -2q29 -1 52 -6l-676 -1473q-28 -4 -66 -6q-50 -2 -65 -2q-21 0 -63 2q-31 1 -58 6z" />
<glyph unicode="W" horiz-adv-x="1826" d="M326 1473q20 3 63 5q23 1 70 1q45 0 86 -6l26 -1201l484 1201q19 3 58 5q21 1 58 1q33 0 52 -1q35 -2 51 -5l80 -1213l438 1213q50 6 106 6q37 0 56 -1q35 -2 51 -5l-582 -1473q-17 -3 -58 -5q-23 -1 -62 -1q-40 0 -62 1q-40 2 -59 5l-80 1128l-469 -1128q-19 -3 -63 -5 q-24 -1 -64 -1q-35 0 -56 1q-39 2 -55 5z" />
<glyph unicode="X" horiz-adv-x="1243" d="M53 0l479 772l-188 701q57 6 117 6q47 0 100 -6l180 -707l-452 -766q-20 -3 -64 -5q-22 -1 -59 -1q-58 0 -113 6zM758 766l420 707q55 6 110 6q62 0 117 -6l-434 -703l241 -770q-60 -6 -112 -6q-50 0 -107 6z" />
<glyph unicode="Y" horiz-adv-x="1124" d="M272 1473q20 3 67 5q25 1 73 1q44 0 84 -6l196 -723l422 723q56 6 117 6q36 0 56 -1q36 -2 52 -5l-579 -943l-92 -530q-56 -6 -109 -6q-57 0 -102 6l96 537z" />
<glyph unicode="Z" horiz-adv-x="1085" d="M66 16l860 1272h-596q0 99 32 185h898l8 -21l-858 -1270h622q0 -48 -8 -96q-7 -42 -25 -86h-923z" />
<glyph unicode="[" horiz-adv-x="700" d="M115 -344l334 1900h430q0 -39 -8 -85q-8 -48 -21 -80h-232l-274 -1569h229q-1 -33 -8 -82q-7 -48 -20 -84h-430z" />
<glyph unicode="\" horiz-adv-x="837" d="M281 1473q29 5 52 6q32 2 50 2q17 0 49 -2q26 -2 49 -6l328 -1473q-50 -8 -100 -8q-17 0 -51 2q-26 2 -50 6z" />
<glyph unicode="]" horiz-adv-x="673" d="M6 -344q0 44 7 85q8 47 22 83h229l277 1567h-230q0 78 29 165h430l-334 -1900h-430z" />
<glyph unicode="^" horiz-adv-x="1081" d="M242 754l438 716q36 6 53 7q36 2 51 2q20 0 56 -2q16 -1 53 -7l186 -716q-18 -3 -52 -5q-16 -1 -46 -1t-46 1q-31 2 -46 5l-135 530l-318 -532q-20 -4 -50 -4h-50q-28 0 -44 1q-32 2 -50 5z" />
<glyph unicode="_" horiz-adv-x="995" d="M-18 -160q0 25 5 62q4 33 19 69h971q0 -47 -7 -81t-18 -70h-968q0 6 -1 10t-1 10z" />
<glyph unicode="`" horiz-adv-x="1024" d="M512 1477q29 4 61 6q40 2 66 2q23 0 69 -2q34 -1 64 -6l189 -260q-56 -9 -99 -9q-21 0 -57 2q-19 1 -49 7z" />
<glyph unicode="a" horiz-adv-x="1134" d="M168 307q0 146 45 284q45 139 133 246q87 106 219 173q129 65 305 65q80 0 149 -11q80 -13 132 -32l-102 -586q-24 -131 -36 -210q-14 -92 -14 -154q0 -32 1 -42q2 -16 6 -38q-22 -4 -50 -6q-36 -2 -49 -2t-45 2q-25 2 -47 6q-5 23 -6 46q-2 32 -2 58q0 19 5 62 q4 35 11 70q-25 -50 -59 -92q-38 -48 -85 -84q-48 -38 -109 -62q-62 -25 -130 -25q-133 0 -203 90q-69 88 -69 242zM379 350q0 -97 35 -152t104 -55q62 0 123 41q57 39 109 114q48 70 85 170q34 92 56 208l41 219q-27 7 -51 8q-36 2 -60 2q-101 0 -183 -47 q-80 -46 -139 -126q-60 -81 -89 -178q-31 -102 -31 -204z" />
<glyph unicode="b" horiz-adv-x="1169" d="M172 25l186 1056q27 171 31 196q12 83 12 148v41q0 7 -2 35q22 4 55 6q42 2 54 2q29 0 46 -1q33 -2 48 -5q1 -14 3 -38q1 -12 1 -38q0 -49 -10 -122q-9 -63 -23 -142l-47 -268q24 33 59 70q31 33 72 57q39 23 93 39q48 14 116 14q142 0 224 -99q81 -97 81 -280 q0 -143 -44 -275q-43 -130 -133 -230q-87 -97 -223 -157q-135 -59 -314 -59q-78 0 -156 15q-83 16 -129 35zM397 160q18 -5 56 -10q37 -5 61 -5q94 0 175 39q80 39 139 108t93 163q33 90 33 204q0 112 -46 176t-136 64q-54 0 -102 -22q-49 -22 -91 -72q-43 -50 -75 -128 q-33 -79 -51 -194z" />
<glyph unicode="c" horiz-adv-x="940" d="M180 395q0 125 40 245q41 124 119 219q80 98 192 157t262 59q67 0 129 -12q58 -11 106 -29q-2 -40 -16 -85q-15 -48 -37 -81q-37 15 -89 28q-44 11 -102 11q-100 0 -174 -44q-74 -43 -123 -114q-47 -67 -72 -159q-24 -88 -24 -174q0 -140 69 -206q70 -67 189 -67 q48 0 106 10q53 9 107 31q18 -31 26 -68q9 -40 9 -91q-65 -26 -137 -37q-84 -13 -142 -13q-224 0 -331 111q-107 112 -107 309z" />
<glyph unicode="d" horiz-adv-x="1130" d="M170 307q0 146 45 284q45 139 133 246q87 107 220 173q130 65 304 65q16 0 48 -2q9 -1 24 -2.5t17 -1.5q20 106 34 205q13 93 13 151v41q0 7 -2 35q22 5 54 6q42 2 54 2q29 0 46 -1q31 -2 46 -5q6 -40 6 -76q0 -47 -9 -120q-9 -77 -21 -142l-129 -719q-25 -138 -35 -210 q-12 -88 -12 -154v-42q0 -18 4 -38q-22 -4 -48 -6q-34 -2 -49 -2t-47 2q-24 2 -45 6q-3 12 -7 36q-3 20 -3 54q0 21 5 69q4 43 15 81q-27 -51 -61 -93q-40 -50 -86 -86q-49 -39 -110 -63q-62 -25 -130 -25q-134 0 -204 90t-70 242zM381 350q0 -97 35 -152t104 -55 q62 0 123 41q57 39 109 114q47 68 86 170q35 90 57 208l39 219q-27 7 -51 8q-36 2 -60 2q-101 0 -183 -47q-80 -46 -139 -126q-60 -81 -89 -178q-31 -102 -31 -204z" />
<glyph unicode="e" horiz-adv-x="1019" d="M178 395q0 125 42 247q43 123 121 218q80 97 188 156t245 59q134 0 214 -66q79 -66 79 -178q0 -89 -44 -156q-45 -68 -122 -114q-83 -49 -183 -78q-111 -32 -231 -49l-106 -16q6 -137 70 -207t196 -70q81 0 156 20q72 19 133 42q20 -33 27 -74q8 -46 8 -86 q-28 -14 -75 -27q-42 -12 -92 -21q-54 -10 -97 -14q-66 -6 -91 -6q-119 0 -203 32q-85 32 -136 88q-50 55 -75 133q-24 76 -24 167zM397 569l113 21q103 18 173 42t110 51q40 26 57 58q16 29 16 68q0 48 -32 77t-95 29q-67 0 -121 -29q-56 -30 -99 -78q-47 -51 -75 -111 q-32 -66 -47 -128z" />
<glyph unicode="f" horiz-adv-x="688" d="M-193 -473q6 39 21 85q12 38 33 75q33 -12 46 -14q28 -5 52 -5q44 0 85 13q39 13 67 49q28 37 52 103t42 173l157 883h-169q0 37 5 79q5 38 21 83h170l10 59q34 206 137 309t285 103q50 0 92 -8q47 -9 72 -17q-12 -50 -26 -89q-17 -45 -33 -75q-39 13 -47 15q-24 6 -58 6 q-43 0 -78 -12q-37 -13 -62 -38q-26 -26 -48 -76q-21 -48 -33 -122q-5 -15 -6 -28q-1 -11 -6 -27h252q0 -38 -5 -80q-4 -33 -22 -82h-252l-158 -895q-24 -138 -60 -232q-35 -92 -89 -152q-52 -58 -124 -84t-165 -26q-48 0 -86 7q-41 8 -72 20z" />
<glyph unicode="g" horiz-adv-x="1126" d="M76 -457q1 87 45 164q6 -1 96 -21q55 -12 121 -12q88 0 164 19q72 18 127 61t93 113q38 69 60 174l43 197q-25 -50 -59 -92q-39 -48 -86 -84q-50 -38 -110 -62q-62 -25 -130 -25q-133 0 -203 90q-69 88 -69 242q0 146 45 284q45 139 133 246q87 106 219 173 q129 65 305 65q81 0 151 -11q82 -13 134 -32q-66 -364 -91 -512t-91 -512q-23 -136 -82 -235q-58 -98 -141 -157q-86 -61 -191 -88q-110 -28 -229 -28q-65 0 -140 13q-69 12 -114 30zM377 350q0 -99 37 -152q38 -55 104 -55q65 0 124 41t107 113q48 73 84 169q35 95 58 210 l41 217q-50 12 -111 12q-101 0 -184 -47q-82 -46 -139 -126q-58 -81 -89 -178q-32 -101 -32 -204z" />
<glyph unicode="h" horiz-adv-x="1161" d="M166 0l190 1079q20 108 33 198q12 83 12 148q0 29 -1 39q-2 16 -3 37q22 4 56 6q44 2 55 2q12 0 46 -2q25 -1 46 -6q6 -38 6 -76q0 -23 -3 -54q-4 -46 -7 -66q-7 -51 -10 -72q-2 -15 -7 -40l-6 -30q-10 -46 -26 -138q-4 -23 -12.5 -69t-12.5 -69q55 74 148 131 q89 55 204 55q127 0 196 -65q71 -66 71 -203q0 -35 -4 -68q-2 -17 -11 -73l-116 -664q-16 -3 -53 -5q-20 -1 -52 -1t-50 1q-33 2 -48 5q14 78 55 315q18 104 56 316l8 61q4 27 4 53q0 77 -42 115q-41 37 -108 37q-49 0 -96 -20q-49 -21 -93 -71q-43 -50 -81 -135 q-36 -82 -59 -214q-22 -112 -42 -230q-29 -167 -40 -227q-19 -3 -60 -5q-20 -1 -59 -1q-19 0 -37 1q-32 2 -47 5z" />
<glyph unicode="i" horiz-adv-x="583" d="M213 0l156 889h-127q0 37 5 80q4 38 21 82h328l-184 -1051q-16 -3 -53 -5q-20 -1 -52 -1q-31 0 -47 1q-32 2 -47 5zM367 1268q0 62 10 112q13 66 26 109q28 4 62 6q44 2 57 2q15 0 57 -2q31 -1 58 -6q-1 -60 -12 -114q-11 -55 -27 -107q-20 -3 -61 -5q-22 -1 -58 -1 q-33 0 -55 1q-40 2 -57 5z" />
<glyph unicode="j" horiz-adv-x="581" d="M-176 -473q0 37 11 78q13 47 28 78q33 -11 56 -14q38 -5 63 -5q75 0 132 45q55 43 76 162l179 1018h-127q0 37 5 79q5 38 21 83h328l-209 -1192q-63 -359 -391 -359q-52 0 -93 7q-43 7 -79 20zM367 1268q0 62 10 112q13 66 26 109q28 4 62 6q44 2 57 2q15 0 57 -2 q31 -1 58 -6q-1 -60 -12 -114q-11 -55 -27 -107q-20 -3 -61 -5q-22 -1 -58 -1q-33 0 -55 1q-40 2 -57 5z" />
<glyph unicode="k" horiz-adv-x="1032" d="M168 0l190 1079q15 83 32 198q11 76 11 148v39q0 7 -2 37q22 4 55 6q42 2 54 2q15 0 47 -2q25 -2 47 -6q0 -6 1 -18.5t2 -18.5q1 -12 1 -39q0 -37 -6 -91q-7 -59 -16 -113l-215 -1221q-16 -3 -53 -5q-20 -1 -52 -1q-31 0 -49 1q-32 2 -47 5zM535 545l215 268 q58 73 94 131q36 57 47 107q28 4 53 6q32 2 53 2q20 0 58 -2q28 -1 55 -6q-8 -48 -35 -92q-26 -42 -74 -107q-21 -25 -62.5 -75.5t-62.5 -76.5q-48 -58 -128 -151l249 -549q-60 -6 -106 -6q-54 0 -111 6z" />
<glyph unicode="l" horiz-adv-x="608" d="M201 213q0 36 8 82q3 17 8.5 46t7.5 38l129 700q15 83 32 198q11 79 13 148v39q0 7 -2 37q22 4 55 6q42 2 54 2t46 -2q26 -1 48 -6q4 -16 4 -37v-39q0 -23 -3 -54q-4 -46 -7 -66q-7 -51 -10 -72q-2 -15 -7 -40l-6 -30l-159 -864q-7 -40 -7 -55q0 -31 10 -53q9 -20 23 -28 q16 -10 32 -11q24 -2 34 -2q21 0 42 4q34 6 40 8q18 -52 18 -127q0 -11 -1 -16t-1 -13q-29 -10 -75 -15q-48 -5 -87 -5q-56 0 -97 10q-46 11 -76 37q-31 27 -49 70q-17 41 -17 110z" />
<glyph unicode="m" horiz-adv-x="1726" d="M168 0l106 608q23 126 36 211q14 92 14 154v42q0 13 -5 38q22 4 50 6q36 2 49 2t45 -2q25 -2 47 -6q4 -17 6 -36q2 -26 2 -54q0 -18 -2 -48q-2 -23 -6 -47q53 87 145 147q91 60 207 60q110 0 169 -54t69 -159q62 95 155 154t207 59q242 0 242 -266q0 -36 -4 -69 q-6 -46 -10 -74l-117 -666q-23 -4 -51 -6q-38 -2 -52 -2t-50 2q-27 2 -48 6l111 631q6 34 9 64q3 31 3 55q0 76 -31 113q-30 36 -98 36q-45 0 -89 -20q-46 -21 -88 -70q-43 -51 -77 -129q-33 -77 -55 -199l-84 -481q-24 -4 -53 -6q-38 -2 -52 -2t-50 2q-27 2 -48 6l111 631 q6 34 9 64q3 31 3 55q0 76 -31 113q-30 36 -98 36q-45 0 -89 -20q-46 -21 -88 -72q-42 -52 -78 -136q-35 -84 -58 -214l-82 -457q-23 -4 -54 -6q-38 -2 -51 -2t-49 2q-26 1 -47 6z" />
<glyph unicode="n" horiz-adv-x="1177" d="M182 0l109 608q23 126 36 211t13 154q0 32 -1 42q-3 26 -5 38q23 5 49 6q36 2 49 2q12 0 46 -2q25 -1 46 -6q4 -16 6 -38q2 -28 2 -57q0 -35 -5 -73q-3 -27 -11 -68q22 46 57 89q37 46 86 83q50 38 110 62t128 24q124 0 192 -65t68 -203q0 -36 -4 -69q-6 -47 -10 -72 l-117 -666q-24 -4 -53 -6q-38 -2 -51 -2q-15 0 -51 2q-27 2 -48 6l111 631q6 33 9 63t3 54q0 81 -38 116t-101 35q-57 0 -109 -34q-56 -37 -100 -99q-49 -69 -85 -162q-37 -96 -60 -221l-68 -383q-24 -4 -53 -6q-38 -2 -51 -2q-15 0 -51 2q-27 2 -48 6z" />
<glyph unicode="o" horiz-adv-x="1140" d="M182 379q0 110 35 236q33 120 108 226q72 101 182 168q109 66 259 66q193 0 289 -106t96 -299q0 -113 -35 -238q-34 -123 -106 -224q-71 -100 -183 -167q-111 -66 -262 -66q-189 0 -286 106t-97 298zM389 377q0 -116 50 -178t147 -62t165 52q65 50 111 133q42 78 64 173 q20 89 20 175q0 117 -52 178t-149 61q-95 0 -163 -53q-67 -52 -111 -133q-42 -76 -62 -173q-20 -95 -20 -173z" />
<glyph unicode="p" horiz-adv-x="1169" d="M80 -483l194 1091q23 126 36 211q14 92 14 154q0 32 -1 42q0 1 -1.5 15t-2.5 23q22 4 49 6q34 2 48 2q12 0 46 -2q26 -1 48 -6q4 -17 6 -36q2 -26 2 -54q0 -18 -2 -44q-2 -22 -6 -45q58 89 143 144q89 57 213 57q142 0 224 -99q81 -97 81 -280q0 -143 -44 -275 q-44 -131 -132 -230q-88 -98 -219 -157q-132 -59 -305 -59q-24 0 -58 2q-18 1 -48 7l-80 -467q-23 -4 -54 -6q-6 0 -23.5 -1.5t-25.5 -1.5q-9 0 -27.5 1.5t-22.5 1.5q-28 2 -52 6zM397 160q28 -10 56 -12q33 -3 61 -3q94 0 175 39q80 39 139 108t93 163q33 90 33 204 q0 111 -47 176q-46 64 -135 64q-54 0 -102 -22q-49 -22 -91 -72q-43 -50 -75 -128q-33 -79 -51 -194z" />
<glyph unicode="q" horiz-adv-x="1128" d="M174 309q0 147 45 283q46 138 133 245q87 106 219 173q129 65 303 65q76 0 150 -12q68 -11 133 -29l-266 -1517q-23 -5 -51 -6q-6 0 -23.5 -1.5t-25.5 -1.5q-7 0 -15 0.5t-19 1.5t-17 1q-28 2 -50 6l123 698q-25 -42 -60 -83q-38 -44 -82 -77q-47 -35 -103 -57 q-58 -23 -122 -23q-133 0 -203 91q-69 90 -69 243zM383 352q0 -98 36 -153q36 -56 103 -56q62 0 123 41q57 39 109 114q48 70 85 170q34 92 56 208l41 219q-25 7 -50 8q-36 2 -61 2q-101 0 -183 -47q-79 -46 -139 -125q-59 -79 -89 -177q-31 -102 -31 -204z" />
<glyph unicode="r" horiz-adv-x="747" d="M166 0q13 76 50 272q25 132 51 278q20 110 40 246q17 114 17 177q0 32 -1 42q-2 16 -6 38q15 3 50 5q18 1 49 1q29 0 46 -1q31 -2 46 -5q4 -17 6 -36q2 -26 2 -54q0 -48 -6 -93q27 38 58 70q28 29 71 59q39 27 86 42q50 16 104 16q10 0 36 -2q20 -2 32 -6q0 -41 -9 -94 q-9 -50 -32 -89q-16 3 -26 4q-24 2 -33 2q-138 0 -223 -98q-83 -96 -121 -303l-84 -471q-43 -6 -84 -6h-52z" />
<glyph unicode="s" horiz-adv-x="888" d="M92 27q5 48 16 86q13 43 33 77q48 -21 125 -35q75 -14 133 -14q47 0 97 10q45 9 77 28q34 20 53 52t19 82q0 65 -37 96t-104 58l-66 27q-32 13 -65 30q-36 19 -64 47t-48 73q-19 42 -19 106q0 76 30 136q30 59 86 102q57 43 132 65t172 22q82 0 159 -18q73 -17 119 -41 q-17 -84 -59 -154q-30 14 -97 34q-58 17 -131 17q-87 0 -146 -30q-58 -30 -58 -107q0 -47 27 -79q27 -31 99 -60l46 -21q52 -24 80 -38q41 -20 76 -51q36 -32 56 -71q21 -42 21 -104q0 -99 -37 -169t-101 -116q-64 -47 -150 -69q-87 -23 -183 -23q-81 0 -161 15 q-81 15 -130 37z" />
<glyph unicode="t" horiz-adv-x="716" d="M184 889q0 41 6 79q6 36 23 83h164q11 53 18 108q8 59 8 115v33q35 18 99 30q60 11 98 11q0 -6 1 -18.5t2 -18.5q1 -12 1 -39q0 -66 -16 -158l-13 -63h265q0 -45 -6 -83q-6 -39 -21 -79h-262l-80 -445q-10 -44 -18 -97q-9 -59 -9 -91q0 -61 32 -85t85 -24q26 0 64 6 q19 3 57 13q5 -16 10 -45q4 -21 4 -53v-30q0 -10 -2 -32q-29 -8 -69 -15q-41 -7 -93 -7q-65 0 -119 9t-94 35q-39 26 -60 69q-21 44 -21 116q0 42 7 83q5 29 15 91l90 502h-166z" />
<glyph unicode="u" horiz-adv-x="1163" d="M209 244q0 35 4 68q6 50 10 73l117 666q23 5 52 6q40 2 52 2q14 0 50 -2q26 -1 49 -6l-111 -631q-12 -66 -12 -117q0 -82 38 -117q37 -34 101 -34q59 0 109 33q55 36 100 100q50 70 85 161q37 95 60 222l68 383q24 4 53 6q38 2 51 2q15 0 51 -2q27 -1 48 -6l-109 -609 q-23 -126 -36 -211t-13 -153q0 -32 1 -42q1 -14 3 -38q-22 -4 -48 -6q-34 -2 -48 -2q-12 0 -46 2q-25 1 -46 6q-8 29 -8 94q0 36 5 74q3 23 11 67q-22 -46 -57 -89q-37 -46 -86 -83q-48 -36 -110 -61q-63 -25 -128 -25q-122 0 -191 66t-69 203z" />
<glyph unicode="v" horiz-adv-x="1024" d="M203 1051q24 4 52 6q36 2 54 2q23 0 59 -2q28 -2 52 -6l119 -844l264 530q51 105 76 175q29 80 30 124v15q27 4 56 6q38 2 57 2q20 0 60 -2q31 -2 55 -6v-11q0 -30 -11 -68q-10 -36 -39 -93q-133 -254 -238 -442q-81 -145 -243 -437q-56 -6 -106 -6q-34 0 -55 1 q-38 2 -54 5z" />
<glyph unicode="w" horiz-adv-x="1564" d="M221 1051q29 5 55 6q36 2 56 2q56 0 106 -8l80 -815l328 815q23 5 49 6q36 2 49 2q19 0 51 -2q25 -2 49 -6l101 -818l256 621q27 66 34 105q9 46 9 73v19q24 4 50 6q34 2 54 2q63 0 113 -8v-9q0 -48 -17 -95q-19 -53 -55 -126l-381 -821q-27 -5 -56 -6q-40 -2 -58 -2 q-16 0 -52 2q-26 1 -49 6l-102 756l-311 -756q-27 -4 -57 -6q-40 -2 -56 -2t-52 2q-28 2 -50 6z" />
<glyph unicode="x" horiz-adv-x="1003" d="M61 0q2 8 2 13q0 8 5 16q5 44 40 106t86 134q63 89 106 144q39 49 101 134l-147 504q23 5 49 6q36 2 55 2q22 0 50 -2q20 -1 49 -6l141 -506l-262 -383q-31 -44 -49 -86q-17 -40 -17 -76q-21 -3 -62 -5q-18 -1 -48 -1q-31 0 -44 1q-41 3 -55 5zM614 545l222 332 q35 54 47 99q12 46 12 75q30 5 57 7q15 1 43 1q47 0 97 -8q0 -44 -16 -100q-14 -49 -56 -111q-68 -96 -102 -143q-7 -10 -45 -62t-58 -80l166 -555q-30 -4 -57 -6q-36 -2 -56 -2q-16 0 -50 2q-26 2 -48 6q-54 182 -79 272q-35 126 -77 273z" />
<glyph unicode="y" horiz-adv-x="1024" d="M45 -481q2 46 12 86q11 41 33 71q21 -7 45 -11q30 -5 49 -5q31 0 64 9q31 8 68 44q36 34 77 103t90 184q-22 -2 -34 -2h-37h-31q-13 0 -29 2q-11 87 -33.5 262t-34.5 262q-23 175 -69 527q29 5 52 6q32 2 52 2t56 -2q26 -1 53 -6l104 -949q66 141 117 258q67 153 93 215 q22 51 76 181q40 95 63 155q12 32 18 64q6 30 6 47q0 12 -1 16t-1 13q39 6 86 6h129q2 -10 2 -17v-16q0 -52 -20 -106q-24 -65 -45 -115q-32 -69 -98.5 -211t-99.5 -214q-85 -184 -236 -501q-53 -112 -111 -194q-53 -74 -106 -115q-51 -40 -105 -55q-52 -15 -115 -15 q-72 0 -139 21z" />
<glyph unicode="z" horiz-adv-x="919" d="M63 29l658 860h-455q0 37 5 80q4 33 24 82h743l6 -27l-659 -864h498q0 -41 -6 -83q-6 -41 -23 -77h-784z" />
<glyph unicode="{" horiz-adv-x="778" d="M193 606l4 23q60 31 92 53q40 28 67 59q28 33 48 75q18 40 34 99q40 171 65 282q27 123 72 205q45 83 123 125t220 42q18 0 27 -1q18 -2 28 -3q0 -37 -9 -82q-8 -39 -22 -80h-22q-66 0 -108 -18q-44 -19 -68 -53q-26 -37 -42 -92q-12 -43 -30 -136q-4 -15 -4 -25l-17 -88 q-17 -86 -38 -154q-20 -64 -46 -105q-28 -43 -62 -69q-43 -33 -83 -53q58 -35 85 -83q28 -50 28 -138q0 -25 -9 -97q-9 -70 -19 -125q-13 -72 -20 -122q-8 -61 -8 -88q0 -79 40 -107t143 -28q0 -31 -7 -78t-20 -82q-10 0 -15 -1t-14 -1q-173 0 -251 70q-76 69 -76 213 q0 34 4 65q7 51 10 72l35 194q6 51 6 95q0 77 -33 134q-33 58 -108 103z" />
<glyph unicode="|" horiz-adv-x="681" d="M193 -344l339 1933q24 4 52 6q36 2 51 2q19 0 51 -2q24 -1 45 -6l-340 -1933q-22 -4 -47 -6q-32 -2 -51 -2q-21 0 -53 2q-25 2 -47 6z" />
<glyph unicode="}" horiz-adv-x="770" d="M20 -334q0 32 10 82q9 46 21 80h23q67 0 107 17q43 18 68 54q26 37 42 92q15 53 31 136q4 15 4 25l16 88q17 86 38 154q20 65 46 105q28 43 62 69q43 33 83 53q-59 36 -85 82q-27 48 -27 139q0 33 8 97q9 70 19 125q13 72 20 122q8 61 8 88q0 78 -40 106q-41 29 -142 29 q0 37 6 78q7 47 20 82q11 0 16 1t13 1q173 0 251 -70q77 -69 77 -213q0 -34 -4 -65q-2 -18 -11 -72l-34 -195q-7 -61 -7 -94q0 -77 33 -134t109 -103l-4 -23q-60 -31 -92 -53q-40 -28 -68 -60q-30 -34 -48 -74q-18 -38 -34 -100q-44 -188 -65 -281q-27 -123 -72 -205 q-45 -83 -123 -125t-219 -42q-19 0 -28 1q-18 2 -28 3z" />
<glyph unicode="~" horiz-adv-x="980" d="M193 836q24 24 57 44t74 39q33 15 80 27q40 10 81 10q51 0 90 -13q34 -11 80 -29q37 -14 80 -27q44 -13 88 -13q36 0 78 17q44 18 94 61q27 -33 46 -66q15 -27 32 -75q-56 -47 -128 -77q-70 -29 -152 -29q-47 0 -88 12q-46 13 -82 27q-54 20 -81 29q-39 13 -83 13 q-42 0 -88 -18q-50 -19 -99 -61q-26 26 -49 59q-18 26 -30 70z" />
<glyph unicode="&#xa1;" horiz-adv-x="577" d="M100 -414l197 1032q60 7 98 7q43 0 97 -7l-173 -1032q-55 -6 -106 -6q-56 0 -113 6zM328 831q0 63 10 114q10 54 27 114q28 4 56 6q36 2 54 2q20 0 56 -2q30 -2 53 -6q0 -117 -39 -228q-28 -4 -56 -6q-36 -2 -55 -2q-18 0 -54 2q-28 2 -52 6z" />
<glyph unicode="&#xa2;" d="M319 393q0 114 34 225q35 115 100 206q67 95 160 158q95 65 221 83l43 238q14 3 35 7q18 3 36 3t36 -3q24 -4 36 -7l-21 -115q-4 -21 -10.5 -61.5t-9.5 -55.5q60 -5 102 -14q46 -10 84 -23q-2 -40 -15 -86q-14 -48 -36 -82q-37 15 -90 28q-45 11 -104 11q-99 0 -172 -46 q-74 -47 -122 -117q-50 -74 -73 -158q-25 -92 -25 -170q0 -139 69 -205t191 -66q102 0 213 39q15 -28 25 -68q10 -39 10 -89q-50 -21 -124 -34t-126 -14l-36 -219q-35 -8 -72 -8q-14 0 -38 2q-17 1 -34 6l39 226q-168 27 -247 133t-79 276z" />
<glyph unicode="&#xa3;" d="M211 23q13 13 21 18q12 7 24 18q109 90 172 225q61 131 61 291q0 16 -1 24t-1 24h-184q0 75 29 159h147q-5 39 -6 76q-2 50 -2 72q0 112 30 211q30 98 93 172q61 72 161 116q99 44 230 44q119 0 203 -23q80 -22 131 -45q-11 -44 -28 -80q-20 -44 -46 -86q-53 23 -120 41 q-66 18 -144 18q-85 0 -140 -26t-92 -75q-37 -50 -52 -116q-15 -68 -15 -149q0 -34 3 -71q5 -57 7 -79h383q0 -81 -28 -159h-347q0 -114 -26 -224q-27 -115 -115 -215h580q0 -51 -11 -100q-15 -65 -20 -84h-893z" />
<glyph unicode="&#xa4;" d="M205 315l155 156q-35 52 -53 113q-18 62 -18 129q0 72 20 131q21 63 58 114l-162 164q23 45 53 74q30 28 72 47l162 -164q55 37 111 54q60 18 128 18t128 -18q59 -18 114 -54l164 164q36 -22 68 -52q31 -30 52 -67l-161 -161q38 -51 60 -117t22 -133t-22 -131 q-21 -62 -56 -115l155 -156q-45 -78 -116 -121l-162 160q-109 -74 -246 -74q-139 0 -248 74l-157 -157q-47 22 -74 52q-30 33 -47 70zM471 713q0 -59 19 -107q18 -46 55 -86q33 -36 83 -58t103 -22q56 0 106 22t83 58q34 37 55 86q20 47 20 107q0 59 -20 106q-21 49 -55 86 q-35 38 -83 59t-106 21q-55 0 -103 -21t-83 -59q-37 -40 -55 -86q-19 -48 -19 -106z" />
<glyph unicode="&#xa5;" d="M190 338q0 33 5 71q5 36 20 72h373l26 160h-372q0 45 7 77q7 34 19 66h295l-241 676q27 5 58 6q42 2 60 2q20 0 56 -2q26 -1 49 -6l203 -622l397 622q20 3 65 5q23 1 68 1q29 0 46 -1q31 -2 46 -5l-446 -676h317q0 -37 -4 -68q-5 -38 -20 -75h-394l-28 -160h393 q0 -43 -7 -75q-8 -36 -18 -68h-393l-59 -338q-53 -6 -107 -6q-57 0 -102 6l59 338h-371z" />
<glyph unicode="&#xa6;" horiz-adv-x="481" d="M80 -344l119 682q24 4 50 6q34 2 50 2q19 0 51 -2q25 -2 47 -6l-118 -682q-23 -4 -50 -6q-32 -2 -51 -2t-51 2q-25 2 -47 6zM299 907l119 682q24 4 50 6q34 2 50 2q19 0 51 -2q25 -2 47 -6l-118 -682q-22 -5 -48 -6q-34 -2 -53 -2t-51 2q-25 2 -47 6z" />
<glyph unicode="&#xa7;" horiz-adv-x="1118" d="M225 35q10 40 29 82q16 35 41 73q40 -20 123 -39q76 -18 145 -18q33 0 81 5q39 4 83 21q40 15 65 45q25 29 25 77q0 53 -40 81q-45 31 -93 48l-252 86q-87 29 -128 76q-42 48 -42 126q0 86 45 157t119 134q-20 30 -32 61q-13 33 -13 76q0 89 37 154q38 67 99 109 q59 41 146 63q83 21 175 21q93 0 186 -19q86 -17 147 -45q-11 -47 -29 -81q-22 -42 -42 -73q-46 22 -118 39q-73 17 -138 17q-42 0 -85 -6q-40 -5 -81 -22q-35 -14 -61 -43q-23 -26 -23 -71q0 -60 42 -87q45 -29 95 -46l213 -75q81 -29 130 -75q50 -47 50 -126 q0 -81 -44 -154q-44 -72 -111 -135q61 -65 61 -152q0 -86 -38 -153q-37 -66 -100 -109q-59 -41 -146 -63q-82 -21 -173 -21q-43 0 -100 5q-23 2 -97 14q-49 8 -85 19q-39 12 -66 24zM457 762q0 -42 26 -64q27 -22 86 -43q46 -18 112 -40q57 -19 114 -42l55 -20q31 31 53 64 q25 37 25 77q0 33 -31 59q-30 25 -77 45q-56 23 -102 38q-53 17 -106 36l-73 29q-36 -32 -57 -62q-25 -35 -25 -77z" />
<glyph unicode="&#xa8;" horiz-adv-x="1024" d="M397 1237q1 37 11 103q8 50 26 102q27 4 54 6q36 2 51 2q13 0 51 -2q29 -2 53 -6q-1 -47 -10 -104q-7 -43 -27 -101q-53 -6 -104 -6q-32 0 -51 1q-38 2 -54 5zM815 1237q2 54 9 103q8 54 28 102q24 4 52 6q36 2 52 2q14 0 52 -2q29 -2 53 -6q-5 -55 -12 -103 q-7 -43 -25 -102q-52 -6 -104 -6q-33 0 -52 1q-37 2 -53 5z" />
<glyph unicode="&#xa9;" horiz-adv-x="1732" d="M225 735q0 160 56 302q55 140 154 242q98 101 240 160q140 58 310 58q169 0 310 -57q139 -56 240 -160q100 -103 155 -242q55 -138 55 -303t-55 -303t-155 -241q-97 -99 -240 -159q-142 -59 -310 -59t-310 59q-143 60 -240 159q-98 101 -154 241q-56 141 -56 303z M375 735q0 -132 42 -246t121 -199t192 -134q115 -50 255 -50q142 0 256 50t192 134q77 83 120 199q42 114 42 246t-42 246q-43 117 -120 200q-78 84 -192 134q-111 49 -256 49q-142 0 -255 -49t-192 -134q-78 -84 -121 -200q-42 -114 -42 -246zM616 733q0 90 28 172 q26 77 78 138q48 57 123 93q69 33 165 33q71 0 117 -8t94 -24q-1 -25 -9 -73q-6 -38 -22 -69q-49 16 -83 20q-40 5 -81 5q-117 0 -177 -77q-61 -78 -61 -210q0 -137 66 -208q66 -70 176 -70q48 0 83 7q41 8 79 25q36 -62 43 -137q-47 -23 -103 -33q-54 -10 -116 -10 q-93 0 -169 32q-74 31 -126 89q-51 57 -78 135t-27 170z" />
<glyph unicode="&#xaa;" horiz-adv-x="1024" d="M276 858q0 115 36 224q37 111 108 196q72 86 177 138q104 52 245 52q63 0 124 -10q70 -11 111 -26l-92 -517q-24 -147 -24 -229v-34q0 -10 2 -34q-21 -2 -48 -3q-18 -1 -43 -1q-23 0 -37 1q-28 2 -40 3q-9 40 -9 87q0 7 2 35q1 12 7 51q-45 -77 -117 -135 q-71 -58 -172 -58q-115 0 -172 69q-58 70 -58 191zM463 897q0 -73 24 -117q24 -43 78 -43q49 0 94 33q47 35 83 89q40 61 67 133q29 76 45 165l31 164q-12 3 -38 5q-13 1 -42 1q-79 0 -141 -37q-65 -39 -109 -97q-45 -60 -69 -137q-23 -73 -23 -159z" />
<glyph unicode="&#xab;" horiz-adv-x="1198" d="M176 555l428 444q31 6 55 7q40 2 58 2q17 0 61 -2q25 -1 62 -7l-432 -456l264 -451q-28 -4 -58 -6q-38 -2 -57 -2q-18 0 -52 2q-26 2 -50 6zM662 555l428 444q31 6 55 7q40 2 57 2q18 0 62 -2q23 -1 61 -7l-432 -456l264 -451q-29 -4 -57 -6q-38 -2 -58 -2q-18 0 -52 2 q-26 2 -50 6z" />
<glyph unicode="&#xac;" d="M274 694q0 31 1 49q1 27 6 48h856v-572q-18 -4 -44 -6q-34 -2 -49 -2q-13 0 -49 2q-26 1 -47 6v383h-667q-4 18 -6 44q-1 17 -1 48z" />
<glyph unicode="&#xad;" horiz-adv-x="735" d="M199 496q5 100 32 188h517q0 -37 -10 -94q-10 -56 -23 -94h-516z" />
<glyph unicode="&#xae;" horiz-adv-x="1732" d="M225 735q0 160 56 302q55 140 154 242q98 101 240 160q140 58 310 58q169 0 310 -57q139 -56 240 -160q100 -103 155 -242q55 -138 55 -303t-55 -303t-155 -241q-97 -99 -240 -159q-142 -59 -310 -59t-310 59q-143 60 -240 159q-98 101 -154 241q-56 141 -56 303z M375 735q0 -134 42 -248q42 -115 121 -198q79 -84 191 -133q114 -50 256 -50q140 0 255 50q114 49 193 133q77 81 120 198q42 114 42 248q0 132 -42 246q-44 118 -120 199q-79 84 -193 133q-113 49 -255 49q-145 0 -256 -49q-112 -49 -191 -133q-78 -82 -121 -199 q-42 -114 -42 -246zM733 354v789q27 3 102 10q44 4 111 4q78 0 135 -14q64 -16 106 -43q43 -28 69 -76q26 -47 26 -111q0 -48 -13 -84q-13 -37 -34 -65q-22 -29 -46 -48q-20 -15 -50 -34l213 -326q-18 -3 -53 -5q-16 -1 -46 -1q-41 0 -79 6l-234 365l41 18q46 21 94 61 q45 38 45 97t-43 92t-114 33q-23 0 -35 -1q-27 -2 -41 -5v-662q-30 -6 -76 -6q-45 0 -78 6z" />
<glyph unicode="&#xaf;" horiz-adv-x="1024" d="M410 1262q0 44 4 79q5 43 20 80h553q0 -37 -5 -79q-5 -38 -19 -80h-553z" />
<glyph unicode="&#xb0;" horiz-adv-x="757" d="M236 1188q0 66 23 118q24 54 64 94q39 39 95 63t117 24t115 -24q58 -26 95 -63q42 -42 65 -94q24 -54 24 -118q0 -62 -24 -116q-23 -52 -65 -94q-39 -39 -95 -64q-52 -23 -115 -23q-64 0 -117 23q-55 24 -95 64t-64 94q-23 52 -23 116zM381 1188q0 -69 44 -115 q43 -45 110 -45q65 0 109 45q44 46 44 115t-44 116q-43 46 -109 46q-67 0 -110 -46q-44 -47 -44 -116z" />
<glyph unicode="&#xb1;" d="M172 2q0 46 8 94q7 41 25 92h866v-14q0 -44 -8 -90q-7 -40 -23 -82h-868zM285 629q0 41 6 87q6 49 22 93h340l66 373q23 5 46 6q32 2 48 2q15 0 47 -2q25 -2 47 -6l-65 -373h336q0 -37 -7 -88q-6 -44 -22 -92h-340l-66 -373q-43 -8 -94 -8q-16 0 -48 2q-23 1 -46 6 l66 373h-336z" />
<glyph unicode="&#xb2;" horiz-adv-x="921" d="M213 651l326 305q65 62 112 116q49 56 49 128q0 111 -116 111q-48 0 -99 -15q-59 -17 -92 -32q-8 20 -23 62q-13 36 -14 71q55 25 127 44q64 17 144 17q122 0 190 -61q70 -62 70 -166q0 -57 -18 -103q-19 -50 -46 -88q-27 -39 -69 -79q-12 -12 -41 -39t-45 -43l-115 -105 h303q0 -70 -27 -147h-612z" />
<glyph unicode="&#xb3;" horiz-adv-x="921" d="M242 649q12 67 59 131q30 -10 97 -27q46 -12 96 -12q30 0 71 9q36 8 63 26t44 49q16 29 16 74q0 59 -38 89t-101 30q-9 0 -39 -2q-22 -2 -45 -6l-19 24l236 273h-295q0 31 5 69q3 27 18 72h510l10 -31l-248 -295q97 -12 140 -71q44 -61 44 -131q0 -78 -29 -136 q-28 -57 -80 -99q-48 -39 -118 -61q-71 -22 -141 -22q-85 0 -147 13q-66 14 -109 34z" />
<glyph unicode="&#xb4;" horiz-adv-x="1024" d="M520 1217l199 260q33 5 65 6q44 2 68 2q26 0 66 -2q31 -2 61 -6l-254 -260q-29 -6 -50 -7q-36 -2 -59 -2q-15 0 -47 2q-17 1 -49 7z" />
<glyph unicode="&#xb5;" horiz-adv-x="1187" d="M61 -483l263 1534q22 4 50 6q36 2 50 2t50 -2q28 -2 50 -6l-96 -549q-4 -29 -10 -79q-4 -36 -4 -75q0 -101 44 -154t144 -53q43 0 92 19t88 55q44 41 73 93q33 59 44 132l105 611q22 4 50 6q36 2 50 2t50 -2q28 -2 50 -6l-180 -1051q-17 -5 -37 -6q-28 -2 -43 -2 q-14 0 -46 2q-23 1 -40 6v23q0 36 1 55q2 37 5 53q-52 -71 -125 -114q-72 -42 -174 -42q-71 0 -129 29t-82 76l-94 -563q-22 -5 -51 -6q-5 0 -23.5 -1.5t-27.5 -1.5t-26.5 1.5t-22.5 1.5q-27 1 -48 6z" />
<glyph unicode="&#xb6;" horiz-adv-x="1177" d="M240 1001q0 137 50 231q48 91 142 149q89 55 220 80q128 24 286 24l-256 -1495h-35q-19 0 -63 2q-29 1 -64 10l111 639q-76 6 -150 29q-75 23 -125 65q-55 45 -85 109q-31 65 -31 157zM838 -12l256 1497q53 0 95 -3q36 -3 64 -12l-252 -1470q-55 -12 -163 -12z" />
<glyph unicode="&#xb7;" horiz-adv-x="493" d="M215 461q0 61 11 113q13 63 28 114q28 4 57 6q38 2 58 2q19 0 57 -2q28 -1 55 -6q0 -63 -10 -114t-27 -113q-33 -5 -60 -6q-36 -2 -56 -2q-21 0 -57 2q-28 2 -56 6z" />
<glyph unicode="&#xb8;" horiz-adv-x="1024" d="M260 -455q6 28 18 59q13 34 29 54q21 -8 64 -19q38 -10 65 -10q13 0 43 2q15 1 43 11q20 7 34 24q13 16 13 45q0 40 -31 55t-85 15q-31 0 -55 -4q-41 -7 -56 -10l-8 10l141 270h121l-88 -166q6 1 15 3q6 1 26 1q81 0 128 -45q46 -45 46 -114q0 -62 -25 -106 q-24 -42 -64 -67q-41 -26 -91 -36q-53 -11 -105 -11q-58 0 -108 13q-51 13 -70 26z" />
<glyph unicode="&#xb9;" horiz-adv-x="921" d="M287 627q0 32 5 72q4 34 23 73h183l82 467l-193 -78q-41 56 -47 133l397 162h54l-119 -684h188q0 -33 -5 -73q-4 -34 -21 -72h-547z" />
<glyph unicode="&#xba;" horiz-adv-x="1024" d="M281 920q0 91 26 185q27 96 84 179q55 80 148 134q89 52 215 52q157 0 236 -85t79 -240q0 -91 -27 -187q-27 -97 -84 -176t-146 -132q-88 -52 -214 -52q-156 0 -237 84q-80 83 -80 238zM467 918q0 -181 143 -181q74 0 126 40t85 102t48 133q16 77 16 133q0 89 -39 136 q-39 46 -109 46q-73 0 -125 -41t-83 -102q-33 -63 -47 -133q-15 -72 -15 -133z" />
<glyph unicode="&#xbb;" horiz-adv-x="1241" d="M94 92l436 467l-268 440q38 6 57 7q38 2 58 2q18 0 52 -2q18 -1 50 -7l279 -467l-430 -440q-24 -4 -55 -6q-40 -2 -58 -2t-60 2q-33 2 -61 6zM578 92l436 467l-269 440q38 6 58 7q38 2 57 2q18 0 52 -2q20 -1 51 -7l278 -467l-430 -440q-24 -4 -54 -6q-40 -2 -59 -2 q-18 0 -60 2q-32 2 -60 6z" />
<glyph unicode="&#xbc;" horiz-adv-x="2150" d="M287 627q0 32 5 72q4 34 23 73h183l82 467l-193 -78q-41 56 -47 133l397 162h54l-119 -684h188q0 -33 -5 -73q-4 -34 -21 -72h-547zM543 2l1132 1448q23 4 56 6q40 2 57 2t55 -2q29 -2 51 -6l-1134 -1448q-28 -4 -53 -6q-32 -2 -50 -2q-16 0 -58 2q-32 2 -56 6zM1288 188 l436 664q42 -6 79 -21q43 -17 65 -32l-332 -500h201l30 168q12 3 36 5q12 1 40 1q42 0 76 -6l-29 -168h95q0 -19 -6 -69q-4 -36 -17 -68h-94l-29 -162l-33 -3q-11 -1 -37 -1q-28 0 -40 1q-27 2 -41 5l26 160h-416z" />
<glyph unicode="&#xbd;" horiz-adv-x="2150" d="M287 627q0 32 5 72q4 34 23 73h183l82 467l-193 -78q-41 56 -47 133l397 162h54l-119 -684h188q0 -33 -5 -73q-4 -34 -21 -72h-547zM518 2l1133 1448q24 4 55 6q40 2 57 2q18 0 56 -2q29 -2 51 -6l-1135 -1448q-28 -4 -53 -6q-32 -2 -49 -2t-59 2q-32 2 -56 6zM1343 27 l326 305q76 72 113 115q49 56 49 128q0 111 -117 111q-50 0 -98 -14q-52 -15 -92 -33q-14 33 -24 62q-11 33 -13 71q55 25 127 44q68 18 143 18q121 0 191 -62q69 -62 69 -166q0 -58 -17 -102q-19 -50 -46 -88q-27 -39 -70 -80q-12 -12 -41 -39t-45 -43l-115 -104h304 q0 -72 -27 -148h-612z" />
<glyph unicode="&#xbe;" horiz-adv-x="2150" d="M256 649q12 67 59 131q26 -8 98 -27q47 -12 95 -12q31 0 72 9q34 7 62 26q27 18 44 49q16 29 16 74q0 59 -37 89t-102 30q-9 0 -39 -2q-22 -2 -45 -6l-18 24l235 273h-295q0 23 6 69q4 32 17 72h510l10 -31l-248 -295q98 -12 141 -71q44 -61 44 -131q0 -76 -30 -136 q-28 -57 -80 -99q-48 -39 -118 -61q-71 -22 -141 -22q-84 0 -146 13q-67 14 -110 34zM506 2l1132 1448q23 4 56 6q40 2 57 2t55 -2q30 -2 52 -6l-1135 -1448q-28 -4 -53 -6q-32 -2 -49 -2t-59 2q-32 2 -56 6zM1262 188l436 664q42 -6 79 -21q40 -16 64 -32l-332 -500h201 l31 168q12 3 36 5q12 1 40 1q41 0 75 -6l-28 -168h94q0 -27 -5 -69q-4 -33 -18 -68h-94l-29 -162q-5 0 -15.5 -1t-16.5 -2q-11 -1 -37 -1q-29 0 -41 1q-27 2 -41 5l27 160h-416z" />
<glyph unicode="&#xbf;" horiz-adv-x="927" d="M145 -82q0 91 34 169q35 81 92 142q62 67 133 111q79 49 159 72l35 211q51 6 98 6q33 0 49 -1q33 -2 48 -5l-58 -332l-76 -21q-57 -16 -111 -45q-52 -29 -93 -69q-41 -41 -65 -94q-23 -50 -23 -115q0 -95 65 -144t176 -49q75 0 134 14q63 15 122 35q14 -32 25 -83 q10 -46 10 -89q-95 -35 -175 -45q-77 -10 -161 -10q-100 0 -181 26q-80 26 -131 71q-52 46 -79 109t-27 136zM619 831q1 58 11 117q10 60 29 111q28 4 58 6q38 2 57 2q20 0 56 -2q29 -2 57 -6q-1 -56 -11 -117q-9 -59 -30 -111q-17 -3 -58 -7q-28 -3 -57 -3q-27 0 -55 3 q-38 4 -57 7z" />
<glyph unicode="&#xc0;" horiz-adv-x="1226" d="M72 0l669 1473q19 3 65 5q25 1 66 1q42 0 63 -1q39 -2 56 -5l201 -1473q-60 -6 -119 -6q-49 0 -100 6l-39 346h-496l-149 -346q-49 -6 -111 -6q-38 0 -56 1q-35 2 -50 5zM518 526h395l-84 711zM557 1825q24 4 65 6q54 2 78 2t68 -2q32 -1 55 -6l187 -232q-14 -4 -45 -7 q-29 -3 -58 -3q-23 0 -59 2q-27 1 -45 6z" />
<glyph unicode="&#xc1;" horiz-adv-x="1226" d="M72 0l669 1473q19 3 65 5q25 1 66 1q42 0 63 -1q39 -2 56 -5l201 -1473q-60 -6 -119 -6q-49 0 -100 6l-39 346h-496l-149 -346q-49 -6 -111 -6q-38 0 -56 1q-35 2 -50 5zM518 526h395l-84 711zM711 1593l250 224q24 5 58 6q46 2 68 2q24 0 76 -2q40 -2 62 -6l-297 -226 q-15 -3 -52 -5q-21 -1 -65 -1q-20 0 -56 2q-28 2 -44 6z" />
<glyph unicode="&#xc2;" horiz-adv-x="1226" d="M72 0l669 1473q19 3 65 5q25 1 66 1q42 0 63 -1q39 -2 56 -5l201 -1473q-60 -6 -119 -6q-49 0 -100 6l-39 346h-496l-149 -346q-49 -6 -111 -6q-38 0 -56 1q-35 2 -50 5zM518 526h395l-84 711zM547 1595l260 226q28 5 60 6q46 2 63 2q10 0 50 -2q29 -1 56 -6l168 -226 q-22 -4 -47 -6q-32 -2 -51 -2q-14 0 -50 2q-25 1 -55 8l-92 123l-141 -125q-27 -5 -58 -6q-42 -2 -57 -2q-20 0 -56 2q-28 2 -50 6z" />
<glyph unicode="&#xc3;" horiz-adv-x="1226" d="M72 0l669 1473q19 3 65 5q25 1 66 1q42 0 63 -1q39 -2 56 -5l201 -1473q-60 -6 -119 -6q-49 0 -100 6l-39 346h-496l-149 -346q-49 -6 -111 -6q-38 0 -56 1q-35 2 -50 5zM518 526h395l-84 711zM543 1737q40 42 93 71q56 31 120 31q46 0 78 -11q42 -15 67 -26 q16 -7 67 -25q34 -12 74 -12q36 0 63 12q31 14 69 46q12 -16 35 -54q20 -33 24 -61q-41 -38 -95 -68t-120 -30q-46 0 -78 11q-46 16 -68 25q-17 7 -66 24q-32 11 -71 11t-66 -12q-26 -12 -67 -43q-21 25 -37 51q-17 28 -22 60z" />
<glyph unicode="&#xc4;" horiz-adv-x="1226" d="M72 0l669 1473q19 3 65 5q25 1 66 1q42 0 63 -1q39 -2 56 -5l201 -1473q-60 -6 -119 -6q-49 0 -100 6l-39 346h-496l-149 -346q-49 -6 -111 -6q-38 0 -56 1q-35 2 -50 5zM518 526h395l-84 711zM547 1593q0 105 35 207q28 4 56 6q36 2 52 2q17 0 55 -2q30 -2 52 -6 q0 -105 -35 -207q-28 -4 -56 -6q-36 -2 -55 -2q-16 0 -52 2q-28 2 -52 6zM985 1593q0 100 35 207q27 5 55 6q38 2 53 2q19 0 55 -2q28 -2 52 -6q-4 -103 -35 -207q-28 -4 -56 -6q-36 -2 -54 -2q-16 0 -54 2q-28 1 -51 6z" />
<glyph unicode="&#xc5;" horiz-adv-x="1239" d="M74 0l669 1468q-44 26 -68 73t-24 104t21 107q22 51 56 87q34 35 85 57q50 21 109 21q104 0 159 -63q56 -64 56 -154q0 -77 -39 -139q-40 -64 -105 -93l201 -1468q-46 -6 -109 -6q-57 0 -108 6l-21 172q-4 31 -10.5 90t-9.5 84h-494l-151 -346q-41 -6 -86 -6h-55z M520 526h395l-84 711zM780 1661q0 -53 24 -86t77 -33q59 0 92 44t33 104q0 47 -22 83q-20 33 -75 33q-61 0 -95 -42q-34 -41 -34 -103z" />
<glyph unicode="&#xc6;" horiz-adv-x="1796" d="M0 0l1018 1473h930q0 -83 -31 -185h-569l-74 -420h455q0 -34 -9 -90q-8 -48 -24 -94h-455l-88 -502h584q0 -41 -8 -91q-7 -43 -23 -91h-795l60 344h-496l-244 -344q-29 -4 -60 -6q-42 -2 -62 -2q-21 0 -57 2q-28 2 -52 6zM600 524h404l137 781h-13z" />
<glyph unicode="&#xc7;" horiz-adv-x="1181" d="M233 545q0 180 52 356q51 174 152 304q103 134 251 212q151 80 344 80q109 0 187 -15q77 -15 131 -38q-11 -48 -24 -86q-15 -42 -40 -86q-60 22 -117 33q-54 10 -131 10q-149 0 -262 -64q-109 -62 -181 -169q-71 -105 -105 -240q-33 -129 -33 -279q0 -200 98 -301 q99 -102 281 -102q82 0 144 14q70 16 134 43q19 -36 29 -80q9 -38 14 -94q-72 -33 -166 -48q-99 -16 -174 -20l-53 -94q19 4 43 4q85 0 132 -45q46 -45 46 -114q0 -64 -24 -106q-23 -40 -66 -67q-41 -25 -93 -36q-55 -11 -108 -11q-59 0 -111 13q-51 13 -71 26q5 30 16 59 q11 30 29 54q24 -9 68 -19q42 -10 67 -10q12 0 44 2q16 1 44 11q20 7 34 24q13 16 13 45q0 40 -31 55q-32 15 -87 15q-33 0 -57 -4q-41 -7 -56 -10l-10 10l108 205q-224 27 -342 174q-119 148 -119 389z" />
<glyph unicode="&#xc8;" horiz-adv-x="1073" d="M188 0l258 1473h781q0 -93 -33 -185h-569l-74 -420h455q0 -94 -33 -184h-455q-38 -213 -44 -251t-44 -251h586q-2 -18 -5.5 -49t-4.5 -43q-4 -37 -23 -90h-795zM559 1825q24 4 65 6q54 2 78 2t68 -2q32 -1 55 -6l187 -232q-14 -4 -45 -7q-29 -3 -58 -3q-23 0 -59 2 q-27 1 -45 6z" />
<glyph unicode="&#xc9;" horiz-adv-x="1073" d="M188 0l258 1473h781q0 -93 -33 -185h-569l-74 -420h455q0 -94 -33 -184h-455q-38 -213 -44 -251t-44 -251h586q-2 -18 -5.5 -49t-4.5 -43q-4 -37 -23 -90h-795zM707 1593l249 224q24 4 59 6q46 2 68 2q24 0 76 -2q40 -2 62 -6l-297 -226q-15 -3 -53 -5q-21 -1 -64 -1 q-20 0 -56 2q-28 2 -44 6z" />
<glyph unicode="&#xca;" horiz-adv-x="1073" d="M188 0l258 1473h781q0 -93 -33 -185h-569l-74 -420h455q0 -94 -33 -184h-455q-38 -213 -44 -251t-44 -251h586q-2 -18 -5.5 -49t-4.5 -43q-4 -37 -23 -90h-795zM522 1595l260 226q27 5 61 6q46 2 62 2q10 0 50 -2q30 -1 57 -6l168 -226q-22 -4 -47 -6q-32 -2 -52 -2 q-14 0 -50 2q-24 1 -54 8l-92 123l-142 -125q-27 -5 -58 -6q-42 -2 -56 -2q-21 0 -57 2q-28 2 -50 6z" />
<glyph unicode="&#xcb;" horiz-adv-x="1073" d="M188 0l258 1473h781q0 -93 -33 -185h-569l-74 -420h455q0 -94 -33 -184h-455q-38 -213 -44 -251t-44 -251h586q-2 -18 -5.5 -49t-4.5 -43q-4 -37 -23 -90h-795zM535 1593q0 108 34 207q28 4 57 6q36 2 52 2q17 0 55 -2q29 -2 51 -6q0 -108 -34 -207q-28 -4 -57 -6 q-36 -2 -54 -2q-16 0 -52 2q-28 2 -52 6zM973 1593q0 100 35 207q27 5 55 6q38 2 53 2q18 0 54 -2q30 -2 53 -6q-4 -103 -35 -207q-28 -4 -56 -6q-36 -2 -55 -2q-15 0 -53 2q-28 1 -51 6z" />
<glyph unicode="&#xcc;" horiz-adv-x="589" d="M190 0l259 1473q27 5 53 6q36 2 53 2q20 0 54 -2q26 -2 50 -6l-258 -1473q-29 -4 -54 -6q-34 -2 -54 -2t-54 2q-27 2 -49 6zM279 1825q24 5 64 6q54 2 79 2q23 0 67 -2q34 -2 56 -6l186 -232q-14 -4 -45 -7q-28 -3 -57 -3q-24 0 -60 2q-27 1 -45 6z" />
<glyph unicode="&#xcd;" horiz-adv-x="589" d="M190 0l259 1473q27 5 53 6q36 2 53 2q20 0 54 -2q26 -2 50 -6l-258 -1473q-29 -4 -54 -6q-34 -2 -54 -2t-54 2q-27 2 -49 6zM393 1593l250 224q24 5 58 6q46 2 69 2q24 0 76 -2q38 -1 61 -6l-297 -226q-15 -3 -52 -5q-21 -1 -64 -1q-21 0 -57 2q-28 2 -44 6z" />
<glyph unicode="&#xce;" horiz-adv-x="589" d="M190 0l259 1473q27 5 53 6q36 2 53 2q20 0 54 -2q26 -2 50 -6l-258 -1473q-29 -4 -54 -6q-34 -2 -54 -2t-54 2q-27 2 -49 6zM246 1595l260 226q28 5 60 6q46 2 63 2q10 0 50 -2q29 -1 56 -6l168 -226q-22 -4 -47 -6q-32 -2 -51 -2q-14 0 -50 2q-25 1 -55 8l-92 123 l-141 -125q-27 -5 -58 -6q-42 -2 -57 -2q-20 0 -56 2q-28 2 -50 6z" />
<glyph unicode="&#xcf;" horiz-adv-x="589" d="M190 0l259 1473q27 5 53 6q36 2 53 2q20 0 54 -2q26 -2 50 -6l-258 -1473q-29 -4 -54 -6q-34 -2 -54 -2t-54 2q-27 2 -49 6zM248 1593q0 105 35 207q28 4 56 6q36 2 52 2q17 0 55 -2q30 -2 52 -6q0 -105 -35 -207q-28 -4 -56 -6q-36 -2 -55 -2q-16 0 -52 2q-28 2 -52 6z M686 1593q0 100 35 207q27 5 55 6q38 2 53 2q19 0 55 -2q28 -2 52 -6q-4 -103 -35 -207q-28 -4 -56 -6q-36 -2 -54 -2q-16 0 -54 2q-29 1 -51 6z" />
<glyph unicode="&#xd0;" horiz-adv-x="1425" d="M184 692q0 37 5 79q4 36 20 75h156l110 627q13 2 40 4.5t34 3.5q29 3 84 7q59 4 84 5q54 2 78 2q174 0 297 -43q126 -44 204 -122q82 -82 118 -189q38 -112 38 -246q0 -195 -57 -361t-169 -292q-112 -125 -276 -196q-165 -71 -379 -71q-103 0 -201 8q-103 8 -153 17 l121 692h-154zM457 172q23 -4 74 -7q48 -3 94 -3q140 0 254 53q109 51 191 148q80 95 120 223q41 131 41 280q0 219 -98 332q-100 115 -324 115q-41 0 -80 -3q-47 -4 -72 -7l-82 -457h353q0 -35 -5 -78q-4 -37 -20 -76h-354z" />
<glyph unicode="&#xd1;" horiz-adv-x="1370" d="M188 0l258 1473q15 3 51 5q18 1 50 1q51 0 92 -6l414 -1111l192 1111q7 1 20.5 2.5t19.5 1.5q26 2 40 2h49l66 -6l-258 -1473q-15 -3 -48 -5q-17 -1 -51 -1q-30 0 -46 1q-31 2 -46 5l-416 1104l-190 -1104q-41 -6 -80 -6h-51zM635 1737q40 42 93 71q56 31 120 31 q46 0 78 -11q42 -15 67 -26q16 -7 67 -25q34 -12 75 -12q35 0 62 12q31 14 69 46q16 -21 36 -54q18 -31 23 -61q-41 -38 -95 -68t-120 -30q-46 0 -78 11q-39 14 -67 25q-11 5 -67 24q-32 11 -71 11t-66 -12q-26 -12 -67 -43q-21 25 -37 51q-17 28 -22 60z" />
<glyph unicode="&#xd2;" horiz-adv-x="1435" d="M229 516q0 187 50 366q49 176 144 313t234 219q140 83 318 83q122 0 215 -41q90 -40 151 -113q60 -72 90 -172q29 -97 29 -219q0 -191 -50 -368q-50 -176 -145 -312q-93 -134 -234 -216q-138 -81 -316 -81q-123 0 -214 39q-92 39 -152 110q-60 70 -90 171t-30 221z M446 518q0 -172 71 -267t220 -95q122 0 214 70q93 71 158 185q63 111 98 256q34 140 34 283q0 165 -69 264t-222 99q-121 0 -217 -70q-95 -69 -158 -182t-96 -255t-33 -288zM748 1825q24 5 64 6q54 2 79 2q23 0 67 -2q34 -2 56 -6l186 -232q-14 -4 -45 -7q-29 -3 -57 -3 q-24 0 -60 2q-27 1 -45 6z" />
<glyph unicode="&#xd3;" horiz-adv-x="1435" d="M229 516q0 187 50 366q49 176 144 313t234 219q140 83 318 83q122 0 215 -41q90 -40 151 -113q60 -72 90 -172q29 -97 29 -219q0 -191 -50 -368q-50 -176 -145 -312q-93 -134 -234 -216q-138 -81 -316 -81q-123 0 -214 39q-92 39 -152 110q-60 70 -90 171t-30 221z M446 518q0 -172 71 -267t220 -95q122 0 214 70q93 71 158 185q63 111 98 256q34 140 34 283q0 165 -69 264t-222 99q-121 0 -217 -70q-95 -69 -158 -182t-96 -255t-33 -288zM809 1593l250 224q24 5 58 6q46 2 69 2q24 0 76 -2q38 -1 61 -6l-297 -226q-15 -3 -52 -5 q-21 -1 -65 -1q-20 0 -56 2q-28 2 -44 6z" />
<glyph unicode="&#xd4;" horiz-adv-x="1435" d="M229 516q0 187 50 366q49 176 144 313t234 219q140 83 318 83q122 0 215 -41q90 -40 151 -113q60 -72 90 -172q29 -97 29 -219q0 -191 -50 -368q-50 -176 -145 -312q-93 -134 -234 -216q-138 -81 -316 -81q-123 0 -214 39q-92 39 -152 110q-60 70 -90 171t-30 221z M446 518q0 -172 71 -267t220 -95q122 0 214 70q93 71 158 185q63 111 98 256q34 140 34 283q0 165 -69 264t-222 99q-121 0 -217 -70q-95 -69 -158 -182t-96 -255t-33 -288zM655 1595l260 226q27 5 61 6q46 2 62 2q11 0 51 -2q29 -1 56 -6l168 -226q-22 -4 -47 -6 q-32 -2 -52 -2q-14 0 -50 2q-24 1 -54 8l-92 123l-141 -125q-27 -4 -59 -6q-42 -2 -56 -2q-20 0 -56 2q-29 2 -51 6z" />
<glyph unicode="&#xd5;" horiz-adv-x="1435" d="M229 516q0 187 50 366q49 176 144 313t234 219q140 83 318 83q122 0 215 -41q90 -40 151 -113q60 -72 90 -172q29 -97 29 -219q0 -191 -50 -368q-50 -176 -145 -312q-93 -134 -234 -216q-138 -81 -316 -81q-123 0 -214 39q-92 39 -152 110q-60 70 -90 171t-30 221z M446 518q0 -172 71 -267t220 -95q122 0 214 70q93 71 158 185q63 111 98 256q34 140 34 283q0 165 -69 264t-222 99q-121 0 -217 -70q-95 -69 -158 -182t-96 -255t-33 -288zM680 1737q40 42 93 71q56 31 120 31q46 0 78 -11q42 -15 67 -26q16 -7 67 -25q35 -12 75 -12 q35 0 62 12q31 14 69 46q17 -21 36 -54q18 -31 23 -61q-41 -38 -95 -68t-120 -30q-46 0 -78 11q-39 14 -67 25q-11 5 -67 24q-32 11 -71 11t-66 -12q-26 -12 -67 -43q-21 25 -37 51q-17 28 -22 60z" />
<glyph unicode="&#xd6;" horiz-adv-x="1435" d="M229 516q0 187 50 366q49 176 144 313t234 219q140 83 318 83q122 0 215 -41q90 -40 151 -113q60 -72 90 -172q29 -97 29 -219q0 -191 -50 -368q-50 -176 -145 -312q-93 -134 -234 -216q-138 -81 -316 -81q-123 0 -214 39q-92 39 -152 110q-60 70 -90 171t-30 221z M446 518q0 -172 71 -267t220 -95q122 0 214 70q93 71 158 185q63 111 98 256q34 140 34 283q0 165 -69 264t-222 99q-121 0 -217 -70q-95 -69 -158 -182t-96 -255t-33 -288zM674 1593q0 105 35 207q28 4 56 6q36 2 52 2q17 0 55 -2q30 -2 52 -6q0 -105 -35 -207 q-28 -4 -56 -6q-36 -2 -55 -2q-16 0 -52 2q-28 2 -52 6zM1112 1593q0 100 35 207q27 5 55 6q38 2 53 2q19 0 55 -2q28 -2 52 -6q-4 -103 -35 -207q-28 -4 -56 -6q-36 -2 -54 -2q-16 0 -54 2q-29 1 -51 6z" />
<glyph unicode="&#xd7;" d="M317 483l293 248l-198 242q29 30 70 68q36 33 83 63l199 -244l289 248q33 -27 66 -68q32 -39 52 -77l-288 -248l196 -238q-27 -34 -70 -69q-45 -37 -81 -58l-197 238l-295 -250q-36 26 -66 65q-31 40 -53 80z" />
<glyph unicode="&#xd8;" horiz-adv-x="1435" d="M168 -31l151 195q-90 135 -90 352q0 187 50 366q49 176 144 313t234 219q140 83 318 83q191 0 307 -98l72 92q17 5 40 6q32 2 44 2q45 0 80 -8l-148 -188q90 -139 90 -351q0 -191 -50 -368q-50 -176 -145 -312q-93 -134 -234 -216q-138 -81 -316 -81q-186 0 -305 93 l-78 -99q-35 -8 -78 -8q-13 0 -45 2q-25 2 -41 6zM446 518q0 -90 25 -160l684 877q-73 78 -205 78q-121 0 -217 -70q-95 -69 -158 -182t-96 -255t-33 -288zM535 231q71 -75 202 -75q122 0 214 70q93 71 158 185q63 111 98 256q34 140 34 283q0 93 -22 158z" />
<glyph unicode="&#xd9;" horiz-adv-x="1357" d="M258 387q0 47 6 100q5 46 17 113l153 873q27 5 54 6q36 2 55 2q18 0 52 -2q26 -2 50 -6l-147 -836q-25 -147 -25 -240q0 -126 52 -179q53 -54 182 -54q87 0 150 30t106 89q42 58 71 148q27 84 49 206l146 836q29 5 54 6q34 2 54 2q17 0 53 -2q28 -2 50 -6l-156 -887 q-27 -146 -71 -262q-44 -117 -114 -192q-71 -76 -174 -117q-102 -40 -249 -40q-211 0 -315 101q-103 100 -103 311zM668 1825q24 5 64 6q54 2 79 2q24 0 68 -2q32 -1 55 -6l186 -232q-14 -4 -45 -7q-29 -3 -57 -3q-24 0 -60 2q-27 1 -45 6z" />
<glyph unicode="&#xda;" horiz-adv-x="1357" d="M258 387q0 47 6 100q5 46 17 113l153 873q27 5 54 6q36 2 55 2q18 0 52 -2q26 -2 50 -6l-147 -836q-25 -147 -25 -240q0 -126 52 -179q53 -54 182 -54q87 0 150 30t106 89q42 58 71 148q27 84 49 206l146 836q29 5 54 6q34 2 54 2q17 0 53 -2q28 -2 50 -6l-156 -887 q-27 -146 -71 -262q-44 -117 -114 -192q-71 -76 -174 -117q-102 -40 -249 -40q-211 0 -315 101q-103 100 -103 311zM791 1593l249 224q24 4 59 6q46 2 68 2q24 0 76 -2q40 -2 62 -6l-297 -226q-15 -3 -53 -5q-21 -1 -64 -1q-20 0 -56 2q-28 2 -44 6z" />
<glyph unicode="&#xdb;" horiz-adv-x="1357" d="M258 387q0 47 6 100q5 46 17 113l153 873q27 5 54 6q36 2 55 2q18 0 52 -2q26 -2 50 -6l-147 -836q-25 -147 -25 -240q0 -126 52 -179q53 -54 182 -54q87 0 150 30t106 89q42 58 71 148q27 84 49 206l146 836q29 5 54 6q34 2 54 2q17 0 53 -2q28 -2 50 -6l-156 -887 q-27 -146 -71 -262q-44 -117 -114 -192q-71 -76 -174 -117q-102 -40 -249 -40q-211 0 -315 101q-103 100 -103 311zM629 1595l260 226q28 5 60 6q46 2 63 2q10 0 50 -2q29 -1 56 -6l168 -226q-22 -4 -47 -6q-32 -2 -51 -2q-14 0 -50 2q-25 1 -55 8l-92 123l-141 -125 q-27 -5 -58 -6q-42 -2 -57 -2q-20 0 -56 2q-28 2 -50 6z" />
<glyph unicode="&#xdc;" horiz-adv-x="1357" d="M258 387q0 47 6 100q5 46 17 113l153 873q27 5 54 6q36 2 55 2q18 0 52 -2q26 -2 50 -6l-147 -836q-25 -147 -25 -240q0 -126 52 -179q53 -54 182 -54q87 0 150 30t106 89q42 58 71 148q27 84 49 206l146 836q29 5 54 6q34 2 54 2q17 0 53 -2q28 -2 50 -6l-156 -887 q-27 -146 -71 -262q-44 -117 -114 -192q-71 -76 -174 -117q-102 -40 -249 -40q-211 0 -315 101q-103 100 -103 311zM643 1593q0 105 35 207q28 4 56 6q36 2 52 2q18 0 56 -2q28 -2 51 -6q0 -105 -35 -207q-28 -4 -56 -6q-36 -2 -54 -2q-17 0 -53 2q-28 2 -52 6zM1081 1593 q0 100 35 207q27 5 55 6q38 2 54 2q18 0 54 -2q28 -2 52 -6q-4 -103 -35 -207q-28 -4 -56 -6q-36 -2 -54 -2q-15 0 -53 2q-30 2 -52 6z" />
<glyph unicode="&#xdd;" horiz-adv-x="1124" d="M272 1473q20 3 67 5q25 1 73 1q44 0 84 -6l196 -723l422 723q56 6 117 6q36 0 56 -1q36 -2 52 -5l-579 -943l-92 -530q-56 -6 -109 -6q-57 0 -102 6l96 537zM680 1593l250 224q24 5 58 6q46 2 69 2q24 0 76 -2q38 -1 61 -6l-297 -226q-15 -3 -52 -5q-21 -1 -65 -1 q-20 0 -56 2q-28 2 -44 6z" />
<glyph unicode="&#xde;" horiz-adv-x="1181" d="M197 0l258 1473q50 6 100 6q38 0 57 -1q37 -2 52 -5l-41 -230q36 2 49 2h45q103 0 187 -20q90 -21 157 -69q65 -47 107 -125q40 -76 40 -189q0 -133 -45 -238q-45 -104 -127 -176q-84 -73 -196 -110t-254 -37q-33 0 -69 2q-7 0 -27.5 1.5t-32.5 2.5l-51 -287 q-20 -3 -61 -5q-18 -1 -58 -1q-15 0 -47 2q-9 1 -24.5 2.5t-18.5 1.5zM487 467q17 -3 54 -5q16 -1 71 -1q83 0 152 21q68 21 119 67q48 44 76 115q28 72 28 165q0 75 -23 120q-24 46 -62 72q-37 25 -88 36q-47 10 -103 10h-34q-18 0 -27 -1l-26 -2q-14 -2 -34 -3z" />
<glyph unicode="&#xdf;" horiz-adv-x="1183" d="M-236 -475q6 41 21 87q12 38 33 75q33 -12 46 -14q28 -5 52 -5q47 0 83 10q37 10 68 41q30 30 51 87q22 59 38 149l194 1116q21 124 58 208q38 86 94 138q59 55 137 78q83 25 184 25q90 0 157 -23q68 -23 110 -62q43 -40 64 -93q22 -55 22 -113q0 -98 -42 -167 q-39 -64 -93 -123q-62 -68 -92 -103q-42 -50 -42 -109q0 -51 38 -89q37 -38 84 -81q46 -43 85 -100t39 -146q0 -74 -29 -138q-28 -61 -80 -106q-53 -45 -122 -68q-72 -24 -158 -24q-72 0 -142 13q-63 12 -114 35q11 38 28 77q26 59 39 82q33 -15 92 -29q49 -12 99 -12 q73 0 131 38q57 37 57 116q0 65 -39 105q-41 42 -85 78q-44 35 -85 86q-38 47 -38 130q0 82 43 141q42 58 94 116q48 54 94 117q43 59 43 138q0 73 -52 110q-53 38 -132 38q-57 0 -97 -15q-41 -15 -69 -49t-48 -92q-18 -54 -34 -141l-195 -1118q-23 -128 -59 -206 q-38 -83 -91 -135t-124 -75t-158 -23q-47 0 -85 7q-39 7 -73 18z" />
<glyph unicode="&#xe0;" horiz-adv-x="1134" d="M168 307q0 146 45 284q45 139 133 246q87 106 219 173q129 65 305 65q80 0 149 -11q80 -13 132 -32l-102 -586q-24 -131 -36 -210q-14 -92 -14 -154q0 -32 1 -42q2 -16 6 -38q-22 -4 -50 -6q-36 -2 -49 -2t-45 2q-25 2 -47 6q-5 23 -6 46q-2 32 -2 58q0 19 5 62 q4 35 11 70q-25 -50 -59 -92q-38 -48 -85 -84q-48 -38 -109 -62q-62 -25 -130 -25q-133 0 -203 90q-69 88 -69 242zM379 350q0 -97 35 -152t104 -55q62 0 123 41q57 39 109 114q48 70 85 170q34 92 56 208l41 219q-27 7 -51 8q-36 2 -60 2q-101 0 -183 -47 q-80 -46 -139 -126q-60 -81 -89 -178q-31 -102 -31 -204zM565 1477q29 4 62 6q40 2 65 2q23 0 69 -2q34 -1 64 -6l189 -260q-56 -9 -99 -9q-21 0 -57 2q-19 1 -49 7z" />
<glyph unicode="&#xe1;" horiz-adv-x="1134" d="M168 307q0 146 45 284q45 139 133 246q87 106 219 173q129 65 305 65q80 0 149 -11q80 -13 132 -32l-102 -586q-24 -131 -36 -210q-14 -92 -14 -154q0 -32 1 -42q2 -16 6 -38q-22 -4 -50 -6q-36 -2 -49 -2t-45 2q-25 2 -47 6q-5 23 -6 46q-2 32 -2 58q0 19 5 62 q4 35 11 70q-25 -50 -59 -92q-38 -48 -85 -84q-48 -38 -109 -62q-62 -25 -130 -25q-133 0 -203 90q-69 88 -69 242zM379 350q0 -97 35 -152t104 -55q62 0 123 41q57 39 109 114q48 70 85 170q34 92 56 208l41 219q-27 7 -51 8q-36 2 -60 2q-101 0 -183 -47 q-80 -46 -139 -126q-60 -81 -89 -178q-31 -102 -31 -204zM713 1217l198 260q33 5 66 6q44 2 67 2q26 0 66 -2q32 -2 61 -6l-253 -260q-29 -6 -51 -7q-36 -2 -58 -2q-15 0 -47 2q-18 1 -49 7z" />
<glyph unicode="&#xe2;" horiz-adv-x="1134" d="M168 307q0 146 45 284q45 139 133 246q87 106 219 173q129 65 305 65q80 0 149 -11q80 -13 132 -32l-102 -586q-24 -131 -36 -210q-14 -92 -14 -154q0 -32 1 -42q2 -16 6 -38q-22 -4 -50 -6q-36 -2 -49 -2t-45 2q-25 2 -47 6q-5 23 -6 46q-2 32 -2 58q0 19 5 62 q4 35 11 70q-25 -50 -59 -92q-38 -48 -85 -84q-48 -38 -109 -62q-62 -25 -130 -25q-133 0 -203 90q-69 88 -69 242zM379 350q0 -97 35 -152t104 -55q62 0 123 41q57 39 109 114q48 70 85 170q34 92 56 208l41 219q-27 7 -51 8q-36 2 -60 2q-101 0 -183 -47 q-80 -46 -139 -126q-60 -81 -89 -178q-31 -102 -31 -204zM504 1217l254 260q24 5 58 6q46 2 63 2q11 0 57 -2q31 -1 61 -8l152 -258q-23 -6 -42 -7q-32 -2 -50 -2q-15 0 -53 2q-23 1 -54 7l-84 161l-143 -161q-31 -6 -56 -7q-42 -2 -57 -2q-19 0 -57 2q-22 1 -49 7z" />
<glyph unicode="&#xe3;" horiz-adv-x="1134" d="M168 307q0 146 45 284q45 139 133 246q87 106 219 173q129 65 305 65q80 0 149 -11q80 -13 132 -32l-102 -586q-24 -131 -36 -210q-14 -92 -14 -154q0 -32 1 -42q2 -16 6 -38q-22 -4 -50 -6q-36 -2 -49 -2t-45 2q-25 2 -47 6q-5 23 -6 46q-2 32 -2 58q0 19 5 62 q4 35 11 70q-25 -50 -59 -92q-38 -48 -85 -84q-48 -38 -109 -62q-62 -25 -130 -25q-133 0 -203 90q-69 88 -69 242zM379 350q0 -97 35 -152t104 -55q62 0 123 41q57 39 109 114q48 70 85 170q34 92 56 208l41 219q-27 7 -51 8q-36 2 -60 2q-101 0 -183 -47 q-80 -46 -139 -126q-60 -81 -89 -178q-31 -102 -31 -204zM498 1352q40 42 93 71q56 31 120 31q45 0 77 -11q46 -16 68 -25q11 -5 67 -24q34 -12 74 -12q34 0 64 11q29 11 69 45q17 -22 35 -53q19 -33 23 -62q-41 -39 -94 -68q-56 -30 -121 -30q-46 0 -78 11q-46 16 -68 26 q-19 9 -66 25q-32 11 -71 11q-40 0 -66 -13q-28 -14 -67 -44q-21 25 -37 51q-17 28 -22 60z" />
<glyph unicode="&#xe4;" horiz-adv-x="1134" d="M168 307q0 146 45 284q45 139 133 246q87 106 219 173q129 65 305 65q80 0 149 -11q80 -13 132 -32l-102 -586q-24 -131 -36 -210q-14 -92 -14 -154q0 -32 1 -42q2 -16 6 -38q-22 -4 -50 -6q-36 -2 -49 -2t-45 2q-25 2 -47 6q-5 23 -6 46q-2 32 -2 58q0 19 5 62 q4 35 11 70q-25 -50 -59 -92q-38 -48 -85 -84q-48 -38 -109 -62q-62 -25 -130 -25q-133 0 -203 90q-69 88 -69 242zM379 350q0 -97 35 -152t104 -55q62 0 123 41q57 39 109 114q48 70 85 170q34 92 56 208l41 219q-27 7 -51 8q-36 2 -60 2q-101 0 -183 -47 q-80 -46 -139 -126q-60 -81 -89 -178q-31 -102 -31 -204zM514 1237q1 46 10 103q7 45 27 102q27 4 54 6q36 2 50 2t52 -2q29 -2 53 -6q-1 -47 -10 -104q-7 -43 -27 -101q-53 -6 -105 -6q-32 0 -51 1q-37 2 -53 5zM932 1237q2 54 9 103q8 54 28 102q24 4 52 6q36 2 52 2 q13 0 51 -2q31 -2 54 -6q-3 -40 -13 -103q-7 -49 -24 -102q-52 -6 -105 -6q-32 0 -51 1q-37 2 -53 5z" />
<glyph unicode="&#xe5;" horiz-adv-x="1134" d="M168 307q0 146 45 284q45 139 133 246q87 106 219 173q129 65 305 65q80 0 149 -11q80 -13 132 -32l-102 -586q-24 -131 -36 -210q-14 -92 -14 -154q0 -32 1 -42q2 -16 6 -38q-22 -4 -50 -6q-36 -2 -49 -2t-45 2q-25 2 -47 6q-5 23 -6 46q-2 32 -2 58q0 19 5 62 q4 35 11 70q-25 -50 -59 -92q-38 -48 -85 -84q-48 -38 -109 -62q-62 -25 -130 -25q-133 0 -203 90q-69 88 -69 242zM379 350q0 -97 35 -152t104 -55q62 0 123 41q57 39 109 114q48 70 85 170q34 92 56 208l41 219q-27 7 -51 8q-36 2 -60 2q-101 0 -183 -47 q-80 -46 -139 -126q-60 -81 -89 -178q-31 -102 -31 -204zM682 1395q0 51 16 93t47 78q27 31 74 54q41 20 96 20q94 0 146 -54q53 -55 53 -148q0 -52 -17 -93q-19 -46 -49 -76q-32 -32 -75 -50q-46 -19 -94 -19q-92 0 -145 53q-52 52 -52 142zM803 1407q0 -49 20 -75 q21 -27 66 -27q48 0 75 34q27 35 27 95q0 48 -19 74q-20 28 -65 28q-51 0 -78 -39q-26 -38 -26 -90z" />
<glyph unicode="&#xe6;" horiz-adv-x="1689" d="M168 307q0 144 45 282q46 140 132 247q87 108 217 174q129 65 300 65q71 0 133 -11q69 -12 125 -30q-8 -38 -11 -58t-9 -58q63 67 151 112q89 45 203 45q130 0 206 -66q77 -66 77 -178q0 -89 -44 -156q-45 -68 -122 -114q-83 -49 -183 -78q-111 -32 -231 -49l-106 -16 q0 -124 63 -201q63 -76 199 -76q80 0 155 20t134 42q19 -27 27 -74q7 -41 7 -86q-29 -15 -74 -27q-40 -11 -93 -21q-54 -10 -97 -14q-66 -6 -90 -6q-96 0 -167 21q-74 22 -120 57q-48 36 -77 87t-44 110q-80 -132 -184 -203q-105 -72 -233 -72q-146 0 -218 90 q-71 89 -71 242zM377 350q0 -98 36 -152q37 -55 103 -55q64 0 125 41q58 39 109 113q49 71 85 169q34 92 56 210l39 217q-50 12 -111 12q-102 0 -183 -48q-80 -47 -139 -126t-89 -177q-31 -102 -31 -204zM1067 569l113 19q106 17 173 40q66 23 108 51q40 26 57 58 q16 29 16 66q0 50 -34 81t-95 31q-66 0 -121 -28q-53 -27 -98 -77q-42 -47 -73 -111q-29 -61 -46 -130z" />
<glyph unicode="&#xe7;" horiz-adv-x="940" d="M180 395q0 125 40 245q41 124 119 219q80 98 192 157t262 59q67 0 129 -12q58 -11 106 -29q-2 -40 -16 -85q-15 -48 -37 -81q-37 15 -89 28q-44 11 -102 11q-100 0 -174 -44q-74 -43 -123 -114q-47 -67 -72 -159q-24 -88 -24 -174q0 -140 69 -206q70 -67 189 -67 q48 0 106 10q53 9 107 31q18 -31 26 -68q9 -40 9 -91q-58 -23 -130 -35q-82 -14 -136 -15l-51 -94q5 1 17 3q6 1 24 1q85 0 132 -45q46 -45 46 -114q0 -62 -25 -106q-23 -41 -65 -67q-40 -25 -94 -36q-55 -11 -107 -11q-60 0 -112 13q-50 12 -70 26q8 34 17 59q12 32 30 54 q26 -10 65 -19q42 -10 70 -10q12 0 44 2q16 1 44 11q20 7 34 24q13 16 13 45q0 40 -33 55t-86 15q-32 0 -57 -4q-35 -5 -55 -10l-11 10l111 207q-172 24 -252 131t-80 280z" />
<glyph unicode="&#xe8;" horiz-adv-x="1019" d="M178 395q0 125 42 247q43 123 121 218q80 97 188 156t245 59q134 0 214 -66q79 -66 79 -178q0 -89 -44 -156q-45 -68 -122 -114q-83 -49 -183 -78q-111 -32 -231 -49l-106 -16q6 -137 70 -207t196 -70q81 0 156 20q72 19 133 42q20 -33 27 -74q8 -46 8 -86 q-28 -14 -75 -27q-42 -12 -92 -21q-54 -10 -97 -14q-66 -6 -91 -6q-119 0 -203 32q-85 32 -136 88q-50 55 -75 133q-24 76 -24 167zM397 569l113 21q103 18 173 42t110 51q40 26 57 58q16 29 16 68q0 48 -32 77t-95 29q-67 0 -121 -29q-56 -30 -99 -78q-47 -51 -75 -111 q-32 -66 -47 -128zM489 1477q29 4 62 6q40 2 65 2q23 0 69 -2q35 -2 65 -6l188 -260q-56 -9 -98 -9q-22 0 -58 2q-19 1 -49 7z" />
<glyph unicode="&#xe9;" horiz-adv-x="1019" d="M178 395q0 125 42 247q43 123 121 218q80 97 188 156t245 59q134 0 214 -66q79 -66 79 -178q0 -89 -44 -156q-45 -68 -122 -114q-83 -49 -183 -78q-111 -32 -231 -49l-106 -16q6 -137 70 -207t196 -70q81 0 156 20q72 19 133 42q20 -33 27 -74q8 -46 8 -86 q-28 -14 -75 -27q-42 -12 -92 -21q-54 -10 -97 -14q-66 -6 -91 -6q-119 0 -203 32q-85 32 -136 88q-50 55 -75 133q-24 76 -24 167zM397 569l113 21q103 18 173 42t110 51q40 26 57 58q16 29 16 68q0 48 -32 77t-95 29q-67 0 -121 -29q-56 -30 -99 -78q-47 -51 -75 -111 q-32 -66 -47 -128zM614 1217l199 260q33 5 66 6q44 2 67 2q26 0 66 -2q32 -2 61 -6l-254 -260q-29 -6 -50 -7q-36 -2 -58 -2q-15 0 -47 2q-19 1 -50 7z" />
<glyph unicode="&#xea;" horiz-adv-x="1019" d="M178 395q0 125 42 247q43 123 121 218q80 97 188 156t245 59q134 0 214 -66q79 -66 79 -178q0 -89 -44 -156q-45 -68 -122 -114q-83 -49 -183 -78q-111 -32 -231 -49l-106 -16q6 -137 70 -207t196 -70q81 0 156 20q72 19 133 42q20 -33 27 -74q8 -46 8 -86 q-28 -14 -75 -27q-42 -12 -92 -21q-54 -10 -97 -14q-66 -6 -91 -6q-119 0 -203 32q-85 32 -136 88q-50 55 -75 133q-24 76 -24 167zM397 569l113 21q103 18 173 42t110 51q40 26 57 58q16 29 16 68q0 48 -32 77t-95 29q-67 0 -121 -29q-56 -30 -99 -78q-47 -51 -75 -111 q-32 -66 -47 -128zM424 1217l254 260q24 5 58 6q46 2 63 2q11 0 57 -2q32 -1 62 -8l151 -258q-23 -6 -42 -7q-32 -2 -50 -2q-15 0 -53 2q-23 1 -54 7l-84 161l-143 -161q-31 -6 -56 -7q-42 -2 -57 -2q-19 0 -57 2q-22 1 -49 7z" />
<glyph unicode="&#xeb;" horiz-adv-x="1019" d="M178 395q0 125 42 247q43 123 121 218q80 97 188 156t245 59q134 0 214 -66q79 -66 79 -178q0 -89 -44 -156q-45 -68 -122 -114q-83 -49 -183 -78q-111 -32 -231 -49l-106 -16q6 -137 70 -207t196 -70q81 0 156 20q72 19 133 42q20 -33 27 -74q8 -46 8 -86 q-28 -14 -75 -27q-42 -12 -92 -21q-54 -10 -97 -14q-66 -6 -91 -6q-119 0 -203 32q-85 32 -136 88q-50 55 -75 133q-24 76 -24 167zM397 569l113 21q103 18 173 42t110 51q40 26 57 58q16 29 16 68q0 48 -32 77t-95 29q-67 0 -121 -29q-56 -30 -99 -78q-47 -51 -75 -111 q-32 -66 -47 -128zM428 1237q1 46 10 103q7 45 27 102q27 4 54 6q36 2 50 2t52 -2q29 -2 53 -6q-1 -47 -10 -104q-7 -43 -27 -101q-53 -6 -105 -6q-32 0 -51 1q-37 2 -53 5zM846 1237q2 54 9 103q8 54 28 102q24 4 52 6q36 2 52 2q13 0 51 -2q31 -2 54 -6q-3 -40 -13 -103 q-7 -49 -24 -102q-52 -6 -105 -6q-32 0 -51 1q-37 2 -53 5z" />
<glyph unicode="&#xec;" horiz-adv-x="583" d="M213 0l156 889h-127q0 37 5 80q4 38 21 82h328l-184 -1051q-16 -3 -53 -5q-20 -1 -52 -1q-31 0 -47 1q-32 2 -47 5zM215 1477q29 4 61 6q40 2 66 2q23 0 69 -2q34 -1 64 -6l189 -260q-56 -9 -99 -9q-21 0 -57 2q-19 1 -49 7z" />
<glyph unicode="&#xed;" horiz-adv-x="583" d="M213 0l156 889h-127q0 37 5 80q4 38 21 82h328l-184 -1051q-16 -3 -53 -5q-20 -1 -52 -1q-31 0 -47 1q-32 2 -47 5zM313 1217l199 260q33 5 66 6q44 2 67 2q26 0 66 -2q32 -2 61 -6l-254 -260q-29 -6 -50 -7q-36 -2 -58 -2q-16 0 -48 2q-18 1 -49 7z" />
<glyph unicode="&#xee;" horiz-adv-x="583" d="M145 1217l254 260q24 4 59 6q46 2 62 2q12 0 58 -2q31 -1 61 -8l152 -258q-23 -6 -42 -7q-32 -2 -51 -2q-15 0 -53 2q-22 1 -53 7l-84 161l-143 -161q-31 -6 -57 -7q-42 -2 -56 -2q-19 0 -57 2q-23 1 -50 7zM213 0l156 889h-127q0 37 5 80q4 38 21 82h328l-184 -1051 q-16 -3 -53 -5q-20 -1 -52 -1q-31 0 -47 1q-32 2 -47 5z" />
<glyph unicode="&#xef;" horiz-adv-x="583" d="M158 1237q1 46 10 103q7 45 27 102q27 4 54 6q36 2 50 2q13 0 51 -2q29 -2 53 -6q-1 -47 -10 -104q-7 -48 -26 -101q-53 -6 -105 -6q-32 0 -51 1q-37 2 -53 5zM213 0l156 889h-127q0 37 5 80q4 38 21 82h328l-184 -1051q-16 -3 -53 -5q-20 -1 -52 -1q-31 0 -47 1 q-32 2 -47 5zM575 1237q1 46 10 103q9 58 27 102q23 4 53 6q36 2 52 2q13 0 51 -2q29 -2 53 -6q-5 -55 -12 -103q-7 -43 -25 -102q-53 -6 -104 -6q-32 0 -51 1q-38 2 -54 5z" />
<glyph unicode="&#xf0;" horiz-adv-x="1157" d="M178 381q0 110 33 221q33 112 97 198t162 142q97 55 226 55q92 0 165 -38q75 -39 114 -97q-5 108 -35 195q-29 82 -84 145l-211 -119q-21 20 -39 52q-15 27 -20 59l166 94q-92 52 -203 58q0 34 9 75q9 42 36 88q107 -6 191 -35q86 -30 147 -77l205 112q24 -22 39 -50 q16 -29 22 -60l-170 -94q75 -93 109 -226q34 -132 34 -284q0 -141 -30 -287q-29 -140 -102 -263q-70 -117 -186 -194q-115 -76 -284 -76q-99 0 -177 31q-74 30 -122 85q-46 54 -69 129q-23 77 -23 161zM385 387q0 -113 47 -183q46 -69 162 -69q82 0 144 40q63 41 106 101 q42 59 65 138q23 78 23 149q0 133 -55 204q-56 73 -172 73q-86 0 -147 -44q-59 -43 -99 -112q-39 -68 -57 -147q-17 -75 -17 -150z" />
<glyph unicode="&#xf1;" horiz-adv-x="1177" d="M182 0l109 608q23 126 36 211t13 154q0 32 -1 42q-3 26 -5 38q23 5 49 6q36 2 49 2q12 0 46 -2q25 -1 46 -6q4 -16 6 -38q2 -28 2 -57q0 -35 -5 -73q-3 -27 -11 -68q22 46 57 89q37 46 86 83q50 38 110 62t128 24q124 0 192 -65t68 -203q0 -36 -4 -69q-6 -47 -10 -72 l-117 -666q-24 -4 -53 -6q-38 -2 -51 -2q-15 0 -51 2q-27 2 -48 6l111 631q6 33 9 63t3 54q0 81 -38 116t-101 35q-57 0 -109 -34q-56 -37 -100 -99q-49 -69 -85 -162q-37 -96 -60 -221l-68 -383q-24 -4 -53 -6q-38 -2 -51 -2q-15 0 -51 2q-27 2 -48 6zM455 1352 q40 42 93 71q56 31 120 31q45 0 77 -11q46 -16 68 -25q11 -5 67 -24q34 -12 74 -12q34 0 64 11q28 11 69 45q17 -22 35 -53q19 -33 23 -62q-41 -39 -94 -68q-55 -30 -121 -30q-46 0 -78 11q-46 16 -68 26q-19 9 -66 25q-32 11 -71 11q-40 0 -66 -13q-28 -14 -67 -44 q-21 25 -37 51q-17 28 -22 60z" />
<glyph unicode="&#xf2;" horiz-adv-x="1140" d="M182 379q0 110 35 236q33 120 108 226q72 101 182 168q109 66 259 66q193 0 289 -106t96 -299q0 -113 -35 -238q-34 -123 -106 -224q-71 -100 -183 -167q-111 -66 -262 -66q-189 0 -286 106t-97 298zM389 377q0 -116 50 -178t147 -62t165 52q65 50 111 133q42 78 64 173 q20 89 20 175q0 117 -52 178t-149 61q-95 0 -163 -53q-67 -52 -111 -133q-42 -76 -62 -173q-20 -95 -20 -173zM563 1477q29 4 62 6q40 2 65 2q23 0 69 -2q34 -1 64 -6l189 -260q-56 -9 -99 -9q-21 0 -57 2q-19 1 -49 7z" />
<glyph unicode="&#xf3;" horiz-adv-x="1140" d="M182 379q0 110 35 236q33 120 108 226q72 101 182 168q109 66 259 66q193 0 289 -106t96 -299q0 -113 -35 -238q-34 -123 -106 -224q-71 -100 -183 -167q-111 -66 -262 -66q-189 0 -286 106t-97 298zM389 377q0 -116 50 -178t147 -62t165 52q65 50 111 133q42 78 64 173 q20 89 20 175q0 117 -52 178t-149 61q-95 0 -163 -53q-67 -52 -111 -133q-42 -76 -62 -173q-20 -95 -20 -173zM625 1217l198 260q33 5 66 6q44 2 67 2q26 0 66 -2q32 -2 61 -6l-254 -260q-29 -6 -50 -7q-36 -2 -58 -2q-15 0 -47 2q-18 1 -49 7z" />
<glyph unicode="&#xf4;" horiz-adv-x="1140" d="M182 379q0 110 35 236q33 120 108 226q72 101 182 168q109 66 259 66q193 0 289 -106t96 -299q0 -113 -35 -238q-34 -123 -106 -224q-71 -100 -183 -167q-111 -66 -262 -66q-189 0 -286 106t-97 298zM389 377q0 -116 50 -178t147 -62t165 52q65 50 111 133q42 78 64 173 q20 89 20 175q0 117 -52 178t-149 61q-95 0 -163 -53q-67 -52 -111 -133q-42 -76 -62 -173q-20 -95 -20 -173zM459 1217l254 260q24 5 58 6q46 2 63 2q11 0 57 -2q31 -1 61 -8l152 -258q-23 -6 -42 -7q-32 -2 -50 -2q-16 0 -54 2q-22 1 -53 7l-84 161l-143 -161 q-31 -6 -56 -7q-42 -2 -57 -2q-19 0 -57 2q-22 1 -49 7z" />
<glyph unicode="&#xf5;" horiz-adv-x="1140" d="M182 379q0 110 35 236q33 120 108 226q72 101 182 168q109 66 259 66q193 0 289 -106t96 -299q0 -113 -35 -238q-34 -123 -106 -224q-71 -100 -183 -167q-111 -66 -262 -66q-189 0 -286 106t-97 298zM389 377q0 -116 50 -178t147 -62t165 52q65 50 111 133q42 78 64 173 q20 89 20 175q0 117 -52 178t-149 61q-95 0 -163 -53q-67 -52 -111 -133q-42 -76 -62 -173q-20 -95 -20 -173zM440 1352q39 40 94 71q56 31 119 31q46 0 78 -11q46 -16 68 -25q17 -7 66 -24q35 -12 75 -12q34 0 64 11q28 11 69 45q17 -22 35 -53q17 -30 22 -62 q-41 -39 -94 -68q-56 -30 -121 -30q-45 0 -77 11q-46 16 -68 26q-16 7 -67 25q-32 11 -70 11q-41 0 -67 -13q-25 -13 -66 -44q-21 25 -37 51q-18 31 -23 60z" />
<glyph unicode="&#xf6;" horiz-adv-x="1140" d="M182 379q0 110 35 236q33 120 108 226q72 101 182 168q109 66 259 66q193 0 289 -106t96 -299q0 -113 -35 -238q-34 -123 -106 -224q-71 -100 -183 -167q-111 -66 -262 -66q-189 0 -286 106t-97 298zM389 377q0 -116 50 -178t147 -62t165 52q65 50 111 133q42 78 64 173 q20 89 20 175q0 117 -52 178t-149 61q-95 0 -163 -53q-67 -52 -111 -133q-42 -76 -62 -173q-20 -95 -20 -173zM475 1237q1 46 10 103q7 45 27 102q27 4 54 6q36 2 50 2t52 -2q29 -2 53 -6q-1 -47 -10 -104q-7 -43 -27 -101q-52 -6 -104 -6q-33 0 -52 1q-37 2 -53 5z M893 1237q2 54 9 103q8 54 28 102q24 4 52 6q36 2 52 2q13 0 51 -2q31 -2 54 -6q-3 -40 -13 -103q-8 -49 -24 -102q-53 -6 -105 -6q-32 0 -51 1q-37 2 -53 5z" />
<glyph unicode="&#xf7;" d="M311 629q0 39 10 94q10 54 23 92h866q0 -42 -8 -95q-8 -51 -24 -91h-867zM547 340q0 66 46 111q47 45 112 45q59 0 93 -34q33 -33 33 -95q0 -59 -44 -106q-43 -46 -113 -46q-61 0 -94 38q-33 37 -33 87zM670 1081q0 66 46 111t111 45q60 0 94 -34q33 -33 33 -95 q0 -60 -44 -107t-113 -47q-62 0 -95 39q-32 38 -32 88z" />
<glyph unicode="&#xf8;" horiz-adv-x="1140" d="M131 -41l123 150q-74 101 -74 270q0 112 36 235q37 125 108 226q74 105 182 169q111 66 260 66q134 0 227 -59l56 69q28 7 69 7t76 -7l-119 -145q76 -104 76 -272q0 -114 -35 -237q-34 -119 -107 -223q-70 -99 -184 -167q-111 -66 -260 -66q-66 0 -127 16q-57 15 -102 42 q-2 -3 -23 -33q-11 -16 -23 -25q-13 -10 -34 -16t-53 -6q-45 0 -72 6zM387 375q0 -45 10 -88l473 579q-49 43 -127 43q-95 0 -163 -53q-67 -52 -111 -133q-42 -77 -62 -174t-20 -174zM457 180q49 -43 127 -43q97 0 165 52q65 50 111 133q42 78 64 173q20 89 20 173 q0 29 -4 49q-6 27 -10 41z" />
<glyph unicode="&#xf9;" horiz-adv-x="1163" d="M209 244q0 35 4 68q6 50 10 73l117 666q23 5 52 6q40 2 52 2q14 0 50 -2q26 -1 49 -6l-111 -631q-12 -66 -12 -117q0 -82 38 -117q37 -34 101 -34q59 0 109 33q55 36 100 100q50 70 85 161q37 95 60 222l68 383q24 4 53 6q38 2 51 2q15 0 51 -2q27 -1 48 -6l-109 -609 q-23 -126 -36 -211t-13 -153q0 -32 1 -42q1 -14 3 -38q-22 -4 -48 -6q-34 -2 -48 -2q-12 0 -46 2q-25 1 -46 6q-8 29 -8 94q0 36 5 74q3 23 11 67q-22 -46 -57 -89q-37 -46 -86 -83q-48 -36 -110 -61q-63 -25 -128 -25q-122 0 -191 66t-69 203zM489 1477q29 4 62 6 q40 2 65 2q23 0 69 -2q35 -2 65 -6l188 -260q-56 -9 -98 -9q-22 0 -58 2q-19 1 -49 7z" />
<glyph unicode="&#xfa;" horiz-adv-x="1163" d="M209 244q0 35 4 68q6 50 10 73l117 666q23 5 52 6q40 2 52 2q14 0 50 -2q26 -1 49 -6l-111 -631q-12 -66 -12 -117q0 -82 38 -117q37 -34 101 -34q59 0 109 33q55 36 100 100q50 70 85 161q37 95 60 222l68 383q24 4 53 6q38 2 51 2q15 0 51 -2q27 -1 48 -6l-109 -609 q-23 -126 -36 -211t-13 -153q0 -32 1 -42q1 -14 3 -38q-22 -4 -48 -6q-34 -2 -48 -2q-12 0 -46 2q-25 1 -46 6q-8 29 -8 94q0 36 5 74q3 23 11 67q-22 -46 -57 -89q-37 -46 -86 -83q-48 -36 -110 -61q-63 -25 -128 -25q-122 0 -191 66t-69 203zM666 1217l198 260q33 5 66 6 q44 2 67 2q26 0 66 -2q31 -2 61 -6l-254 -260q-29 -6 -50 -7q-36 -2 -58 -2q-15 0 -47 2q-17 1 -49 7z" />
<glyph unicode="&#xfb;" horiz-adv-x="1163" d="M209 244q0 35 4 68q6 50 10 73l117 666q23 5 52 6q40 2 52 2q14 0 50 -2q26 -1 49 -6l-111 -631q-12 -66 -12 -117q0 -82 38 -117q37 -34 101 -34q59 0 109 33q55 36 100 100q50 70 85 161q37 95 60 222l68 383q24 4 53 6q38 2 51 2q15 0 51 -2q27 -1 48 -6l-109 -609 q-23 -126 -36 -211t-13 -153q0 -32 1 -42q1 -14 3 -38q-22 -4 -48 -6q-34 -2 -48 -2q-12 0 -46 2q-25 1 -46 6q-8 29 -8 94q0 36 5 74q3 23 11 67q-22 -46 -57 -89q-37 -46 -86 -83q-48 -36 -110 -61q-63 -25 -128 -25q-122 0 -191 66t-69 203zM455 1217l254 260q24 5 58 6 q46 2 62 2q12 0 58 -2q31 -1 61 -8l152 -258q-23 -6 -42 -7q-32 -2 -50 -2q-16 0 -54 2q-22 1 -53 7l-84 161l-143 -161q-31 -6 -57 -7q-42 -2 -56 -2q-19 0 -57 2q-22 1 -49 7z" />
<glyph unicode="&#xfc;" horiz-adv-x="1163" d="M209 244q0 35 4 68q6 50 10 73l117 666q23 5 52 6q40 2 52 2q14 0 50 -2q26 -1 49 -6l-111 -631q-12 -66 -12 -117q0 -82 38 -117q37 -34 101 -34q59 0 109 33q55 36 100 100q50 70 85 161q37 95 60 222l68 383q24 4 53 6q38 2 51 2q15 0 51 -2q27 -1 48 -6l-109 -609 q-23 -126 -36 -211t-13 -153q0 -32 1 -42q1 -14 3 -38q-22 -4 -48 -6q-34 -2 -48 -2q-12 0 -46 2q-25 1 -46 6q-8 29 -8 94q0 36 5 74q3 23 11 67q-22 -46 -57 -89q-37 -46 -86 -83q-48 -36 -110 -61q-63 -25 -128 -25q-122 0 -191 66t-69 203zM475 1237q1 46 10 103 q7 45 27 102q27 4 54 6q36 2 50 2t52 -2q29 -2 53 -6q-1 -47 -10 -104q-7 -43 -27 -101q-52 -6 -104 -6q-33 0 -52 1q-37 2 -53 5zM893 1237q2 54 9 103q8 54 28 102q24 4 52 6q36 2 52 2q13 0 51 -2q31 -2 54 -6q-3 -40 -13 -103q-8 -49 -24 -102q-53 -6 -105 -6 q-32 0 -51 1q-37 2 -53 5z" />
<glyph unicode="&#xfd;" horiz-adv-x="1024" d="M45 -481q2 46 12 86q11 41 33 71q21 -7 45 -11q30 -5 49 -5q31 0 64 9q31 8 68 44q36 34 77 103t90 184q-22 -2 -34 -2h-37h-31q-13 0 -29 2q-11 87 -33.5 262t-34.5 262q-23 175 -69 527q29 5 52 6q32 2 52 2t56 -2q26 -1 53 -6l104 -949q66 141 117 258q67 153 93 215 q22 51 76 181q40 95 63 155q12 32 18 64q6 30 6 47q0 12 -1 16t-1 13q39 6 86 6h129q2 -10 2 -17v-16q0 -52 -20 -106q-24 -65 -45 -115q-32 -69 -98.5 -211t-99.5 -214q-85 -184 -236 -501q-53 -112 -111 -194q-53 -74 -106 -115q-51 -40 -105 -55q-52 -15 -115 -15 q-72 0 -139 21zM551 1217l199 260q33 5 65 6q44 2 68 2q25 0 65 -2q33 -2 62 -6l-254 -260q-29 -6 -50 -7q-36 -2 -59 -2q-15 0 -47 2q-18 1 -49 7z" />
<glyph unicode="&#xfe;" horiz-adv-x="1159" d="M76 -483q60 344 135 769q11 60 137 769q23 126 36 211t13 153q0 32 -1 43q-2 18 -3 37q23 5 48 6q34 2 48 2q32 0 52 -1q37 -2 53 -5q5 -17 6 -37q2 -28 2 -55q0 -19 -6 -77q-6 -57 -18 -130l-60 -325q56 85 136 141q81 57 206 57q140 0 223 -99q82 -98 82 -280 q0 -143 -44 -275q-44 -131 -132 -230q-88 -98 -219 -157q-132 -59 -305 -59q-30 0 -57 3q-22 2 -50 8l-79 -469q-16 -3 -54 -5q-19 -1 -49 -1q-32 0 -50 1q-35 2 -50 5zM391 158q28 -8 55 -10q33 -3 64 -3q92 0 171 36q75 34 138 103q57 63 93 158q34 90 34 207 q0 108 -44 178t-136 70q-50 0 -100 -21t-92 -71q-40 -47 -75 -128t-53 -194z" />
<glyph unicode="&#xff;" horiz-adv-x="1024" d="M45 -481q2 46 12 86q11 41 33 71q21 -7 45 -11q30 -5 49 -5q31 0 64 9q31 8 68 44q36 34 77 103t90 184q-22 -2 -34 -2h-37h-31q-13 0 -29 2q-11 87 -33.5 262t-34.5 262q-23 175 -69 527q29 5 52 6q32 2 52 2t56 -2q26 -1 53 -6l104 -949q66 141 117 258q67 153 93 215 q22 51 76 181q40 95 63 155q12 32 18 64q6 30 6 47q0 12 -1 16t-1 13q39 6 86 6h129q2 -10 2 -17v-16q0 -52 -20 -106q-24 -65 -45 -115q-32 -69 -98.5 -211t-99.5 -214q-85 -184 -236 -501q-53 -112 -111 -194q-53 -74 -106 -115q-51 -40 -105 -55q-52 -15 -115 -15 q-72 0 -139 21zM377 1237q1 46 10 103q7 45 27 102q27 4 54 6q36 2 50 2q13 0 51 -2q31 -2 54 -6q-1 -39 -11 -104q-7 -48 -26 -101q-53 -6 -105 -6q-32 0 -51 1q-37 2 -53 5zM795 1237q2 54 9 103q9 58 27 102q23 4 53 6q36 2 52 2q13 0 51 -2q29 -2 53 -6q-5 -55 -12 -103 q-8 -49 -24 -102q-52 -6 -105 -6q-32 0 -51 1q-37 2 -53 5z" />
<glyph unicode="&#x152;" horiz-adv-x="1845" d="M227 518q0 188 47 365q46 175 142 313q95 138 233 219q139 82 322 82q72 0 132 -7q79 -9 118 -17h778q0 -46 -7 -89q-7 -44 -26 -96h-567l-74 -420h455q0 -40 -8 -90q-7 -43 -25 -94h-455l-88 -502h584l-4 -49q0 -30 -8 -67q-7 -31 -19 -66h-803q-39 -8 -109 -17 q-62 -8 -122 -8q-129 0 -222 39q-95 40 -154 111q-60 72 -90 172q-30 101 -30 221zM449 561q0 -200 69 -308t234 -108q78 0 141 11q61 11 100 28l195 1106q-50 18 -101 25q-56 8 -122 8q-123 0 -220 -67q-96 -66 -162 -174q-67 -110 -101 -243q-33 -131 -33 -278z" />
<glyph unicode="&#x153;" horiz-adv-x="1751" d="M182 379q0 110 35 235q35 123 107 226q73 104 180 169q108 66 256 66q138 0 218 -67q81 -67 109 -166q71 97 181 166q107 67 250 67q62 0 115 -18q51 -17 89 -51q38 -33 57 -78q19 -44 19 -97q0 -89 -44 -156q-45 -68 -122 -114q-83 -49 -183 -78q-112 -32 -230 -49 l-107 -16q5 -130 69 -203q65 -74 195 -74q80 0 157 20q75 19 132 42q20 -29 28 -74q7 -41 7 -86q-28 -14 -75 -27q-42 -12 -92 -21q-54 -10 -97 -14q-66 -6 -90 -6q-84 0 -146 18t-105 48t-73 72q-28 41 -45 90q-63 -94 -166 -160q-106 -68 -256 -68q-180 0 -276 105 q-97 106 -97 299zM389 375q0 -117 51 -177q52 -61 146 -61q97 0 165 52q65 50 111 133q42 78 64 173q20 89 20 173q0 117 -52 179t-149 62q-95 0 -163 -53q-67 -52 -111 -133q-42 -77 -62 -174t-20 -174zM1128 569l113 19q106 17 173 40q68 24 109 51q37 25 57 58 q17 28 17 66q0 51 -33 81q-34 31 -96 31q-65 0 -120 -28t-99 -77q-42 -47 -73 -111q-33 -70 -48 -130z" />
<glyph unicode="&#x178;" horiz-adv-x="1124" d="M272 1473q20 3 67 5q25 1 73 1q44 0 84 -6l196 -723l422 723q56 6 117 6q36 0 56 -1q36 -2 52 -5l-579 -943l-92 -530q-56 -6 -109 -6q-57 0 -102 6l96 537zM500 1593q0 105 35 207q28 4 56 6q36 2 52 2q17 0 55 -2q30 -2 52 -6q0 -105 -35 -207q-28 -4 -57 -6 q-36 -2 -54 -2q-16 0 -52 2q-28 2 -52 6zM938 1593q0 100 35 207q27 5 55 6q38 2 53 2q19 0 55 -2q28 -2 52 -6q-4 -103 -35 -207q-28 -4 -56 -6q-36 -2 -55 -2q-15 0 -53 2q-29 1 -51 6z" />
<glyph unicode="&#x2c6;" horiz-adv-x="1021" d="M403 1217l254 260q24 4 59 6q46 2 62 2q12 0 58 -2q31 -1 61 -8l152 -258q-23 -6 -42 -7q-32 -2 -51 -2q-15 0 -53 2q-22 1 -53 7l-84 161l-143 -161q-31 -6 -57 -7q-42 -2 -56 -2q-19 0 -57 2q-23 1 -50 7z" />
<glyph unicode="&#x2dc;" horiz-adv-x="1024" d="M375 1352q40 42 93 71q56 31 120 31q46 0 78 -11q39 -14 67 -25q11 -5 67 -24q35 -12 74 -12q34 0 64 11t70 45q14 -17 34 -53q19 -33 23 -62q-41 -39 -94 -68q-55 -30 -121 -30q-46 0 -78 11q-42 15 -67 26q-16 7 -67 25q-32 11 -71 11q-40 0 -66 -13q-28 -14 -67 -44 q-21 25 -37 51q-17 28 -22 60z" />
<glyph unicode="&#x2000;" horiz-adv-x="958" />
<glyph unicode="&#x2001;" horiz-adv-x="1917" />
<glyph unicode="&#x2002;" horiz-adv-x="958" />
<glyph unicode="&#x2003;" horiz-adv-x="1917" />
<glyph unicode="&#x2004;" horiz-adv-x="639" />
<glyph unicode="&#x2005;" horiz-adv-x="479" />
<glyph unicode="&#x2006;" horiz-adv-x="319" />
<glyph unicode="&#x2007;" horiz-adv-x="319" />
<glyph unicode="&#x2008;" horiz-adv-x="239" />
<glyph unicode="&#x2009;" horiz-adv-x="383" />
<glyph unicode="&#x200a;" horiz-adv-x="106" />
<glyph unicode="&#x2010;" horiz-adv-x="712" d="M199 496q5 100 32 188h517q0 -37 -10 -94q-10 -56 -23 -94h-516z" />
<glyph unicode="&#x2011;" horiz-adv-x="712" d="M199 496q5 100 32 188h517q0 -37 -10 -94q-10 -56 -23 -94h-516z" />
<glyph unicode="&#x2012;" horiz-adv-x="712" d="M199 496q5 100 32 188h517q0 -37 -10 -94q-10 -56 -23 -94h-516z" />
<glyph unicode="&#x2013;" horiz-adv-x="1024" d="M86 481q0 56 7 97q7 44 24 90h1024q0 -96 -33 -187h-1022z" />
<glyph unicode="&#x2014;" horiz-adv-x="2048" d="M80 481q0 94 31 187h2048q0 -96 -33 -187h-2046z" />
<glyph unicode="&#x2018;" horiz-adv-x="483" d="M289 1470q32 6 51 7q36 2 51 2q51 0 101 -6l122 -459q-43 -8 -94 -8q-16 0 -50 2q-25 1 -52 6z" />
<glyph unicode="&#x2019;" horiz-adv-x="481" d="M260 1014l199 456q56 9 100 9q17 0 53 -2q21 -1 50 -7l-203 -456q-25 -5 -55 -7q-17 -1 -48 -1q-34 0 -50 1q-26 2 -46 7z" />
<glyph unicode="&#x201a;" horiz-adv-x="483" d="M23 -229l194 452q30 7 51 8q32 2 49 2q18 0 54 -2q24 -1 49 -8l-201 -452q-37 -6 -52 -7q-34 -2 -48 -2q-47 0 -96 9z" />
<glyph unicode="&#x201c;" horiz-adv-x="868" d="M289 1470q32 6 51 7q36 2 51 2q51 0 101 -6l122 -459q-43 -8 -94 -8q-16 0 -50 2q-25 1 -52 6zM674 1470q32 6 51 7q36 2 51 2q52 0 101 -6l122 -459q-43 -8 -94 -8q-16 0 -50 2q-25 1 -52 6z" />
<glyph unicode="&#x201d;" horiz-adv-x="866" d="M260 1014l199 456q56 9 100 9q17 0 53 -2q21 -1 50 -7l-203 -456q-25 -5 -55 -7q-17 -1 -48 -1q-34 0 -50 1q-26 2 -46 7zM645 1014l199 456q56 9 100 9q17 0 53 -2q21 -1 50 -7l-203 -456q-25 -5 -54 -7q-17 -1 -49 -1q-34 0 -50 1q-26 2 -46 7z" />
<glyph unicode="&#x201e;" horiz-adv-x="868" d="M23 -229l194 452q30 7 51 8q32 2 49 2q18 0 54 -2q24 -1 49 -8l-201 -452q-37 -6 -52 -7q-34 -2 -48 -2q-47 0 -96 9zM408 -229l194 452q30 7 51 8q32 2 49 2q18 0 54 -2q24 -1 49 -8l-201 -452q-37 -6 -52 -7q-34 -2 -48 -2q-47 0 -96 9z" />
<glyph unicode="&#x2022;" horiz-adv-x="833" d="M270 713q0 53 21 101q22 50 56 84t84 56q48 21 104 21q53 0 101 -21q50 -22 84 -56t56 -84q21 -48 21 -101q0 -56 -21 -104q-22 -50 -56 -84t-84 -56q-46 -20 -101 -20q-58 0 -104 20q-50 22 -84 56t-56 84q-21 48 -21 104z" />
<glyph unicode="&#x2026;" horiz-adv-x="1488" d="M125 0q0 62 11 114q13 60 28 113q28 5 57 6q57 3 58 3q8 0 17.5 -0.5t21.5 -1.5t18 -1q28 -1 55 -6q0 -62 -10 -113q-11 -54 -27 -114q-33 -4 -60 -6q-36 -2 -56 -2q-21 0 -57 2q-28 2 -56 6zM629 0q0 62 11 114q13 60 28 113q28 5 57 6q6 0 18 1t21.5 1.5t17.5 0.5 q1 0 58 -3q28 -1 55 -6q0 -62 -10 -113q-11 -54 -27 -114q-33 -4 -60 -6q-36 -2 -57 -2q-20 0 -56 2q-28 2 -56 6zM1133 0q0 62 11 114q15 72 27 113q28 4 58 6q6 0 18 1t21.5 1.5t17.5 0.5l57 -3q29 -2 56 -6q0 -62 -10 -113q-11 -54 -27 -114q-33 -4 -60 -6q-36 -2 -57 -2 q-20 0 -56 2q-28 2 -56 6z" />
<glyph unicode="&#x202f;" horiz-adv-x="383" />
<glyph unicode="&#x2039;" horiz-adv-x="712" d="M176 555l428 444q31 6 55 7q40 2 58 2q17 0 61 -2q25 -1 62 -7l-432 -456l264 -451q-28 -4 -58 -6q-38 -2 -57 -2q-18 0 -52 2q-26 2 -50 6z" />
<glyph unicode="&#x203a;" horiz-adv-x="755" d="M94 92l436 467l-268 440q38 6 57 7q38 2 58 2q18 0 52 -2q18 -1 50 -7l279 -467l-430 -440q-24 -4 -55 -6q-40 -2 -58 -2t-60 2q-33 2 -61 6z" />
<glyph unicode="&#x205f;" horiz-adv-x="479" />
<glyph unicode="&#x20ac;" d="M150 483q0 31 5 71q5 37 21 71h143q6 91 25 190h-135q0 28 5 70q5 38 19 71h150q39 112 102 207q61 92 151 163q87 69 199 107q110 37 248 37q107 0 184 -16q79 -16 126 -39q-10 -47 -24 -86q-14 -40 -40 -84q-60 23 -117 33q-54 10 -135 10q-92 0 -167 -24 q-72 -23 -132 -69q-55 -42 -100 -104q-41 -57 -70 -135h535q2 -14 2 -17v-15q0 -35 -7 -60q-7 -26 -18 -49h-555q-9 -38 -14 -94q-2 -17 -4.5 -49t-3.5 -47h544q0 -33 -6 -71q-7 -42 -20 -71h-514q15 -159 94 -241t244 -82q82 0 144 14q68 16 132 43q39 -74 45 -172 q-42 -19 -88 -32t-95 -21q-48 -8 -93 -12q-50 -5 -82 -5q-259 0 -389 136t-140 372h-169z" />
<glyph unicode="&#x2122;" horiz-adv-x="1691" d="M238 1370q0 34 6 78h618q5 -22 6 -38q2 -24 2 -38q0 -13 -2 -37q-2 -20 -6 -37h-229v-669q-22 -4 -41 -6q-24 -2 -41 -2q-12 0 -38 2q-20 2 -38 6v669h-231q-6 38 -6 72zM954 629l41 819q9 1 24 2.5t21 1.5q28 2 41 2q12 0 40 -2q6 0 21.5 -1.5t24.5 -2.5l203 -449 l201 449q8 1 22 2.5t20 1.5q26 2 40 2t42 -2q7 0 21.5 -1.5t22.5 -2.5l41 -819q-24 -5 -42 -6q-24 -2 -38 -2q-23 0 -36 1q-22 2 -42 7l-31 522l-176 -367q-9 -3 -29 -5q-8 -1 -28 -1q-21 0 -60 6l-161 361l-27 -516q-43 -8 -76 -8q-37 0 -80 8z" />
<glyph unicode="&#xe000;" horiz-adv-x="1054" d="M0 0v1055h1055v-1055h-1055z" />
</font>
</defs>
</svg>
