<svg width="450" height="450" viewBox="0 0 450 450" xmlns="http://www.w3.org/2000/svg"><g fill="none"><path d="M57.217 85.967c22.26-7.77 44.397-15.496 66.538-23.22 32.036-11.18 64.076-22.343 96.103-33.55 2.748-.96 5.328-1.35 8.23-.334 53.696 18.79 107.417 37.507 161.13 56.25.455.16.857.475 1.52.85v274.775c-47.212 16.584-94.385 33.156-141.56 49.72-5.798 2.037-11.665 3.89-17.4 6.085-4.913 1.88-9.596 1.806-14.556.06-52.024-18.325-104.08-36.556-156.128-54.813-1.232-.433-2.466-.862-3.875-1.354-.003-91.33-.003-182.604-.003-274.47z" fill="#fff"/><path d="M284.11 148.303l88.557-29.98v189.723L233.31 355.314V165.45c8.796-2.954 17.552-5.897 27.026-9.08v164.173l87.363-30.646v-21.234L284.11 290.9V148.304z" fill="#151515" class="darker" /><path d="M214.683 355.31l-26.395-8.96V184.793l-87.056-30.465v95.164c6.35 3.312 14.003 4.2 20.614 8.462l-21.505 33.82c7.777 2.74 15.096 5.32 22.81 8.042l22.093-34.545c6.818 2.39 13.338 4.68 19.882 6.975v66.195l-89.81-30.362V118.334l139.368 47.12V355.31z" fill="#353535" class="normal" /><path d="M77.007 99.593l-.165-1.105 147.543-51.462c49.125 17.13 98.31 34.284 147.495 51.436l.006 1.088-147.523 51.41L77.007 99.594z" fill="#454545" class="lighter" /><path d="M218.732 399.713c-47.732-16.75-95.45-33.537-143.433-50.41v-23.82c1.73-1.083 3.16.34 4.56.83 47.603 16.647 95.176 33.375 142.756 50.086.78.272 1.584.466 2.377.697 1.188.75 1.894 1.81 2.002 3.22.44 5.75.453 11.5-.007 17.25-.114 1.43-.968 2.4-1.99 3.276-2.274.67-4.267-.428-6.266-1.13z" fill="#353535" class="normal" /><path d="M224.994 377.097c22.48-8 44.944-16.04 67.443-23.987 25.477-9 50.982-17.92 76.48-26.86 1.217-.425 2.483-.708 3.913-1.11v24.396c-29.733 10.458-59.41 20.897-89.086 31.332-17.827 6.27-35.647 12.556-53.5 18.755-1.672.58-3.292 1.715-5.245 1.22-.003-7.915-.004-15.83-.006-23.746z" fill="#151515" class="darker" /><path d="M165.206 198.815v51.347l-43.232-15.134v-51.38c14.69 5.152 28.923 10.146 43.232 15.167z" fill="#353535" class="normal" /></g></svg>
