<svg version="1.1"
	 xmlns="http://www.w3.org/2000/svg" xmlns:xlink="http://www.w3.org/1999/xlink" x="0px" y="0px" width="200.003px" height="200.003px" viewBox="0 0 200.003 200.003" enable-background="new 0 0 200.003 200.003" xml:space="preserve">
  <g>
  	<g>
  		<path fill="#fff" d="M0,200.003C0,133.335,0,66.668,0,0c66.667,0,133.335,0,200.003,0c0,66.668,0,133.335,0,200.003
  			C133.335,200.003,66.667,200.003,0,200.003z M32.206,156.784c23.3,0,46.208,0,69.816,0c0-14.984,0-29.688,0-44.458
  			c3.333,0,5.964,0,8.694,0c8.168,14.967,16.288,29.842,24.266,44.458c10.888,0,21.288,0,32.442,0
  			c-9.934-16.338-19.536-32.132-29.188-48.008c15.591-6.675,22.125-14.804,23.019-28.047c1.175-17.414-7.584-30.083-24.566-34.439
  			c-6.052-1.553-12.473-2.124-18.745-2.264c-14.301-0.322-28.613-0.102-43.577-0.102c0,28.931,0,57.494,0,86.617
  			c-14.393,0-28.142,0-42.161,0C32.206,139.53,32.206,147.954,32.206,156.784z"/>
  		<path fill-rule="evenodd" clip-rule="evenodd" fill="#222" d="M32.206,156.784c0-8.83,0-17.254,0-26.242
  			c14.019,0,27.768,0,42.161,0c0-29.123,0-57.686,0-86.617c14.964,0,29.276-0.221,43.577,0.102
  			c6.272,0.141,12.693,0.711,18.745,2.264c16.982,4.355,25.741,17.025,24.566,34.439c-0.894,13.243-7.428,21.372-23.019,28.047
  			c9.651,15.876,19.254,31.67,29.188,48.008c-11.154,0-21.555,0-32.442,0c-7.978-14.616-16.098-29.491-24.266-44.458
  			c-2.73,0-5.361,0-8.694,0c0,14.771,0,29.474,0,44.458C78.414,156.784,55.506,156.784,32.206,156.784z M101.973,91.753
  			c8.372,0.24,16.34,0.831,24.032-1.814c5.438-1.87,8.124-5.944,7.958-11.331c-0.156-5.046-3.123-8.854-8.621-10.223
  			c-7.635-1.9-15.404-1.269-23.369-1.063C101.973,75.593,101.973,83.368,101.973,91.753z"/>
  		<path fill-rule="evenodd" clip-rule="evenodd" fill="#fff" d="M101.973,91.753c0-8.386,0-16.16,0-24.432
  			c7.965-0.205,15.734-0.837,23.369,1.063c5.498,1.369,8.465,5.177,8.621,10.223c0.166,5.387-2.52,9.461-7.958,11.331
  			C118.313,92.584,110.345,91.994,101.973,91.753z"/>
  	</g>
  </g>
</svg>
